%TF.GenerationSoftware,KiCad,Pcbnew,(6.0.5)*%
%TF.CreationDate,2023-02-15T13:44:25-05:00*%
%TF.ProjectId,valve_distortion,76616c76-655f-4646-9973-746f7274696f,rev?*%
%TF.SameCoordinates,Original*%
%TF.FileFunction,Legend,Bot*%
%TF.FilePolarity,Positive*%
%FSLAX46Y46*%
G04 Gerber Fmt 4.6, Leading zero omitted, Abs format (unit mm)*
G04 Created by KiCad (PCBNEW (6.0.5)) date 2023-02-15 13:44:25*
%MOMM*%
%LPD*%
G01*
G04 APERTURE LIST*
%ADD10C,0.150000*%
%ADD11C,6.350000*%
%ADD12C,3.200000*%
%ADD13C,8.000000*%
%ADD14C,7.000000*%
%ADD15C,5.000000*%
G04 APERTURE END LIST*
D10*
X82837142Y-107642380D02*
X82503809Y-108642380D01*
X82170476Y-107642380D01*
X81408571Y-108642380D02*
X81408571Y-108118571D01*
X81456190Y-108023333D01*
X81551428Y-107975714D01*
X81741904Y-107975714D01*
X81837142Y-108023333D01*
X81408571Y-108594761D02*
X81503809Y-108642380D01*
X81741904Y-108642380D01*
X81837142Y-108594761D01*
X81884761Y-108499523D01*
X81884761Y-108404285D01*
X81837142Y-108309047D01*
X81741904Y-108261428D01*
X81503809Y-108261428D01*
X81408571Y-108213809D01*
X80789523Y-108642380D02*
X80884761Y-108594761D01*
X80932380Y-108499523D01*
X80932380Y-107642380D01*
X80503809Y-107975714D02*
X80265714Y-108642380D01*
X80027619Y-107975714D01*
X79265714Y-108594761D02*
X79360952Y-108642380D01*
X79551428Y-108642380D01*
X79646666Y-108594761D01*
X79694285Y-108499523D01*
X79694285Y-108118571D01*
X79646666Y-108023333D01*
X79551428Y-107975714D01*
X79360952Y-107975714D01*
X79265714Y-108023333D01*
X79218095Y-108118571D01*
X79218095Y-108213809D01*
X79694285Y-108309047D01*
X78027619Y-108642380D02*
X78027619Y-107642380D01*
X77789523Y-107642380D01*
X77646666Y-107690000D01*
X77551428Y-107785238D01*
X77503809Y-107880476D01*
X77456190Y-108070952D01*
X77456190Y-108213809D01*
X77503809Y-108404285D01*
X77551428Y-108499523D01*
X77646666Y-108594761D01*
X77789523Y-108642380D01*
X78027619Y-108642380D01*
X77027619Y-108642380D02*
X77027619Y-107975714D01*
X77027619Y-107642380D02*
X77075238Y-107690000D01*
X77027619Y-107737619D01*
X76980000Y-107690000D01*
X77027619Y-107642380D01*
X77027619Y-107737619D01*
X76599047Y-108594761D02*
X76503809Y-108642380D01*
X76313333Y-108642380D01*
X76218095Y-108594761D01*
X76170476Y-108499523D01*
X76170476Y-108451904D01*
X76218095Y-108356666D01*
X76313333Y-108309047D01*
X76456190Y-108309047D01*
X76551428Y-108261428D01*
X76599047Y-108166190D01*
X76599047Y-108118571D01*
X76551428Y-108023333D01*
X76456190Y-107975714D01*
X76313333Y-107975714D01*
X76218095Y-108023333D01*
X75884761Y-107975714D02*
X75503809Y-107975714D01*
X75741904Y-107642380D02*
X75741904Y-108499523D01*
X75694285Y-108594761D01*
X75599047Y-108642380D01*
X75503809Y-108642380D01*
X75027619Y-108642380D02*
X75122857Y-108594761D01*
X75170476Y-108547142D01*
X75218095Y-108451904D01*
X75218095Y-108166190D01*
X75170476Y-108070952D01*
X75122857Y-108023333D01*
X75027619Y-107975714D01*
X74884761Y-107975714D01*
X74789523Y-108023333D01*
X74741904Y-108070952D01*
X74694285Y-108166190D01*
X74694285Y-108451904D01*
X74741904Y-108547142D01*
X74789523Y-108594761D01*
X74884761Y-108642380D01*
X75027619Y-108642380D01*
X74265714Y-108642380D02*
X74265714Y-107975714D01*
X74265714Y-108166190D02*
X74218095Y-108070952D01*
X74170476Y-108023333D01*
X74075238Y-107975714D01*
X73980000Y-107975714D01*
X73789523Y-107975714D02*
X73408571Y-107975714D01*
X73646666Y-107642380D02*
X73646666Y-108499523D01*
X73599047Y-108594761D01*
X73503809Y-108642380D01*
X73408571Y-108642380D01*
X73075238Y-108642380D02*
X73075238Y-107975714D01*
X73075238Y-107642380D02*
X73122857Y-107690000D01*
X73075238Y-107737619D01*
X73027619Y-107690000D01*
X73075238Y-107642380D01*
X73075238Y-107737619D01*
X72456190Y-108642380D02*
X72551428Y-108594761D01*
X72599047Y-108547142D01*
X72646666Y-108451904D01*
X72646666Y-108166190D01*
X72599047Y-108070952D01*
X72551428Y-108023333D01*
X72456190Y-107975714D01*
X72313333Y-107975714D01*
X72218095Y-108023333D01*
X72170476Y-108070952D01*
X72122857Y-108166190D01*
X72122857Y-108451904D01*
X72170476Y-108547142D01*
X72218095Y-108594761D01*
X72313333Y-108642380D01*
X72456190Y-108642380D01*
X71694285Y-107975714D02*
X71694285Y-108642380D01*
X71694285Y-108070952D02*
X71646666Y-108023333D01*
X71551428Y-107975714D01*
X71408571Y-107975714D01*
X71313333Y-108023333D01*
X71265714Y-108118571D01*
X71265714Y-108642380D01*
X88956190Y-110252380D02*
X88956190Y-109252380D01*
X88622857Y-109966666D01*
X88289523Y-109252380D01*
X88289523Y-110252380D01*
X87384761Y-110252380D02*
X87384761Y-109728571D01*
X87432380Y-109633333D01*
X87527619Y-109585714D01*
X87718095Y-109585714D01*
X87813333Y-109633333D01*
X87384761Y-110204761D02*
X87480000Y-110252380D01*
X87718095Y-110252380D01*
X87813333Y-110204761D01*
X87860952Y-110109523D01*
X87860952Y-110014285D01*
X87813333Y-109919047D01*
X87718095Y-109871428D01*
X87480000Y-109871428D01*
X87384761Y-109823809D01*
X87003809Y-110252380D02*
X86480000Y-109585714D01*
X87003809Y-109585714D02*
X86480000Y-110252380D01*
X85337142Y-110252380D02*
X85337142Y-109252380D01*
X84956190Y-109252380D01*
X84860952Y-109300000D01*
X84813333Y-109347619D01*
X84765714Y-109442857D01*
X84765714Y-109585714D01*
X84813333Y-109680952D01*
X84860952Y-109728571D01*
X84956190Y-109776190D01*
X85337142Y-109776190D01*
X84337142Y-110252380D02*
X84337142Y-109585714D01*
X84337142Y-109776190D02*
X84289523Y-109680952D01*
X84241904Y-109633333D01*
X84146666Y-109585714D01*
X84051428Y-109585714D01*
X83575238Y-110252380D02*
X83670476Y-110204761D01*
X83718095Y-110157142D01*
X83765714Y-110061904D01*
X83765714Y-109776190D01*
X83718095Y-109680952D01*
X83670476Y-109633333D01*
X83575238Y-109585714D01*
X83432380Y-109585714D01*
X83337142Y-109633333D01*
X83289523Y-109680952D01*
X83241904Y-109776190D01*
X83241904Y-110061904D01*
X83289523Y-110157142D01*
X83337142Y-110204761D01*
X83432380Y-110252380D01*
X83575238Y-110252380D01*
X82860952Y-110204761D02*
X82765714Y-110252380D01*
X82575238Y-110252380D01*
X82480000Y-110204761D01*
X82432380Y-110109523D01*
X82432380Y-110061904D01*
X82480000Y-109966666D01*
X82575238Y-109919047D01*
X82718095Y-109919047D01*
X82813333Y-109871428D01*
X82860952Y-109776190D01*
X82860952Y-109728571D01*
X82813333Y-109633333D01*
X82718095Y-109585714D01*
X82575238Y-109585714D01*
X82480000Y-109633333D01*
X82003809Y-110252380D02*
X82003809Y-109252380D01*
X81908571Y-109871428D02*
X81622857Y-110252380D01*
X81622857Y-109585714D02*
X82003809Y-109966666D01*
X80765714Y-110252380D02*
X80765714Y-109728571D01*
X80813333Y-109633333D01*
X80908571Y-109585714D01*
X81099047Y-109585714D01*
X81194285Y-109633333D01*
X80765714Y-110204761D02*
X80860952Y-110252380D01*
X81099047Y-110252380D01*
X81194285Y-110204761D01*
X81241904Y-110109523D01*
X81241904Y-110014285D01*
X81194285Y-109919047D01*
X81099047Y-109871428D01*
X80860952Y-109871428D01*
X80765714Y-109823809D01*
X79860952Y-109585714D02*
X79860952Y-110252380D01*
X80289523Y-109585714D02*
X80289523Y-110109523D01*
X80241904Y-110204761D01*
X80146666Y-110252380D01*
X80003809Y-110252380D01*
X79908571Y-110204761D01*
X79860952Y-110157142D01*
X79003809Y-110204761D02*
X79099047Y-110252380D01*
X79289523Y-110252380D01*
X79384761Y-110204761D01*
X79432380Y-110109523D01*
X79432380Y-109728571D01*
X79384761Y-109633333D01*
X79289523Y-109585714D01*
X79099047Y-109585714D01*
X79003809Y-109633333D01*
X78956190Y-109728571D01*
X78956190Y-109823809D01*
X79432380Y-109919047D01*
X78527619Y-110252380D02*
X78527619Y-109585714D01*
X78527619Y-109776190D02*
X78480000Y-109680952D01*
X78432380Y-109633333D01*
X78337142Y-109585714D01*
X78241904Y-109585714D01*
X76480000Y-109585714D02*
X76241904Y-110252380D01*
X76003809Y-109585714D01*
X75432380Y-109252380D02*
X75337142Y-109252380D01*
X75241904Y-109300000D01*
X75194285Y-109347619D01*
X75146666Y-109442857D01*
X75099047Y-109633333D01*
X75099047Y-109871428D01*
X75146666Y-110061904D01*
X75194285Y-110157142D01*
X75241904Y-110204761D01*
X75337142Y-110252380D01*
X75432380Y-110252380D01*
X75527619Y-110204761D01*
X75575238Y-110157142D01*
X75622857Y-110061904D01*
X75670476Y-109871428D01*
X75670476Y-109633333D01*
X75622857Y-109442857D01*
X75575238Y-109347619D01*
X75527619Y-109300000D01*
X75432380Y-109252380D01*
X74670476Y-110157142D02*
X74622857Y-110204761D01*
X74670476Y-110252380D01*
X74718095Y-110204761D01*
X74670476Y-110157142D01*
X74670476Y-110252380D01*
X74241904Y-109347619D02*
X74194285Y-109300000D01*
X74099047Y-109252380D01*
X73860952Y-109252380D01*
X73765714Y-109300000D01*
X73718095Y-109347619D01*
X73670476Y-109442857D01*
X73670476Y-109538095D01*
X73718095Y-109680952D01*
X74289523Y-110252380D01*
X73670476Y-110252380D01*
X71384761Y-109728571D02*
X71718095Y-109728571D01*
X71718095Y-110252380D02*
X71718095Y-109252380D01*
X71241904Y-109252380D01*
X70480000Y-110204761D02*
X70575238Y-110252380D01*
X70765714Y-110252380D01*
X70860952Y-110204761D01*
X70908571Y-110109523D01*
X70908571Y-109728571D01*
X70860952Y-109633333D01*
X70765714Y-109585714D01*
X70575238Y-109585714D01*
X70480000Y-109633333D01*
X70432380Y-109728571D01*
X70432380Y-109823809D01*
X70908571Y-109919047D01*
X70003809Y-110252380D02*
X70003809Y-109252380D01*
X70003809Y-109633333D02*
X69908571Y-109585714D01*
X69718095Y-109585714D01*
X69622857Y-109633333D01*
X69575238Y-109680952D01*
X69527619Y-109776190D01*
X69527619Y-110061904D01*
X69575238Y-110157142D01*
X69622857Y-110204761D01*
X69718095Y-110252380D01*
X69908571Y-110252380D01*
X70003809Y-110204761D01*
X68384761Y-109347619D02*
X68337142Y-109300000D01*
X68241904Y-109252380D01*
X68003809Y-109252380D01*
X67908571Y-109300000D01*
X67860952Y-109347619D01*
X67813333Y-109442857D01*
X67813333Y-109538095D01*
X67860952Y-109680952D01*
X68432380Y-110252380D01*
X67813333Y-110252380D01*
X67194285Y-109252380D02*
X67099047Y-109252380D01*
X67003809Y-109300000D01*
X66956190Y-109347619D01*
X66908571Y-109442857D01*
X66860952Y-109633333D01*
X66860952Y-109871428D01*
X66908571Y-110061904D01*
X66956190Y-110157142D01*
X67003809Y-110204761D01*
X67099047Y-110252380D01*
X67194285Y-110252380D01*
X67289523Y-110204761D01*
X67337142Y-110157142D01*
X67384761Y-110061904D01*
X67432380Y-109871428D01*
X67432380Y-109633333D01*
X67384761Y-109442857D01*
X67337142Y-109347619D01*
X67289523Y-109300000D01*
X67194285Y-109252380D01*
X66480000Y-109347619D02*
X66432380Y-109300000D01*
X66337142Y-109252380D01*
X66099047Y-109252380D01*
X66003809Y-109300000D01*
X65956190Y-109347619D01*
X65908571Y-109442857D01*
X65908571Y-109538095D01*
X65956190Y-109680952D01*
X66527619Y-110252380D01*
X65908571Y-110252380D01*
X65575238Y-109252380D02*
X64956190Y-109252380D01*
X65289523Y-109633333D01*
X65146666Y-109633333D01*
X65051428Y-109680952D01*
X65003809Y-109728571D01*
X64956190Y-109823809D01*
X64956190Y-110061904D01*
X65003809Y-110157142D01*
X65051428Y-110204761D01*
X65146666Y-110252380D01*
X65432380Y-110252380D01*
X65527619Y-110204761D01*
X65575238Y-110157142D01*
X93622857Y-111862380D02*
X93622857Y-110862380D01*
X93194285Y-111862380D02*
X93194285Y-111338571D01*
X93241904Y-111243333D01*
X93337142Y-111195714D01*
X93480000Y-111195714D01*
X93575238Y-111243333D01*
X93622857Y-111290952D01*
X92860952Y-111195714D02*
X92480000Y-111195714D01*
X92718095Y-110862380D02*
X92718095Y-111719523D01*
X92670476Y-111814761D01*
X92575238Y-111862380D01*
X92480000Y-111862380D01*
X92289523Y-111195714D02*
X91908571Y-111195714D01*
X92146666Y-110862380D02*
X92146666Y-111719523D01*
X92099047Y-111814761D01*
X92003809Y-111862380D01*
X91908571Y-111862380D01*
X91575238Y-111195714D02*
X91575238Y-112195714D01*
X91575238Y-111243333D02*
X91480000Y-111195714D01*
X91289523Y-111195714D01*
X91194285Y-111243333D01*
X91146666Y-111290952D01*
X91099047Y-111386190D01*
X91099047Y-111671904D01*
X91146666Y-111767142D01*
X91194285Y-111814761D01*
X91289523Y-111862380D01*
X91480000Y-111862380D01*
X91575238Y-111814761D01*
X90718095Y-111814761D02*
X90622857Y-111862380D01*
X90432380Y-111862380D01*
X90337142Y-111814761D01*
X90289523Y-111719523D01*
X90289523Y-111671904D01*
X90337142Y-111576666D01*
X90432380Y-111529047D01*
X90575238Y-111529047D01*
X90670476Y-111481428D01*
X90718095Y-111386190D01*
X90718095Y-111338571D01*
X90670476Y-111243333D01*
X90575238Y-111195714D01*
X90432380Y-111195714D01*
X90337142Y-111243333D01*
X89860952Y-111767142D02*
X89813333Y-111814761D01*
X89860952Y-111862380D01*
X89908571Y-111814761D01*
X89860952Y-111767142D01*
X89860952Y-111862380D01*
X89860952Y-111243333D02*
X89813333Y-111290952D01*
X89860952Y-111338571D01*
X89908571Y-111290952D01*
X89860952Y-111243333D01*
X89860952Y-111338571D01*
X88670476Y-110814761D02*
X89527619Y-112100476D01*
X87622857Y-110814761D02*
X88480000Y-112100476D01*
X86860952Y-111195714D02*
X86860952Y-112005238D01*
X86908571Y-112100476D01*
X86956190Y-112148095D01*
X87051428Y-112195714D01*
X87194285Y-112195714D01*
X87289523Y-112148095D01*
X86860952Y-111814761D02*
X86956190Y-111862380D01*
X87146666Y-111862380D01*
X87241904Y-111814761D01*
X87289523Y-111767142D01*
X87337142Y-111671904D01*
X87337142Y-111386190D01*
X87289523Y-111290952D01*
X87241904Y-111243333D01*
X87146666Y-111195714D01*
X86956190Y-111195714D01*
X86860952Y-111243333D01*
X86384761Y-111862380D02*
X86384761Y-111195714D01*
X86384761Y-110862380D02*
X86432380Y-110910000D01*
X86384761Y-110957619D01*
X86337142Y-110910000D01*
X86384761Y-110862380D01*
X86384761Y-110957619D01*
X86051428Y-111195714D02*
X85670476Y-111195714D01*
X85908571Y-110862380D02*
X85908571Y-111719523D01*
X85860952Y-111814761D01*
X85765714Y-111862380D01*
X85670476Y-111862380D01*
X85337142Y-111862380D02*
X85337142Y-110862380D01*
X84908571Y-111862380D02*
X84908571Y-111338571D01*
X84956190Y-111243333D01*
X85051428Y-111195714D01*
X85194285Y-111195714D01*
X85289523Y-111243333D01*
X85337142Y-111290952D01*
X84003809Y-111195714D02*
X84003809Y-111862380D01*
X84432380Y-111195714D02*
X84432380Y-111719523D01*
X84384761Y-111814761D01*
X84289523Y-111862380D01*
X84146666Y-111862380D01*
X84051428Y-111814761D01*
X84003809Y-111767142D01*
X83527619Y-111862380D02*
X83527619Y-110862380D01*
X83527619Y-111243333D02*
X83432380Y-111195714D01*
X83241904Y-111195714D01*
X83146666Y-111243333D01*
X83099047Y-111290952D01*
X83051428Y-111386190D01*
X83051428Y-111671904D01*
X83099047Y-111767142D01*
X83146666Y-111814761D01*
X83241904Y-111862380D01*
X83432380Y-111862380D01*
X83527619Y-111814761D01*
X82622857Y-111767142D02*
X82575238Y-111814761D01*
X82622857Y-111862380D01*
X82670476Y-111814761D01*
X82622857Y-111767142D01*
X82622857Y-111862380D01*
X81718095Y-111814761D02*
X81813333Y-111862380D01*
X82003809Y-111862380D01*
X82099047Y-111814761D01*
X82146666Y-111767142D01*
X82194285Y-111671904D01*
X82194285Y-111386190D01*
X82146666Y-111290952D01*
X82099047Y-111243333D01*
X82003809Y-111195714D01*
X81813333Y-111195714D01*
X81718095Y-111243333D01*
X81146666Y-111862380D02*
X81241904Y-111814761D01*
X81289523Y-111767142D01*
X81337142Y-111671904D01*
X81337142Y-111386190D01*
X81289523Y-111290952D01*
X81241904Y-111243333D01*
X81146666Y-111195714D01*
X81003809Y-111195714D01*
X80908571Y-111243333D01*
X80860952Y-111290952D01*
X80813333Y-111386190D01*
X80813333Y-111671904D01*
X80860952Y-111767142D01*
X80908571Y-111814761D01*
X81003809Y-111862380D01*
X81146666Y-111862380D01*
X80384761Y-111862380D02*
X80384761Y-111195714D01*
X80384761Y-111290952D02*
X80337142Y-111243333D01*
X80241904Y-111195714D01*
X80099047Y-111195714D01*
X80003809Y-111243333D01*
X79956190Y-111338571D01*
X79956190Y-111862380D01*
X79956190Y-111338571D02*
X79908571Y-111243333D01*
X79813333Y-111195714D01*
X79670476Y-111195714D01*
X79575238Y-111243333D01*
X79527619Y-111338571D01*
X79527619Y-111862380D01*
X78337142Y-110814761D02*
X79194285Y-112100476D01*
X78003809Y-111862380D02*
X78003809Y-111195714D01*
X78003809Y-111290952D02*
X77956190Y-111243333D01*
X77860952Y-111195714D01*
X77718095Y-111195714D01*
X77622857Y-111243333D01*
X77575238Y-111338571D01*
X77575238Y-111862380D01*
X77575238Y-111338571D02*
X77527619Y-111243333D01*
X77432380Y-111195714D01*
X77289523Y-111195714D01*
X77194285Y-111243333D01*
X77146666Y-111338571D01*
X77146666Y-111862380D01*
X76670476Y-111195714D02*
X76670476Y-112195714D01*
X76670476Y-111243333D02*
X76575238Y-111195714D01*
X76384761Y-111195714D01*
X76289523Y-111243333D01*
X76241904Y-111290952D01*
X76194285Y-111386190D01*
X76194285Y-111671904D01*
X76241904Y-111767142D01*
X76289523Y-111814761D01*
X76384761Y-111862380D01*
X76575238Y-111862380D01*
X76670476Y-111814761D01*
X75765714Y-111862380D02*
X75765714Y-111195714D01*
X75765714Y-111386190D02*
X75718095Y-111290952D01*
X75670476Y-111243333D01*
X75575238Y-111195714D01*
X75480000Y-111195714D01*
X75003809Y-111862380D02*
X75099047Y-111814761D01*
X75146666Y-111767142D01*
X75194285Y-111671904D01*
X75194285Y-111386190D01*
X75146666Y-111290952D01*
X75099047Y-111243333D01*
X75003809Y-111195714D01*
X74860952Y-111195714D01*
X74765714Y-111243333D01*
X74718095Y-111290952D01*
X74670476Y-111386190D01*
X74670476Y-111671904D01*
X74718095Y-111767142D01*
X74765714Y-111814761D01*
X74860952Y-111862380D01*
X75003809Y-111862380D01*
X74289523Y-111814761D02*
X74194285Y-111862380D01*
X74003809Y-111862380D01*
X73908571Y-111814761D01*
X73860952Y-111719523D01*
X73860952Y-111671904D01*
X73908571Y-111576666D01*
X74003809Y-111529047D01*
X74146666Y-111529047D01*
X74241904Y-111481428D01*
X74289523Y-111386190D01*
X74289523Y-111338571D01*
X74241904Y-111243333D01*
X74146666Y-111195714D01*
X74003809Y-111195714D01*
X73908571Y-111243333D01*
X73432380Y-111862380D02*
X73432380Y-110862380D01*
X73337142Y-111481428D02*
X73051428Y-111862380D01*
X73051428Y-111195714D02*
X73432380Y-111576666D01*
X71908571Y-110814761D02*
X72765714Y-112100476D01*
X71670476Y-111195714D02*
X71432380Y-111862380D01*
X71194285Y-111195714D01*
X70384761Y-111862380D02*
X70384761Y-111338571D01*
X70432380Y-111243333D01*
X70527619Y-111195714D01*
X70718095Y-111195714D01*
X70813333Y-111243333D01*
X70384761Y-111814761D02*
X70480000Y-111862380D01*
X70718095Y-111862380D01*
X70813333Y-111814761D01*
X70860952Y-111719523D01*
X70860952Y-111624285D01*
X70813333Y-111529047D01*
X70718095Y-111481428D01*
X70480000Y-111481428D01*
X70384761Y-111433809D01*
X69765714Y-111862380D02*
X69860952Y-111814761D01*
X69908571Y-111719523D01*
X69908571Y-110862380D01*
X69480000Y-111195714D02*
X69241904Y-111862380D01*
X69003809Y-111195714D01*
X68241904Y-111814761D02*
X68337142Y-111862380D01*
X68527619Y-111862380D01*
X68622857Y-111814761D01*
X68670476Y-111719523D01*
X68670476Y-111338571D01*
X68622857Y-111243333D01*
X68527619Y-111195714D01*
X68337142Y-111195714D01*
X68241904Y-111243333D01*
X68194285Y-111338571D01*
X68194285Y-111433809D01*
X68670476Y-111529047D01*
X68003809Y-111957619D02*
X67241904Y-111957619D01*
X66575238Y-111862380D02*
X66575238Y-110862380D01*
X66575238Y-111814761D02*
X66670476Y-111862380D01*
X66860952Y-111862380D01*
X66956190Y-111814761D01*
X67003809Y-111767142D01*
X67051428Y-111671904D01*
X67051428Y-111386190D01*
X67003809Y-111290952D01*
X66956190Y-111243333D01*
X66860952Y-111195714D01*
X66670476Y-111195714D01*
X66575238Y-111243333D01*
X66099047Y-111862380D02*
X66099047Y-111195714D01*
X66099047Y-110862380D02*
X66146666Y-110910000D01*
X66099047Y-110957619D01*
X66051428Y-110910000D01*
X66099047Y-110862380D01*
X66099047Y-110957619D01*
X65670476Y-111814761D02*
X65575238Y-111862380D01*
X65384761Y-111862380D01*
X65289523Y-111814761D01*
X65241904Y-111719523D01*
X65241904Y-111671904D01*
X65289523Y-111576666D01*
X65384761Y-111529047D01*
X65527619Y-111529047D01*
X65622857Y-111481428D01*
X65670476Y-111386190D01*
X65670476Y-111338571D01*
X65622857Y-111243333D01*
X65527619Y-111195714D01*
X65384761Y-111195714D01*
X65289523Y-111243333D01*
X64956190Y-111195714D02*
X64575238Y-111195714D01*
X64813333Y-110862380D02*
X64813333Y-111719523D01*
X64765714Y-111814761D01*
X64670476Y-111862380D01*
X64575238Y-111862380D01*
X64099047Y-111862380D02*
X64194285Y-111814761D01*
X64241904Y-111767142D01*
X64289523Y-111671904D01*
X64289523Y-111386190D01*
X64241904Y-111290952D01*
X64194285Y-111243333D01*
X64099047Y-111195714D01*
X63956190Y-111195714D01*
X63860952Y-111243333D01*
X63813333Y-111290952D01*
X63765714Y-111386190D01*
X63765714Y-111671904D01*
X63813333Y-111767142D01*
X63860952Y-111814761D01*
X63956190Y-111862380D01*
X64099047Y-111862380D01*
X63337142Y-111862380D02*
X63337142Y-111195714D01*
X63337142Y-111386190D02*
X63289523Y-111290952D01*
X63241904Y-111243333D01*
X63146666Y-111195714D01*
X63051428Y-111195714D01*
X62860952Y-111195714D02*
X62480000Y-111195714D01*
X62718095Y-110862380D02*
X62718095Y-111719523D01*
X62670476Y-111814761D01*
X62575238Y-111862380D01*
X62480000Y-111862380D01*
X62146666Y-111862380D02*
X62146666Y-111195714D01*
X62146666Y-110862380D02*
X62194285Y-110910000D01*
X62146666Y-110957619D01*
X62099047Y-110910000D01*
X62146666Y-110862380D01*
X62146666Y-110957619D01*
X61527619Y-111862380D02*
X61622857Y-111814761D01*
X61670476Y-111767142D01*
X61718095Y-111671904D01*
X61718095Y-111386190D01*
X61670476Y-111290952D01*
X61622857Y-111243333D01*
X61527619Y-111195714D01*
X61384761Y-111195714D01*
X61289523Y-111243333D01*
X61241904Y-111290952D01*
X61194285Y-111386190D01*
X61194285Y-111671904D01*
X61241904Y-111767142D01*
X61289523Y-111814761D01*
X61384761Y-111862380D01*
X61527619Y-111862380D01*
X60765714Y-111195714D02*
X60765714Y-111862380D01*
X60765714Y-111290952D02*
X60718095Y-111243333D01*
X60622857Y-111195714D01*
X60480000Y-111195714D01*
X60384761Y-111243333D01*
X60337142Y-111338571D01*
X60337142Y-111862380D01*
X81599047Y-101632380D02*
X81599047Y-102346666D01*
X81646666Y-102489523D01*
X81741904Y-102584761D01*
X81884761Y-102632380D01*
X81980000Y-102632380D01*
X80646666Y-102632380D02*
X81122857Y-102632380D01*
X81122857Y-101632380D01*
X79741904Y-102537142D02*
X79789523Y-102584761D01*
X79932380Y-102632380D01*
X80027619Y-102632380D01*
X80170476Y-102584761D01*
X80265714Y-102489523D01*
X80313333Y-102394285D01*
X80360952Y-102203809D01*
X80360952Y-102060952D01*
X80313333Y-101870476D01*
X80265714Y-101775238D01*
X80170476Y-101680000D01*
X80027619Y-101632380D01*
X79932380Y-101632380D01*
X79789523Y-101680000D01*
X79741904Y-101727619D01*
X79027619Y-101632380D02*
X79027619Y-102346666D01*
X79075238Y-102489523D01*
X79170476Y-102584761D01*
X79313333Y-102632380D01*
X79408571Y-102632380D01*
X78075238Y-102632380D02*
X78551428Y-102632380D01*
X78551428Y-101632380D01*
X77170476Y-102537142D02*
X77218095Y-102584761D01*
X77360952Y-102632380D01*
X77456190Y-102632380D01*
X77599047Y-102584761D01*
X77694285Y-102489523D01*
X77741904Y-102394285D01*
X77789523Y-102203809D01*
X77789523Y-102060952D01*
X77741904Y-101870476D01*
X77694285Y-101775238D01*
X77599047Y-101680000D01*
X77456190Y-101632380D01*
X77360952Y-101632380D01*
X77218095Y-101680000D01*
X77170476Y-101727619D01*
X76456190Y-101632380D02*
X76456190Y-102346666D01*
X76503809Y-102489523D01*
X76599047Y-102584761D01*
X76741904Y-102632380D01*
X76837142Y-102632380D01*
X75503809Y-102632380D02*
X75980000Y-102632380D01*
X75980000Y-101632380D01*
X74599047Y-102537142D02*
X74646666Y-102584761D01*
X74789523Y-102632380D01*
X74884761Y-102632380D01*
X75027619Y-102584761D01*
X75122857Y-102489523D01*
X75170476Y-102394285D01*
X75218095Y-102203809D01*
X75218095Y-102060952D01*
X75170476Y-101870476D01*
X75122857Y-101775238D01*
X75027619Y-101680000D01*
X74884761Y-101632380D01*
X74789523Y-101632380D01*
X74646666Y-101680000D01*
X74599047Y-101727619D01*
X73884761Y-101632380D02*
X73884761Y-102346666D01*
X73932380Y-102489523D01*
X74027619Y-102584761D01*
X74170476Y-102632380D01*
X74265714Y-102632380D01*
X72932380Y-102632380D02*
X73408571Y-102632380D01*
X73408571Y-101632380D01*
X72027619Y-102537142D02*
X72075238Y-102584761D01*
X72218095Y-102632380D01*
X72313333Y-102632380D01*
X72456190Y-102584761D01*
X72551428Y-102489523D01*
X72599047Y-102394285D01*
X72646666Y-102203809D01*
X72646666Y-102060952D01*
X72599047Y-101870476D01*
X72551428Y-101775238D01*
X72456190Y-101680000D01*
X72313333Y-101632380D01*
X72218095Y-101632380D01*
X72075238Y-101680000D01*
X72027619Y-101727619D01*
%LPC*%
D11*
%TO.C,H6*%
X64280000Y-89480000D03*
%TD*%
D12*
%TO.C,H3*%
X59080000Y-41680000D03*
%TD*%
D13*
%TO.C,H12*%
X70630000Y-150440000D03*
%TD*%
D14*
%TO.C,H9*%
X76980000Y-119960000D03*
%TD*%
D15*
%TO.C,H8*%
X76980000Y-89480000D03*
%TD*%
D12*
%TO.C,H5*%
X94640000Y-164180000D03*
%TD*%
D13*
%TO.C,H11*%
X57930000Y-150440000D03*
%TD*%
D11*
%TO.C,H7*%
X89680000Y-89480000D03*
%TD*%
D12*
%TO.C,H4*%
X94640000Y-41680000D03*
%TD*%
D14*
%TO.C,H10*%
X89680000Y-150440000D03*
%TD*%
D12*
%TO.C,H2*%
X59080000Y-164180000D03*
%TD*%
M02*
