%TF.GenerationSoftware,KiCad,Pcbnew,(6.0.5)*%
%TF.CreationDate,2023-02-15T13:44:25-05:00*%
%TF.ProjectId,valve_distortion,76616c76-655f-4646-9973-746f7274696f,rev?*%
%TF.SameCoordinates,Original*%
%TF.FileFunction,Soldermask,Top*%
%TF.FilePolarity,Negative*%
%FSLAX46Y46*%
G04 Gerber Fmt 4.6, Leading zero omitted, Abs format (unit mm)*
G04 Created by KiCad (PCBNEW (6.0.5)) date 2023-02-15 13:44:25*
%MOMM*%
%LPD*%
G01*
G04 APERTURE LIST*
%ADD10C,0.300000*%
%ADD11C,6.350000*%
%ADD12C,3.200000*%
%ADD13C,8.000000*%
%ADD14C,7.000000*%
%ADD15C,5.000000*%
G04 APERTURE END LIST*
D10*
X63551428Y-40124761D02*
X64218095Y-42124761D01*
X64884761Y-40124761D01*
X65456190Y-41553333D02*
X66408571Y-41553333D01*
X65265714Y-42124761D02*
X65932380Y-40124761D01*
X66599047Y-42124761D01*
X68218095Y-42124761D02*
X67265714Y-42124761D01*
X67265714Y-40124761D01*
X68599047Y-40124761D02*
X69265714Y-42124761D01*
X69932380Y-40124761D01*
X70599047Y-41077142D02*
X71265714Y-41077142D01*
X71551428Y-42124761D02*
X70599047Y-42124761D01*
X70599047Y-40124761D01*
X71551428Y-40124761D01*
X73932380Y-42124761D02*
X73932380Y-40124761D01*
X74408571Y-40124761D01*
X74694285Y-40220000D01*
X74884761Y-40410476D01*
X74980000Y-40600952D01*
X75075238Y-40981904D01*
X75075238Y-41267619D01*
X74980000Y-41648571D01*
X74884761Y-41839047D01*
X74694285Y-42029523D01*
X74408571Y-42124761D01*
X73932380Y-42124761D01*
X75932380Y-42124761D02*
X75932380Y-40124761D01*
X76789523Y-42029523D02*
X77075238Y-42124761D01*
X77551428Y-42124761D01*
X77741904Y-42029523D01*
X77837142Y-41934285D01*
X77932380Y-41743809D01*
X77932380Y-41553333D01*
X77837142Y-41362857D01*
X77741904Y-41267619D01*
X77551428Y-41172380D01*
X77170476Y-41077142D01*
X76980000Y-40981904D01*
X76884761Y-40886666D01*
X76789523Y-40696190D01*
X76789523Y-40505714D01*
X76884761Y-40315238D01*
X76980000Y-40220000D01*
X77170476Y-40124761D01*
X77646666Y-40124761D01*
X77932380Y-40220000D01*
X78503809Y-40124761D02*
X79646666Y-40124761D01*
X79075238Y-42124761D02*
X79075238Y-40124761D01*
X80694285Y-40124761D02*
X81075238Y-40124761D01*
X81265714Y-40220000D01*
X81456190Y-40410476D01*
X81551428Y-40791428D01*
X81551428Y-41458095D01*
X81456190Y-41839047D01*
X81265714Y-42029523D01*
X81075238Y-42124761D01*
X80694285Y-42124761D01*
X80503809Y-42029523D01*
X80313333Y-41839047D01*
X80218095Y-41458095D01*
X80218095Y-40791428D01*
X80313333Y-40410476D01*
X80503809Y-40220000D01*
X80694285Y-40124761D01*
X83551428Y-42124761D02*
X82884761Y-41172380D01*
X82408571Y-42124761D02*
X82408571Y-40124761D01*
X83170476Y-40124761D01*
X83360952Y-40220000D01*
X83456190Y-40315238D01*
X83551428Y-40505714D01*
X83551428Y-40791428D01*
X83456190Y-40981904D01*
X83360952Y-41077142D01*
X83170476Y-41172380D01*
X82408571Y-41172380D01*
X84122857Y-40124761D02*
X85265714Y-40124761D01*
X84694285Y-42124761D02*
X84694285Y-40124761D01*
X85932380Y-42124761D02*
X85932380Y-40124761D01*
X87265714Y-40124761D02*
X87646666Y-40124761D01*
X87837142Y-40220000D01*
X88027619Y-40410476D01*
X88122857Y-40791428D01*
X88122857Y-41458095D01*
X88027619Y-41839047D01*
X87837142Y-42029523D01*
X87646666Y-42124761D01*
X87265714Y-42124761D01*
X87075238Y-42029523D01*
X86884761Y-41839047D01*
X86789523Y-41458095D01*
X86789523Y-40791428D01*
X86884761Y-40410476D01*
X87075238Y-40220000D01*
X87265714Y-40124761D01*
X88980000Y-42124761D02*
X88980000Y-40124761D01*
X90122857Y-42124761D01*
X90122857Y-40124761D01*
X67122857Y-165314761D02*
X68170476Y-163981428D01*
X67122857Y-163981428D02*
X68170476Y-165314761D01*
X68932380Y-163981428D02*
X68932380Y-165981428D01*
X68932380Y-164076666D02*
X69122857Y-163981428D01*
X69503809Y-163981428D01*
X69694285Y-164076666D01*
X69789523Y-164171904D01*
X69884761Y-164362380D01*
X69884761Y-164933809D01*
X69789523Y-165124285D01*
X69694285Y-165219523D01*
X69503809Y-165314761D01*
X69122857Y-165314761D01*
X68932380Y-165219523D01*
X71503809Y-165219523D02*
X71313333Y-165314761D01*
X70932380Y-165314761D01*
X70741904Y-165219523D01*
X70646666Y-165029047D01*
X70646666Y-164267142D01*
X70741904Y-164076666D01*
X70932380Y-163981428D01*
X71313333Y-163981428D01*
X71503809Y-164076666D01*
X71599047Y-164267142D01*
X71599047Y-164457619D01*
X70646666Y-164648095D01*
X72456190Y-165314761D02*
X72456190Y-163981428D01*
X72456190Y-164362380D02*
X72551428Y-164171904D01*
X72646666Y-164076666D01*
X72837142Y-163981428D01*
X73027619Y-163981428D01*
X73599047Y-165219523D02*
X73789523Y-165314761D01*
X74170476Y-165314761D01*
X74360952Y-165219523D01*
X74456190Y-165029047D01*
X74456190Y-164933809D01*
X74360952Y-164743333D01*
X74170476Y-164648095D01*
X73884761Y-164648095D01*
X73694285Y-164552857D01*
X73599047Y-164362380D01*
X73599047Y-164267142D01*
X73694285Y-164076666D01*
X73884761Y-163981428D01*
X74170476Y-163981428D01*
X74360952Y-164076666D01*
X76075238Y-165219523D02*
X75884761Y-165314761D01*
X75503809Y-165314761D01*
X75313333Y-165219523D01*
X75218095Y-165029047D01*
X75218095Y-164267142D01*
X75313333Y-164076666D01*
X75503809Y-163981428D01*
X75884761Y-163981428D01*
X76075238Y-164076666D01*
X76170476Y-164267142D01*
X76170476Y-164457619D01*
X75218095Y-164648095D01*
X77884761Y-165314761D02*
X77884761Y-164267142D01*
X77789523Y-164076666D01*
X77599047Y-163981428D01*
X77218095Y-163981428D01*
X77027619Y-164076666D01*
X77884761Y-165219523D02*
X77694285Y-165314761D01*
X77218095Y-165314761D01*
X77027619Y-165219523D01*
X76932380Y-165029047D01*
X76932380Y-164838571D01*
X77027619Y-164648095D01*
X77218095Y-164552857D01*
X77694285Y-164552857D01*
X77884761Y-164457619D01*
X78837142Y-165314761D02*
X78837142Y-163981428D01*
X78837142Y-163314761D02*
X78741904Y-163410000D01*
X78837142Y-163505238D01*
X78932380Y-163410000D01*
X78837142Y-163314761D01*
X78837142Y-163505238D01*
X81599047Y-165314761D02*
X81408571Y-165219523D01*
X81313333Y-165029047D01*
X81313333Y-163314761D01*
X83218095Y-165314761D02*
X83218095Y-164267142D01*
X83122857Y-164076666D01*
X82932380Y-163981428D01*
X82551428Y-163981428D01*
X82360952Y-164076666D01*
X83218095Y-165219523D02*
X83027619Y-165314761D01*
X82551428Y-165314761D01*
X82360952Y-165219523D01*
X82265714Y-165029047D01*
X82265714Y-164838571D01*
X82360952Y-164648095D01*
X82551428Y-164552857D01*
X83027619Y-164552857D01*
X83218095Y-164457619D01*
X84170476Y-165314761D02*
X84170476Y-163314761D01*
X84170476Y-164076666D02*
X84360952Y-163981428D01*
X84741904Y-163981428D01*
X84932380Y-164076666D01*
X85027619Y-164171904D01*
X85122857Y-164362380D01*
X85122857Y-164933809D01*
X85027619Y-165124285D01*
X84932380Y-165219523D01*
X84741904Y-165314761D01*
X84360952Y-165314761D01*
X84170476Y-165219523D01*
X85884761Y-165219523D02*
X86075238Y-165314761D01*
X86456190Y-165314761D01*
X86646666Y-165219523D01*
X86741904Y-165029047D01*
X86741904Y-164933809D01*
X86646666Y-164743333D01*
X86456190Y-164648095D01*
X86170476Y-164648095D01*
X85980000Y-164552857D01*
X85884761Y-164362380D01*
X85884761Y-164267142D01*
X85980000Y-164076666D01*
X86170476Y-163981428D01*
X86456190Y-163981428D01*
X86646666Y-164076666D01*
D11*
%TO.C,H6*%
X64280000Y-89480000D03*
%TD*%
D12*
%TO.C,H3*%
X59080000Y-41680000D03*
%TD*%
D13*
%TO.C,H12*%
X70630000Y-150440000D03*
%TD*%
D14*
%TO.C,H9*%
X76980000Y-119960000D03*
%TD*%
D15*
%TO.C,H8*%
X76980000Y-89480000D03*
%TD*%
D12*
%TO.C,H5*%
X94640000Y-164180000D03*
%TD*%
D13*
%TO.C,H11*%
X57930000Y-150440000D03*
%TD*%
D11*
%TO.C,H7*%
X89680000Y-89480000D03*
%TD*%
D12*
%TO.C,H4*%
X94640000Y-41680000D03*
%TD*%
D14*
%TO.C,H10*%
X89680000Y-150440000D03*
%TD*%
D12*
%TO.C,H2*%
X59080000Y-164180000D03*
%TD*%
M02*
