%TF.GenerationSoftware,KiCad,Pcbnew,(6.0.5)*%
%TF.CreationDate,2023-02-15T13:44:25-05:00*%
%TF.ProjectId,valve_distortion,76616c76-655f-4646-9973-746f7274696f,rev?*%
%TF.SameCoordinates,Original*%
%TF.FileFunction,Copper,L1,Top*%
%TF.FilePolarity,Positive*%
%FSLAX46Y46*%
G04 Gerber Fmt 4.6, Leading zero omitted, Abs format (unit mm)*
G04 Created by KiCad (PCBNEW (6.0.5)) date 2023-02-15 13:44:25*
%MOMM*%
%LPD*%
G01*
G04 APERTURE LIST*
%TA.AperFunction,ComponentPad*%
%ADD10C,8.000000*%
%TD*%
G04 APERTURE END LIST*
D10*
%TO.P,H12,1*%
%TO.N,N/C*%
X70630000Y-150440000D03*
%TD*%
%TO.P,H11,1*%
%TO.N,N/C*%
X57930000Y-150440000D03*
%TD*%
%TA.AperFunction,NonConductor*%
G36*
X101813621Y-39208502D02*
G01*
X101860114Y-39262158D01*
X101871500Y-39314500D01*
X101871500Y-166545500D01*
X101851498Y-166613621D01*
X101797842Y-166660114D01*
X101745500Y-166671500D01*
X52214500Y-166671500D01*
X52146379Y-166651498D01*
X52099886Y-166597842D01*
X52088500Y-166545500D01*
X52088500Y-164312703D01*
X56970743Y-164312703D01*
X57008268Y-164597734D01*
X57084129Y-164875036D01*
X57196923Y-165139476D01*
X57344561Y-165386161D01*
X57524313Y-165610528D01*
X57732851Y-165808423D01*
X57966317Y-165976186D01*
X57970112Y-165978195D01*
X57970113Y-165978196D01*
X57991869Y-165989715D01*
X58220392Y-166110712D01*
X58490373Y-166209511D01*
X58771264Y-166270755D01*
X58799841Y-166273004D01*
X58994282Y-166288307D01*
X58994291Y-166288307D01*
X58996739Y-166288500D01*
X59152271Y-166288500D01*
X59154407Y-166288354D01*
X59154418Y-166288354D01*
X59362548Y-166274165D01*
X59362554Y-166274164D01*
X59366825Y-166273873D01*
X59371020Y-166273004D01*
X59371022Y-166273004D01*
X59507583Y-166244724D01*
X59648342Y-166215574D01*
X59919343Y-166119607D01*
X60174812Y-165987750D01*
X60178313Y-165985289D01*
X60178317Y-165985287D01*
X60292418Y-165905095D01*
X60410023Y-165822441D01*
X60620622Y-165626740D01*
X60802713Y-165404268D01*
X60952927Y-165159142D01*
X61068483Y-164895898D01*
X61147244Y-164619406D01*
X61187751Y-164334784D01*
X61187845Y-164316951D01*
X61187867Y-164312703D01*
X92530743Y-164312703D01*
X92568268Y-164597734D01*
X92644129Y-164875036D01*
X92756923Y-165139476D01*
X92904561Y-165386161D01*
X93084313Y-165610528D01*
X93292851Y-165808423D01*
X93526317Y-165976186D01*
X93530112Y-165978195D01*
X93530113Y-165978196D01*
X93551869Y-165989715D01*
X93780392Y-166110712D01*
X94050373Y-166209511D01*
X94331264Y-166270755D01*
X94359841Y-166273004D01*
X94554282Y-166288307D01*
X94554291Y-166288307D01*
X94556739Y-166288500D01*
X94712271Y-166288500D01*
X94714407Y-166288354D01*
X94714418Y-166288354D01*
X94922548Y-166274165D01*
X94922554Y-166274164D01*
X94926825Y-166273873D01*
X94931020Y-166273004D01*
X94931022Y-166273004D01*
X95067583Y-166244724D01*
X95208342Y-166215574D01*
X95479343Y-166119607D01*
X95734812Y-165987750D01*
X95738313Y-165985289D01*
X95738317Y-165985287D01*
X95852418Y-165905095D01*
X95970023Y-165822441D01*
X96180622Y-165626740D01*
X96362713Y-165404268D01*
X96512927Y-165159142D01*
X96628483Y-164895898D01*
X96707244Y-164619406D01*
X96747751Y-164334784D01*
X96747845Y-164316951D01*
X96749235Y-164051583D01*
X96749235Y-164051576D01*
X96749257Y-164047297D01*
X96711732Y-163762266D01*
X96635871Y-163484964D01*
X96523077Y-163220524D01*
X96375439Y-162973839D01*
X96195687Y-162749472D01*
X95987149Y-162551577D01*
X95753683Y-162383814D01*
X95731843Y-162372250D01*
X95708654Y-162359972D01*
X95499608Y-162249288D01*
X95229627Y-162150489D01*
X94948736Y-162089245D01*
X94917685Y-162086801D01*
X94725718Y-162071693D01*
X94725709Y-162071693D01*
X94723261Y-162071500D01*
X94567729Y-162071500D01*
X94565593Y-162071646D01*
X94565582Y-162071646D01*
X94357452Y-162085835D01*
X94357446Y-162085836D01*
X94353175Y-162086127D01*
X94348980Y-162086996D01*
X94348978Y-162086996D01*
X94212416Y-162115277D01*
X94071658Y-162144426D01*
X93800657Y-162240393D01*
X93545188Y-162372250D01*
X93541687Y-162374711D01*
X93541683Y-162374713D01*
X93531594Y-162381804D01*
X93309977Y-162537559D01*
X93099378Y-162733260D01*
X92917287Y-162955732D01*
X92767073Y-163200858D01*
X92651517Y-163464102D01*
X92572756Y-163740594D01*
X92532249Y-164025216D01*
X92532227Y-164029505D01*
X92532226Y-164029512D01*
X92530765Y-164308417D01*
X92530743Y-164312703D01*
X61187867Y-164312703D01*
X61189235Y-164051583D01*
X61189235Y-164051576D01*
X61189257Y-164047297D01*
X61151732Y-163762266D01*
X61075871Y-163484964D01*
X60963077Y-163220524D01*
X60815439Y-162973839D01*
X60635687Y-162749472D01*
X60427149Y-162551577D01*
X60193683Y-162383814D01*
X60171843Y-162372250D01*
X60148654Y-162359972D01*
X59939608Y-162249288D01*
X59669627Y-162150489D01*
X59388736Y-162089245D01*
X59357685Y-162086801D01*
X59165718Y-162071693D01*
X59165709Y-162071693D01*
X59163261Y-162071500D01*
X59007729Y-162071500D01*
X59005593Y-162071646D01*
X59005582Y-162071646D01*
X58797452Y-162085835D01*
X58797446Y-162085836D01*
X58793175Y-162086127D01*
X58788980Y-162086996D01*
X58788978Y-162086996D01*
X58652416Y-162115277D01*
X58511658Y-162144426D01*
X58240657Y-162240393D01*
X57985188Y-162372250D01*
X57981687Y-162374711D01*
X57981683Y-162374713D01*
X57971594Y-162381804D01*
X57749977Y-162537559D01*
X57539378Y-162733260D01*
X57357287Y-162955732D01*
X57207073Y-163200858D01*
X57091517Y-163464102D01*
X57012756Y-163740594D01*
X56972249Y-164025216D01*
X56972227Y-164029505D01*
X56972226Y-164029512D01*
X56970765Y-164308417D01*
X56970743Y-164312703D01*
X52088500Y-164312703D01*
X52088500Y-150597512D01*
X53419433Y-150597512D01*
X53419662Y-150600357D01*
X53419662Y-150600360D01*
X53447465Y-150945910D01*
X53452273Y-151005668D01*
X53521969Y-151409168D01*
X53627949Y-151804691D01*
X53769340Y-152188980D01*
X53770565Y-152191560D01*
X53770568Y-152191567D01*
X53883081Y-152428518D01*
X53944979Y-152558874D01*
X53983020Y-152623198D01*
X54123473Y-152860691D01*
X54153418Y-152911326D01*
X54155080Y-152913630D01*
X54155081Y-152913632D01*
X54180882Y-152949405D01*
X54392944Y-153243436D01*
X54661584Y-153552471D01*
X54957126Y-153835886D01*
X54959344Y-153837656D01*
X54959349Y-153837661D01*
X55117133Y-153963618D01*
X55277139Y-154091349D01*
X55279520Y-154092919D01*
X55569482Y-154284113D01*
X55618989Y-154316757D01*
X55621519Y-154318113D01*
X55621518Y-154318113D01*
X55928340Y-154482630D01*
X55979860Y-154510255D01*
X56356784Y-154670250D01*
X56359522Y-154671129D01*
X56743931Y-154794549D01*
X56743935Y-154794550D01*
X56746657Y-154795424D01*
X56749447Y-154796048D01*
X56749452Y-154796049D01*
X57143477Y-154884125D01*
X57143488Y-154884127D01*
X57146271Y-154884749D01*
X57552335Y-154937487D01*
X57961509Y-154953206D01*
X57964371Y-154953056D01*
X57964372Y-154953056D01*
X58367566Y-154931926D01*
X58367573Y-154931925D01*
X58370422Y-154931776D01*
X58373245Y-154931369D01*
X58373247Y-154931369D01*
X58772889Y-154873780D01*
X58772896Y-154873779D01*
X58775711Y-154873373D01*
X59174038Y-154778478D01*
X59176736Y-154777570D01*
X59176743Y-154777568D01*
X59559414Y-154648785D01*
X59559420Y-154648783D01*
X59562126Y-154647872D01*
X59936779Y-154482630D01*
X60025151Y-154433645D01*
X60233576Y-154318113D01*
X60294914Y-154284113D01*
X60633583Y-154053954D01*
X60643921Y-154045462D01*
X60947779Y-153795870D01*
X60947783Y-153795867D01*
X60949998Y-153794047D01*
X60952036Y-153792038D01*
X60952043Y-153792031D01*
X61120511Y-153625898D01*
X61241555Y-153506533D01*
X61461936Y-153245748D01*
X61504008Y-153195963D01*
X61504013Y-153195957D01*
X61505854Y-153193778D01*
X61740719Y-152858356D01*
X61944217Y-152503027D01*
X62045968Y-152280785D01*
X62113485Y-152133316D01*
X62113488Y-152133307D01*
X62114674Y-152130718D01*
X62250685Y-151744492D01*
X62262653Y-151697194D01*
X62350430Y-151350307D01*
X62350431Y-151350303D01*
X62351133Y-151347528D01*
X62356204Y-151315515D01*
X62414743Y-150945910D01*
X62415189Y-150943095D01*
X62421790Y-150843717D01*
X62438142Y-150597512D01*
X66119433Y-150597512D01*
X66119662Y-150600357D01*
X66119662Y-150600360D01*
X66147465Y-150945910D01*
X66152273Y-151005668D01*
X66221969Y-151409168D01*
X66327949Y-151804691D01*
X66469340Y-152188980D01*
X66470565Y-152191560D01*
X66470568Y-152191567D01*
X66583081Y-152428518D01*
X66644979Y-152558874D01*
X66683020Y-152623198D01*
X66823473Y-152860691D01*
X66853418Y-152911326D01*
X66855080Y-152913630D01*
X66855081Y-152913632D01*
X66880882Y-152949405D01*
X67092944Y-153243436D01*
X67361584Y-153552471D01*
X67657126Y-153835886D01*
X67659344Y-153837656D01*
X67659349Y-153837661D01*
X67817133Y-153963618D01*
X67977139Y-154091349D01*
X67979520Y-154092919D01*
X68269482Y-154284113D01*
X68318989Y-154316757D01*
X68321519Y-154318113D01*
X68321518Y-154318113D01*
X68628340Y-154482630D01*
X68679860Y-154510255D01*
X69056784Y-154670250D01*
X69059522Y-154671129D01*
X69443931Y-154794549D01*
X69443935Y-154794550D01*
X69446657Y-154795424D01*
X69449447Y-154796048D01*
X69449452Y-154796049D01*
X69843477Y-154884125D01*
X69843488Y-154884127D01*
X69846271Y-154884749D01*
X70252335Y-154937487D01*
X70661509Y-154953206D01*
X70664371Y-154953056D01*
X70664372Y-154953056D01*
X71067566Y-154931926D01*
X71067573Y-154931925D01*
X71070422Y-154931776D01*
X71073245Y-154931369D01*
X71073247Y-154931369D01*
X71472889Y-154873780D01*
X71472896Y-154873779D01*
X71475711Y-154873373D01*
X71874038Y-154778478D01*
X71876736Y-154777570D01*
X71876743Y-154777568D01*
X72259414Y-154648785D01*
X72259420Y-154648783D01*
X72262126Y-154647872D01*
X72636779Y-154482630D01*
X72725151Y-154433645D01*
X72933576Y-154318113D01*
X72994914Y-154284113D01*
X73333583Y-154053954D01*
X73343921Y-154045462D01*
X73647779Y-153795870D01*
X73647783Y-153795867D01*
X73649998Y-153794047D01*
X73652036Y-153792038D01*
X73652043Y-153792031D01*
X73820511Y-153625898D01*
X73941555Y-153506533D01*
X74161936Y-153245748D01*
X74204008Y-153195963D01*
X74204013Y-153195957D01*
X74205854Y-153193778D01*
X74440719Y-152858356D01*
X74644217Y-152503027D01*
X74745968Y-152280785D01*
X74813485Y-152133316D01*
X74813488Y-152133307D01*
X74814674Y-152130718D01*
X74950685Y-151744492D01*
X74962653Y-151697194D01*
X75050430Y-151350307D01*
X75050431Y-151350303D01*
X75051133Y-151347528D01*
X75056204Y-151315515D01*
X75114743Y-150945910D01*
X75115189Y-150943095D01*
X75121790Y-150843717D01*
X75142210Y-150536271D01*
X75142210Y-150536260D01*
X75142326Y-150534520D01*
X75142436Y-150524052D01*
X85667391Y-150524052D01*
X85667612Y-150527171D01*
X85667612Y-150527178D01*
X85683735Y-150754895D01*
X85695579Y-150922168D01*
X85763169Y-151315515D01*
X85764001Y-151318524D01*
X85764002Y-151318530D01*
X85772017Y-151347528D01*
X85869491Y-151700205D01*
X85870614Y-151703107D01*
X85870617Y-151703117D01*
X85910949Y-151807368D01*
X86013495Y-152072433D01*
X86014908Y-152075224D01*
X86014911Y-152075231D01*
X86104901Y-152252994D01*
X86193757Y-152428518D01*
X86195436Y-152431148D01*
X86195442Y-152431159D01*
X86321363Y-152628434D01*
X86408494Y-152764939D01*
X86410423Y-152767386D01*
X86410428Y-152767393D01*
X86555769Y-152951756D01*
X86655582Y-153078368D01*
X86657757Y-153080624D01*
X86657762Y-153080630D01*
X86764580Y-153191436D01*
X86932578Y-153365708D01*
X86934971Y-153367741D01*
X87234348Y-153622081D01*
X87234357Y-153622088D01*
X87236743Y-153624115D01*
X87239323Y-153625898D01*
X87562497Y-153849258D01*
X87562506Y-153849263D01*
X87565069Y-153851035D01*
X87567804Y-153852548D01*
X87567809Y-153852551D01*
X87734018Y-153944492D01*
X87914309Y-154044224D01*
X87917178Y-154045457D01*
X87917189Y-154045462D01*
X88278142Y-154200539D01*
X88281010Y-154201771D01*
X88283987Y-154202712D01*
X88283991Y-154202714D01*
X88414707Y-154244054D01*
X88661545Y-154322118D01*
X89052152Y-154404076D01*
X89055269Y-154404412D01*
X89055270Y-154404412D01*
X89446516Y-154446570D01*
X89446519Y-154446570D01*
X89448967Y-154446834D01*
X89451430Y-154446905D01*
X89451431Y-154446905D01*
X89454681Y-154446999D01*
X89506803Y-154448500D01*
X89780217Y-154448500D01*
X89781780Y-154448422D01*
X89781788Y-154448422D01*
X89879009Y-154443582D01*
X90078619Y-154433645D01*
X90081704Y-154433181D01*
X90081706Y-154433181D01*
X90470203Y-154374773D01*
X90473296Y-154374308D01*
X90476332Y-154373537D01*
X90857085Y-154276838D01*
X90857088Y-154276837D01*
X90860128Y-154276065D01*
X90863076Y-154274995D01*
X91232352Y-154140955D01*
X91232362Y-154140951D01*
X91235290Y-154139888D01*
X91595071Y-153967123D01*
X91935915Y-153759479D01*
X92112862Y-153625898D01*
X92251957Y-153520892D01*
X92251960Y-153520890D01*
X92254451Y-153519009D01*
X92256733Y-153516899D01*
X92256742Y-153516892D01*
X92545231Y-153250214D01*
X92547528Y-153248091D01*
X92549740Y-153245596D01*
X92810165Y-152951756D01*
X92812249Y-152949405D01*
X93045995Y-152625903D01*
X93246455Y-152280785D01*
X93288197Y-152188980D01*
X93410349Y-151920321D01*
X93411648Y-151917464D01*
X93449021Y-151807368D01*
X93538931Y-151542499D01*
X93538932Y-151542496D01*
X93539938Y-151539532D01*
X93540642Y-151536494D01*
X93540645Y-151536484D01*
X93629353Y-151153770D01*
X93629353Y-151153768D01*
X93630058Y-151150728D01*
X93681117Y-150754895D01*
X93692609Y-150355948D01*
X93676487Y-150128240D01*
X93664643Y-149960968D01*
X93664421Y-149957832D01*
X93596831Y-149564485D01*
X93490509Y-149179795D01*
X93489386Y-149176893D01*
X93489383Y-149176883D01*
X93347635Y-148810488D01*
X93346505Y-148807567D01*
X93166243Y-148451482D01*
X93164564Y-148448852D01*
X93164558Y-148448841D01*
X92953187Y-148117695D01*
X92951506Y-148115061D01*
X92949577Y-148112614D01*
X92949572Y-148112607D01*
X92706362Y-147804098D01*
X92704418Y-147801632D01*
X92702243Y-147799376D01*
X92702238Y-147799370D01*
X92577717Y-147670200D01*
X92427422Y-147514292D01*
X92424320Y-147511657D01*
X92125652Y-147257919D01*
X92125643Y-147257912D01*
X92123257Y-147255885D01*
X91967269Y-147148075D01*
X91797503Y-147030742D01*
X91797494Y-147030737D01*
X91794931Y-147028965D01*
X91792196Y-147027452D01*
X91792191Y-147027449D01*
X91582618Y-146911520D01*
X91445691Y-146835776D01*
X91442822Y-146834543D01*
X91442811Y-146834538D01*
X91081858Y-146679461D01*
X91081855Y-146679460D01*
X91078990Y-146678229D01*
X91076013Y-146677288D01*
X91076009Y-146677286D01*
X90945293Y-146635946D01*
X90698455Y-146557882D01*
X90307848Y-146475924D01*
X90304730Y-146475588D01*
X89913484Y-146433430D01*
X89913481Y-146433430D01*
X89911033Y-146433166D01*
X89908570Y-146433095D01*
X89908569Y-146433095D01*
X89905319Y-146433001D01*
X89853197Y-146431500D01*
X89579783Y-146431500D01*
X89578220Y-146431578D01*
X89578212Y-146431578D01*
X89480991Y-146436418D01*
X89281381Y-146446355D01*
X89278296Y-146446819D01*
X89278294Y-146446819D01*
X88926720Y-146499676D01*
X88886704Y-146505692D01*
X88883669Y-146506463D01*
X88883668Y-146506463D01*
X88502915Y-146603162D01*
X88502912Y-146603163D01*
X88499872Y-146603935D01*
X88496925Y-146605005D01*
X88496924Y-146605005D01*
X88127648Y-146739045D01*
X88127638Y-146739049D01*
X88124710Y-146740112D01*
X87764929Y-146912877D01*
X87424085Y-147120521D01*
X87382413Y-147151980D01*
X87239640Y-147259763D01*
X87105549Y-147360991D01*
X87103267Y-147363101D01*
X87103258Y-147363108D01*
X87018523Y-147441437D01*
X86812472Y-147631909D01*
X86547751Y-147930595D01*
X86314005Y-148254097D01*
X86113545Y-148599215D01*
X86112255Y-148602052D01*
X86112253Y-148602056D01*
X86017484Y-148810488D01*
X85948352Y-148962536D01*
X85947344Y-148965505D01*
X85947341Y-148965513D01*
X85821069Y-149337501D01*
X85820062Y-149340468D01*
X85819358Y-149343506D01*
X85819355Y-149343516D01*
X85753395Y-149628087D01*
X85729942Y-149729272D01*
X85678883Y-150125105D01*
X85667391Y-150524052D01*
X75142436Y-150524052D01*
X75143316Y-150440000D01*
X75124741Y-150030947D01*
X75069169Y-149625260D01*
X74977057Y-149226280D01*
X74960816Y-149176883D01*
X74850057Y-148840005D01*
X74850054Y-148839998D01*
X74849164Y-148837290D01*
X74686542Y-148461492D01*
X74563436Y-148235701D01*
X74491899Y-148104492D01*
X74491895Y-148104485D01*
X74490529Y-148101980D01*
X74374223Y-147928244D01*
X74264332Y-147764090D01*
X74264324Y-147764079D01*
X74262740Y-147761713D01*
X74005049Y-147443491D01*
X73924822Y-147360991D01*
X73721567Y-147151980D01*
X73721563Y-147151976D01*
X73719577Y-147149934D01*
X73717419Y-147148084D01*
X73717409Y-147148075D01*
X73410849Y-146885321D01*
X73410844Y-146885317D01*
X73408675Y-146883458D01*
X73406344Y-146881801D01*
X73406337Y-146881796D01*
X73206967Y-146740112D01*
X73074900Y-146646257D01*
X72783345Y-146476568D01*
X72723474Y-146441722D01*
X72723469Y-146441719D01*
X72721001Y-146440283D01*
X72486846Y-146331095D01*
X72352487Y-146268442D01*
X72352477Y-146268438D01*
X72349891Y-146267232D01*
X72347194Y-146266261D01*
X71967314Y-146129495D01*
X71967305Y-146129492D01*
X71964624Y-146128527D01*
X71702247Y-146060183D01*
X71571140Y-146026032D01*
X71571134Y-146026031D01*
X71568371Y-146025311D01*
X71164395Y-145958433D01*
X71161552Y-145958224D01*
X71161550Y-145958224D01*
X70758865Y-145928653D01*
X70756019Y-145928444D01*
X70586043Y-145931411D01*
X70349458Y-145935540D01*
X70349453Y-145935540D01*
X70346607Y-145935590D01*
X70343774Y-145935898D01*
X70343770Y-145935898D01*
X70014896Y-145971625D01*
X69939527Y-145979813D01*
X69538130Y-146060749D01*
X69535402Y-146061562D01*
X69535391Y-146061565D01*
X69222867Y-146154733D01*
X69145721Y-146177731D01*
X69143060Y-146178795D01*
X69143058Y-146178796D01*
X68918927Y-146268442D01*
X68765529Y-146329797D01*
X68762982Y-146331095D01*
X68403227Y-146514399D01*
X68403222Y-146514402D01*
X68400684Y-146515695D01*
X68398265Y-146517218D01*
X68398262Y-146517220D01*
X68333692Y-146557882D01*
X68054189Y-146733894D01*
X67728896Y-146982599D01*
X67427483Y-147259763D01*
X67152430Y-147563104D01*
X67150706Y-147565391D01*
X67150705Y-147565393D01*
X67102182Y-147629786D01*
X66906002Y-147890125D01*
X66690227Y-148238135D01*
X66688947Y-148240691D01*
X66688942Y-148240700D01*
X66680879Y-148256802D01*
X66506881Y-148604269D01*
X66505840Y-148606925D01*
X66505837Y-148606932D01*
X66365311Y-148965513D01*
X66357473Y-148985513D01*
X66356681Y-148988240D01*
X66356677Y-148988251D01*
X66286715Y-149229063D01*
X66243233Y-149378729D01*
X66165101Y-149780681D01*
X66123721Y-150188060D01*
X66119433Y-150597512D01*
X62438142Y-150597512D01*
X62442210Y-150536271D01*
X62442210Y-150536260D01*
X62442326Y-150534520D01*
X62443316Y-150440000D01*
X62424741Y-150030947D01*
X62369169Y-149625260D01*
X62277057Y-149226280D01*
X62260816Y-149176883D01*
X62150057Y-148840005D01*
X62150054Y-148839998D01*
X62149164Y-148837290D01*
X61986542Y-148461492D01*
X61863436Y-148235701D01*
X61791899Y-148104492D01*
X61791895Y-148104485D01*
X61790529Y-148101980D01*
X61674223Y-147928244D01*
X61564332Y-147764090D01*
X61564324Y-147764079D01*
X61562740Y-147761713D01*
X61305049Y-147443491D01*
X61224822Y-147360991D01*
X61021567Y-147151980D01*
X61021563Y-147151976D01*
X61019577Y-147149934D01*
X61017419Y-147148084D01*
X61017409Y-147148075D01*
X60710849Y-146885321D01*
X60710844Y-146885317D01*
X60708675Y-146883458D01*
X60706344Y-146881801D01*
X60706337Y-146881796D01*
X60506967Y-146740112D01*
X60374900Y-146646257D01*
X60083345Y-146476568D01*
X60023474Y-146441722D01*
X60023469Y-146441719D01*
X60021001Y-146440283D01*
X59786846Y-146331095D01*
X59652487Y-146268442D01*
X59652477Y-146268438D01*
X59649891Y-146267232D01*
X59647194Y-146266261D01*
X59267314Y-146129495D01*
X59267305Y-146129492D01*
X59264624Y-146128527D01*
X59002247Y-146060183D01*
X58871140Y-146026032D01*
X58871134Y-146026031D01*
X58868371Y-146025311D01*
X58464395Y-145958433D01*
X58461552Y-145958224D01*
X58461550Y-145958224D01*
X58058865Y-145928653D01*
X58056019Y-145928444D01*
X57886043Y-145931411D01*
X57649458Y-145935540D01*
X57649453Y-145935540D01*
X57646607Y-145935590D01*
X57643774Y-145935898D01*
X57643770Y-145935898D01*
X57314896Y-145971625D01*
X57239527Y-145979813D01*
X56838130Y-146060749D01*
X56835402Y-146061562D01*
X56835391Y-146061565D01*
X56522867Y-146154733D01*
X56445721Y-146177731D01*
X56443060Y-146178795D01*
X56443058Y-146178796D01*
X56218927Y-146268442D01*
X56065529Y-146329797D01*
X56062982Y-146331095D01*
X55703227Y-146514399D01*
X55703222Y-146514402D01*
X55700684Y-146515695D01*
X55698265Y-146517218D01*
X55698262Y-146517220D01*
X55633692Y-146557882D01*
X55354189Y-146733894D01*
X55028896Y-146982599D01*
X54727483Y-147259763D01*
X54452430Y-147563104D01*
X54450706Y-147565391D01*
X54450705Y-147565393D01*
X54402182Y-147629786D01*
X54206002Y-147890125D01*
X53990227Y-148238135D01*
X53988947Y-148240691D01*
X53988942Y-148240700D01*
X53980879Y-148256802D01*
X53806881Y-148604269D01*
X53805840Y-148606925D01*
X53805837Y-148606932D01*
X53665311Y-148965513D01*
X53657473Y-148985513D01*
X53656681Y-148988240D01*
X53656677Y-148988251D01*
X53586715Y-149229063D01*
X53543233Y-149378729D01*
X53465101Y-149780681D01*
X53423721Y-150188060D01*
X53419433Y-150597512D01*
X52088500Y-150597512D01*
X52088500Y-120044052D01*
X72967391Y-120044052D01*
X72967612Y-120047171D01*
X72967612Y-120047178D01*
X72983735Y-120274895D01*
X72995579Y-120442168D01*
X73063169Y-120835515D01*
X73169491Y-121220205D01*
X73170614Y-121223107D01*
X73170617Y-121223117D01*
X73252390Y-121434487D01*
X73313495Y-121592433D01*
X73493757Y-121948518D01*
X73495436Y-121951148D01*
X73495442Y-121951159D01*
X73621363Y-122148434D01*
X73708494Y-122284939D01*
X73710423Y-122287386D01*
X73710428Y-122287393D01*
X73855769Y-122471756D01*
X73955582Y-122598368D01*
X73957757Y-122600624D01*
X73957762Y-122600630D01*
X74082283Y-122729800D01*
X74232578Y-122885708D01*
X74234971Y-122887741D01*
X74534348Y-123142081D01*
X74534357Y-123142088D01*
X74536743Y-123144115D01*
X74539323Y-123145898D01*
X74862497Y-123369258D01*
X74862506Y-123369263D01*
X74865069Y-123371035D01*
X74867804Y-123372548D01*
X74867809Y-123372551D01*
X75034018Y-123464492D01*
X75214309Y-123564224D01*
X75217178Y-123565457D01*
X75217189Y-123565462D01*
X75578142Y-123720539D01*
X75581010Y-123721771D01*
X75583987Y-123722712D01*
X75583991Y-123722714D01*
X75714707Y-123764054D01*
X75961545Y-123842118D01*
X76352152Y-123924076D01*
X76355269Y-123924412D01*
X76355270Y-123924412D01*
X76746516Y-123966570D01*
X76746519Y-123966570D01*
X76748967Y-123966834D01*
X76751430Y-123966905D01*
X76751431Y-123966905D01*
X76754681Y-123966999D01*
X76806803Y-123968500D01*
X77080217Y-123968500D01*
X77081780Y-123968422D01*
X77081788Y-123968422D01*
X77179009Y-123963582D01*
X77378619Y-123953645D01*
X77381704Y-123953181D01*
X77381706Y-123953181D01*
X77770203Y-123894773D01*
X77773296Y-123894308D01*
X77776332Y-123893537D01*
X78157085Y-123796838D01*
X78157088Y-123796837D01*
X78160128Y-123796065D01*
X78163076Y-123794995D01*
X78532352Y-123660955D01*
X78532362Y-123660951D01*
X78535290Y-123659888D01*
X78895071Y-123487123D01*
X79235915Y-123279479D01*
X79412862Y-123145898D01*
X79551957Y-123040892D01*
X79551960Y-123040890D01*
X79554451Y-123039009D01*
X79556733Y-123036899D01*
X79556742Y-123036892D01*
X79845231Y-122770214D01*
X79847528Y-122768091D01*
X80112249Y-122469405D01*
X80345995Y-122145903D01*
X80546455Y-121800785D01*
X80641188Y-121592433D01*
X80710349Y-121440321D01*
X80711648Y-121437464D01*
X80786420Y-121217194D01*
X80838931Y-121062499D01*
X80838932Y-121062496D01*
X80839938Y-121059532D01*
X80840642Y-121056494D01*
X80840645Y-121056484D01*
X80929353Y-120673770D01*
X80929353Y-120673768D01*
X80930058Y-120670728D01*
X80981117Y-120274895D01*
X80992609Y-119875948D01*
X80976487Y-119648240D01*
X80964643Y-119480968D01*
X80964421Y-119477832D01*
X80896831Y-119084485D01*
X80790509Y-118699795D01*
X80789386Y-118696893D01*
X80789383Y-118696883D01*
X80647635Y-118330488D01*
X80646505Y-118327567D01*
X80466243Y-117971482D01*
X80464564Y-117968852D01*
X80464558Y-117968841D01*
X80253187Y-117637695D01*
X80251506Y-117635061D01*
X80249577Y-117632614D01*
X80249572Y-117632607D01*
X80006362Y-117324098D01*
X80004418Y-117321632D01*
X80002243Y-117319376D01*
X80002238Y-117319370D01*
X79877717Y-117190200D01*
X79727422Y-117034292D01*
X79546975Y-116880991D01*
X79425652Y-116777919D01*
X79425643Y-116777912D01*
X79423257Y-116775885D01*
X79358504Y-116731131D01*
X79097503Y-116550742D01*
X79097494Y-116550737D01*
X79094931Y-116548965D01*
X79092196Y-116547452D01*
X79092191Y-116547449D01*
X78882618Y-116431520D01*
X78745691Y-116355776D01*
X78742822Y-116354543D01*
X78742811Y-116354538D01*
X78381858Y-116199461D01*
X78381855Y-116199460D01*
X78378990Y-116198229D01*
X78376013Y-116197288D01*
X78376009Y-116197286D01*
X78245293Y-116155946D01*
X77998455Y-116077882D01*
X77607848Y-115995924D01*
X77604730Y-115995588D01*
X77213484Y-115953430D01*
X77213481Y-115953430D01*
X77211033Y-115953166D01*
X77208570Y-115953095D01*
X77208569Y-115953095D01*
X77205319Y-115953001D01*
X77153197Y-115951500D01*
X76879783Y-115951500D01*
X76878220Y-115951578D01*
X76878212Y-115951578D01*
X76780991Y-115956418D01*
X76581381Y-115966355D01*
X76578296Y-115966819D01*
X76578294Y-115966819D01*
X76226720Y-116019676D01*
X76186704Y-116025692D01*
X76183669Y-116026463D01*
X76183668Y-116026463D01*
X75802915Y-116123162D01*
X75802912Y-116123163D01*
X75799872Y-116123935D01*
X75796925Y-116125005D01*
X75796924Y-116125005D01*
X75427648Y-116259045D01*
X75427638Y-116259049D01*
X75424710Y-116260112D01*
X75064929Y-116432877D01*
X74724085Y-116640521D01*
X74721575Y-116642416D01*
X74544777Y-116775885D01*
X74405549Y-116880991D01*
X74403267Y-116883101D01*
X74403258Y-116883108D01*
X74241908Y-117032259D01*
X74112472Y-117151909D01*
X73847751Y-117450595D01*
X73614005Y-117774097D01*
X73413545Y-118119215D01*
X73412255Y-118122052D01*
X73412253Y-118122056D01*
X73317484Y-118330488D01*
X73248352Y-118482536D01*
X73247344Y-118485505D01*
X73247341Y-118485513D01*
X73121069Y-118857501D01*
X73120062Y-118860468D01*
X73119358Y-118863506D01*
X73119355Y-118863516D01*
X73030647Y-119246230D01*
X73029942Y-119249272D01*
X72978883Y-119645105D01*
X72967391Y-120044052D01*
X52088500Y-120044052D01*
X52088500Y-89480000D01*
X60591445Y-89480000D01*
X60611651Y-89865559D01*
X60612164Y-89868799D01*
X60612165Y-89868807D01*
X60639454Y-90041099D01*
X60672049Y-90246894D01*
X60771976Y-90619826D01*
X60910337Y-90980270D01*
X60911835Y-90983210D01*
X61074277Y-91302019D01*
X61085618Y-91324277D01*
X61295896Y-91648078D01*
X61538869Y-91948125D01*
X61811875Y-92221131D01*
X62111922Y-92464104D01*
X62435723Y-92674382D01*
X62438657Y-92675877D01*
X62438664Y-92675881D01*
X62776790Y-92848165D01*
X62779730Y-92849663D01*
X63140174Y-92988024D01*
X63513106Y-93087951D01*
X63715643Y-93120030D01*
X63891193Y-93147835D01*
X63891201Y-93147836D01*
X63894441Y-93148349D01*
X64183543Y-93163500D01*
X64376457Y-93163500D01*
X64665559Y-93148349D01*
X64668799Y-93147836D01*
X64668807Y-93147835D01*
X64844357Y-93120030D01*
X65046894Y-93087951D01*
X65419826Y-92988024D01*
X65780270Y-92849663D01*
X65783210Y-92848165D01*
X66121336Y-92675881D01*
X66121343Y-92675877D01*
X66124277Y-92674382D01*
X66448078Y-92464104D01*
X66748125Y-92221131D01*
X67021131Y-91948125D01*
X67264104Y-91648078D01*
X67472585Y-91327046D01*
X67472586Y-91327044D01*
X67474382Y-91324278D01*
X67475882Y-91321336D01*
X67648165Y-90983210D01*
X67649663Y-90980270D01*
X67788024Y-90619826D01*
X67887951Y-90246894D01*
X67920546Y-90041099D01*
X67947835Y-89868807D01*
X67947836Y-89868799D01*
X67948349Y-89865559D01*
X67961941Y-89606196D01*
X73969044Y-89606196D01*
X73969405Y-89609810D01*
X73969405Y-89609816D01*
X73993694Y-89853157D01*
X74003503Y-89951431D01*
X74077414Y-90290417D01*
X74189797Y-90618661D01*
X74339163Y-90931812D01*
X74523532Y-91225721D01*
X74525804Y-91228557D01*
X74525809Y-91228564D01*
X74604708Y-91327046D01*
X74740459Y-91496491D01*
X74743037Y-91499042D01*
X74890838Y-91645303D01*
X74987071Y-91740534D01*
X74989929Y-91742775D01*
X75254812Y-91950469D01*
X75260098Y-91954614D01*
X75555921Y-92135895D01*
X75559206Y-92137420D01*
X75559210Y-92137422D01*
X75798653Y-92248567D01*
X75870620Y-92281973D01*
X75974926Y-92316469D01*
X76196578Y-92389774D01*
X76196583Y-92389775D01*
X76200023Y-92390913D01*
X76203578Y-92391649D01*
X76203581Y-92391650D01*
X76536214Y-92460535D01*
X76536217Y-92460535D01*
X76539764Y-92461270D01*
X76678221Y-92473627D01*
X76842076Y-92488251D01*
X76842082Y-92488251D01*
X76844869Y-92488500D01*
X77068432Y-92488500D01*
X77070251Y-92488395D01*
X77070255Y-92488395D01*
X77322754Y-92473836D01*
X77322759Y-92473835D01*
X77326374Y-92473627D01*
X77401388Y-92460535D01*
X77664585Y-92414600D01*
X77664592Y-92414598D01*
X77668158Y-92413976D01*
X77671633Y-92412947D01*
X77671640Y-92412945D01*
X77804863Y-92373482D01*
X78000820Y-92315437D01*
X78004159Y-92314013D01*
X78316614Y-92180740D01*
X78316617Y-92180738D01*
X78319952Y-92179316D01*
X78323099Y-92177521D01*
X78323103Y-92177519D01*
X78618184Y-92009208D01*
X78621324Y-92007417D01*
X78705546Y-91945550D01*
X78725265Y-91931065D01*
X78900940Y-91802018D01*
X79155096Y-91565842D01*
X79380422Y-91302019D01*
X79573931Y-91014047D01*
X79733060Y-90705741D01*
X79855698Y-90381189D01*
X79888630Y-90250083D01*
X79939337Y-90048206D01*
X79940220Y-90044692D01*
X79963376Y-89868807D01*
X79985032Y-89704315D01*
X79985033Y-89704307D01*
X79985506Y-89700711D01*
X79988922Y-89483301D01*
X79988974Y-89480000D01*
X85991445Y-89480000D01*
X86011651Y-89865559D01*
X86012164Y-89868799D01*
X86012165Y-89868807D01*
X86039454Y-90041099D01*
X86072049Y-90246894D01*
X86171976Y-90619826D01*
X86310337Y-90980270D01*
X86311835Y-90983210D01*
X86474277Y-91302019D01*
X86485618Y-91324277D01*
X86695896Y-91648078D01*
X86938869Y-91948125D01*
X87211875Y-92221131D01*
X87511922Y-92464104D01*
X87835723Y-92674382D01*
X87838657Y-92675877D01*
X87838664Y-92675881D01*
X88176790Y-92848165D01*
X88179730Y-92849663D01*
X88540174Y-92988024D01*
X88913106Y-93087951D01*
X89115643Y-93120030D01*
X89291193Y-93147835D01*
X89291201Y-93147836D01*
X89294441Y-93148349D01*
X89583543Y-93163500D01*
X89776457Y-93163500D01*
X90065559Y-93148349D01*
X90068799Y-93147836D01*
X90068807Y-93147835D01*
X90244357Y-93120030D01*
X90446894Y-93087951D01*
X90819826Y-92988024D01*
X91180270Y-92849663D01*
X91183210Y-92848165D01*
X91521336Y-92675881D01*
X91521343Y-92675877D01*
X91524277Y-92674382D01*
X91848078Y-92464104D01*
X92148125Y-92221131D01*
X92421131Y-91948125D01*
X92664104Y-91648078D01*
X92872585Y-91327046D01*
X92872586Y-91327044D01*
X92874382Y-91324278D01*
X92875882Y-91321336D01*
X93048165Y-90983210D01*
X93049663Y-90980270D01*
X93188024Y-90619826D01*
X93287951Y-90246894D01*
X93320546Y-90041099D01*
X93347835Y-89868807D01*
X93347836Y-89868799D01*
X93348349Y-89865559D01*
X93368555Y-89480000D01*
X93348349Y-89094441D01*
X93334188Y-89005029D01*
X93288467Y-88716367D01*
X93287951Y-88713106D01*
X93188024Y-88340174D01*
X93049663Y-87979730D01*
X92924599Y-87734279D01*
X92875881Y-87638664D01*
X92875877Y-87638657D01*
X92874382Y-87635723D01*
X92664104Y-87311922D01*
X92421131Y-87011875D01*
X92148125Y-86738869D01*
X91848078Y-86495896D01*
X91524277Y-86285618D01*
X91521343Y-86284123D01*
X91521336Y-86284119D01*
X91183210Y-86111835D01*
X91180270Y-86110337D01*
X90819826Y-85971976D01*
X90446894Y-85872049D01*
X90244357Y-85839970D01*
X90068807Y-85812165D01*
X90068799Y-85812164D01*
X90065559Y-85811651D01*
X89776457Y-85796500D01*
X89583543Y-85796500D01*
X89294441Y-85811651D01*
X89291201Y-85812164D01*
X89291193Y-85812165D01*
X89115643Y-85839970D01*
X88913106Y-85872049D01*
X88540174Y-85971976D01*
X88179730Y-86110337D01*
X88176790Y-86111835D01*
X87838664Y-86284119D01*
X87838657Y-86284123D01*
X87835723Y-86285618D01*
X87511922Y-86495896D01*
X87211875Y-86738869D01*
X86938869Y-87011875D01*
X86695896Y-87311922D01*
X86694094Y-87314697D01*
X86487416Y-87632953D01*
X86487414Y-87632956D01*
X86485618Y-87635722D01*
X86484123Y-87638656D01*
X86484119Y-87638663D01*
X86329078Y-87942949D01*
X86310337Y-87979730D01*
X86171976Y-88340174D01*
X86072049Y-88713106D01*
X86071533Y-88716367D01*
X86025813Y-89005029D01*
X86011651Y-89094441D01*
X85991445Y-89480000D01*
X79988974Y-89480000D01*
X79990899Y-89357446D01*
X79990899Y-89357442D01*
X79990956Y-89353804D01*
X79981163Y-89255685D01*
X79956857Y-89012177D01*
X79956497Y-89008569D01*
X79882586Y-88669583D01*
X79770203Y-88341339D01*
X79620837Y-88028188D01*
X79436468Y-87734279D01*
X79434196Y-87731443D01*
X79434191Y-87731436D01*
X79221813Y-87466345D01*
X79219541Y-87463509D01*
X79096235Y-87341488D01*
X78975507Y-87222017D01*
X78975506Y-87222016D01*
X78972929Y-87219466D01*
X78708178Y-87011875D01*
X78702759Y-87007626D01*
X78702757Y-87007625D01*
X78699902Y-87005386D01*
X78404079Y-86824105D01*
X78400794Y-86822580D01*
X78400790Y-86822578D01*
X78092663Y-86679551D01*
X78089380Y-86678027D01*
X77919112Y-86621716D01*
X77763422Y-86570226D01*
X77763417Y-86570225D01*
X77759977Y-86569087D01*
X77756422Y-86568351D01*
X77756419Y-86568350D01*
X77423786Y-86499465D01*
X77423783Y-86499465D01*
X77420236Y-86498730D01*
X77265947Y-86484960D01*
X77117924Y-86471749D01*
X77117918Y-86471749D01*
X77115131Y-86471500D01*
X76891568Y-86471500D01*
X76889749Y-86471605D01*
X76889745Y-86471605D01*
X76637246Y-86486164D01*
X76637241Y-86486165D01*
X76633626Y-86486373D01*
X76589387Y-86494094D01*
X76295415Y-86545400D01*
X76295408Y-86545402D01*
X76291842Y-86546024D01*
X76288367Y-86547053D01*
X76288360Y-86547055D01*
X76210137Y-86570226D01*
X75959180Y-86644563D01*
X75955844Y-86645986D01*
X75955841Y-86645987D01*
X75643386Y-86779260D01*
X75643383Y-86779262D01*
X75640048Y-86780684D01*
X75636901Y-86782479D01*
X75636897Y-86782481D01*
X75560602Y-86825999D01*
X75338676Y-86952583D01*
X75335764Y-86954722D01*
X75335761Y-86954724D01*
X75234735Y-87028935D01*
X75059060Y-87157982D01*
X74804904Y-87394158D01*
X74579578Y-87657981D01*
X74386069Y-87945953D01*
X74226940Y-88254259D01*
X74104302Y-88578811D01*
X74103418Y-88582332D01*
X74103416Y-88582337D01*
X74069750Y-88716367D01*
X74019780Y-88915308D01*
X74019307Y-88918901D01*
X73995764Y-89097731D01*
X73974494Y-89259289D01*
X73974437Y-89262927D01*
X73971027Y-89480000D01*
X73969044Y-89606196D01*
X67961941Y-89606196D01*
X67968555Y-89480000D01*
X67948349Y-89094441D01*
X67934188Y-89005029D01*
X67888467Y-88716367D01*
X67887951Y-88713106D01*
X67788024Y-88340174D01*
X67649663Y-87979730D01*
X67524599Y-87734279D01*
X67475881Y-87638664D01*
X67475877Y-87638657D01*
X67474382Y-87635723D01*
X67264104Y-87311922D01*
X67021131Y-87011875D01*
X66748125Y-86738869D01*
X66448078Y-86495896D01*
X66124277Y-86285618D01*
X66121343Y-86284123D01*
X66121336Y-86284119D01*
X65783210Y-86111835D01*
X65780270Y-86110337D01*
X65419826Y-85971976D01*
X65046894Y-85872049D01*
X64844357Y-85839970D01*
X64668807Y-85812165D01*
X64668799Y-85812164D01*
X64665559Y-85811651D01*
X64376457Y-85796500D01*
X64183543Y-85796500D01*
X63894441Y-85811651D01*
X63891201Y-85812164D01*
X63891193Y-85812165D01*
X63715643Y-85839970D01*
X63513106Y-85872049D01*
X63140174Y-85971976D01*
X62779730Y-86110337D01*
X62776790Y-86111835D01*
X62438664Y-86284119D01*
X62438657Y-86284123D01*
X62435723Y-86285618D01*
X62111922Y-86495896D01*
X61811875Y-86738869D01*
X61538869Y-87011875D01*
X61295896Y-87311922D01*
X61294094Y-87314697D01*
X61087416Y-87632953D01*
X61087414Y-87632956D01*
X61085618Y-87635722D01*
X61084123Y-87638656D01*
X61084119Y-87638663D01*
X60929078Y-87942949D01*
X60910337Y-87979730D01*
X60771976Y-88340174D01*
X60672049Y-88713106D01*
X60671533Y-88716367D01*
X60625813Y-89005029D01*
X60611651Y-89094441D01*
X60591445Y-89480000D01*
X52088500Y-89480000D01*
X52088500Y-63913245D01*
X65037793Y-63913245D01*
X65040654Y-64118123D01*
X65047105Y-64580136D01*
X65093630Y-65245469D01*
X65177222Y-65907167D01*
X65177541Y-65908903D01*
X65177542Y-65908912D01*
X65267958Y-66401548D01*
X65297620Y-66563166D01*
X65454450Y-67211423D01*
X65454954Y-67213093D01*
X65454958Y-67213107D01*
X65646713Y-67848230D01*
X65646719Y-67848248D01*
X65647222Y-67849914D01*
X65875334Y-68476648D01*
X65876018Y-68478245D01*
X65876024Y-68478259D01*
X66072296Y-68936194D01*
X66138077Y-69089672D01*
X66434629Y-69687073D01*
X66764067Y-70266989D01*
X67125363Y-70827611D01*
X67517391Y-71367190D01*
X67938927Y-71884045D01*
X68388658Y-72376563D01*
X68865180Y-72843208D01*
X68866504Y-72844367D01*
X68866505Y-72844368D01*
X69365682Y-73281365D01*
X69365696Y-73281377D01*
X69367009Y-73282526D01*
X69892578Y-73693145D01*
X70440249Y-74073787D01*
X70828239Y-74312480D01*
X70871147Y-74338877D01*
X71008314Y-74423263D01*
X71009864Y-74424101D01*
X71593466Y-74739654D01*
X71593480Y-74739661D01*
X71595002Y-74740484D01*
X71596583Y-74741228D01*
X71596593Y-74741233D01*
X71833948Y-74852923D01*
X72198483Y-75024460D01*
X72200115Y-75025119D01*
X72200121Y-75025122D01*
X72541363Y-75162993D01*
X72816875Y-75274307D01*
X72818549Y-75274877D01*
X72818552Y-75274878D01*
X73446568Y-75488672D01*
X73446576Y-75488675D01*
X73448249Y-75489244D01*
X73449956Y-75489721D01*
X73449967Y-75489724D01*
X74088928Y-75668125D01*
X74088933Y-75668126D01*
X74090637Y-75668602D01*
X74742035Y-75811821D01*
X75400413Y-75918455D01*
X76063716Y-75988171D01*
X76511518Y-76010072D01*
X76728114Y-76020666D01*
X76728122Y-76020666D01*
X76729877Y-76020752D01*
X76731635Y-76020740D01*
X76731648Y-76020740D01*
X77090737Y-76018232D01*
X77396818Y-76016095D01*
X77398578Y-76015984D01*
X77398586Y-76015984D01*
X78060684Y-75974329D01*
X78060696Y-75974328D01*
X78062459Y-75974217D01*
X78064212Y-75974008D01*
X78722992Y-75895453D01*
X78723008Y-75895451D01*
X78724724Y-75895246D01*
X78726439Y-75894944D01*
X78726443Y-75894943D01*
X79379803Y-75779739D01*
X79379814Y-75779737D01*
X79381548Y-75779431D01*
X79852456Y-75668980D01*
X80029162Y-75627534D01*
X80029173Y-75627531D01*
X80030883Y-75627130D01*
X80670705Y-75438821D01*
X81036930Y-75308414D01*
X81297337Y-75215687D01*
X81297341Y-75215685D01*
X81299016Y-75215089D01*
X81913859Y-74956633D01*
X82513316Y-74664258D01*
X82514857Y-74663396D01*
X82514868Y-74663391D01*
X83093961Y-74339747D01*
X83095518Y-74338877D01*
X83097015Y-74337927D01*
X83097025Y-74337921D01*
X83657162Y-73982446D01*
X83658648Y-73981503D01*
X84200952Y-73593252D01*
X84586063Y-73283615D01*
X84719376Y-73176429D01*
X84719387Y-73176419D01*
X84720736Y-73175335D01*
X85089600Y-72843208D01*
X85215072Y-72730233D01*
X85215081Y-72730224D01*
X85216382Y-72729053D01*
X85686343Y-72255800D01*
X86129153Y-71757051D01*
X86543432Y-71234361D01*
X86927887Y-70689361D01*
X87281321Y-70123749D01*
X87602630Y-69539290D01*
X87858974Y-69004259D01*
X87890058Y-68939382D01*
X87890066Y-68939364D01*
X87890812Y-68937807D01*
X88144970Y-68321174D01*
X88364310Y-67691316D01*
X88473773Y-67309575D01*
X88547660Y-67051898D01*
X88547660Y-67051897D01*
X88548148Y-67050196D01*
X88695911Y-66399813D01*
X88807139Y-65742196D01*
X88881484Y-65079396D01*
X88918714Y-64413478D01*
X88923371Y-64080000D01*
X88913240Y-63717324D01*
X88904797Y-63415050D01*
X88904797Y-63415043D01*
X88904748Y-63413303D01*
X88848939Y-62748685D01*
X88756116Y-62088219D01*
X88626571Y-61433964D01*
X88460705Y-60787961D01*
X88259037Y-60152224D01*
X88198735Y-59993476D01*
X88090136Y-59707588D01*
X88022196Y-59528735D01*
X87750920Y-58919440D01*
X87446056Y-58326237D01*
X87108553Y-57750978D01*
X86739465Y-57195455D01*
X86572725Y-56972569D01*
X86340993Y-56662806D01*
X86340981Y-56662791D01*
X86339942Y-56661402D01*
X86198879Y-56493289D01*
X85912351Y-56151819D01*
X85911230Y-56150483D01*
X85454667Y-55664292D01*
X84971675Y-55204346D01*
X84541574Y-54838301D01*
X84465101Y-54773217D01*
X84465089Y-54773207D01*
X84463762Y-54772078D01*
X83932511Y-54368836D01*
X83379578Y-53995878D01*
X82806689Y-53654368D01*
X82805159Y-53653568D01*
X82805148Y-53653562D01*
X82534773Y-53512214D01*
X82215629Y-53345369D01*
X81608242Y-53069846D01*
X81256610Y-52933457D01*
X80988056Y-52829291D01*
X80988043Y-52829287D01*
X80986423Y-52828658D01*
X80984763Y-52828119D01*
X80984750Y-52828114D01*
X80695962Y-52734282D01*
X80352109Y-52622557D01*
X79707279Y-52452186D01*
X79705537Y-52451829D01*
X79705531Y-52451827D01*
X79055699Y-52318436D01*
X79055697Y-52318436D01*
X79053945Y-52318076D01*
X78571473Y-52246831D01*
X78395905Y-52220905D01*
X78395898Y-52220904D01*
X78394143Y-52220645D01*
X77729930Y-52160197D01*
X77728187Y-52160136D01*
X77728169Y-52160135D01*
X77246048Y-52143299D01*
X77063380Y-52136920D01*
X77061612Y-52136957D01*
X77061607Y-52136957D01*
X76398327Y-52150851D01*
X76398321Y-52150851D01*
X76396569Y-52150888D01*
X75731578Y-52202056D01*
X75729836Y-52202288D01*
X75729821Y-52202290D01*
X75072225Y-52290032D01*
X75072219Y-52290033D01*
X75070480Y-52290265D01*
X74415336Y-52415241D01*
X74413653Y-52415661D01*
X74413633Y-52415665D01*
X74007022Y-52517045D01*
X73768191Y-52576592D01*
X73131061Y-52773817D01*
X73129439Y-52774420D01*
X73129422Y-52774426D01*
X72981895Y-52829291D01*
X72505934Y-53006299D01*
X71894760Y-53273315D01*
X71893195Y-53274105D01*
X71893194Y-53274106D01*
X71301001Y-53573244D01*
X71300987Y-53573252D01*
X71299444Y-53574031D01*
X70721842Y-53907509D01*
X70163756Y-54272710D01*
X69626927Y-54668495D01*
X69625576Y-54669613D01*
X69625573Y-54669615D01*
X69501717Y-54772078D01*
X69113027Y-55093630D01*
X69111743Y-55094819D01*
X69111735Y-55094826D01*
X68795828Y-55387360D01*
X68623661Y-55546788D01*
X68160354Y-56026556D01*
X67724550Y-56531440D01*
X67723479Y-56532831D01*
X67318672Y-57058483D01*
X67318660Y-57058500D01*
X67317610Y-57059863D01*
X67316633Y-57061290D01*
X67316622Y-57061305D01*
X67224768Y-57195455D01*
X66940801Y-57610178D01*
X66939890Y-57611682D01*
X66939885Y-57611690D01*
X66721204Y-57972775D01*
X66595299Y-58180669D01*
X66282182Y-58769557D01*
X66002426Y-59375006D01*
X65756902Y-59995127D01*
X65756344Y-59996806D01*
X65756338Y-59996821D01*
X65664443Y-60273070D01*
X65546378Y-60627986D01*
X65371509Y-61271611D01*
X65371149Y-61273304D01*
X65371146Y-61273317D01*
X65233205Y-61922278D01*
X65233202Y-61922296D01*
X65232841Y-61923993D01*
X65232573Y-61925727D01*
X65232572Y-61925730D01*
X65207151Y-62089943D01*
X65130806Y-62583099D01*
X65065722Y-63246873D01*
X65037793Y-63913245D01*
X52088500Y-63913245D01*
X52088500Y-41812703D01*
X56970743Y-41812703D01*
X57008268Y-42097734D01*
X57084129Y-42375036D01*
X57196923Y-42639476D01*
X57344561Y-42886161D01*
X57524313Y-43110528D01*
X57732851Y-43308423D01*
X57966317Y-43476186D01*
X57970112Y-43478195D01*
X57970113Y-43478196D01*
X57991869Y-43489715D01*
X58220392Y-43610712D01*
X58490373Y-43709511D01*
X58771264Y-43770755D01*
X58799841Y-43773004D01*
X58994282Y-43788307D01*
X58994291Y-43788307D01*
X58996739Y-43788500D01*
X59152271Y-43788500D01*
X59154407Y-43788354D01*
X59154418Y-43788354D01*
X59362548Y-43774165D01*
X59362554Y-43774164D01*
X59366825Y-43773873D01*
X59371020Y-43773004D01*
X59371022Y-43773004D01*
X59507583Y-43744724D01*
X59648342Y-43715574D01*
X59919343Y-43619607D01*
X60174812Y-43487750D01*
X60178313Y-43485289D01*
X60178317Y-43485287D01*
X60292418Y-43405095D01*
X60410023Y-43322441D01*
X60620622Y-43126740D01*
X60802713Y-42904268D01*
X60952927Y-42659142D01*
X61068483Y-42395898D01*
X61147244Y-42119406D01*
X61187751Y-41834784D01*
X61187845Y-41816951D01*
X61187867Y-41812703D01*
X92530743Y-41812703D01*
X92568268Y-42097734D01*
X92644129Y-42375036D01*
X92756923Y-42639476D01*
X92904561Y-42886161D01*
X93084313Y-43110528D01*
X93292851Y-43308423D01*
X93526317Y-43476186D01*
X93530112Y-43478195D01*
X93530113Y-43478196D01*
X93551869Y-43489715D01*
X93780392Y-43610712D01*
X94050373Y-43709511D01*
X94331264Y-43770755D01*
X94359841Y-43773004D01*
X94554282Y-43788307D01*
X94554291Y-43788307D01*
X94556739Y-43788500D01*
X94712271Y-43788500D01*
X94714407Y-43788354D01*
X94714418Y-43788354D01*
X94922548Y-43774165D01*
X94922554Y-43774164D01*
X94926825Y-43773873D01*
X94931020Y-43773004D01*
X94931022Y-43773004D01*
X95067583Y-43744724D01*
X95208342Y-43715574D01*
X95479343Y-43619607D01*
X95734812Y-43487750D01*
X95738313Y-43485289D01*
X95738317Y-43485287D01*
X95852418Y-43405095D01*
X95970023Y-43322441D01*
X96180622Y-43126740D01*
X96362713Y-42904268D01*
X96512927Y-42659142D01*
X96628483Y-42395898D01*
X96707244Y-42119406D01*
X96747751Y-41834784D01*
X96747845Y-41816951D01*
X96749235Y-41551583D01*
X96749235Y-41551576D01*
X96749257Y-41547297D01*
X96711732Y-41262266D01*
X96635871Y-40984964D01*
X96523077Y-40720524D01*
X96375439Y-40473839D01*
X96195687Y-40249472D01*
X95987149Y-40051577D01*
X95753683Y-39883814D01*
X95731843Y-39872250D01*
X95708654Y-39859972D01*
X95499608Y-39749288D01*
X95229627Y-39650489D01*
X94948736Y-39589245D01*
X94917685Y-39586801D01*
X94725718Y-39571693D01*
X94725709Y-39571693D01*
X94723261Y-39571500D01*
X94567729Y-39571500D01*
X94565593Y-39571646D01*
X94565582Y-39571646D01*
X94357452Y-39585835D01*
X94357446Y-39585836D01*
X94353175Y-39586127D01*
X94348980Y-39586996D01*
X94348978Y-39586996D01*
X94212417Y-39615276D01*
X94071658Y-39644426D01*
X93800657Y-39740393D01*
X93545188Y-39872250D01*
X93541687Y-39874711D01*
X93541683Y-39874713D01*
X93531594Y-39881804D01*
X93309977Y-40037559D01*
X93099378Y-40233260D01*
X92917287Y-40455732D01*
X92767073Y-40700858D01*
X92651517Y-40964102D01*
X92572756Y-41240594D01*
X92532249Y-41525216D01*
X92532227Y-41529505D01*
X92532226Y-41529512D01*
X92530765Y-41808417D01*
X92530743Y-41812703D01*
X61187867Y-41812703D01*
X61189235Y-41551583D01*
X61189235Y-41551576D01*
X61189257Y-41547297D01*
X61151732Y-41262266D01*
X61075871Y-40984964D01*
X60963077Y-40720524D01*
X60815439Y-40473839D01*
X60635687Y-40249472D01*
X60427149Y-40051577D01*
X60193683Y-39883814D01*
X60171843Y-39872250D01*
X60148654Y-39859972D01*
X59939608Y-39749288D01*
X59669627Y-39650489D01*
X59388736Y-39589245D01*
X59357685Y-39586801D01*
X59165718Y-39571693D01*
X59165709Y-39571693D01*
X59163261Y-39571500D01*
X59007729Y-39571500D01*
X59005593Y-39571646D01*
X59005582Y-39571646D01*
X58797452Y-39585835D01*
X58797446Y-39585836D01*
X58793175Y-39586127D01*
X58788980Y-39586996D01*
X58788978Y-39586996D01*
X58652417Y-39615276D01*
X58511658Y-39644426D01*
X58240657Y-39740393D01*
X57985188Y-39872250D01*
X57981687Y-39874711D01*
X57981683Y-39874713D01*
X57971594Y-39881804D01*
X57749977Y-40037559D01*
X57539378Y-40233260D01*
X57357287Y-40455732D01*
X57207073Y-40700858D01*
X57091517Y-40964102D01*
X57012756Y-41240594D01*
X56972249Y-41525216D01*
X56972227Y-41529505D01*
X56972226Y-41529512D01*
X56970765Y-41808417D01*
X56970743Y-41812703D01*
X52088500Y-41812703D01*
X52088500Y-39314500D01*
X52108502Y-39246379D01*
X52162158Y-39199886D01*
X52214500Y-39188500D01*
X101745500Y-39188500D01*
X101813621Y-39208502D01*
G37*
%TD.AperFunction*%
M02*
