%TF.GenerationSoftware,KiCad,Pcbnew,(6.0.5)*%
%TF.CreationDate,2023-01-21T13:22:40-05:00*%
%TF.ProjectId,valve_distortion,76616c76-655f-4646-9973-746f7274696f,rev?*%
%TF.SameCoordinates,Original*%
%TF.FileFunction,Legend,Bot*%
%TF.FilePolarity,Positive*%
%FSLAX46Y46*%
G04 Gerber Fmt 4.6, Leading zero omitted, Abs format (unit mm)*
G04 Created by KiCad (PCBNEW (6.0.5)) date 2023-01-21 13:22:40*
%MOMM*%
%LPD*%
G01*
G04 APERTURE LIST*
G04 Aperture macros list*
%AMRoundRect*
0 Rectangle with rounded corners*
0 $1 Rounding radius*
0 $2 $3 $4 $5 $6 $7 $8 $9 X,Y pos of 4 corners*
0 Add a 4 corners polygon primitive as box body*
4,1,4,$2,$3,$4,$5,$6,$7,$8,$9,$2,$3,0*
0 Add four circle primitives for the rounded corners*
1,1,$1+$1,$2,$3*
1,1,$1+$1,$4,$5*
1,1,$1+$1,$6,$7*
1,1,$1+$1,$8,$9*
0 Add four rect primitives between the rounded corners*
20,1,$1+$1,$2,$3,$4,$5,0*
20,1,$1+$1,$4,$5,$6,$7,0*
20,1,$1+$1,$6,$7,$8,$9,0*
20,1,$1+$1,$8,$9,$2,$3,0*%
G04 Aperture macros list end*
%ADD10C,0.150000*%
%ADD11C,0.120000*%
%ADD12C,1.600000*%
%ADD13C,1.700000*%
%ADD14RoundRect,0.250000X0.600000X-0.600000X0.600000X0.600000X-0.600000X0.600000X-0.600000X-0.600000X0*%
%ADD15O,1.600000X1.600000*%
%ADD16C,1.440000*%
%ADD17RoundRect,0.698500X-1.333500X-0.698500X1.333500X-0.698500X1.333500X0.698500X-1.333500X0.698500X0*%
%ADD18R,1.600000X1.600000*%
%ADD19C,1.800000*%
%ADD20R,1.800000X1.800000*%
%ADD21O,4.000000X4.000000*%
%ADD22R,1.500000X1.500000*%
%ADD23O,1.500000X1.500000*%
%ADD24R,1.500000X1.050000*%
%ADD25O,1.500000X1.050000*%
%ADD26C,3.000000*%
%ADD27O,3.500000X1.500000*%
%ADD28O,2.000000X2.500000*%
%ADD29O,2.000000X3.500000*%
%ADD30C,2.030000*%
G04 APERTURE END LIST*
D10*
X155172380Y-87400952D02*
X155886666Y-87400952D01*
X156029523Y-87353333D01*
X156124761Y-87258095D01*
X156172380Y-87115238D01*
X156172380Y-87020000D01*
X156172380Y-88353333D02*
X156172380Y-87877142D01*
X155172380Y-87877142D01*
X156077142Y-89258095D02*
X156124761Y-89210476D01*
X156172380Y-89067619D01*
X156172380Y-88972380D01*
X156124761Y-88829523D01*
X156029523Y-88734285D01*
X155934285Y-88686666D01*
X155743809Y-88639047D01*
X155600952Y-88639047D01*
X155410476Y-88686666D01*
X155315238Y-88734285D01*
X155220000Y-88829523D01*
X155172380Y-88972380D01*
X155172380Y-89067619D01*
X155220000Y-89210476D01*
X155267619Y-89258095D01*
X155172380Y-89972380D02*
X155886666Y-89972380D01*
X156029523Y-89924761D01*
X156124761Y-89829523D01*
X156172380Y-89686666D01*
X156172380Y-89591428D01*
X156172380Y-90924761D02*
X156172380Y-90448571D01*
X155172380Y-90448571D01*
X156077142Y-91829523D02*
X156124761Y-91781904D01*
X156172380Y-91639047D01*
X156172380Y-91543809D01*
X156124761Y-91400952D01*
X156029523Y-91305714D01*
X155934285Y-91258095D01*
X155743809Y-91210476D01*
X155600952Y-91210476D01*
X155410476Y-91258095D01*
X155315238Y-91305714D01*
X155220000Y-91400952D01*
X155172380Y-91543809D01*
X155172380Y-91639047D01*
X155220000Y-91781904D01*
X155267619Y-91829523D01*
X155172380Y-92543809D02*
X155886666Y-92543809D01*
X156029523Y-92496190D01*
X156124761Y-92400952D01*
X156172380Y-92258095D01*
X156172380Y-92162857D01*
X156172380Y-93496190D02*
X156172380Y-93020000D01*
X155172380Y-93020000D01*
X156077142Y-94400952D02*
X156124761Y-94353333D01*
X156172380Y-94210476D01*
X156172380Y-94115238D01*
X156124761Y-93972380D01*
X156029523Y-93877142D01*
X155934285Y-93829523D01*
X155743809Y-93781904D01*
X155600952Y-93781904D01*
X155410476Y-93829523D01*
X155315238Y-93877142D01*
X155220000Y-93972380D01*
X155172380Y-94115238D01*
X155172380Y-94210476D01*
X155220000Y-94353333D01*
X155267619Y-94400952D01*
X155172380Y-95115238D02*
X155886666Y-95115238D01*
X156029523Y-95067619D01*
X156124761Y-94972380D01*
X156172380Y-94829523D01*
X156172380Y-94734285D01*
X156172380Y-96067619D02*
X156172380Y-95591428D01*
X155172380Y-95591428D01*
X156077142Y-96972380D02*
X156124761Y-96924761D01*
X156172380Y-96781904D01*
X156172380Y-96686666D01*
X156124761Y-96543809D01*
X156029523Y-96448571D01*
X155934285Y-96400952D01*
X155743809Y-96353333D01*
X155600952Y-96353333D01*
X155410476Y-96400952D01*
X155315238Y-96448571D01*
X155220000Y-96543809D01*
X155172380Y-96686666D01*
X155172380Y-96781904D01*
X155220000Y-96924761D01*
X155267619Y-96972380D01*
X196107380Y-104577857D02*
X197107380Y-104911190D01*
X196107380Y-105244523D01*
X197107380Y-106006428D02*
X196583571Y-106006428D01*
X196488333Y-105958809D01*
X196440714Y-105863571D01*
X196440714Y-105673095D01*
X196488333Y-105577857D01*
X197059761Y-106006428D02*
X197107380Y-105911190D01*
X197107380Y-105673095D01*
X197059761Y-105577857D01*
X196964523Y-105530238D01*
X196869285Y-105530238D01*
X196774047Y-105577857D01*
X196726428Y-105673095D01*
X196726428Y-105911190D01*
X196678809Y-106006428D01*
X197107380Y-106625476D02*
X197059761Y-106530238D01*
X196964523Y-106482619D01*
X196107380Y-106482619D01*
X196440714Y-106911190D02*
X197107380Y-107149285D01*
X196440714Y-107387380D01*
X197059761Y-108149285D02*
X197107380Y-108054047D01*
X197107380Y-107863571D01*
X197059761Y-107768333D01*
X196964523Y-107720714D01*
X196583571Y-107720714D01*
X196488333Y-107768333D01*
X196440714Y-107863571D01*
X196440714Y-108054047D01*
X196488333Y-108149285D01*
X196583571Y-108196904D01*
X196678809Y-108196904D01*
X196774047Y-107720714D01*
X197107380Y-109387380D02*
X196107380Y-109387380D01*
X196107380Y-109625476D01*
X196155000Y-109768333D01*
X196250238Y-109863571D01*
X196345476Y-109911190D01*
X196535952Y-109958809D01*
X196678809Y-109958809D01*
X196869285Y-109911190D01*
X196964523Y-109863571D01*
X197059761Y-109768333D01*
X197107380Y-109625476D01*
X197107380Y-109387380D01*
X197107380Y-110387380D02*
X196440714Y-110387380D01*
X196107380Y-110387380D02*
X196155000Y-110339761D01*
X196202619Y-110387380D01*
X196155000Y-110435000D01*
X196107380Y-110387380D01*
X196202619Y-110387380D01*
X197059761Y-110815952D02*
X197107380Y-110911190D01*
X197107380Y-111101666D01*
X197059761Y-111196904D01*
X196964523Y-111244523D01*
X196916904Y-111244523D01*
X196821666Y-111196904D01*
X196774047Y-111101666D01*
X196774047Y-110958809D01*
X196726428Y-110863571D01*
X196631190Y-110815952D01*
X196583571Y-110815952D01*
X196488333Y-110863571D01*
X196440714Y-110958809D01*
X196440714Y-111101666D01*
X196488333Y-111196904D01*
X196440714Y-111530238D02*
X196440714Y-111911190D01*
X196107380Y-111673095D02*
X196964523Y-111673095D01*
X197059761Y-111720714D01*
X197107380Y-111815952D01*
X197107380Y-111911190D01*
X197107380Y-112387380D02*
X197059761Y-112292142D01*
X197012142Y-112244523D01*
X196916904Y-112196904D01*
X196631190Y-112196904D01*
X196535952Y-112244523D01*
X196488333Y-112292142D01*
X196440714Y-112387380D01*
X196440714Y-112530238D01*
X196488333Y-112625476D01*
X196535952Y-112673095D01*
X196631190Y-112720714D01*
X196916904Y-112720714D01*
X197012142Y-112673095D01*
X197059761Y-112625476D01*
X197107380Y-112530238D01*
X197107380Y-112387380D01*
X197107380Y-113149285D02*
X196440714Y-113149285D01*
X196631190Y-113149285D02*
X196535952Y-113196904D01*
X196488333Y-113244523D01*
X196440714Y-113339761D01*
X196440714Y-113435000D01*
X196440714Y-113625476D02*
X196440714Y-114006428D01*
X196107380Y-113768333D02*
X196964523Y-113768333D01*
X197059761Y-113815952D01*
X197107380Y-113911190D01*
X197107380Y-114006428D01*
X197107380Y-114339761D02*
X196440714Y-114339761D01*
X196107380Y-114339761D02*
X196155000Y-114292142D01*
X196202619Y-114339761D01*
X196155000Y-114387380D01*
X196107380Y-114339761D01*
X196202619Y-114339761D01*
X197107380Y-114958809D02*
X197059761Y-114863571D01*
X197012142Y-114815952D01*
X196916904Y-114768333D01*
X196631190Y-114768333D01*
X196535952Y-114815952D01*
X196488333Y-114863571D01*
X196440714Y-114958809D01*
X196440714Y-115101666D01*
X196488333Y-115196904D01*
X196535952Y-115244523D01*
X196631190Y-115292142D01*
X196916904Y-115292142D01*
X197012142Y-115244523D01*
X197059761Y-115196904D01*
X197107380Y-115101666D01*
X197107380Y-114958809D01*
X196440714Y-115720714D02*
X197107380Y-115720714D01*
X196535952Y-115720714D02*
X196488333Y-115768333D01*
X196440714Y-115863571D01*
X196440714Y-116006428D01*
X196488333Y-116101666D01*
X196583571Y-116149285D01*
X197107380Y-116149285D01*
X198717380Y-98482619D02*
X197717380Y-98482619D01*
X198431666Y-98815952D01*
X197717380Y-99149285D01*
X198717380Y-99149285D01*
X198717380Y-100054047D02*
X198193571Y-100054047D01*
X198098333Y-100006428D01*
X198050714Y-99911190D01*
X198050714Y-99720714D01*
X198098333Y-99625476D01*
X198669761Y-100054047D02*
X198717380Y-99958809D01*
X198717380Y-99720714D01*
X198669761Y-99625476D01*
X198574523Y-99577857D01*
X198479285Y-99577857D01*
X198384047Y-99625476D01*
X198336428Y-99720714D01*
X198336428Y-99958809D01*
X198288809Y-100054047D01*
X198717380Y-100434999D02*
X198050714Y-100958809D01*
X198050714Y-100434999D02*
X198717380Y-100958809D01*
X198717380Y-102101666D02*
X197717380Y-102101666D01*
X197717380Y-102482619D01*
X197765000Y-102577857D01*
X197812619Y-102625476D01*
X197907857Y-102673095D01*
X198050714Y-102673095D01*
X198145952Y-102625476D01*
X198193571Y-102577857D01*
X198241190Y-102482619D01*
X198241190Y-102101666D01*
X198717380Y-103101666D02*
X198050714Y-103101666D01*
X198241190Y-103101666D02*
X198145952Y-103149285D01*
X198098333Y-103196904D01*
X198050714Y-103292142D01*
X198050714Y-103387380D01*
X198717380Y-103863571D02*
X198669761Y-103768333D01*
X198622142Y-103720714D01*
X198526904Y-103673095D01*
X198241190Y-103673095D01*
X198145952Y-103720714D01*
X198098333Y-103768333D01*
X198050714Y-103863571D01*
X198050714Y-104006428D01*
X198098333Y-104101666D01*
X198145952Y-104149285D01*
X198241190Y-104196904D01*
X198526904Y-104196904D01*
X198622142Y-104149285D01*
X198669761Y-104101666D01*
X198717380Y-104006428D01*
X198717380Y-103863571D01*
X198669761Y-104577857D02*
X198717380Y-104673095D01*
X198717380Y-104863571D01*
X198669761Y-104958809D01*
X198574523Y-105006428D01*
X198526904Y-105006428D01*
X198431666Y-104958809D01*
X198384047Y-104863571D01*
X198384047Y-104720714D01*
X198336428Y-104625476D01*
X198241190Y-104577857D01*
X198193571Y-104577857D01*
X198098333Y-104625476D01*
X198050714Y-104720714D01*
X198050714Y-104863571D01*
X198098333Y-104958809D01*
X198717380Y-105434999D02*
X197717380Y-105434999D01*
X198336428Y-105530238D02*
X198717380Y-105815952D01*
X198050714Y-105815952D02*
X198431666Y-105434999D01*
X198717380Y-106673095D02*
X198193571Y-106673095D01*
X198098333Y-106625476D01*
X198050714Y-106530238D01*
X198050714Y-106339761D01*
X198098333Y-106244523D01*
X198669761Y-106673095D02*
X198717380Y-106577857D01*
X198717380Y-106339761D01*
X198669761Y-106244523D01*
X198574523Y-106196904D01*
X198479285Y-106196904D01*
X198384047Y-106244523D01*
X198336428Y-106339761D01*
X198336428Y-106577857D01*
X198288809Y-106673095D01*
X198050714Y-107577857D02*
X198717380Y-107577857D01*
X198050714Y-107149285D02*
X198574523Y-107149285D01*
X198669761Y-107196904D01*
X198717380Y-107292142D01*
X198717380Y-107434999D01*
X198669761Y-107530238D01*
X198622142Y-107577857D01*
X198669761Y-108434999D02*
X198717380Y-108339761D01*
X198717380Y-108149285D01*
X198669761Y-108054047D01*
X198574523Y-108006428D01*
X198193571Y-108006428D01*
X198098333Y-108054047D01*
X198050714Y-108149285D01*
X198050714Y-108339761D01*
X198098333Y-108434999D01*
X198193571Y-108482619D01*
X198288809Y-108482619D01*
X198384047Y-108006428D01*
X198717380Y-108911190D02*
X198050714Y-108911190D01*
X198241190Y-108911190D02*
X198145952Y-108958809D01*
X198098333Y-109006428D01*
X198050714Y-109101666D01*
X198050714Y-109196904D01*
X198050714Y-110958809D02*
X198717380Y-111196904D01*
X198050714Y-111434999D01*
X197717380Y-112006428D02*
X197717380Y-112101666D01*
X197765000Y-112196904D01*
X197812619Y-112244523D01*
X197907857Y-112292142D01*
X198098333Y-112339761D01*
X198336428Y-112339761D01*
X198526904Y-112292142D01*
X198622142Y-112244523D01*
X198669761Y-112196904D01*
X198717380Y-112101666D01*
X198717380Y-112006428D01*
X198669761Y-111911190D01*
X198622142Y-111863571D01*
X198526904Y-111815952D01*
X198336428Y-111768333D01*
X198098333Y-111768333D01*
X197907857Y-111815952D01*
X197812619Y-111863571D01*
X197765000Y-111911190D01*
X197717380Y-112006428D01*
X198622142Y-112768333D02*
X198669761Y-112815952D01*
X198717380Y-112768333D01*
X198669761Y-112720714D01*
X198622142Y-112768333D01*
X198717380Y-112768333D01*
X198717380Y-113768333D02*
X198717380Y-113196904D01*
X198717380Y-113482619D02*
X197717380Y-113482619D01*
X197860238Y-113387380D01*
X197955476Y-113292142D01*
X198003095Y-113196904D01*
X197717380Y-116006428D02*
X198431666Y-116006428D01*
X198574523Y-115958809D01*
X198669761Y-115863571D01*
X198717380Y-115720714D01*
X198717380Y-115625476D01*
X198717380Y-116911190D02*
X198193571Y-116911190D01*
X198098333Y-116863571D01*
X198050714Y-116768333D01*
X198050714Y-116577857D01*
X198098333Y-116482619D01*
X198669761Y-116911190D02*
X198717380Y-116815952D01*
X198717380Y-116577857D01*
X198669761Y-116482619D01*
X198574523Y-116434999D01*
X198479285Y-116434999D01*
X198384047Y-116482619D01*
X198336428Y-116577857D01*
X198336428Y-116815952D01*
X198288809Y-116911190D01*
X198050714Y-117387380D02*
X198717380Y-117387380D01*
X198145952Y-117387380D02*
X198098333Y-117434999D01*
X198050714Y-117530238D01*
X198050714Y-117673095D01*
X198098333Y-117768333D01*
X198193571Y-117815952D01*
X198717380Y-117815952D01*
X197812619Y-119006428D02*
X197765000Y-119054047D01*
X197717380Y-119149285D01*
X197717380Y-119387380D01*
X197765000Y-119482619D01*
X197812619Y-119530238D01*
X197907857Y-119577857D01*
X198003095Y-119577857D01*
X198145952Y-119530238D01*
X198717380Y-118958809D01*
X198717380Y-119577857D01*
X197717380Y-120196904D02*
X197717380Y-120292142D01*
X197765000Y-120387380D01*
X197812619Y-120434999D01*
X197907857Y-120482619D01*
X198098333Y-120530238D01*
X198336428Y-120530238D01*
X198526904Y-120482619D01*
X198622142Y-120434999D01*
X198669761Y-120387380D01*
X198717380Y-120292142D01*
X198717380Y-120196904D01*
X198669761Y-120101666D01*
X198622142Y-120054047D01*
X198526904Y-120006428D01*
X198336428Y-119958809D01*
X198098333Y-119958809D01*
X197907857Y-120006428D01*
X197812619Y-120054047D01*
X197765000Y-120101666D01*
X197717380Y-120196904D01*
X197812619Y-120911190D02*
X197765000Y-120958809D01*
X197717380Y-121054047D01*
X197717380Y-121292142D01*
X197765000Y-121387380D01*
X197812619Y-121434999D01*
X197907857Y-121482619D01*
X198003095Y-121482619D01*
X198145952Y-121434999D01*
X198717380Y-120863571D01*
X198717380Y-121482619D01*
X197717380Y-121815952D02*
X197717380Y-122434999D01*
X198098333Y-122101666D01*
X198098333Y-122244523D01*
X198145952Y-122339761D01*
X198193571Y-122387380D01*
X198288809Y-122434999D01*
X198526904Y-122434999D01*
X198622142Y-122387380D01*
X198669761Y-122339761D01*
X198717380Y-122244523D01*
X198717380Y-121958809D01*
X198669761Y-121863571D01*
X198622142Y-121815952D01*
X200327380Y-93792142D02*
X199327380Y-93792142D01*
X200327380Y-94220714D02*
X199803571Y-94220714D01*
X199708333Y-94173095D01*
X199660714Y-94077857D01*
X199660714Y-93935000D01*
X199708333Y-93839761D01*
X199755952Y-93792142D01*
X199660714Y-94554047D02*
X199660714Y-94935000D01*
X199327380Y-94696904D02*
X200184523Y-94696904D01*
X200279761Y-94744523D01*
X200327380Y-94839761D01*
X200327380Y-94935000D01*
X199660714Y-95125476D02*
X199660714Y-95506428D01*
X199327380Y-95268333D02*
X200184523Y-95268333D01*
X200279761Y-95315952D01*
X200327380Y-95411190D01*
X200327380Y-95506428D01*
X199660714Y-95839761D02*
X200660714Y-95839761D01*
X199708333Y-95839761D02*
X199660714Y-95935000D01*
X199660714Y-96125476D01*
X199708333Y-96220714D01*
X199755952Y-96268333D01*
X199851190Y-96315952D01*
X200136904Y-96315952D01*
X200232142Y-96268333D01*
X200279761Y-96220714D01*
X200327380Y-96125476D01*
X200327380Y-95935000D01*
X200279761Y-95839761D01*
X200279761Y-96696904D02*
X200327380Y-96792142D01*
X200327380Y-96982619D01*
X200279761Y-97077857D01*
X200184523Y-97125476D01*
X200136904Y-97125476D01*
X200041666Y-97077857D01*
X199994047Y-96982619D01*
X199994047Y-96839761D01*
X199946428Y-96744523D01*
X199851190Y-96696904D01*
X199803571Y-96696904D01*
X199708333Y-96744523D01*
X199660714Y-96839761D01*
X199660714Y-96982619D01*
X199708333Y-97077857D01*
X200232142Y-97554047D02*
X200279761Y-97601666D01*
X200327380Y-97554047D01*
X200279761Y-97506428D01*
X200232142Y-97554047D01*
X200327380Y-97554047D01*
X199708333Y-97554047D02*
X199755952Y-97601666D01*
X199803571Y-97554047D01*
X199755952Y-97506428D01*
X199708333Y-97554047D01*
X199803571Y-97554047D01*
X199279761Y-98744523D02*
X200565476Y-97887380D01*
X199279761Y-99792142D02*
X200565476Y-98935000D01*
X199660714Y-100554047D02*
X200470238Y-100554047D01*
X200565476Y-100506428D01*
X200613095Y-100458809D01*
X200660714Y-100363571D01*
X200660714Y-100220714D01*
X200613095Y-100125476D01*
X200279761Y-100554047D02*
X200327380Y-100458809D01*
X200327380Y-100268333D01*
X200279761Y-100173095D01*
X200232142Y-100125476D01*
X200136904Y-100077857D01*
X199851190Y-100077857D01*
X199755952Y-100125476D01*
X199708333Y-100173095D01*
X199660714Y-100268333D01*
X199660714Y-100458809D01*
X199708333Y-100554047D01*
X200327380Y-101030238D02*
X199660714Y-101030238D01*
X199327380Y-101030238D02*
X199375000Y-100982619D01*
X199422619Y-101030238D01*
X199375000Y-101077857D01*
X199327380Y-101030238D01*
X199422619Y-101030238D01*
X199660714Y-101363571D02*
X199660714Y-101744523D01*
X199327380Y-101506428D02*
X200184523Y-101506428D01*
X200279761Y-101554047D01*
X200327380Y-101649285D01*
X200327380Y-101744523D01*
X200327380Y-102077857D02*
X199327380Y-102077857D01*
X200327380Y-102506428D02*
X199803571Y-102506428D01*
X199708333Y-102458809D01*
X199660714Y-102363571D01*
X199660714Y-102220714D01*
X199708333Y-102125476D01*
X199755952Y-102077857D01*
X199660714Y-103411190D02*
X200327380Y-103411190D01*
X199660714Y-102982619D02*
X200184523Y-102982619D01*
X200279761Y-103030238D01*
X200327380Y-103125476D01*
X200327380Y-103268333D01*
X200279761Y-103363571D01*
X200232142Y-103411190D01*
X200327380Y-103887380D02*
X199327380Y-103887380D01*
X199708333Y-103887380D02*
X199660714Y-103982619D01*
X199660714Y-104173095D01*
X199708333Y-104268333D01*
X199755952Y-104315952D01*
X199851190Y-104363571D01*
X200136904Y-104363571D01*
X200232142Y-104315952D01*
X200279761Y-104268333D01*
X200327380Y-104173095D01*
X200327380Y-103982619D01*
X200279761Y-103887380D01*
X200232142Y-104792142D02*
X200279761Y-104839761D01*
X200327380Y-104792142D01*
X200279761Y-104744523D01*
X200232142Y-104792142D01*
X200327380Y-104792142D01*
X200279761Y-105696904D02*
X200327380Y-105601666D01*
X200327380Y-105411190D01*
X200279761Y-105315952D01*
X200232142Y-105268333D01*
X200136904Y-105220714D01*
X199851190Y-105220714D01*
X199755952Y-105268333D01*
X199708333Y-105315952D01*
X199660714Y-105411190D01*
X199660714Y-105601666D01*
X199708333Y-105696904D01*
X200327380Y-106268333D02*
X200279761Y-106173095D01*
X200232142Y-106125476D01*
X200136904Y-106077857D01*
X199851190Y-106077857D01*
X199755952Y-106125476D01*
X199708333Y-106173095D01*
X199660714Y-106268333D01*
X199660714Y-106411190D01*
X199708333Y-106506428D01*
X199755952Y-106554047D01*
X199851190Y-106601666D01*
X200136904Y-106601666D01*
X200232142Y-106554047D01*
X200279761Y-106506428D01*
X200327380Y-106411190D01*
X200327380Y-106268333D01*
X200327380Y-107030238D02*
X199660714Y-107030238D01*
X199755952Y-107030238D02*
X199708333Y-107077857D01*
X199660714Y-107173095D01*
X199660714Y-107315952D01*
X199708333Y-107411190D01*
X199803571Y-107458809D01*
X200327380Y-107458809D01*
X199803571Y-107458809D02*
X199708333Y-107506428D01*
X199660714Y-107601666D01*
X199660714Y-107744523D01*
X199708333Y-107839761D01*
X199803571Y-107887380D01*
X200327380Y-107887380D01*
X199279761Y-109077857D02*
X200565476Y-108220714D01*
X200327380Y-109411190D02*
X199660714Y-109411190D01*
X199755952Y-109411190D02*
X199708333Y-109458809D01*
X199660714Y-109554047D01*
X199660714Y-109696904D01*
X199708333Y-109792142D01*
X199803571Y-109839761D01*
X200327380Y-109839761D01*
X199803571Y-109839761D02*
X199708333Y-109887380D01*
X199660714Y-109982619D01*
X199660714Y-110125476D01*
X199708333Y-110220714D01*
X199803571Y-110268333D01*
X200327380Y-110268333D01*
X199660714Y-110744523D02*
X200660714Y-110744523D01*
X199708333Y-110744523D02*
X199660714Y-110839761D01*
X199660714Y-111030238D01*
X199708333Y-111125476D01*
X199755952Y-111173095D01*
X199851190Y-111220714D01*
X200136904Y-111220714D01*
X200232142Y-111173095D01*
X200279761Y-111125476D01*
X200327380Y-111030238D01*
X200327380Y-110839761D01*
X200279761Y-110744523D01*
X200327380Y-111649285D02*
X199660714Y-111649285D01*
X199851190Y-111649285D02*
X199755952Y-111696904D01*
X199708333Y-111744523D01*
X199660714Y-111839761D01*
X199660714Y-111935000D01*
X200327380Y-112411190D02*
X200279761Y-112315952D01*
X200232142Y-112268333D01*
X200136904Y-112220714D01*
X199851190Y-112220714D01*
X199755952Y-112268333D01*
X199708333Y-112315952D01*
X199660714Y-112411190D01*
X199660714Y-112554047D01*
X199708333Y-112649285D01*
X199755952Y-112696904D01*
X199851190Y-112744523D01*
X200136904Y-112744523D01*
X200232142Y-112696904D01*
X200279761Y-112649285D01*
X200327380Y-112554047D01*
X200327380Y-112411190D01*
X200279761Y-113125476D02*
X200327380Y-113220714D01*
X200327380Y-113411190D01*
X200279761Y-113506428D01*
X200184523Y-113554047D01*
X200136904Y-113554047D01*
X200041666Y-113506428D01*
X199994047Y-113411190D01*
X199994047Y-113268333D01*
X199946428Y-113173095D01*
X199851190Y-113125476D01*
X199803571Y-113125476D01*
X199708333Y-113173095D01*
X199660714Y-113268333D01*
X199660714Y-113411190D01*
X199708333Y-113506428D01*
X200327380Y-113982619D02*
X199327380Y-113982619D01*
X199946428Y-114077857D02*
X200327380Y-114363571D01*
X199660714Y-114363571D02*
X200041666Y-113982619D01*
X199279761Y-115506428D02*
X200565476Y-114649285D01*
X199660714Y-115744523D02*
X200327380Y-115982619D01*
X199660714Y-116220714D01*
X200327380Y-117030238D02*
X199803571Y-117030238D01*
X199708333Y-116982619D01*
X199660714Y-116887380D01*
X199660714Y-116696904D01*
X199708333Y-116601666D01*
X200279761Y-117030238D02*
X200327380Y-116935000D01*
X200327380Y-116696904D01*
X200279761Y-116601666D01*
X200184523Y-116554047D01*
X200089285Y-116554047D01*
X199994047Y-116601666D01*
X199946428Y-116696904D01*
X199946428Y-116935000D01*
X199898809Y-117030238D01*
X200327380Y-117649285D02*
X200279761Y-117554047D01*
X200184523Y-117506428D01*
X199327380Y-117506428D01*
X199660714Y-117935000D02*
X200327380Y-118173095D01*
X199660714Y-118411190D01*
X200279761Y-119173095D02*
X200327380Y-119077857D01*
X200327380Y-118887380D01*
X200279761Y-118792142D01*
X200184523Y-118744523D01*
X199803571Y-118744523D01*
X199708333Y-118792142D01*
X199660714Y-118887380D01*
X199660714Y-119077857D01*
X199708333Y-119173095D01*
X199803571Y-119220714D01*
X199898809Y-119220714D01*
X199994047Y-118744523D01*
X200422619Y-119411190D02*
X200422619Y-120173095D01*
X200327380Y-120839761D02*
X199327380Y-120839761D01*
X200279761Y-120839761D02*
X200327380Y-120744523D01*
X200327380Y-120554047D01*
X200279761Y-120458809D01*
X200232142Y-120411190D01*
X200136904Y-120363571D01*
X199851190Y-120363571D01*
X199755952Y-120411190D01*
X199708333Y-120458809D01*
X199660714Y-120554047D01*
X199660714Y-120744523D01*
X199708333Y-120839761D01*
X200327380Y-121315952D02*
X199660714Y-121315952D01*
X199327380Y-121315952D02*
X199375000Y-121268333D01*
X199422619Y-121315952D01*
X199375000Y-121363571D01*
X199327380Y-121315952D01*
X199422619Y-121315952D01*
X200279761Y-121744523D02*
X200327380Y-121839761D01*
X200327380Y-122030238D01*
X200279761Y-122125476D01*
X200184523Y-122173095D01*
X200136904Y-122173095D01*
X200041666Y-122125476D01*
X199994047Y-122030238D01*
X199994047Y-121887380D01*
X199946428Y-121792142D01*
X199851190Y-121744523D01*
X199803571Y-121744523D01*
X199708333Y-121792142D01*
X199660714Y-121887380D01*
X199660714Y-122030238D01*
X199708333Y-122125476D01*
X199660714Y-122458809D02*
X199660714Y-122839761D01*
X199327380Y-122601666D02*
X200184523Y-122601666D01*
X200279761Y-122649285D01*
X200327380Y-122744523D01*
X200327380Y-122839761D01*
X200327380Y-123315952D02*
X200279761Y-123220714D01*
X200232142Y-123173095D01*
X200136904Y-123125476D01*
X199851190Y-123125476D01*
X199755952Y-123173095D01*
X199708333Y-123220714D01*
X199660714Y-123315952D01*
X199660714Y-123458809D01*
X199708333Y-123554047D01*
X199755952Y-123601666D01*
X199851190Y-123649285D01*
X200136904Y-123649285D01*
X200232142Y-123601666D01*
X200279761Y-123554047D01*
X200327380Y-123458809D01*
X200327380Y-123315952D01*
X200327380Y-124077857D02*
X199660714Y-124077857D01*
X199851190Y-124077857D02*
X199755952Y-124125476D01*
X199708333Y-124173095D01*
X199660714Y-124268333D01*
X199660714Y-124363571D01*
X199660714Y-124554047D02*
X199660714Y-124935000D01*
X199327380Y-124696904D02*
X200184523Y-124696904D01*
X200279761Y-124744523D01*
X200327380Y-124839761D01*
X200327380Y-124935000D01*
X200327380Y-125268333D02*
X199660714Y-125268333D01*
X199327380Y-125268333D02*
X199375000Y-125220714D01*
X199422619Y-125268333D01*
X199375000Y-125315952D01*
X199327380Y-125268333D01*
X199422619Y-125268333D01*
X200327380Y-125887380D02*
X200279761Y-125792142D01*
X200232142Y-125744523D01*
X200136904Y-125696904D01*
X199851190Y-125696904D01*
X199755952Y-125744523D01*
X199708333Y-125792142D01*
X199660714Y-125887380D01*
X199660714Y-126030238D01*
X199708333Y-126125476D01*
X199755952Y-126173095D01*
X199851190Y-126220714D01*
X200136904Y-126220714D01*
X200232142Y-126173095D01*
X200279761Y-126125476D01*
X200327380Y-126030238D01*
X200327380Y-125887380D01*
X199660714Y-126649285D02*
X200327380Y-126649285D01*
X199755952Y-126649285D02*
X199708333Y-126696904D01*
X199660714Y-126792142D01*
X199660714Y-126935000D01*
X199708333Y-127030238D01*
X199803571Y-127077857D01*
X200327380Y-127077857D01*
%TO.C,J3*%
X190343333Y-140367380D02*
X190343333Y-141081666D01*
X190390952Y-141224523D01*
X190486190Y-141319761D01*
X190629047Y-141367380D01*
X190724285Y-141367380D01*
X189962380Y-140367380D02*
X189343333Y-140367380D01*
X189676666Y-140748333D01*
X189533809Y-140748333D01*
X189438571Y-140795952D01*
X189390952Y-140843571D01*
X189343333Y-140938809D01*
X189343333Y-141176904D01*
X189390952Y-141272142D01*
X189438571Y-141319761D01*
X189533809Y-141367380D01*
X189819523Y-141367380D01*
X189914761Y-141319761D01*
X189962380Y-141272142D01*
%TO.C,D5*%
X179318095Y-70247380D02*
X179318095Y-69247380D01*
X179080000Y-69247380D01*
X178937142Y-69295000D01*
X178841904Y-69390238D01*
X178794285Y-69485476D01*
X178746666Y-69675952D01*
X178746666Y-69818809D01*
X178794285Y-70009285D01*
X178841904Y-70104523D01*
X178937142Y-70199761D01*
X179080000Y-70247380D01*
X179318095Y-70247380D01*
X177841904Y-69247380D02*
X178318095Y-69247380D01*
X178365714Y-69723571D01*
X178318095Y-69675952D01*
X178222857Y-69628333D01*
X177984761Y-69628333D01*
X177889523Y-69675952D01*
X177841904Y-69723571D01*
X177794285Y-69818809D01*
X177794285Y-70056904D01*
X177841904Y-70152142D01*
X177889523Y-70199761D01*
X177984761Y-70247380D01*
X178222857Y-70247380D01*
X178318095Y-70199761D01*
X178365714Y-70152142D01*
D11*
%TO.C,J3*%
X199000000Y-138450000D02*
X199000000Y-131950000D01*
X200300000Y-139760000D02*
X200300000Y-130640000D01*
X192060000Y-139760000D02*
X192060000Y-138450000D01*
X192060000Y-138450000D02*
X199000000Y-138450000D01*
X187960000Y-138450000D02*
X187960000Y-138450000D01*
X200300000Y-130640000D02*
X179720000Y-130640000D01*
X179720000Y-130640000D02*
X179720000Y-139760000D01*
X195090000Y-140150000D02*
X195590000Y-141150000D01*
X179720000Y-139760000D02*
X200300000Y-139760000D01*
X195590000Y-141150000D02*
X194590000Y-141150000D01*
X181020000Y-131950000D02*
X181020000Y-138450000D01*
X181020000Y-138450000D02*
X187960000Y-138450000D01*
X187960000Y-138450000D02*
X187960000Y-139760000D01*
X199000000Y-131950000D02*
X181020000Y-131950000D01*
X194590000Y-141150000D02*
X195090000Y-140150000D01*
%TO.C,D5*%
X180140000Y-67700000D02*
X180140000Y-67856000D01*
X180140000Y-65384000D02*
X180140000Y-65540000D01*
X180140000Y-65384484D02*
G75*
G03*
X176907665Y-65541392I-1560000J-1235516D01*
G01*
X176907665Y-67698608D02*
G75*
G03*
X180140000Y-67855516I1672335J1078608D01*
G01*
X179620961Y-65540000D02*
G75*
G03*
X177538870Y-65540163I-1040961J-1080000D01*
G01*
X177538870Y-67699837D02*
G75*
G03*
X179620961Y-67700000I1041130J1079837D01*
G01*
%TD*%
%LPC*%
D12*
%TO.C,C13*%
X169690000Y-117380000D03*
X169690000Y-114880000D03*
%TD*%
%TO.C,C11*%
X168430000Y-69160000D03*
X168430000Y-71660000D03*
%TD*%
%TO.C,C9*%
X191280000Y-66620000D03*
X193780000Y-66620000D03*
%TD*%
%TO.C,C8*%
X191280000Y-64080000D03*
X193780000Y-64080000D03*
%TD*%
%TO.C,C7*%
X191200000Y-61540000D03*
X191200000Y-59040000D03*
%TD*%
%TO.C,C6*%
X170960000Y-74240000D03*
X170960000Y-76740000D03*
%TD*%
%TO.C,C5*%
X172230000Y-51380000D03*
X169730000Y-51380000D03*
%TD*%
%TO.C,C4*%
X168420000Y-56460000D03*
X165920000Y-56460000D03*
%TD*%
%TO.C,C3*%
X167150000Y-59000000D03*
X164650000Y-59000000D03*
%TD*%
D13*
%TO.C,J3*%
X184930000Y-133930000D03*
X184930000Y-136470000D03*
X187470000Y-133930000D03*
X187470000Y-136470000D03*
X190010000Y-133930000D03*
X190010000Y-136470000D03*
X192550000Y-133930000D03*
X192550000Y-136470000D03*
X195090000Y-133930000D03*
D14*
X195090000Y-136470000D03*
%TD*%
D12*
%TO.C,R15*%
X172230000Y-104720000D03*
D15*
X172230000Y-114880000D03*
%TD*%
D16*
%TO.C,RV3*%
X190010000Y-104720000D03*
X190010000Y-102180000D03*
X190010000Y-99640000D03*
%TD*%
D17*
%TO.C,SW2*%
X188930500Y-84781000D03*
X188930500Y-89480000D03*
X188930500Y-94179000D03*
X193629500Y-84781000D03*
X193629500Y-89480000D03*
X193629500Y-94179000D03*
%TD*%
%TO.C,SW1*%
X163530500Y-84781000D03*
X163530500Y-89480000D03*
X163530500Y-94179000D03*
X168229500Y-84781000D03*
X168229500Y-89480000D03*
X168229500Y-94179000D03*
%TD*%
D18*
%TO.C,U1*%
X158270000Y-66630000D03*
D15*
X158270000Y-69170000D03*
X158270000Y-71710000D03*
X158270000Y-74250000D03*
X165890000Y-74250000D03*
X165890000Y-71710000D03*
X165890000Y-69170000D03*
X165890000Y-66630000D03*
%TD*%
D19*
%TO.C,RV2*%
X176080000Y-112460000D03*
X178580000Y-112460000D03*
D20*
X181080000Y-112460000D03*
D21*
X173830000Y-119960000D03*
X183330000Y-119960000D03*
%TD*%
D12*
%TO.C,R16*%
X165880000Y-132660000D03*
D15*
X165880000Y-142820000D03*
%TD*%
D12*
%TO.C,R3*%
X155720000Y-69160000D03*
D15*
X155720000Y-59000000D03*
%TD*%
D20*
%TO.C,D6*%
X177310000Y-89480000D03*
D19*
X179850000Y-89480000D03*
%TD*%
D18*
%TO.C,U3*%
X174770000Y-94560000D03*
D15*
X174770000Y-97100000D03*
X174770000Y-99640000D03*
X174770000Y-102180000D03*
X174770000Y-104720000D03*
X174770000Y-107260000D03*
X174770000Y-109800000D03*
X182390000Y-109800000D03*
X182390000Y-107260000D03*
X182390000Y-104720000D03*
X182390000Y-102180000D03*
X182390000Y-99640000D03*
X182390000Y-97100000D03*
X182390000Y-94560000D03*
%TD*%
D22*
%TO.C,D4*%
X165880000Y-122500000D03*
D23*
X165880000Y-130120000D03*
%TD*%
D12*
%TO.C,C20*%
X172230000Y-102140000D03*
X172230000Y-99640000D03*
%TD*%
%TO.C,R9*%
X168430000Y-76780000D03*
D15*
X158270000Y-76780000D03*
%TD*%
D12*
%TO.C,R8*%
X198900000Y-69160000D03*
D15*
X188740000Y-69160000D03*
%TD*%
D12*
%TO.C,R1*%
X158260000Y-142820000D03*
D15*
X158260000Y-132660000D03*
%TD*%
D12*
%TO.C,C1*%
X160800000Y-132660000D03*
X160800000Y-137660000D03*
%TD*%
%TO.C,R19*%
X183660000Y-79320000D03*
D15*
X183660000Y-89480000D03*
%TD*%
D22*
%TO.C,D2*%
X158260000Y-122495000D03*
D23*
X158260000Y-130115000D03*
%TD*%
D12*
%TO.C,R20*%
X176040000Y-85670000D03*
D15*
X176040000Y-75510000D03*
%TD*%
D18*
%TO.C,C16*%
X186200000Y-128850000D03*
D12*
X188700000Y-128850000D03*
%TD*%
%TO.C,R13*%
X167150000Y-97100000D03*
D15*
X167150000Y-107260000D03*
%TD*%
D24*
%TO.C,Q1*%
X179850000Y-80590000D03*
D25*
X179850000Y-79320000D03*
X179850000Y-78050000D03*
%TD*%
D26*
%TO.C,H1*%
X178580000Y-64080000D03*
%TD*%
D12*
%TO.C,R17*%
X168420000Y-132660000D03*
D15*
X168420000Y-142820000D03*
%TD*%
D18*
%TO.C,C10*%
X186200000Y-74280000D03*
D12*
X186200000Y-76780000D03*
%TD*%
%TO.C,R5*%
X182390000Y-144090000D03*
D15*
X182390000Y-154250000D03*
%TD*%
D12*
%TO.C,C17*%
X155730000Y-71740000D03*
X155730000Y-74240000D03*
%TD*%
D27*
%TO.C,J1*%
X159530000Y-153740000D03*
X159530000Y-145640000D03*
D28*
X164230000Y-151040000D03*
D29*
X154830000Y-151040000D03*
%TD*%
D12*
%TO.C,R6*%
X184930000Y-51380000D03*
D15*
X174770000Y-51380000D03*
%TD*%
D21*
%TO.C,RV1*%
X196030000Y-150440000D03*
X186530000Y-150440000D03*
D20*
X193780000Y-142940000D03*
D19*
X191280000Y-142940000D03*
X188780000Y-142940000D03*
%TD*%
D12*
%TO.C,R11*%
X163340000Y-97100000D03*
D15*
X163340000Y-107260000D03*
%TD*%
D12*
%TO.C,C19*%
X184930000Y-99680000D03*
X184930000Y-102180000D03*
%TD*%
D27*
%TO.C,J2*%
X172230000Y-153740000D03*
X172230000Y-145640000D03*
D29*
X167530000Y-151040000D03*
D28*
X176930000Y-151040000D03*
%TD*%
D12*
%TO.C,R2*%
X155720000Y-132660000D03*
D15*
X155720000Y-142820000D03*
%TD*%
D18*
%TO.C,C12*%
X168420000Y-112340000D03*
D12*
X168420000Y-109840000D03*
%TD*%
D18*
%TO.C,C15*%
X192590000Y-128850000D03*
D12*
X195090000Y-128850000D03*
%TD*%
%TO.C,R18*%
X173500000Y-85670000D03*
D15*
X173500000Y-75510000D03*
%TD*%
D22*
%TO.C,D1*%
X155720000Y-130120000D03*
D23*
X155720000Y-122500000D03*
%TD*%
D15*
%TO.C,R4*%
X160800000Y-53920000D03*
D12*
X170960000Y-53920000D03*
%TD*%
%TO.C,R12*%
X168430000Y-79320000D03*
D15*
X158270000Y-79320000D03*
%TD*%
D12*
%TO.C,C18*%
X165880000Y-64080000D03*
X163380000Y-64080000D03*
%TD*%
D18*
%TO.C,C14*%
X170960000Y-130120000D03*
D12*
X173460000Y-130120000D03*
%TD*%
D18*
%TO.C,C2*%
X160800000Y-130120000D03*
D12*
X163300000Y-130120000D03*
%TD*%
%TO.C,R10*%
X158260000Y-84400000D03*
D15*
X158260000Y-94560000D03*
%TD*%
D12*
%TO.C,R14*%
X169690000Y-97100000D03*
D15*
X169690000Y-107260000D03*
%TD*%
D12*
%TO.C,R7*%
X193820000Y-61540000D03*
D15*
X193820000Y-51380000D03*
%TD*%
D22*
%TO.C,D3*%
X168420000Y-130120000D03*
D23*
X168420000Y-122500000D03*
%TD*%
D30*
%TO.C,U2*%
X182030000Y-68830000D03*
X184180000Y-65900000D03*
X184180000Y-62250000D03*
X182030000Y-59320000D03*
X178580000Y-58180000D03*
X175120000Y-59320000D03*
X172970000Y-62250000D03*
X172970000Y-65860000D03*
X175120000Y-68830000D03*
%TD*%
D20*
%TO.C,D5*%
X179850000Y-66620000D03*
D19*
X177310000Y-66620000D03*
%TD*%
M02*
