M48
; DRILL file {KiCad (6.0.5)} date Sat Jan 21 13:22:42 2023
; FORMAT={-:-/ absolute / inch / decimal}
; #@! TF.CreationDate,2023-01-21T13:22:42-05:00
; #@! TF.GenerationSoftware,Kicad,Pcbnew,(6.0.5)
; #@! TF.FileFunction,Plated,1,2,PTH
FMAT,2
INCH
; #@! TA.AperFunction,Plated,PTH,ViaDrill
T1C0.0157
; #@! TA.AperFunction,Plated,PTH,ComponentDrill
T2C0.0197
; #@! TA.AperFunction,Plated,PTH,ComponentDrill
T3C0.0295
; #@! TA.AperFunction,Plated,PTH,ComponentDrill
T4C0.0315
; #@! TA.AperFunction,Plated,PTH,ComponentDrill
T5C0.0354
; #@! TA.AperFunction,Plated,PTH,ComponentDrill
T6C0.0394
; #@! TA.AperFunction,Plated,PTH,ComponentDrill
T7C0.0402
; #@! TA.AperFunction,Plated,PTH,ComponentDrill
T8C0.0450
; #@! TA.AperFunction,Plated,PTH,ComponentDrill
T9C0.0787
%
G90
G05
T1
X6.0807Y-1.9728
X6.0807Y-4.3228
X6.0807Y-4.3978
X6.0807Y-4.6978
X6.0807Y-5.0228
X6.0807Y-5.3228
X6.0807Y-5.5728
X6.0807Y-5.7728
X6.1557Y-2.6478
X6.1557Y-6.0728
X6.1807Y-3.5728
X6.1807Y-3.9728
X6.1807Y-4.3478
X6.1807Y-4.4978
X6.1807Y-4.6728
X6.2057Y-3.8728
X6.2307Y-1.9728
X6.2307Y-4.0228
X6.2507Y-3.2028
X6.2557Y-2.4728
X6.2807Y-4.0728
X6.2907Y-2.9828
X6.3057Y-4.4478
X6.3107Y-2.5828
X6.3107Y-2.8228
X6.3107Y-3.5628
X6.3307Y-2.3978
X6.3307Y-2.7028
X6.3307Y-3.1428
X6.3307Y-4.6478
X6.3557Y-5.0228
X6.3807Y-1.9728
X6.4057Y-5.7478
X6.4057Y-6.0728
X6.4107Y-3.2428
X6.4307Y-2.9028
X6.4307Y-4.5978
X6.4307Y-4.6728
X6.4307Y-5.1978
X6.4707Y-2.6828
X6.4807Y-2.3978
X6.5057Y-4.6478
X6.5307Y-1.9728
X6.5307Y-3.4228
X6.5807Y-2.8728
X6.5807Y-4.0978
X6.5807Y-5.4728
X6.6057Y-2.4478
X6.6207Y-3.6128
X6.6307Y-2.1228
X6.6307Y-3.2428
X6.6307Y-4.6728
X6.6557Y-2.3228
X6.6557Y-5.7478
X6.6557Y-6.0728
X6.7057Y-2.2228
X6.7057Y-2.5978
X6.7057Y-3.1478
X6.7107Y-3.4228
X6.7307Y-1.9728
X6.7307Y-2.4478
X6.7307Y-4.3728
X6.7307Y-4.6978
X6.7307Y-5.3478
X6.7307Y-5.4978
X6.7557Y-3.5728
X6.7557Y-3.6728
X6.7807Y-2.7728
X6.8057Y-2.2978
X6.8307Y-2.0978
X6.8307Y-3.2728
X6.8307Y-3.7728
X6.8307Y-4.1728
X6.8307Y-4.2728
X6.8307Y-5.4728
X6.8307Y-5.6478
X6.8557Y-2.8728
X6.8557Y-4.4228
X6.8557Y-4.5478
X6.8557Y-4.8478
X6.8807Y-3.0228
X6.8807Y-5.0228
X6.8807Y-5.1978
X6.9057Y-5.7478
X6.9057Y-6.0728
X6.9307Y-1.9728
X6.9307Y-2.1478
X6.9307Y-2.5478
X6.9307Y-2.7728
X6.9307Y-4.0728
X6.9557Y-2.2478
X6.9557Y-3.7728
X6.9557Y-3.8478
X6.9807Y-4.1978
X6.9807Y-4.2728
X7.0057Y-2.0728
X7.0057Y-2.8728
X7.0057Y-3.1228
X7.0057Y-3.3228
X7.0057Y-4.6478
X7.0057Y-5.4728
X7.0307Y-2.4228
X7.0307Y-3.4478
X7.0307Y-4.4978
X7.0307Y-4.8728
X7.0557Y-3.9728
X7.0557Y-5.0228
X7.0807Y-1.9728
X7.0807Y-4.1978
X7.0807Y-5.6228
X7.1057Y-3.3728
X7.1057Y-4.3228
X7.1057Y-6.0228
X7.1307Y-2.0728
X7.1307Y-2.9728
X7.1307Y-3.7728
X7.1307Y-4.0728
X7.1307Y-5.3228
X7.1307Y-5.8478
X7.1557Y-3.4728
X7.1557Y-3.5728
X7.1807Y-5.1228
X7.2057Y-2.1728
X7.2057Y-4.8728
X7.2307Y-1.9728
X7.2307Y-4.3978
X7.2307Y-5.7478
X7.2557Y-2.9478
X7.2557Y-3.7228
X7.2557Y-4.0978
X7.2807Y-3.2228
X7.2807Y-6.0728
X7.3057Y-2.1728
X7.3057Y-2.6728
X7.3307Y-4.5478
X7.3307Y-4.9728
X7.3557Y-2.0728
X7.3557Y-3.4228
X7.3557Y-4.2728
X7.3557Y-5.5728
X7.3807Y-2.4728
X7.3807Y-4.0228
X7.3807Y-4.6728
X7.4057Y-3.8978
X7.4057Y-4.3978
X7.4057Y-5.7478
X7.4307Y-1.9728
X7.4307Y-2.3228
X7.4307Y-3.0728
X7.4307Y-3.7978
X7.4307Y-4.8728
X7.4557Y-2.5978
X7.4557Y-2.8728
X7.4807Y-3.2228
X7.5057Y-4.9728
X7.5307Y-2.1728
X7.5307Y-3.4228
X7.5557Y-3.8228
X7.5557Y-4.1978
X7.5557Y-4.3978
X7.5557Y-4.4978
X7.5807Y-1.9728
X7.5807Y-3.0228
X7.6057Y-4.9228
X7.6307Y-3.0728
X7.6307Y-3.1728
X7.6307Y-4.6728
X7.6807Y-3.8228
X7.6807Y-4.3228
X7.6807Y-6.0728
X7.7057Y-5.5728
X7.7057Y-5.6978
X7.7307Y-1.9728
X7.7307Y-2.9728
X7.7307Y-4.5978
X7.7307Y-4.9728
X7.7307Y-5.4728
X7.7807Y-3.2228
X7.7807Y-3.4228
X7.7807Y-5.7228
X7.8307Y-5.5228
X7.8307Y-5.5728
X7.8557Y-5.6728
X7.8807Y-1.9728
X7.8807Y-2.1228
X7.8807Y-2.3228
X7.8807Y-2.6228
X7.8807Y-2.9228
X7.8807Y-3.1728
X7.8807Y-3.5478
X7.8807Y-3.6228
X7.8807Y-5.6228
X7.8807Y-5.8728
X7.8807Y-6.0728
T3
X6.1307Y-4.8228
X6.1307Y-5.1228
X6.2307Y-4.8226
X6.2307Y-5.1226
X6.5307Y-4.8228
X6.5307Y-5.1228
X6.6307Y-4.8228
X6.6307Y-5.1228
X7.0807Y-3.0728
X7.0807Y-3.1228
X7.0807Y-3.1728
T4
X6.1307Y-2.3228
X6.1307Y-2.7228
X6.1307Y-5.2228
X6.1307Y-5.6228
X6.1311Y-2.8244
X6.1311Y-2.9228
X6.2307Y-3.3228
X6.2307Y-3.7228
X6.2307Y-5.2228
X6.2307Y-5.6228
X6.2311Y-2.6232
X6.2311Y-2.7232
X6.2311Y-2.8232
X6.2311Y-2.9232
X6.2311Y-3.0228
X6.2311Y-3.1228
X6.3307Y-2.1228
X6.3307Y-5.1228
X6.3307Y-5.2228
X6.3307Y-5.4197
X6.4291Y-5.1228
X6.4307Y-3.8228
X6.4307Y-4.2228
X6.4323Y-2.5228
X6.4823Y-2.3228
X6.5307Y-2.5228
X6.5307Y-5.2228
X6.5307Y-5.6228
X6.5311Y-2.6232
X6.5311Y-2.7232
X6.5311Y-2.8232
X6.5311Y-2.9232
X6.5323Y-2.2228
X6.5807Y-2.3228
X6.5807Y-3.8228
X6.5807Y-4.2228
X6.6307Y-2.2228
X6.6307Y-4.3244
X6.6307Y-4.4228
X6.6307Y-5.2228
X6.6307Y-5.6228
X6.6311Y-2.7228
X6.6311Y-2.8213
X6.6311Y-3.0228
X6.6311Y-3.1228
X6.6807Y-3.8228
X6.6807Y-4.2228
X6.6807Y-4.5228
X6.6807Y-4.6213
X6.6823Y-2.0228
X6.7307Y-2.1228
X6.7307Y-2.9228
X6.7307Y-3.0213
X6.7307Y-5.1228
X6.7807Y-2.0228
X6.7807Y-3.9228
X6.7807Y-4.0213
X6.7807Y-4.1228
X6.7807Y-4.5228
X6.8291Y-5.1228
X6.8307Y-2.9728
X6.8307Y-3.3728
X6.8807Y-2.0228
X6.8807Y-3.7228
X6.8807Y-3.8228
X6.8807Y-3.9228
X6.8807Y-4.0228
X6.8807Y-4.1228
X6.8807Y-4.2228
X6.8807Y-4.3228
X6.9307Y-2.9728
X6.9307Y-3.3728
X7.1807Y-3.7228
X7.1807Y-3.8228
X7.1807Y-3.9228
X7.1807Y-4.0228
X7.1807Y-4.1228
X7.1807Y-4.2228
X7.1807Y-4.3228
X7.1807Y-5.6728
X7.1807Y-6.0728
X7.2307Y-3.1228
X7.2307Y-3.5228
X7.2807Y-2.0228
X7.2807Y-3.9244
X7.2807Y-4.0228
X7.3307Y-2.9244
X7.3307Y-3.0228
X7.3307Y-5.0728
X7.4291Y-5.0728
X7.4307Y-2.7228
X7.4807Y-3.9228
X7.4807Y-4.0228
X7.4807Y-4.1228
X7.5276Y-2.3244
X7.5276Y-2.4228
X7.5307Y-2.5228
X7.5307Y-2.6228
X7.5823Y-5.0728
X7.6291Y-2.5228
X7.6291Y-2.6228
X7.6307Y-2.0228
X7.6307Y-2.4228
X7.6807Y-5.0728
X7.8307Y-2.7228
T5
X6.9807Y-2.6228
X6.9807Y-3.5228
X7.0807Y-2.6228
X7.0807Y-3.5228
T6
X6.9323Y-4.4276
X7.0307Y-4.4276
X7.1291Y-4.4276
X7.2807Y-5.2728
X7.2807Y-5.3728
X7.3807Y-5.2728
X7.3807Y-5.3728
X7.4323Y-5.6276
X7.4807Y-5.2728
X7.4807Y-5.3728
X7.5307Y-5.6276
X7.5807Y-5.2728
X7.5807Y-5.3728
X7.6291Y-5.6276
X7.6807Y-5.2728
X7.6807Y-5.3728
T7
X6.8098Y-2.4508
X6.8098Y-2.5929
X6.8945Y-2.3354
X6.8945Y-2.7098
X7.0307Y-2.2906
X7.1665Y-2.3354
X7.1665Y-2.7098
X7.2512Y-2.4508
X7.2512Y-2.5945
T9
X6.8437Y-4.7228
X7.2177Y-4.7228
X7.3437Y-5.9228
X7.7177Y-5.9228
T2
G00X6.2413Y-5.7339
M15
G01X6.3201Y-5.7339
M16
G05
G00X6.2413Y-6.0528
M15
G01X6.3201Y-6.0528
M16
G05
G00X6.7413Y-5.7339
M15
G01X6.8201Y-5.7339
M16
G05
G00X6.7413Y-6.0528
M15
G01X6.8201Y-6.0528
M16
G05
T6
G00X6.0957Y-5.9169
M15
G01X6.0957Y-5.976
M16
G05
G00X6.4657Y-5.9366
M15
G01X6.4657Y-5.9563
M16
G05
G00X6.5957Y-5.9169
M15
G01X6.5957Y-5.976
M16
G05
G00X6.9657Y-5.9366
M15
G01X6.9657Y-5.9563
M16
G05
T8
G00X6.4107Y-3.3378
M15
G01X6.4657Y-3.3378
M16
G05
G00X6.4107Y-3.5228
M15
G01X6.4657Y-3.5228
M16
G05
G00X6.4107Y-3.7078
M15
G01X6.4657Y-3.7078
M16
G05
G00X6.5957Y-3.3378
M15
G01X6.6507Y-3.3378
M16
G05
G00X6.5957Y-3.5228
M15
G01X6.6507Y-3.5228
M16
G05
G00X6.5957Y-3.7078
M15
G01X6.6507Y-3.7078
M16
G05
G00X7.4107Y-3.3378
M15
G01X7.4657Y-3.3378
M16
G05
G00X7.4107Y-3.5228
M15
G01X7.4657Y-3.5228
M16
G05
G00X7.4107Y-3.7078
M15
G01X7.4657Y-3.7078
M16
G05
G00X7.5957Y-3.3378
M15
G01X7.6507Y-3.3378
M16
G05
G00X7.5957Y-3.5228
M15
G01X7.6507Y-3.5228
M16
G05
G00X7.5957Y-3.7078
M15
G01X7.6507Y-3.7078
M16
G05
T0
M30
