%TF.GenerationSoftware,KiCad,Pcbnew,(6.0.5)*%
%TF.CreationDate,2023-02-15T13:44:48-05:00*%
%TF.ProjectId,valve_distortion,76616c76-655f-4646-9973-746f7274696f,rev?*%
%TF.SameCoordinates,Original*%
%TF.FileFunction,Legend,Top*%
%TF.FilePolarity,Positive*%
%FSLAX46Y46*%
G04 Gerber Fmt 4.6, Leading zero omitted, Abs format (unit mm)*
G04 Created by KiCad (PCBNEW (6.0.5)) date 2023-02-15 13:44:48*
%MOMM*%
%LPD*%
G01*
G04 APERTURE LIST*
G04 Aperture macros list*
%AMRoundRect*
0 Rectangle with rounded corners*
0 $1 Rounding radius*
0 $2 $3 $4 $5 $6 $7 $8 $9 X,Y pos of 4 corners*
0 Add a 4 corners polygon primitive as box body*
4,1,4,$2,$3,$4,$5,$6,$7,$8,$9,$2,$3,0*
0 Add four circle primitives for the rounded corners*
1,1,$1+$1,$2,$3*
1,1,$1+$1,$4,$5*
1,1,$1+$1,$6,$7*
1,1,$1+$1,$8,$9*
0 Add four rect primitives between the rounded corners*
20,1,$1+$1,$2,$3,$4,$5,0*
20,1,$1+$1,$4,$5,$6,$7,0*
20,1,$1+$1,$6,$7,$8,$9,0*
20,1,$1+$1,$8,$9,$2,$3,0*%
G04 Aperture macros list end*
%ADD10C,0.150000*%
%ADD11C,0.090000*%
%ADD12C,0.120000*%
%ADD13R,1.600000X1.600000*%
%ADD14O,1.600000X1.600000*%
%ADD15C,1.600000*%
%ADD16RoundRect,0.698500X-1.333500X-0.698500X1.333500X-0.698500X1.333500X0.698500X-1.333500X0.698500X0*%
%ADD17O,4.000000X4.000000*%
%ADD18R,1.800000X1.800000*%
%ADD19C,1.800000*%
%ADD20C,3.000000*%
%ADD21R,1.500000X1.500000*%
%ADD22O,1.500000X1.500000*%
%ADD23R,1.500000X1.050000*%
%ADD24O,1.500000X1.050000*%
%ADD25O,2.000000X3.500000*%
%ADD26O,2.000000X2.500000*%
%ADD27O,3.500000X1.500000*%
%ADD28C,1.440000*%
%ADD29RoundRect,0.250000X0.600000X-0.600000X0.600000X0.600000X-0.600000X0.600000X-0.600000X-0.600000X0*%
%ADD30C,1.700000*%
%ADD31C,2.030000*%
G04 APERTURE END LIST*
D10*
X172865000Y-96465000D02*
X170960000Y-96465000D01*
X172865000Y-95830000D02*
X172865000Y-96465000D01*
%TO.C,U1*%
X157498095Y-63532380D02*
X157498095Y-64341904D01*
X157545714Y-64437142D01*
X157593333Y-64484761D01*
X157688571Y-64532380D01*
X157879047Y-64532380D01*
X157974285Y-64484761D01*
X158021904Y-64437142D01*
X158069523Y-64341904D01*
X158069523Y-63532380D01*
X159069523Y-64532380D02*
X158498095Y-64532380D01*
X158783809Y-64532380D02*
X158783809Y-63532380D01*
X158688571Y-63675238D01*
X158593333Y-63770476D01*
X158498095Y-63818095D01*
%TO.C,R16*%
X163792380Y-138382857D02*
X163316190Y-138716190D01*
X163792380Y-138954285D02*
X162792380Y-138954285D01*
X162792380Y-138573333D01*
X162840000Y-138478095D01*
X162887619Y-138430476D01*
X162982857Y-138382857D01*
X163125714Y-138382857D01*
X163220952Y-138430476D01*
X163268571Y-138478095D01*
X163316190Y-138573333D01*
X163316190Y-138954285D01*
X163792380Y-137430476D02*
X163792380Y-138001904D01*
X163792380Y-137716190D02*
X162792380Y-137716190D01*
X162935238Y-137811428D01*
X163030476Y-137906666D01*
X163078095Y-138001904D01*
X162792380Y-136573333D02*
X162792380Y-136763809D01*
X162840000Y-136859047D01*
X162887619Y-136906666D01*
X163030476Y-137001904D01*
X163220952Y-137049523D01*
X163601904Y-137049523D01*
X163697142Y-137001904D01*
X163744761Y-136954285D01*
X163792380Y-136859047D01*
X163792380Y-136668571D01*
X163744761Y-136573333D01*
X163697142Y-136525714D01*
X163601904Y-136478095D01*
X163363809Y-136478095D01*
X163268571Y-136525714D01*
X163220952Y-136573333D01*
X163173333Y-136668571D01*
X163173333Y-136859047D01*
X163220952Y-136954285D01*
X163268571Y-137001904D01*
X163363809Y-137049523D01*
X165427619Y-138906666D02*
X165380000Y-138859047D01*
X165332380Y-138763809D01*
X165332380Y-138525714D01*
X165380000Y-138430476D01*
X165427619Y-138382857D01*
X165522857Y-138335238D01*
X165618095Y-138335238D01*
X165760952Y-138382857D01*
X166332380Y-138954285D01*
X166332380Y-138335238D01*
X165427619Y-137954285D02*
X165380000Y-137906666D01*
X165332380Y-137811428D01*
X165332380Y-137573333D01*
X165380000Y-137478095D01*
X165427619Y-137430476D01*
X165522857Y-137382857D01*
X165618095Y-137382857D01*
X165760952Y-137430476D01*
X166332380Y-138001904D01*
X166332380Y-137382857D01*
X166332380Y-136954285D02*
X165332380Y-136954285D01*
X165951428Y-136859047D02*
X166332380Y-136573333D01*
X165665714Y-136573333D02*
X166046666Y-136954285D01*
%TO.C,R3*%
X155553333Y-57547380D02*
X155220000Y-57071190D01*
X154981904Y-57547380D02*
X154981904Y-56547380D01*
X155362857Y-56547380D01*
X155458095Y-56595000D01*
X155505714Y-56642619D01*
X155553333Y-56737857D01*
X155553333Y-56880714D01*
X155505714Y-56975952D01*
X155458095Y-57023571D01*
X155362857Y-57071190D01*
X154981904Y-57071190D01*
X155886666Y-56547380D02*
X156505714Y-56547380D01*
X156172380Y-56928333D01*
X156315238Y-56928333D01*
X156410476Y-56975952D01*
X156458095Y-57023571D01*
X156505714Y-57118809D01*
X156505714Y-57356904D01*
X156458095Y-57452142D01*
X156410476Y-57499761D01*
X156315238Y-57547380D01*
X156029523Y-57547380D01*
X155934285Y-57499761D01*
X155886666Y-57452142D01*
X156172380Y-65151428D02*
X156172380Y-65722857D01*
X156172380Y-65437142D02*
X155172380Y-65437142D01*
X155315238Y-65532380D01*
X155410476Y-65627619D01*
X155458095Y-65722857D01*
X155172380Y-64532380D02*
X155172380Y-64437142D01*
X155220000Y-64341904D01*
X155267619Y-64294285D01*
X155362857Y-64246666D01*
X155553333Y-64199047D01*
X155791428Y-64199047D01*
X155981904Y-64246666D01*
X156077142Y-64294285D01*
X156124761Y-64341904D01*
X156172380Y-64437142D01*
X156172380Y-64532380D01*
X156124761Y-64627619D01*
X156077142Y-64675238D01*
X155981904Y-64722857D01*
X155791428Y-64770476D01*
X155553333Y-64770476D01*
X155362857Y-64722857D01*
X155267619Y-64675238D01*
X155220000Y-64627619D01*
X155172380Y-64532380D01*
X155172380Y-63580000D02*
X155172380Y-63484761D01*
X155220000Y-63389523D01*
X155267619Y-63341904D01*
X155362857Y-63294285D01*
X155553333Y-63246666D01*
X155791428Y-63246666D01*
X155981904Y-63294285D01*
X156077142Y-63341904D01*
X156124761Y-63389523D01*
X156172380Y-63484761D01*
X156172380Y-63580000D01*
X156124761Y-63675238D01*
X156077142Y-63722857D01*
X155981904Y-63770476D01*
X155791428Y-63818095D01*
X155553333Y-63818095D01*
X155362857Y-63770476D01*
X155267619Y-63722857D01*
X155220000Y-63675238D01*
X155172380Y-63580000D01*
X156172380Y-62818095D02*
X155172380Y-62818095D01*
X155791428Y-62722857D02*
X156172380Y-62437142D01*
X155505714Y-62437142D02*
X155886666Y-62818095D01*
%TO.C,SW2*%
X189946666Y-82384761D02*
X190089523Y-82432380D01*
X190327619Y-82432380D01*
X190422857Y-82384761D01*
X190470476Y-82337142D01*
X190518095Y-82241904D01*
X190518095Y-82146666D01*
X190470476Y-82051428D01*
X190422857Y-82003809D01*
X190327619Y-81956190D01*
X190137142Y-81908571D01*
X190041904Y-81860952D01*
X189994285Y-81813333D01*
X189946666Y-81718095D01*
X189946666Y-81622857D01*
X189994285Y-81527619D01*
X190041904Y-81480000D01*
X190137142Y-81432380D01*
X190375238Y-81432380D01*
X190518095Y-81480000D01*
X190851428Y-81432380D02*
X191089523Y-82432380D01*
X191280000Y-81718095D01*
X191470476Y-82432380D01*
X191708571Y-81432380D01*
X192041904Y-81527619D02*
X192089523Y-81480000D01*
X192184761Y-81432380D01*
X192422857Y-81432380D01*
X192518095Y-81480000D01*
X192565714Y-81527619D01*
X192613333Y-81622857D01*
X192613333Y-81718095D01*
X192565714Y-81860952D01*
X191994285Y-82432380D01*
X192613333Y-82432380D01*
%TO.C,C5*%
X166983333Y-51737142D02*
X166935714Y-51784761D01*
X166792857Y-51832380D01*
X166697619Y-51832380D01*
X166554761Y-51784761D01*
X166459523Y-51689523D01*
X166411904Y-51594285D01*
X166364285Y-51403809D01*
X166364285Y-51260952D01*
X166411904Y-51070476D01*
X166459523Y-50975238D01*
X166554761Y-50880000D01*
X166697619Y-50832380D01*
X166792857Y-50832380D01*
X166935714Y-50880000D01*
X166983333Y-50927619D01*
X167888095Y-50832380D02*
X167411904Y-50832380D01*
X167364285Y-51308571D01*
X167411904Y-51260952D01*
X167507142Y-51213333D01*
X167745238Y-51213333D01*
X167840476Y-51260952D01*
X167888095Y-51308571D01*
X167935714Y-51403809D01*
X167935714Y-51641904D01*
X167888095Y-51737142D01*
X167840476Y-51784761D01*
X167745238Y-51832380D01*
X167507142Y-51832380D01*
X167411904Y-51784761D01*
X167364285Y-51737142D01*
D11*
X170031428Y-49746428D02*
X169688571Y-49746428D01*
X169860000Y-49746428D02*
X169860000Y-49146428D01*
X169802857Y-49232142D01*
X169745714Y-49289285D01*
X169688571Y-49317857D01*
X170402857Y-49146428D02*
X170460000Y-49146428D01*
X170517142Y-49175000D01*
X170545714Y-49203571D01*
X170574285Y-49260714D01*
X170602857Y-49375000D01*
X170602857Y-49517857D01*
X170574285Y-49632142D01*
X170545714Y-49689285D01*
X170517142Y-49717857D01*
X170460000Y-49746428D01*
X170402857Y-49746428D01*
X170345714Y-49717857D01*
X170317142Y-49689285D01*
X170288571Y-49632142D01*
X170260000Y-49517857D01*
X170260000Y-49375000D01*
X170288571Y-49260714D01*
X170317142Y-49203571D01*
X170345714Y-49175000D01*
X170402857Y-49146428D01*
X170974285Y-49146428D02*
X171031428Y-49146428D01*
X171088571Y-49175000D01*
X171117142Y-49203571D01*
X171145714Y-49260714D01*
X171174285Y-49375000D01*
X171174285Y-49517857D01*
X171145714Y-49632142D01*
X171117142Y-49689285D01*
X171088571Y-49717857D01*
X171031428Y-49746428D01*
X170974285Y-49746428D01*
X170917142Y-49717857D01*
X170888571Y-49689285D01*
X170860000Y-49632142D01*
X170831428Y-49517857D01*
X170831428Y-49375000D01*
X170860000Y-49260714D01*
X170888571Y-49203571D01*
X170917142Y-49175000D01*
X170974285Y-49146428D01*
X171431428Y-49346428D02*
X171431428Y-49946428D01*
X171431428Y-49375000D02*
X171488571Y-49346428D01*
X171602857Y-49346428D01*
X171660000Y-49375000D01*
X171688571Y-49403571D01*
X171717142Y-49460714D01*
X171717142Y-49632142D01*
X171688571Y-49689285D01*
X171660000Y-49717857D01*
X171602857Y-49746428D01*
X171488571Y-49746428D01*
X171431428Y-49717857D01*
X172174285Y-49432142D02*
X171974285Y-49432142D01*
X171974285Y-49746428D02*
X171974285Y-49146428D01*
X172260000Y-49146428D01*
D10*
%TO.C,RV2*%
X190684761Y-156892380D02*
X190351428Y-156416190D01*
X190113333Y-156892380D02*
X190113333Y-155892380D01*
X190494285Y-155892380D01*
X190589523Y-155940000D01*
X190637142Y-155987619D01*
X190684761Y-156082857D01*
X190684761Y-156225714D01*
X190637142Y-156320952D01*
X190589523Y-156368571D01*
X190494285Y-156416190D01*
X190113333Y-156416190D01*
X190970476Y-155892380D02*
X191303809Y-156892380D01*
X191637142Y-155892380D01*
X191922857Y-155987619D02*
X191970476Y-155940000D01*
X192065714Y-155892380D01*
X192303809Y-155892380D01*
X192399047Y-155940000D01*
X192446666Y-155987619D01*
X192494285Y-156082857D01*
X192494285Y-156178095D01*
X192446666Y-156320952D01*
X191875238Y-156892380D01*
X192494285Y-156892380D01*
%TO.C,R19*%
X185557142Y-79772380D02*
X185223809Y-79296190D01*
X184985714Y-79772380D02*
X184985714Y-78772380D01*
X185366666Y-78772380D01*
X185461904Y-78820000D01*
X185509523Y-78867619D01*
X185557142Y-78962857D01*
X185557142Y-79105714D01*
X185509523Y-79200952D01*
X185461904Y-79248571D01*
X185366666Y-79296190D01*
X184985714Y-79296190D01*
X186509523Y-79772380D02*
X185938095Y-79772380D01*
X186223809Y-79772380D02*
X186223809Y-78772380D01*
X186128571Y-78915238D01*
X186033333Y-79010476D01*
X185938095Y-79058095D01*
X186985714Y-79772380D02*
X187176190Y-79772380D01*
X187271428Y-79724761D01*
X187319047Y-79677142D01*
X187414285Y-79534285D01*
X187461904Y-79343809D01*
X187461904Y-78962857D01*
X187414285Y-78867619D01*
X187366666Y-78820000D01*
X187271428Y-78772380D01*
X187080952Y-78772380D01*
X186985714Y-78820000D01*
X186938095Y-78867619D01*
X186890476Y-78962857D01*
X186890476Y-79200952D01*
X186938095Y-79296190D01*
X186985714Y-79343809D01*
X187080952Y-79391428D01*
X187271428Y-79391428D01*
X187366666Y-79343809D01*
X187414285Y-79296190D01*
X187461904Y-79200952D01*
X184112380Y-85471428D02*
X184112380Y-86042857D01*
X184112380Y-85757142D02*
X183112380Y-85757142D01*
X183255238Y-85852380D01*
X183350476Y-85947619D01*
X183398095Y-86042857D01*
X183112380Y-84852380D02*
X183112380Y-84757142D01*
X183160000Y-84661904D01*
X183207619Y-84614285D01*
X183302857Y-84566666D01*
X183493333Y-84519047D01*
X183731428Y-84519047D01*
X183921904Y-84566666D01*
X184017142Y-84614285D01*
X184064761Y-84661904D01*
X184112380Y-84757142D01*
X184112380Y-84852380D01*
X184064761Y-84947619D01*
X184017142Y-84995238D01*
X183921904Y-85042857D01*
X183731428Y-85090476D01*
X183493333Y-85090476D01*
X183302857Y-85042857D01*
X183207619Y-84995238D01*
X183160000Y-84947619D01*
X183112380Y-84852380D01*
X183112380Y-83900000D02*
X183112380Y-83804761D01*
X183160000Y-83709523D01*
X183207619Y-83661904D01*
X183302857Y-83614285D01*
X183493333Y-83566666D01*
X183731428Y-83566666D01*
X183921904Y-83614285D01*
X184017142Y-83661904D01*
X184064761Y-83709523D01*
X184112380Y-83804761D01*
X184112380Y-83900000D01*
X184064761Y-83995238D01*
X184017142Y-84042857D01*
X183921904Y-84090476D01*
X183731428Y-84138095D01*
X183493333Y-84138095D01*
X183302857Y-84090476D01*
X183207619Y-84042857D01*
X183160000Y-83995238D01*
X183112380Y-83900000D01*
X184112380Y-83138095D02*
X183112380Y-83138095D01*
X183731428Y-83042857D02*
X184112380Y-82757142D01*
X183445714Y-82757142D02*
X183826666Y-83138095D01*
%TO.C,D2*%
X157521904Y-121047380D02*
X157521904Y-120047380D01*
X157760000Y-120047380D01*
X157902857Y-120095000D01*
X157998095Y-120190238D01*
X158045714Y-120285476D01*
X158093333Y-120475952D01*
X158093333Y-120618809D01*
X158045714Y-120809285D01*
X157998095Y-120904523D01*
X157902857Y-120999761D01*
X157760000Y-121047380D01*
X157521904Y-121047380D01*
X158474285Y-120142619D02*
X158521904Y-120095000D01*
X158617142Y-120047380D01*
X158855238Y-120047380D01*
X158950476Y-120095000D01*
X158998095Y-120142619D01*
X159045714Y-120237857D01*
X159045714Y-120333095D01*
X158998095Y-120475952D01*
X158426666Y-121047380D01*
X159045714Y-121047380D01*
%TO.C,R20*%
X175222380Y-88852857D02*
X174746190Y-89186190D01*
X175222380Y-89424285D02*
X174222380Y-89424285D01*
X174222380Y-89043333D01*
X174270000Y-88948095D01*
X174317619Y-88900476D01*
X174412857Y-88852857D01*
X174555714Y-88852857D01*
X174650952Y-88900476D01*
X174698571Y-88948095D01*
X174746190Y-89043333D01*
X174746190Y-89424285D01*
X174317619Y-88471904D02*
X174270000Y-88424285D01*
X174222380Y-88329047D01*
X174222380Y-88090952D01*
X174270000Y-87995714D01*
X174317619Y-87948095D01*
X174412857Y-87900476D01*
X174508095Y-87900476D01*
X174650952Y-87948095D01*
X175222380Y-88519523D01*
X175222380Y-87900476D01*
X174222380Y-87281428D02*
X174222380Y-87186190D01*
X174270000Y-87090952D01*
X174317619Y-87043333D01*
X174412857Y-86995714D01*
X174603333Y-86948095D01*
X174841428Y-86948095D01*
X175031904Y-86995714D01*
X175127142Y-87043333D01*
X175174761Y-87090952D01*
X175222380Y-87186190D01*
X175222380Y-87281428D01*
X175174761Y-87376666D01*
X175127142Y-87424285D01*
X175031904Y-87471904D01*
X174841428Y-87519523D01*
X174603333Y-87519523D01*
X174412857Y-87471904D01*
X174317619Y-87424285D01*
X174270000Y-87376666D01*
X174222380Y-87281428D01*
X176492380Y-80709047D02*
X176492380Y-81280476D01*
X176492380Y-80994761D02*
X175492380Y-80994761D01*
X175635238Y-81090000D01*
X175730476Y-81185238D01*
X175778095Y-81280476D01*
X176492380Y-80280476D02*
X175492380Y-80280476D01*
X176111428Y-80185238D02*
X176492380Y-79899523D01*
X175825714Y-79899523D02*
X176206666Y-80280476D01*
%TO.C,C16*%
X180832261Y-127937142D02*
X180784642Y-127984761D01*
X180641785Y-128032380D01*
X180546547Y-128032380D01*
X180403690Y-127984761D01*
X180308452Y-127889523D01*
X180260833Y-127794285D01*
X180213214Y-127603809D01*
X180213214Y-127460952D01*
X180260833Y-127270476D01*
X180308452Y-127175238D01*
X180403690Y-127080000D01*
X180546547Y-127032380D01*
X180641785Y-127032380D01*
X180784642Y-127080000D01*
X180832261Y-127127619D01*
X181784642Y-128032380D02*
X181213214Y-128032380D01*
X181498928Y-128032380D02*
X181498928Y-127032380D01*
X181403690Y-127175238D01*
X181308452Y-127270476D01*
X181213214Y-127318095D01*
X182641785Y-127032380D02*
X182451309Y-127032380D01*
X182356071Y-127080000D01*
X182308452Y-127127619D01*
X182213214Y-127270476D01*
X182165595Y-127460952D01*
X182165595Y-127841904D01*
X182213214Y-127937142D01*
X182260833Y-127984761D01*
X182356071Y-128032380D01*
X182546547Y-128032380D01*
X182641785Y-127984761D01*
X182689404Y-127937142D01*
X182737023Y-127841904D01*
X182737023Y-127603809D01*
X182689404Y-127508571D01*
X182641785Y-127460952D01*
X182546547Y-127413333D01*
X182356071Y-127413333D01*
X182260833Y-127460952D01*
X182213214Y-127508571D01*
X182165595Y-127603809D01*
X179070357Y-129937380D02*
X178498928Y-129937380D01*
X178784642Y-129937380D02*
X178784642Y-128937380D01*
X178689404Y-129080238D01*
X178594166Y-129175476D01*
X178498928Y-129223095D01*
X179689404Y-128937380D02*
X179784642Y-128937380D01*
X179879880Y-128985000D01*
X179927500Y-129032619D01*
X179975119Y-129127857D01*
X180022738Y-129318333D01*
X180022738Y-129556428D01*
X179975119Y-129746904D01*
X179927500Y-129842142D01*
X179879880Y-129889761D01*
X179784642Y-129937380D01*
X179689404Y-129937380D01*
X179594166Y-129889761D01*
X179546547Y-129842142D01*
X179498928Y-129746904D01*
X179451309Y-129556428D01*
X179451309Y-129318333D01*
X179498928Y-129127857D01*
X179546547Y-129032619D01*
X179594166Y-128985000D01*
X179689404Y-128937380D01*
X180641785Y-128937380D02*
X180737023Y-128937380D01*
X180832261Y-128985000D01*
X180879880Y-129032619D01*
X180927500Y-129127857D01*
X180975119Y-129318333D01*
X180975119Y-129556428D01*
X180927500Y-129746904D01*
X180879880Y-129842142D01*
X180832261Y-129889761D01*
X180737023Y-129937380D01*
X180641785Y-129937380D01*
X180546547Y-129889761D01*
X180498928Y-129842142D01*
X180451309Y-129746904D01*
X180403690Y-129556428D01*
X180403690Y-129318333D01*
X180451309Y-129127857D01*
X180498928Y-129032619D01*
X180546547Y-128985000D01*
X180641785Y-128937380D01*
X181832261Y-129270714D02*
X181832261Y-129937380D01*
X181403690Y-129270714D02*
X181403690Y-129794523D01*
X181451309Y-129889761D01*
X181546547Y-129937380D01*
X181689404Y-129937380D01*
X181784642Y-129889761D01*
X181832261Y-129842142D01*
X182641785Y-129413571D02*
X182308452Y-129413571D01*
X182308452Y-129937380D02*
X182308452Y-128937380D01*
X182784642Y-128937380D01*
%TO.C,R13*%
X165697380Y-98377857D02*
X165221190Y-98711190D01*
X165697380Y-98949285D02*
X164697380Y-98949285D01*
X164697380Y-98568333D01*
X164745000Y-98473095D01*
X164792619Y-98425476D01*
X164887857Y-98377857D01*
X165030714Y-98377857D01*
X165125952Y-98425476D01*
X165173571Y-98473095D01*
X165221190Y-98568333D01*
X165221190Y-98949285D01*
X165697380Y-97425476D02*
X165697380Y-97996904D01*
X165697380Y-97711190D02*
X164697380Y-97711190D01*
X164840238Y-97806428D01*
X164935476Y-97901666D01*
X164983095Y-97996904D01*
X164697380Y-97092142D02*
X164697380Y-96473095D01*
X165078333Y-96806428D01*
X165078333Y-96663571D01*
X165125952Y-96568333D01*
X165173571Y-96520714D01*
X165268809Y-96473095D01*
X165506904Y-96473095D01*
X165602142Y-96520714D01*
X165649761Y-96568333D01*
X165697380Y-96663571D01*
X165697380Y-96949285D01*
X165649761Y-97044523D01*
X165602142Y-97092142D01*
X166697619Y-103346666D02*
X166650000Y-103299047D01*
X166602380Y-103203809D01*
X166602380Y-102965714D01*
X166650000Y-102870476D01*
X166697619Y-102822857D01*
X166792857Y-102775238D01*
X166888095Y-102775238D01*
X167030952Y-102822857D01*
X167602380Y-103394285D01*
X167602380Y-102775238D01*
X166697619Y-102394285D02*
X166650000Y-102346666D01*
X166602380Y-102251428D01*
X166602380Y-102013333D01*
X166650000Y-101918095D01*
X166697619Y-101870476D01*
X166792857Y-101822857D01*
X166888095Y-101822857D01*
X167030952Y-101870476D01*
X167602380Y-102441904D01*
X167602380Y-101822857D01*
X167602380Y-101394285D02*
X166602380Y-101394285D01*
X167221428Y-101299047D02*
X167602380Y-101013333D01*
X166935714Y-101013333D02*
X167316666Y-101394285D01*
%TO.C,C8*%
X196193333Y-63802142D02*
X196145714Y-63849761D01*
X196002857Y-63897380D01*
X195907619Y-63897380D01*
X195764761Y-63849761D01*
X195669523Y-63754523D01*
X195621904Y-63659285D01*
X195574285Y-63468809D01*
X195574285Y-63325952D01*
X195621904Y-63135476D01*
X195669523Y-63040238D01*
X195764761Y-62945000D01*
X195907619Y-62897380D01*
X196002857Y-62897380D01*
X196145714Y-62945000D01*
X196193333Y-62992619D01*
X196764761Y-63325952D02*
X196669523Y-63278333D01*
X196621904Y-63230714D01*
X196574285Y-63135476D01*
X196574285Y-63087857D01*
X196621904Y-62992619D01*
X196669523Y-62945000D01*
X196764761Y-62897380D01*
X196955238Y-62897380D01*
X197050476Y-62945000D01*
X197098095Y-62992619D01*
X197145714Y-63087857D01*
X197145714Y-63135476D01*
X197098095Y-63230714D01*
X197050476Y-63278333D01*
X196955238Y-63325952D01*
X196764761Y-63325952D01*
X196669523Y-63373571D01*
X196621904Y-63421190D01*
X196574285Y-63516428D01*
X196574285Y-63706904D01*
X196621904Y-63802142D01*
X196669523Y-63849761D01*
X196764761Y-63897380D01*
X196955238Y-63897380D01*
X197050476Y-63849761D01*
X197098095Y-63802142D01*
X197145714Y-63706904D01*
X197145714Y-63516428D01*
X197098095Y-63421190D01*
X197050476Y-63373571D01*
X196955238Y-63325952D01*
D11*
X195431428Y-64986428D02*
X195088571Y-64986428D01*
X195260000Y-64986428D02*
X195260000Y-64386428D01*
X195202857Y-64472142D01*
X195145714Y-64529285D01*
X195088571Y-64557857D01*
X195802857Y-64386428D02*
X195860000Y-64386428D01*
X195917142Y-64415000D01*
X195945714Y-64443571D01*
X195974285Y-64500714D01*
X196002857Y-64615000D01*
X196002857Y-64757857D01*
X195974285Y-64872142D01*
X195945714Y-64929285D01*
X195917142Y-64957857D01*
X195860000Y-64986428D01*
X195802857Y-64986428D01*
X195745714Y-64957857D01*
X195717142Y-64929285D01*
X195688571Y-64872142D01*
X195660000Y-64757857D01*
X195660000Y-64615000D01*
X195688571Y-64500714D01*
X195717142Y-64443571D01*
X195745714Y-64415000D01*
X195802857Y-64386428D01*
X196374285Y-64386428D02*
X196431428Y-64386428D01*
X196488571Y-64415000D01*
X196517142Y-64443571D01*
X196545714Y-64500714D01*
X196574285Y-64615000D01*
X196574285Y-64757857D01*
X196545714Y-64872142D01*
X196517142Y-64929285D01*
X196488571Y-64957857D01*
X196431428Y-64986428D01*
X196374285Y-64986428D01*
X196317142Y-64957857D01*
X196288571Y-64929285D01*
X196260000Y-64872142D01*
X196231428Y-64757857D01*
X196231428Y-64615000D01*
X196260000Y-64500714D01*
X196288571Y-64443571D01*
X196317142Y-64415000D01*
X196374285Y-64386428D01*
X196831428Y-64586428D02*
X196831428Y-65186428D01*
X196831428Y-64615000D02*
X196888571Y-64586428D01*
X197002857Y-64586428D01*
X197060000Y-64615000D01*
X197088571Y-64643571D01*
X197117142Y-64700714D01*
X197117142Y-64872142D01*
X197088571Y-64929285D01*
X197060000Y-64957857D01*
X197002857Y-64986428D01*
X196888571Y-64986428D01*
X196831428Y-64957857D01*
X197574285Y-64672142D02*
X197374285Y-64672142D01*
X197374285Y-64986428D02*
X197374285Y-64386428D01*
X197660000Y-64386428D01*
D10*
%TO.C,Q1*%
X179754761Y-83677619D02*
X179659523Y-83630000D01*
X179564285Y-83534761D01*
X179421428Y-83391904D01*
X179326190Y-83344285D01*
X179230952Y-83344285D01*
X179278571Y-83582380D02*
X179183333Y-83534761D01*
X179088095Y-83439523D01*
X179040476Y-83249047D01*
X179040476Y-82915714D01*
X179088095Y-82725238D01*
X179183333Y-82630000D01*
X179278571Y-82582380D01*
X179469047Y-82582380D01*
X179564285Y-82630000D01*
X179659523Y-82725238D01*
X179707142Y-82915714D01*
X179707142Y-83249047D01*
X179659523Y-83439523D01*
X179564285Y-83534761D01*
X179469047Y-83582380D01*
X179278571Y-83582380D01*
X180659523Y-83582380D02*
X180088095Y-83582380D01*
X180373809Y-83582380D02*
X180373809Y-82582380D01*
X180278571Y-82725238D01*
X180183333Y-82820476D01*
X180088095Y-82868095D01*
%TO.C,C10*%
X190282023Y-75232142D02*
X190234404Y-75279761D01*
X190091547Y-75327380D01*
X189996309Y-75327380D01*
X189853452Y-75279761D01*
X189758214Y-75184523D01*
X189710595Y-75089285D01*
X189662976Y-74898809D01*
X189662976Y-74755952D01*
X189710595Y-74565476D01*
X189758214Y-74470238D01*
X189853452Y-74375000D01*
X189996309Y-74327380D01*
X190091547Y-74327380D01*
X190234404Y-74375000D01*
X190282023Y-74422619D01*
X191234404Y-75327380D02*
X190662976Y-75327380D01*
X190948690Y-75327380D02*
X190948690Y-74327380D01*
X190853452Y-74470238D01*
X190758214Y-74565476D01*
X190662976Y-74613095D01*
X191853452Y-74327380D02*
X191948690Y-74327380D01*
X192043928Y-74375000D01*
X192091547Y-74422619D01*
X192139166Y-74517857D01*
X192186785Y-74708333D01*
X192186785Y-74946428D01*
X192139166Y-75136904D01*
X192091547Y-75232142D01*
X192043928Y-75279761D01*
X191948690Y-75327380D01*
X191853452Y-75327380D01*
X191758214Y-75279761D01*
X191710595Y-75232142D01*
X191662976Y-75136904D01*
X191615357Y-74946428D01*
X191615357Y-74708333D01*
X191662976Y-74517857D01*
X191710595Y-74422619D01*
X191758214Y-74375000D01*
X191853452Y-74327380D01*
X190234404Y-77232380D02*
X189662976Y-77232380D01*
X189948690Y-77232380D02*
X189948690Y-76232380D01*
X189853452Y-76375238D01*
X189758214Y-76470476D01*
X189662976Y-76518095D01*
X191091547Y-76565714D02*
X191091547Y-77232380D01*
X190662976Y-76565714D02*
X190662976Y-77089523D01*
X190710595Y-77184761D01*
X190805833Y-77232380D01*
X190948690Y-77232380D01*
X191043928Y-77184761D01*
X191091547Y-77137142D01*
X191901071Y-76708571D02*
X191567738Y-76708571D01*
X191567738Y-77232380D02*
X191567738Y-76232380D01*
X192043928Y-76232380D01*
%TO.C,C17*%
X154172142Y-73612857D02*
X154219761Y-73660476D01*
X154267380Y-73803333D01*
X154267380Y-73898571D01*
X154219761Y-74041428D01*
X154124523Y-74136666D01*
X154029285Y-74184285D01*
X153838809Y-74231904D01*
X153695952Y-74231904D01*
X153505476Y-74184285D01*
X153410238Y-74136666D01*
X153315000Y-74041428D01*
X153267380Y-73898571D01*
X153267380Y-73803333D01*
X153315000Y-73660476D01*
X153362619Y-73612857D01*
X154267380Y-72660476D02*
X154267380Y-73231904D01*
X154267380Y-72946190D02*
X153267380Y-72946190D01*
X153410238Y-73041428D01*
X153505476Y-73136666D01*
X153553095Y-73231904D01*
X153267380Y-72327142D02*
X153267380Y-71660476D01*
X154267380Y-72089047D01*
%TO.C,R6*%
X187303333Y-51832380D02*
X186970000Y-51356190D01*
X186731904Y-51832380D02*
X186731904Y-50832380D01*
X187112857Y-50832380D01*
X187208095Y-50880000D01*
X187255714Y-50927619D01*
X187303333Y-51022857D01*
X187303333Y-51165714D01*
X187255714Y-51260952D01*
X187208095Y-51308571D01*
X187112857Y-51356190D01*
X186731904Y-51356190D01*
X188160476Y-50832380D02*
X187970000Y-50832380D01*
X187874761Y-50880000D01*
X187827142Y-50927619D01*
X187731904Y-51070476D01*
X187684285Y-51260952D01*
X187684285Y-51641904D01*
X187731904Y-51737142D01*
X187779523Y-51784761D01*
X187874761Y-51832380D01*
X188065238Y-51832380D01*
X188160476Y-51784761D01*
X188208095Y-51737142D01*
X188255714Y-51641904D01*
X188255714Y-51403809D01*
X188208095Y-51308571D01*
X188160476Y-51260952D01*
X188065238Y-51213333D01*
X187874761Y-51213333D01*
X187779523Y-51260952D01*
X187731904Y-51308571D01*
X187684285Y-51403809D01*
X178111904Y-50927619D02*
X178159523Y-50880000D01*
X178254761Y-50832380D01*
X178492857Y-50832380D01*
X178588095Y-50880000D01*
X178635714Y-50927619D01*
X178683333Y-51022857D01*
X178683333Y-51118095D01*
X178635714Y-51260952D01*
X178064285Y-51832380D01*
X178683333Y-51832380D01*
X179064285Y-50927619D02*
X179111904Y-50880000D01*
X179207142Y-50832380D01*
X179445238Y-50832380D01*
X179540476Y-50880000D01*
X179588095Y-50927619D01*
X179635714Y-51022857D01*
X179635714Y-51118095D01*
X179588095Y-51260952D01*
X179016666Y-51832380D01*
X179635714Y-51832380D01*
X180254761Y-50832380D02*
X180350000Y-50832380D01*
X180445238Y-50880000D01*
X180492857Y-50927619D01*
X180540476Y-51022857D01*
X180588095Y-51213333D01*
X180588095Y-51451428D01*
X180540476Y-51641904D01*
X180492857Y-51737142D01*
X180445238Y-51784761D01*
X180350000Y-51832380D01*
X180254761Y-51832380D01*
X180159523Y-51784761D01*
X180111904Y-51737142D01*
X180064285Y-51641904D01*
X180016666Y-51451428D01*
X180016666Y-51213333D01*
X180064285Y-51022857D01*
X180111904Y-50927619D01*
X180159523Y-50880000D01*
X180254761Y-50832380D01*
X181016666Y-51832380D02*
X181016666Y-50832380D01*
X181588095Y-51832380D02*
X181159523Y-51260952D01*
X181588095Y-50832380D02*
X181016666Y-51403809D01*
%TO.C,RV1*%
X177984761Y-110887380D02*
X177651428Y-110411190D01*
X177413333Y-110887380D02*
X177413333Y-109887380D01*
X177794285Y-109887380D01*
X177889523Y-109935000D01*
X177937142Y-109982619D01*
X177984761Y-110077857D01*
X177984761Y-110220714D01*
X177937142Y-110315952D01*
X177889523Y-110363571D01*
X177794285Y-110411190D01*
X177413333Y-110411190D01*
X178270476Y-109887380D02*
X178603809Y-110887380D01*
X178937142Y-109887380D01*
X179794285Y-110887380D02*
X179222857Y-110887380D01*
X179508571Y-110887380D02*
X179508571Y-109887380D01*
X179413333Y-110030238D01*
X179318095Y-110125476D01*
X179222857Y-110173095D01*
%TO.C,R11*%
X161252380Y-102822857D02*
X160776190Y-103156190D01*
X161252380Y-103394285D02*
X160252380Y-103394285D01*
X160252380Y-103013333D01*
X160300000Y-102918095D01*
X160347619Y-102870476D01*
X160442857Y-102822857D01*
X160585714Y-102822857D01*
X160680952Y-102870476D01*
X160728571Y-102918095D01*
X160776190Y-103013333D01*
X160776190Y-103394285D01*
X161252380Y-101870476D02*
X161252380Y-102441904D01*
X161252380Y-102156190D02*
X160252380Y-102156190D01*
X160395238Y-102251428D01*
X160490476Y-102346666D01*
X160538095Y-102441904D01*
X161252380Y-100918095D02*
X161252380Y-101489523D01*
X161252380Y-101203809D02*
X160252380Y-101203809D01*
X160395238Y-101299047D01*
X160490476Y-101394285D01*
X160538095Y-101489523D01*
X162887619Y-103346666D02*
X162840000Y-103299047D01*
X162792380Y-103203809D01*
X162792380Y-102965714D01*
X162840000Y-102870476D01*
X162887619Y-102822857D01*
X162982857Y-102775238D01*
X163078095Y-102775238D01*
X163220952Y-102822857D01*
X163792380Y-103394285D01*
X163792380Y-102775238D01*
X162887619Y-102394285D02*
X162840000Y-102346666D01*
X162792380Y-102251428D01*
X162792380Y-102013333D01*
X162840000Y-101918095D01*
X162887619Y-101870476D01*
X162982857Y-101822857D01*
X163078095Y-101822857D01*
X163220952Y-101870476D01*
X163792380Y-102441904D01*
X163792380Y-101822857D01*
X163792380Y-101394285D02*
X162792380Y-101394285D01*
X163411428Y-101299047D02*
X163792380Y-101013333D01*
X163125714Y-101013333D02*
X163506666Y-101394285D01*
%TO.C,R5*%
X201257380Y-115046666D02*
X200781190Y-115380000D01*
X201257380Y-115618095D02*
X200257380Y-115618095D01*
X200257380Y-115237142D01*
X200305000Y-115141904D01*
X200352619Y-115094285D01*
X200447857Y-115046666D01*
X200590714Y-115046666D01*
X200685952Y-115094285D01*
X200733571Y-115141904D01*
X200781190Y-115237142D01*
X200781190Y-115618095D01*
X200257380Y-114141904D02*
X200257380Y-114618095D01*
X200733571Y-114665714D01*
X200685952Y-114618095D01*
X200638333Y-114522857D01*
X200638333Y-114284761D01*
X200685952Y-114189523D01*
X200733571Y-114141904D01*
X200828809Y-114094285D01*
X201066904Y-114094285D01*
X201162142Y-114141904D01*
X201209761Y-114189523D01*
X201257380Y-114284761D01*
X201257380Y-114522857D01*
X201209761Y-114618095D01*
X201162142Y-114665714D01*
X192653333Y-115332380D02*
X192081904Y-115332380D01*
X192367619Y-115332380D02*
X192367619Y-114332380D01*
X192272380Y-114475238D01*
X192177142Y-114570476D01*
X192081904Y-114618095D01*
X193272380Y-114332380D02*
X193367619Y-114332380D01*
X193462857Y-114380000D01*
X193510476Y-114427619D01*
X193558095Y-114522857D01*
X193605714Y-114713333D01*
X193605714Y-114951428D01*
X193558095Y-115141904D01*
X193510476Y-115237142D01*
X193462857Y-115284761D01*
X193367619Y-115332380D01*
X193272380Y-115332380D01*
X193177142Y-115284761D01*
X193129523Y-115237142D01*
X193081904Y-115141904D01*
X193034285Y-114951428D01*
X193034285Y-114713333D01*
X193081904Y-114522857D01*
X193129523Y-114427619D01*
X193177142Y-114380000D01*
X193272380Y-114332380D01*
X194224761Y-114332380D02*
X194320000Y-114332380D01*
X194415238Y-114380000D01*
X194462857Y-114427619D01*
X194510476Y-114522857D01*
X194558095Y-114713333D01*
X194558095Y-114951428D01*
X194510476Y-115141904D01*
X194462857Y-115237142D01*
X194415238Y-115284761D01*
X194320000Y-115332380D01*
X194224761Y-115332380D01*
X194129523Y-115284761D01*
X194081904Y-115237142D01*
X194034285Y-115141904D01*
X193986666Y-114951428D01*
X193986666Y-114713333D01*
X194034285Y-114522857D01*
X194081904Y-114427619D01*
X194129523Y-114380000D01*
X194224761Y-114332380D01*
X195558095Y-115332380D02*
X195224761Y-114856190D01*
X194986666Y-115332380D02*
X194986666Y-114332380D01*
X195367619Y-114332380D01*
X195462857Y-114380000D01*
X195510476Y-114427619D01*
X195558095Y-114522857D01*
X195558095Y-114665714D01*
X195510476Y-114760952D01*
X195462857Y-114808571D01*
X195367619Y-114856190D01*
X194986666Y-114856190D01*
%TO.C,J1*%
X162371666Y-142272380D02*
X162371666Y-142986666D01*
X162324047Y-143129523D01*
X162228809Y-143224761D01*
X162085952Y-143272380D01*
X161990714Y-143272380D01*
X163371666Y-143272380D02*
X162800238Y-143272380D01*
X163085952Y-143272380D02*
X163085952Y-142272380D01*
X162990714Y-142415238D01*
X162895476Y-142510476D01*
X162800238Y-142558095D01*
%TO.C,R17*%
X171242380Y-138382857D02*
X170766190Y-138716190D01*
X171242380Y-138954285D02*
X170242380Y-138954285D01*
X170242380Y-138573333D01*
X170290000Y-138478095D01*
X170337619Y-138430476D01*
X170432857Y-138382857D01*
X170575714Y-138382857D01*
X170670952Y-138430476D01*
X170718571Y-138478095D01*
X170766190Y-138573333D01*
X170766190Y-138954285D01*
X171242380Y-137430476D02*
X171242380Y-138001904D01*
X171242380Y-137716190D02*
X170242380Y-137716190D01*
X170385238Y-137811428D01*
X170480476Y-137906666D01*
X170528095Y-138001904D01*
X170242380Y-137097142D02*
X170242380Y-136430476D01*
X171242380Y-136859047D01*
X168872380Y-138906666D02*
X168872380Y-139478095D01*
X168872380Y-139192380D02*
X167872380Y-139192380D01*
X168015238Y-139287619D01*
X168110476Y-139382857D01*
X168158095Y-139478095D01*
X167872380Y-138287619D02*
X167872380Y-138192380D01*
X167920000Y-138097142D01*
X167967619Y-138049523D01*
X168062857Y-138001904D01*
X168253333Y-137954285D01*
X168491428Y-137954285D01*
X168681904Y-138001904D01*
X168777142Y-138049523D01*
X168824761Y-138097142D01*
X168872380Y-138192380D01*
X168872380Y-138287619D01*
X168824761Y-138382857D01*
X168777142Y-138430476D01*
X168681904Y-138478095D01*
X168491428Y-138525714D01*
X168253333Y-138525714D01*
X168062857Y-138478095D01*
X167967619Y-138430476D01*
X167920000Y-138382857D01*
X167872380Y-138287619D01*
X167872380Y-137335238D02*
X167872380Y-137240000D01*
X167920000Y-137144761D01*
X167967619Y-137097142D01*
X168062857Y-137049523D01*
X168253333Y-137001904D01*
X168491428Y-137001904D01*
X168681904Y-137049523D01*
X168777142Y-137097142D01*
X168824761Y-137144761D01*
X168872380Y-137240000D01*
X168872380Y-137335238D01*
X168824761Y-137430476D01*
X168777142Y-137478095D01*
X168681904Y-137525714D01*
X168491428Y-137573333D01*
X168253333Y-137573333D01*
X168062857Y-137525714D01*
X167967619Y-137478095D01*
X167920000Y-137430476D01*
X167872380Y-137335238D01*
X168872380Y-136001904D02*
X168396190Y-136335238D01*
X168872380Y-136573333D02*
X167872380Y-136573333D01*
X167872380Y-136192380D01*
X167920000Y-136097142D01*
X167967619Y-136049523D01*
X168062857Y-136001904D01*
X168205714Y-136001904D01*
X168300952Y-136049523D01*
X168348571Y-136097142D01*
X168396190Y-136192380D01*
X168396190Y-136573333D01*
%TO.C,SW1*%
X164546666Y-82384761D02*
X164689523Y-82432380D01*
X164927619Y-82432380D01*
X165022857Y-82384761D01*
X165070476Y-82337142D01*
X165118095Y-82241904D01*
X165118095Y-82146666D01*
X165070476Y-82051428D01*
X165022857Y-82003809D01*
X164927619Y-81956190D01*
X164737142Y-81908571D01*
X164641904Y-81860952D01*
X164594285Y-81813333D01*
X164546666Y-81718095D01*
X164546666Y-81622857D01*
X164594285Y-81527619D01*
X164641904Y-81480000D01*
X164737142Y-81432380D01*
X164975238Y-81432380D01*
X165118095Y-81480000D01*
X165451428Y-81432380D02*
X165689523Y-82432380D01*
X165880000Y-81718095D01*
X166070476Y-82432380D01*
X166308571Y-81432380D01*
X167213333Y-82432380D02*
X166641904Y-82432380D01*
X166927619Y-82432380D02*
X166927619Y-81432380D01*
X166832380Y-81575238D01*
X166737142Y-81670476D01*
X166641904Y-81718095D01*
%TO.C,R2*%
X154267380Y-137906666D02*
X153791190Y-138240000D01*
X154267380Y-138478095D02*
X153267380Y-138478095D01*
X153267380Y-138097142D01*
X153315000Y-138001904D01*
X153362619Y-137954285D01*
X153457857Y-137906666D01*
X153600714Y-137906666D01*
X153695952Y-137954285D01*
X153743571Y-138001904D01*
X153791190Y-138097142D01*
X153791190Y-138478095D01*
X153362619Y-137525714D02*
X153315000Y-137478095D01*
X153267380Y-137382857D01*
X153267380Y-137144761D01*
X153315000Y-137049523D01*
X153362619Y-137001904D01*
X153457857Y-136954285D01*
X153553095Y-136954285D01*
X153695952Y-137001904D01*
X154267380Y-137573333D01*
X154267380Y-136954285D01*
X155267619Y-139382857D02*
X155220000Y-139335238D01*
X155172380Y-139240000D01*
X155172380Y-139001904D01*
X155220000Y-138906666D01*
X155267619Y-138859047D01*
X155362857Y-138811428D01*
X155458095Y-138811428D01*
X155600952Y-138859047D01*
X156172380Y-139430476D01*
X156172380Y-138811428D01*
X155267619Y-138430476D02*
X155220000Y-138382857D01*
X155172380Y-138287619D01*
X155172380Y-138049523D01*
X155220000Y-137954285D01*
X155267619Y-137906666D01*
X155362857Y-137859047D01*
X155458095Y-137859047D01*
X155600952Y-137906666D01*
X156172380Y-138478095D01*
X156172380Y-137859047D01*
X155172380Y-137240000D02*
X155172380Y-137144761D01*
X155220000Y-137049523D01*
X155267619Y-137001904D01*
X155362857Y-136954285D01*
X155553333Y-136906666D01*
X155791428Y-136906666D01*
X155981904Y-136954285D01*
X156077142Y-137001904D01*
X156124761Y-137049523D01*
X156172380Y-137144761D01*
X156172380Y-137240000D01*
X156124761Y-137335238D01*
X156077142Y-137382857D01*
X155981904Y-137430476D01*
X155791428Y-137478095D01*
X155553333Y-137478095D01*
X155362857Y-137430476D01*
X155267619Y-137382857D01*
X155220000Y-137335238D01*
X155172380Y-137240000D01*
X156172380Y-136478095D02*
X155172380Y-136478095D01*
X155791428Y-136382857D02*
X156172380Y-136097142D01*
X155505714Y-136097142D02*
X155886666Y-136478095D01*
%TO.C,C12*%
X163052261Y-110792142D02*
X163004642Y-110839761D01*
X162861785Y-110887380D01*
X162766547Y-110887380D01*
X162623690Y-110839761D01*
X162528452Y-110744523D01*
X162480833Y-110649285D01*
X162433214Y-110458809D01*
X162433214Y-110315952D01*
X162480833Y-110125476D01*
X162528452Y-110030238D01*
X162623690Y-109935000D01*
X162766547Y-109887380D01*
X162861785Y-109887380D01*
X163004642Y-109935000D01*
X163052261Y-109982619D01*
X164004642Y-110887380D02*
X163433214Y-110887380D01*
X163718928Y-110887380D02*
X163718928Y-109887380D01*
X163623690Y-110030238D01*
X163528452Y-110125476D01*
X163433214Y-110173095D01*
X164385595Y-109982619D02*
X164433214Y-109935000D01*
X164528452Y-109887380D01*
X164766547Y-109887380D01*
X164861785Y-109935000D01*
X164909404Y-109982619D01*
X164957023Y-110077857D01*
X164957023Y-110173095D01*
X164909404Y-110315952D01*
X164337976Y-110887380D01*
X164957023Y-110887380D01*
X162242738Y-112792380D02*
X161671309Y-112792380D01*
X161957023Y-112792380D02*
X161957023Y-111792380D01*
X161861785Y-111935238D01*
X161766547Y-112030476D01*
X161671309Y-112078095D01*
X162861785Y-111792380D02*
X162957023Y-111792380D01*
X163052261Y-111840000D01*
X163099880Y-111887619D01*
X163147500Y-111982857D01*
X163195119Y-112173333D01*
X163195119Y-112411428D01*
X163147500Y-112601904D01*
X163099880Y-112697142D01*
X163052261Y-112744761D01*
X162957023Y-112792380D01*
X162861785Y-112792380D01*
X162766547Y-112744761D01*
X162718928Y-112697142D01*
X162671309Y-112601904D01*
X162623690Y-112411428D01*
X162623690Y-112173333D01*
X162671309Y-111982857D01*
X162718928Y-111887619D01*
X162766547Y-111840000D01*
X162861785Y-111792380D01*
X164052261Y-112125714D02*
X164052261Y-112792380D01*
X163623690Y-112125714D02*
X163623690Y-112649523D01*
X163671309Y-112744761D01*
X163766547Y-112792380D01*
X163909404Y-112792380D01*
X164004642Y-112744761D01*
X164052261Y-112697142D01*
X164861785Y-112268571D02*
X164528452Y-112268571D01*
X164528452Y-112792380D02*
X164528452Y-111792380D01*
X165004642Y-111792380D01*
%TO.C,C19*%
X184287142Y-106982142D02*
X184239523Y-107029761D01*
X184096666Y-107077380D01*
X184001428Y-107077380D01*
X183858571Y-107029761D01*
X183763333Y-106934523D01*
X183715714Y-106839285D01*
X183668095Y-106648809D01*
X183668095Y-106505952D01*
X183715714Y-106315476D01*
X183763333Y-106220238D01*
X183858571Y-106125000D01*
X184001428Y-106077380D01*
X184096666Y-106077380D01*
X184239523Y-106125000D01*
X184287142Y-106172619D01*
X185239523Y-107077380D02*
X184668095Y-107077380D01*
X184953809Y-107077380D02*
X184953809Y-106077380D01*
X184858571Y-106220238D01*
X184763333Y-106315476D01*
X184668095Y-106363095D01*
X185715714Y-107077380D02*
X185906190Y-107077380D01*
X186001428Y-107029761D01*
X186049047Y-106982142D01*
X186144285Y-106839285D01*
X186191904Y-106648809D01*
X186191904Y-106267857D01*
X186144285Y-106172619D01*
X186096666Y-106125000D01*
X186001428Y-106077380D01*
X185810952Y-106077380D01*
X185715714Y-106125000D01*
X185668095Y-106172619D01*
X185620476Y-106267857D01*
X185620476Y-106505952D01*
X185668095Y-106601190D01*
X185715714Y-106648809D01*
X185810952Y-106696428D01*
X186001428Y-106696428D01*
X186096666Y-106648809D01*
X186144285Y-106601190D01*
X186191904Y-106505952D01*
%TO.C,C7*%
X191113333Y-57452142D02*
X191065714Y-57499761D01*
X190922857Y-57547380D01*
X190827619Y-57547380D01*
X190684761Y-57499761D01*
X190589523Y-57404523D01*
X190541904Y-57309285D01*
X190494285Y-57118809D01*
X190494285Y-56975952D01*
X190541904Y-56785476D01*
X190589523Y-56690238D01*
X190684761Y-56595000D01*
X190827619Y-56547380D01*
X190922857Y-56547380D01*
X191065714Y-56595000D01*
X191113333Y-56642619D01*
X191446666Y-56547380D02*
X192113333Y-56547380D01*
X191684761Y-57547380D01*
D11*
X189246428Y-60970000D02*
X189646428Y-60970000D01*
X189017857Y-61112857D02*
X189446428Y-61255714D01*
X189446428Y-60884285D01*
X189046428Y-60712857D02*
X189046428Y-60312857D01*
X189646428Y-60570000D01*
X189246428Y-60084285D02*
X189646428Y-60084285D01*
X189303571Y-60084285D02*
X189275000Y-60055714D01*
X189246428Y-59998571D01*
X189246428Y-59912857D01*
X189275000Y-59855714D01*
X189332142Y-59827142D01*
X189646428Y-59827142D01*
X189332142Y-59341428D02*
X189332142Y-59541428D01*
X189646428Y-59541428D02*
X189046428Y-59541428D01*
X189046428Y-59255714D01*
D10*
%TO.C,C3*%
X161903333Y-59357142D02*
X161855714Y-59404761D01*
X161712857Y-59452380D01*
X161617619Y-59452380D01*
X161474761Y-59404761D01*
X161379523Y-59309523D01*
X161331904Y-59214285D01*
X161284285Y-59023809D01*
X161284285Y-58880952D01*
X161331904Y-58690476D01*
X161379523Y-58595238D01*
X161474761Y-58500000D01*
X161617619Y-58452380D01*
X161712857Y-58452380D01*
X161855714Y-58500000D01*
X161903333Y-58547619D01*
X162236666Y-58452380D02*
X162855714Y-58452380D01*
X162522380Y-58833333D01*
X162665238Y-58833333D01*
X162760476Y-58880952D01*
X162808095Y-58928571D01*
X162855714Y-59023809D01*
X162855714Y-59261904D01*
X162808095Y-59357142D01*
X162760476Y-59404761D01*
X162665238Y-59452380D01*
X162379523Y-59452380D01*
X162284285Y-59404761D01*
X162236666Y-59357142D01*
D11*
X161370000Y-60141428D02*
X161370000Y-60541428D01*
X161227142Y-59912857D02*
X161084285Y-60341428D01*
X161455714Y-60341428D01*
X161627142Y-59941428D02*
X162027142Y-59941428D01*
X161770000Y-60541428D01*
X162255714Y-60141428D02*
X162255714Y-60541428D01*
X162255714Y-60198571D02*
X162284285Y-60170000D01*
X162341428Y-60141428D01*
X162427142Y-60141428D01*
X162484285Y-60170000D01*
X162512857Y-60227142D01*
X162512857Y-60541428D01*
X162998571Y-60227142D02*
X162798571Y-60227142D01*
X162798571Y-60541428D02*
X162798571Y-59941428D01*
X163084285Y-59941428D01*
D10*
%TO.C,J2*%
X175071666Y-142272380D02*
X175071666Y-142986666D01*
X175024047Y-143129523D01*
X174928809Y-143224761D01*
X174785952Y-143272380D01*
X174690714Y-143272380D01*
X175500238Y-142367619D02*
X175547857Y-142320000D01*
X175643095Y-142272380D01*
X175881190Y-142272380D01*
X175976428Y-142320000D01*
X176024047Y-142367619D01*
X176071666Y-142462857D01*
X176071666Y-142558095D01*
X176024047Y-142700952D01*
X175452619Y-143272380D01*
X176071666Y-143272380D01*
%TO.C,C9*%
X196193333Y-66342142D02*
X196145714Y-66389761D01*
X196002857Y-66437380D01*
X195907619Y-66437380D01*
X195764761Y-66389761D01*
X195669523Y-66294523D01*
X195621904Y-66199285D01*
X195574285Y-66008809D01*
X195574285Y-65865952D01*
X195621904Y-65675476D01*
X195669523Y-65580238D01*
X195764761Y-65485000D01*
X195907619Y-65437380D01*
X196002857Y-65437380D01*
X196145714Y-65485000D01*
X196193333Y-65532619D01*
X196669523Y-66437380D02*
X196860000Y-66437380D01*
X196955238Y-66389761D01*
X197002857Y-66342142D01*
X197098095Y-66199285D01*
X197145714Y-66008809D01*
X197145714Y-65627857D01*
X197098095Y-65532619D01*
X197050476Y-65485000D01*
X196955238Y-65437380D01*
X196764761Y-65437380D01*
X196669523Y-65485000D01*
X196621904Y-65532619D01*
X196574285Y-65627857D01*
X196574285Y-65865952D01*
X196621904Y-65961190D01*
X196669523Y-66008809D01*
X196764761Y-66056428D01*
X196955238Y-66056428D01*
X197050476Y-66008809D01*
X197098095Y-65961190D01*
X197145714Y-65865952D01*
D11*
X195431428Y-67526428D02*
X195088571Y-67526428D01*
X195260000Y-67526428D02*
X195260000Y-66926428D01*
X195202857Y-67012142D01*
X195145714Y-67069285D01*
X195088571Y-67097857D01*
X195802857Y-66926428D02*
X195860000Y-66926428D01*
X195917142Y-66955000D01*
X195945714Y-66983571D01*
X195974285Y-67040714D01*
X196002857Y-67155000D01*
X196002857Y-67297857D01*
X195974285Y-67412142D01*
X195945714Y-67469285D01*
X195917142Y-67497857D01*
X195860000Y-67526428D01*
X195802857Y-67526428D01*
X195745714Y-67497857D01*
X195717142Y-67469285D01*
X195688571Y-67412142D01*
X195660000Y-67297857D01*
X195660000Y-67155000D01*
X195688571Y-67040714D01*
X195717142Y-66983571D01*
X195745714Y-66955000D01*
X195802857Y-66926428D01*
X196374285Y-66926428D02*
X196431428Y-66926428D01*
X196488571Y-66955000D01*
X196517142Y-66983571D01*
X196545714Y-67040714D01*
X196574285Y-67155000D01*
X196574285Y-67297857D01*
X196545714Y-67412142D01*
X196517142Y-67469285D01*
X196488571Y-67497857D01*
X196431428Y-67526428D01*
X196374285Y-67526428D01*
X196317142Y-67497857D01*
X196288571Y-67469285D01*
X196260000Y-67412142D01*
X196231428Y-67297857D01*
X196231428Y-67155000D01*
X196260000Y-67040714D01*
X196288571Y-66983571D01*
X196317142Y-66955000D01*
X196374285Y-66926428D01*
X196831428Y-67126428D02*
X196831428Y-67726428D01*
X196831428Y-67155000D02*
X196888571Y-67126428D01*
X197002857Y-67126428D01*
X197060000Y-67155000D01*
X197088571Y-67183571D01*
X197117142Y-67240714D01*
X197117142Y-67412142D01*
X197088571Y-67469285D01*
X197060000Y-67497857D01*
X197002857Y-67526428D01*
X196888571Y-67526428D01*
X196831428Y-67497857D01*
X197574285Y-67212142D02*
X197374285Y-67212142D01*
X197374285Y-67526428D02*
X197374285Y-66926428D01*
X197660000Y-66926428D01*
D10*
%TO.C,C11*%
X168142142Y-67262857D02*
X168189761Y-67310476D01*
X168237380Y-67453333D01*
X168237380Y-67548571D01*
X168189761Y-67691428D01*
X168094523Y-67786666D01*
X167999285Y-67834285D01*
X167808809Y-67881904D01*
X167665952Y-67881904D01*
X167475476Y-67834285D01*
X167380238Y-67786666D01*
X167285000Y-67691428D01*
X167237380Y-67548571D01*
X167237380Y-67453333D01*
X167285000Y-67310476D01*
X167332619Y-67262857D01*
X168237380Y-66310476D02*
X168237380Y-66881904D01*
X168237380Y-66596190D02*
X167237380Y-66596190D01*
X167380238Y-66691428D01*
X167475476Y-66786666D01*
X167523095Y-66881904D01*
X168237380Y-65358095D02*
X168237380Y-65929523D01*
X168237380Y-65643809D02*
X167237380Y-65643809D01*
X167380238Y-65739047D01*
X167475476Y-65834285D01*
X167523095Y-65929523D01*
D11*
X167491428Y-73241428D02*
X167148571Y-73241428D01*
X167320000Y-73241428D02*
X167320000Y-72641428D01*
X167262857Y-72727142D01*
X167205714Y-72784285D01*
X167148571Y-72812857D01*
X167862857Y-72641428D02*
X167920000Y-72641428D01*
X167977142Y-72670000D01*
X168005714Y-72698571D01*
X168034285Y-72755714D01*
X168062857Y-72870000D01*
X168062857Y-73012857D01*
X168034285Y-73127142D01*
X168005714Y-73184285D01*
X167977142Y-73212857D01*
X167920000Y-73241428D01*
X167862857Y-73241428D01*
X167805714Y-73212857D01*
X167777142Y-73184285D01*
X167748571Y-73127142D01*
X167720000Y-73012857D01*
X167720000Y-72870000D01*
X167748571Y-72755714D01*
X167777142Y-72698571D01*
X167805714Y-72670000D01*
X167862857Y-72641428D01*
X168434285Y-72641428D02*
X168491428Y-72641428D01*
X168548571Y-72670000D01*
X168577142Y-72698571D01*
X168605714Y-72755714D01*
X168634285Y-72870000D01*
X168634285Y-73012857D01*
X168605714Y-73127142D01*
X168577142Y-73184285D01*
X168548571Y-73212857D01*
X168491428Y-73241428D01*
X168434285Y-73241428D01*
X168377142Y-73212857D01*
X168348571Y-73184285D01*
X168320000Y-73127142D01*
X168291428Y-73012857D01*
X168291428Y-72870000D01*
X168320000Y-72755714D01*
X168348571Y-72698571D01*
X168377142Y-72670000D01*
X168434285Y-72641428D01*
X168891428Y-72841428D02*
X168891428Y-73441428D01*
X168891428Y-72870000D02*
X168948571Y-72841428D01*
X169062857Y-72841428D01*
X169120000Y-72870000D01*
X169148571Y-72898571D01*
X169177142Y-72955714D01*
X169177142Y-73127142D01*
X169148571Y-73184285D01*
X169120000Y-73212857D01*
X169062857Y-73241428D01*
X168948571Y-73241428D01*
X168891428Y-73212857D01*
X169634285Y-72927142D02*
X169434285Y-72927142D01*
X169434285Y-73241428D02*
X169434285Y-72641428D01*
X169720000Y-72641428D01*
D10*
%TO.C,R12*%
X155077142Y-79772380D02*
X154743809Y-79296190D01*
X154505714Y-79772380D02*
X154505714Y-78772380D01*
X154886666Y-78772380D01*
X154981904Y-78820000D01*
X155029523Y-78867619D01*
X155077142Y-78962857D01*
X155077142Y-79105714D01*
X155029523Y-79200952D01*
X154981904Y-79248571D01*
X154886666Y-79296190D01*
X154505714Y-79296190D01*
X156029523Y-79772380D02*
X155458095Y-79772380D01*
X155743809Y-79772380D02*
X155743809Y-78772380D01*
X155648571Y-78915238D01*
X155553333Y-79010476D01*
X155458095Y-79058095D01*
X156410476Y-78867619D02*
X156458095Y-78820000D01*
X156553333Y-78772380D01*
X156791428Y-78772380D01*
X156886666Y-78820000D01*
X156934285Y-78867619D01*
X156981904Y-78962857D01*
X156981904Y-79058095D01*
X156934285Y-79200952D01*
X156362857Y-79772380D01*
X156981904Y-79772380D01*
X162278571Y-79772380D02*
X161707142Y-79772380D01*
X161992857Y-79772380D02*
X161992857Y-78772380D01*
X161897619Y-78915238D01*
X161802380Y-79010476D01*
X161707142Y-79058095D01*
X162897619Y-78772380D02*
X162992857Y-78772380D01*
X163088095Y-78820000D01*
X163135714Y-78867619D01*
X163183333Y-78962857D01*
X163230952Y-79153333D01*
X163230952Y-79391428D01*
X163183333Y-79581904D01*
X163135714Y-79677142D01*
X163088095Y-79724761D01*
X162992857Y-79772380D01*
X162897619Y-79772380D01*
X162802380Y-79724761D01*
X162754761Y-79677142D01*
X162707142Y-79581904D01*
X162659523Y-79391428D01*
X162659523Y-79153333D01*
X162707142Y-78962857D01*
X162754761Y-78867619D01*
X162802380Y-78820000D01*
X162897619Y-78772380D01*
X163850000Y-78772380D02*
X163945238Y-78772380D01*
X164040476Y-78820000D01*
X164088095Y-78867619D01*
X164135714Y-78962857D01*
X164183333Y-79153333D01*
X164183333Y-79391428D01*
X164135714Y-79581904D01*
X164088095Y-79677142D01*
X164040476Y-79724761D01*
X163945238Y-79772380D01*
X163850000Y-79772380D01*
X163754761Y-79724761D01*
X163707142Y-79677142D01*
X163659523Y-79581904D01*
X163611904Y-79391428D01*
X163611904Y-79153333D01*
X163659523Y-78962857D01*
X163707142Y-78867619D01*
X163754761Y-78820000D01*
X163850000Y-78772380D01*
X164611904Y-79772380D02*
X164611904Y-78772380D01*
X164707142Y-79391428D02*
X164992857Y-79772380D01*
X164992857Y-79105714D02*
X164611904Y-79486666D01*
%TO.C,C14*%
X176312023Y-129842142D02*
X176264404Y-129889761D01*
X176121547Y-129937380D01*
X176026309Y-129937380D01*
X175883452Y-129889761D01*
X175788214Y-129794523D01*
X175740595Y-129699285D01*
X175692976Y-129508809D01*
X175692976Y-129365952D01*
X175740595Y-129175476D01*
X175788214Y-129080238D01*
X175883452Y-128985000D01*
X176026309Y-128937380D01*
X176121547Y-128937380D01*
X176264404Y-128985000D01*
X176312023Y-129032619D01*
X177264404Y-129937380D02*
X176692976Y-129937380D01*
X176978690Y-129937380D02*
X176978690Y-128937380D01*
X176883452Y-129080238D01*
X176788214Y-129175476D01*
X176692976Y-129223095D01*
X178121547Y-129270714D02*
X178121547Y-129937380D01*
X177883452Y-128889761D02*
X177645357Y-129604047D01*
X178264404Y-129604047D01*
X176264404Y-131842380D02*
X175692976Y-131842380D01*
X175978690Y-131842380D02*
X175978690Y-130842380D01*
X175883452Y-130985238D01*
X175788214Y-131080476D01*
X175692976Y-131128095D01*
X176883452Y-130842380D02*
X176978690Y-130842380D01*
X177073928Y-130890000D01*
X177121547Y-130937619D01*
X177169166Y-131032857D01*
X177216785Y-131223333D01*
X177216785Y-131461428D01*
X177169166Y-131651904D01*
X177121547Y-131747142D01*
X177073928Y-131794761D01*
X176978690Y-131842380D01*
X176883452Y-131842380D01*
X176788214Y-131794761D01*
X176740595Y-131747142D01*
X176692976Y-131651904D01*
X176645357Y-131461428D01*
X176645357Y-131223333D01*
X176692976Y-131032857D01*
X176740595Y-130937619D01*
X176788214Y-130890000D01*
X176883452Y-130842380D01*
X178073928Y-131175714D02*
X178073928Y-131842380D01*
X177645357Y-131175714D02*
X177645357Y-131699523D01*
X177692976Y-131794761D01*
X177788214Y-131842380D01*
X177931071Y-131842380D01*
X178026309Y-131794761D01*
X178073928Y-131747142D01*
X178883452Y-131318571D02*
X178550119Y-131318571D01*
X178550119Y-131842380D02*
X178550119Y-130842380D01*
X179026309Y-130842380D01*
%TO.C,C18*%
X163967142Y-62532142D02*
X163919523Y-62579761D01*
X163776666Y-62627380D01*
X163681428Y-62627380D01*
X163538571Y-62579761D01*
X163443333Y-62484523D01*
X163395714Y-62389285D01*
X163348095Y-62198809D01*
X163348095Y-62055952D01*
X163395714Y-61865476D01*
X163443333Y-61770238D01*
X163538571Y-61675000D01*
X163681428Y-61627380D01*
X163776666Y-61627380D01*
X163919523Y-61675000D01*
X163967142Y-61722619D01*
X164919523Y-62627380D02*
X164348095Y-62627380D01*
X164633809Y-62627380D02*
X164633809Y-61627380D01*
X164538571Y-61770238D01*
X164443333Y-61865476D01*
X164348095Y-61913095D01*
X165490952Y-62055952D02*
X165395714Y-62008333D01*
X165348095Y-61960714D01*
X165300476Y-61865476D01*
X165300476Y-61817857D01*
X165348095Y-61722619D01*
X165395714Y-61675000D01*
X165490952Y-61627380D01*
X165681428Y-61627380D01*
X165776666Y-61675000D01*
X165824285Y-61722619D01*
X165871904Y-61817857D01*
X165871904Y-61865476D01*
X165824285Y-61960714D01*
X165776666Y-62008333D01*
X165681428Y-62055952D01*
X165490952Y-62055952D01*
X165395714Y-62103571D01*
X165348095Y-62151190D01*
X165300476Y-62246428D01*
X165300476Y-62436904D01*
X165348095Y-62532142D01*
X165395714Y-62579761D01*
X165490952Y-62627380D01*
X165681428Y-62627380D01*
X165776666Y-62579761D01*
X165824285Y-62532142D01*
X165871904Y-62436904D01*
X165871904Y-62246428D01*
X165824285Y-62151190D01*
X165776666Y-62103571D01*
X165681428Y-62055952D01*
%TO.C,R4*%
X158093333Y-54372380D02*
X157760000Y-53896190D01*
X157521904Y-54372380D02*
X157521904Y-53372380D01*
X157902857Y-53372380D01*
X157998095Y-53420000D01*
X158045714Y-53467619D01*
X158093333Y-53562857D01*
X158093333Y-53705714D01*
X158045714Y-53800952D01*
X157998095Y-53848571D01*
X157902857Y-53896190D01*
X157521904Y-53896190D01*
X158950476Y-53705714D02*
X158950476Y-54372380D01*
X158712380Y-53324761D02*
X158474285Y-54039047D01*
X159093333Y-54039047D01*
X165594285Y-54372380D02*
X165022857Y-54372380D01*
X165308571Y-54372380D02*
X165308571Y-53372380D01*
X165213333Y-53515238D01*
X165118095Y-53610476D01*
X165022857Y-53658095D01*
X166022857Y-54372380D02*
X166022857Y-53372380D01*
X166356190Y-54086666D01*
X166689523Y-53372380D01*
X166689523Y-54372380D01*
%TO.C,R10*%
X157617142Y-82947380D02*
X157283809Y-82471190D01*
X157045714Y-82947380D02*
X157045714Y-81947380D01*
X157426666Y-81947380D01*
X157521904Y-81995000D01*
X157569523Y-82042619D01*
X157617142Y-82137857D01*
X157617142Y-82280714D01*
X157569523Y-82375952D01*
X157521904Y-82423571D01*
X157426666Y-82471190D01*
X157045714Y-82471190D01*
X158569523Y-82947380D02*
X157998095Y-82947380D01*
X158283809Y-82947380D02*
X158283809Y-81947380D01*
X158188571Y-82090238D01*
X158093333Y-82185476D01*
X157998095Y-82233095D01*
X159188571Y-81947380D02*
X159283809Y-81947380D01*
X159379047Y-81995000D01*
X159426666Y-82042619D01*
X159474285Y-82137857D01*
X159521904Y-82328333D01*
X159521904Y-82566428D01*
X159474285Y-82756904D01*
X159426666Y-82852142D01*
X159379047Y-82899761D01*
X159283809Y-82947380D01*
X159188571Y-82947380D01*
X159093333Y-82899761D01*
X159045714Y-82852142D01*
X158998095Y-82756904D01*
X158950476Y-82566428D01*
X158950476Y-82328333D01*
X158998095Y-82137857D01*
X159045714Y-82042619D01*
X159093333Y-81995000D01*
X159188571Y-81947380D01*
X158045714Y-90170476D02*
X158712380Y-90170476D01*
X157664761Y-90408571D02*
X158379047Y-90646666D01*
X158379047Y-90027619D01*
X158712380Y-89646666D02*
X157712380Y-89646666D01*
X158331428Y-89551428D02*
X158712380Y-89265714D01*
X158045714Y-89265714D02*
X158426666Y-89646666D01*
X157712380Y-88932380D02*
X157712380Y-88265714D01*
X158712380Y-88694285D01*
%TO.C,D1*%
X154981904Y-121047380D02*
X154981904Y-120047380D01*
X155220000Y-120047380D01*
X155362857Y-120095000D01*
X155458095Y-120190238D01*
X155505714Y-120285476D01*
X155553333Y-120475952D01*
X155553333Y-120618809D01*
X155505714Y-120809285D01*
X155458095Y-120904523D01*
X155362857Y-120999761D01*
X155220000Y-121047380D01*
X154981904Y-121047380D01*
X156505714Y-121047380D02*
X155934285Y-121047380D01*
X156220000Y-121047380D02*
X156220000Y-120047380D01*
X156124761Y-120190238D01*
X156029523Y-120285476D01*
X155934285Y-120333095D01*
%TO.C,C2*%
X161903333Y-124762142D02*
X161855714Y-124809761D01*
X161712857Y-124857380D01*
X161617619Y-124857380D01*
X161474761Y-124809761D01*
X161379523Y-124714523D01*
X161331904Y-124619285D01*
X161284285Y-124428809D01*
X161284285Y-124285952D01*
X161331904Y-124095476D01*
X161379523Y-124000238D01*
X161474761Y-123905000D01*
X161617619Y-123857380D01*
X161712857Y-123857380D01*
X161855714Y-123905000D01*
X161903333Y-123952619D01*
X162284285Y-123952619D02*
X162331904Y-123905000D01*
X162427142Y-123857380D01*
X162665238Y-123857380D01*
X162760476Y-123905000D01*
X162808095Y-123952619D01*
X162855714Y-124047857D01*
X162855714Y-124143095D01*
X162808095Y-124285952D01*
X162236666Y-124857380D01*
X162855714Y-124857380D01*
X160978571Y-126762380D02*
X160407142Y-126762380D01*
X160692857Y-126762380D02*
X160692857Y-125762380D01*
X160597619Y-125905238D01*
X160502380Y-126000476D01*
X160407142Y-126048095D01*
X161597619Y-125762380D02*
X161692857Y-125762380D01*
X161788095Y-125810000D01*
X161835714Y-125857619D01*
X161883333Y-125952857D01*
X161930952Y-126143333D01*
X161930952Y-126381428D01*
X161883333Y-126571904D01*
X161835714Y-126667142D01*
X161788095Y-126714761D01*
X161692857Y-126762380D01*
X161597619Y-126762380D01*
X161502380Y-126714761D01*
X161454761Y-126667142D01*
X161407142Y-126571904D01*
X161359523Y-126381428D01*
X161359523Y-126143333D01*
X161407142Y-125952857D01*
X161454761Y-125857619D01*
X161502380Y-125810000D01*
X161597619Y-125762380D01*
X162788095Y-126095714D02*
X162788095Y-126762380D01*
X162359523Y-126095714D02*
X162359523Y-126619523D01*
X162407142Y-126714761D01*
X162502380Y-126762380D01*
X162645238Y-126762380D01*
X162740476Y-126714761D01*
X162788095Y-126667142D01*
X163597619Y-126238571D02*
X163264285Y-126238571D01*
X163264285Y-126762380D02*
X163264285Y-125762380D01*
X163740476Y-125762380D01*
%TO.C,C15*%
X196632023Y-127937142D02*
X196584404Y-127984761D01*
X196441547Y-128032380D01*
X196346309Y-128032380D01*
X196203452Y-127984761D01*
X196108214Y-127889523D01*
X196060595Y-127794285D01*
X196012976Y-127603809D01*
X196012976Y-127460952D01*
X196060595Y-127270476D01*
X196108214Y-127175238D01*
X196203452Y-127080000D01*
X196346309Y-127032380D01*
X196441547Y-127032380D01*
X196584404Y-127080000D01*
X196632023Y-127127619D01*
X197584404Y-128032380D02*
X197012976Y-128032380D01*
X197298690Y-128032380D02*
X197298690Y-127032380D01*
X197203452Y-127175238D01*
X197108214Y-127270476D01*
X197012976Y-127318095D01*
X198489166Y-127032380D02*
X198012976Y-127032380D01*
X197965357Y-127508571D01*
X198012976Y-127460952D01*
X198108214Y-127413333D01*
X198346309Y-127413333D01*
X198441547Y-127460952D01*
X198489166Y-127508571D01*
X198536785Y-127603809D01*
X198536785Y-127841904D01*
X198489166Y-127937142D01*
X198441547Y-127984761D01*
X198346309Y-128032380D01*
X198108214Y-128032380D01*
X198012976Y-127984761D01*
X197965357Y-127937142D01*
X196584404Y-129979380D02*
X196012976Y-129979380D01*
X196298690Y-129979380D02*
X196298690Y-128979380D01*
X196203452Y-129122238D01*
X196108214Y-129217476D01*
X196012976Y-129265095D01*
X197203452Y-128979380D02*
X197298690Y-128979380D01*
X197393928Y-129027000D01*
X197441547Y-129074619D01*
X197489166Y-129169857D01*
X197536785Y-129360333D01*
X197536785Y-129598428D01*
X197489166Y-129788904D01*
X197441547Y-129884142D01*
X197393928Y-129931761D01*
X197298690Y-129979380D01*
X197203452Y-129979380D01*
X197108214Y-129931761D01*
X197060595Y-129884142D01*
X197012976Y-129788904D01*
X196965357Y-129598428D01*
X196965357Y-129360333D01*
X197012976Y-129169857D01*
X197060595Y-129074619D01*
X197108214Y-129027000D01*
X197203452Y-128979380D01*
X198155833Y-128979380D02*
X198251071Y-128979380D01*
X198346309Y-129027000D01*
X198393928Y-129074619D01*
X198441547Y-129169857D01*
X198489166Y-129360333D01*
X198489166Y-129598428D01*
X198441547Y-129788904D01*
X198393928Y-129884142D01*
X198346309Y-129931761D01*
X198251071Y-129979380D01*
X198155833Y-129979380D01*
X198060595Y-129931761D01*
X198012976Y-129884142D01*
X197965357Y-129788904D01*
X197917738Y-129598428D01*
X197917738Y-129360333D01*
X197965357Y-129169857D01*
X198012976Y-129074619D01*
X198060595Y-129027000D01*
X198155833Y-128979380D01*
X199346309Y-129312714D02*
X199346309Y-129979380D01*
X198917738Y-129312714D02*
X198917738Y-129836523D01*
X198965357Y-129931761D01*
X199060595Y-129979380D01*
X199203452Y-129979380D01*
X199298690Y-129931761D01*
X199346309Y-129884142D01*
X200155833Y-129455571D02*
X199822500Y-129455571D01*
X199822500Y-129979380D02*
X199822500Y-128979380D01*
X200298690Y-128979380D01*
%TO.C,RV3*%
X195764761Y-108982380D02*
X195431428Y-108506190D01*
X195193333Y-108982380D02*
X195193333Y-107982380D01*
X195574285Y-107982380D01*
X195669523Y-108030000D01*
X195717142Y-108077619D01*
X195764761Y-108172857D01*
X195764761Y-108315714D01*
X195717142Y-108410952D01*
X195669523Y-108458571D01*
X195574285Y-108506190D01*
X195193333Y-108506190D01*
X196050476Y-107982380D02*
X196383809Y-108982380D01*
X196717142Y-107982380D01*
X196955238Y-107982380D02*
X197574285Y-107982380D01*
X197240952Y-108363333D01*
X197383809Y-108363333D01*
X197479047Y-108410952D01*
X197526666Y-108458571D01*
X197574285Y-108553809D01*
X197574285Y-108791904D01*
X197526666Y-108887142D01*
X197479047Y-108934761D01*
X197383809Y-108982380D01*
X197098095Y-108982380D01*
X197002857Y-108934761D01*
X196955238Y-108887142D01*
%TO.C,R18*%
X173317380Y-88852857D02*
X172841190Y-89186190D01*
X173317380Y-89424285D02*
X172317380Y-89424285D01*
X172317380Y-89043333D01*
X172365000Y-88948095D01*
X172412619Y-88900476D01*
X172507857Y-88852857D01*
X172650714Y-88852857D01*
X172745952Y-88900476D01*
X172793571Y-88948095D01*
X172841190Y-89043333D01*
X172841190Y-89424285D01*
X173317380Y-87900476D02*
X173317380Y-88471904D01*
X173317380Y-88186190D02*
X172317380Y-88186190D01*
X172460238Y-88281428D01*
X172555476Y-88376666D01*
X172603095Y-88471904D01*
X172745952Y-87329047D02*
X172698333Y-87424285D01*
X172650714Y-87471904D01*
X172555476Y-87519523D01*
X172507857Y-87519523D01*
X172412619Y-87471904D01*
X172365000Y-87424285D01*
X172317380Y-87329047D01*
X172317380Y-87138571D01*
X172365000Y-87043333D01*
X172412619Y-86995714D01*
X172507857Y-86948095D01*
X172555476Y-86948095D01*
X172650714Y-86995714D01*
X172698333Y-87043333D01*
X172745952Y-87138571D01*
X172745952Y-87329047D01*
X172793571Y-87424285D01*
X172841190Y-87471904D01*
X172936428Y-87519523D01*
X173126904Y-87519523D01*
X173222142Y-87471904D01*
X173269761Y-87424285D01*
X173317380Y-87329047D01*
X173317380Y-87138571D01*
X173269761Y-87043333D01*
X173222142Y-86995714D01*
X173126904Y-86948095D01*
X172936428Y-86948095D01*
X172841190Y-86995714D01*
X172793571Y-87043333D01*
X172745952Y-87138571D01*
X173285714Y-81851904D02*
X173952380Y-81851904D01*
X172904761Y-82090000D02*
X173619047Y-82328095D01*
X173619047Y-81709047D01*
X172952380Y-81423333D02*
X172952380Y-80756666D01*
X173952380Y-81185238D01*
X172952380Y-80185238D02*
X172952380Y-80090000D01*
X173000000Y-79994761D01*
X173047619Y-79947142D01*
X173142857Y-79899523D01*
X173333333Y-79851904D01*
X173571428Y-79851904D01*
X173761904Y-79899523D01*
X173857142Y-79947142D01*
X173904761Y-79994761D01*
X173952380Y-80090000D01*
X173952380Y-80185238D01*
X173904761Y-80280476D01*
X173857142Y-80328095D01*
X173761904Y-80375714D01*
X173571428Y-80423333D01*
X173333333Y-80423333D01*
X173142857Y-80375714D01*
X173047619Y-80328095D01*
X173000000Y-80280476D01*
X172952380Y-80185238D01*
X173952380Y-78851904D02*
X173476190Y-79185238D01*
X173952380Y-79423333D02*
X172952380Y-79423333D01*
X172952380Y-79042380D01*
X173000000Y-78947142D01*
X173047619Y-78899523D01*
X173142857Y-78851904D01*
X173285714Y-78851904D01*
X173380952Y-78899523D01*
X173428571Y-78947142D01*
X173476190Y-79042380D01*
X173476190Y-79423333D01*
%TO.C,R14*%
X173317380Y-94567857D02*
X172841190Y-94901190D01*
X173317380Y-95139285D02*
X172317380Y-95139285D01*
X172317380Y-94758333D01*
X172365000Y-94663095D01*
X172412619Y-94615476D01*
X172507857Y-94567857D01*
X172650714Y-94567857D01*
X172745952Y-94615476D01*
X172793571Y-94663095D01*
X172841190Y-94758333D01*
X172841190Y-95139285D01*
X173317380Y-93615476D02*
X173317380Y-94186904D01*
X173317380Y-93901190D02*
X172317380Y-93901190D01*
X172460238Y-93996428D01*
X172555476Y-94091666D01*
X172603095Y-94186904D01*
X172650714Y-92758333D02*
X173317380Y-92758333D01*
X172269761Y-92996428D02*
X172984047Y-93234523D01*
X172984047Y-92615476D01*
X169475714Y-103441904D02*
X170142380Y-103441904D01*
X169094761Y-103680000D02*
X169809047Y-103918095D01*
X169809047Y-103299047D01*
X169142380Y-103013333D02*
X169142380Y-102346666D01*
X170142380Y-102775238D01*
X169142380Y-101775238D02*
X169142380Y-101680000D01*
X169190000Y-101584761D01*
X169237619Y-101537142D01*
X169332857Y-101489523D01*
X169523333Y-101441904D01*
X169761428Y-101441904D01*
X169951904Y-101489523D01*
X170047142Y-101537142D01*
X170094761Y-101584761D01*
X170142380Y-101680000D01*
X170142380Y-101775238D01*
X170094761Y-101870476D01*
X170047142Y-101918095D01*
X169951904Y-101965714D01*
X169761428Y-102013333D01*
X169523333Y-102013333D01*
X169332857Y-101965714D01*
X169237619Y-101918095D01*
X169190000Y-101870476D01*
X169142380Y-101775238D01*
X170142380Y-100441904D02*
X169666190Y-100775238D01*
X170142380Y-101013333D02*
X169142380Y-101013333D01*
X169142380Y-100632380D01*
X169190000Y-100537142D01*
X169237619Y-100489523D01*
X169332857Y-100441904D01*
X169475714Y-100441904D01*
X169570952Y-100489523D01*
X169618571Y-100537142D01*
X169666190Y-100632380D01*
X169666190Y-101013333D01*
%TO.C,C13*%
X166227261Y-115858142D02*
X166179642Y-115905761D01*
X166036785Y-115953380D01*
X165941547Y-115953380D01*
X165798690Y-115905761D01*
X165703452Y-115810523D01*
X165655833Y-115715285D01*
X165608214Y-115524809D01*
X165608214Y-115381952D01*
X165655833Y-115191476D01*
X165703452Y-115096238D01*
X165798690Y-115001000D01*
X165941547Y-114953380D01*
X166036785Y-114953380D01*
X166179642Y-115001000D01*
X166227261Y-115048619D01*
X167179642Y-115953380D02*
X166608214Y-115953380D01*
X166893928Y-115953380D02*
X166893928Y-114953380D01*
X166798690Y-115096238D01*
X166703452Y-115191476D01*
X166608214Y-115239095D01*
X167512976Y-114953380D02*
X168132023Y-114953380D01*
X167798690Y-115334333D01*
X167941547Y-115334333D01*
X168036785Y-115381952D01*
X168084404Y-115429571D01*
X168132023Y-115524809D01*
X168132023Y-115762904D01*
X168084404Y-115858142D01*
X168036785Y-115905761D01*
X167941547Y-115953380D01*
X167655833Y-115953380D01*
X167560595Y-115905761D01*
X167512976Y-115858142D01*
D11*
X166047214Y-117056428D02*
X165704357Y-117056428D01*
X165875785Y-117056428D02*
X165875785Y-116456428D01*
X165818642Y-116542142D01*
X165761500Y-116599285D01*
X165704357Y-116627857D01*
X166418642Y-116456428D02*
X166475785Y-116456428D01*
X166532928Y-116485000D01*
X166561500Y-116513571D01*
X166590071Y-116570714D01*
X166618642Y-116685000D01*
X166618642Y-116827857D01*
X166590071Y-116942142D01*
X166561500Y-116999285D01*
X166532928Y-117027857D01*
X166475785Y-117056428D01*
X166418642Y-117056428D01*
X166361500Y-117027857D01*
X166332928Y-116999285D01*
X166304357Y-116942142D01*
X166275785Y-116827857D01*
X166275785Y-116685000D01*
X166304357Y-116570714D01*
X166332928Y-116513571D01*
X166361500Y-116485000D01*
X166418642Y-116456428D01*
X166990071Y-116456428D02*
X167047214Y-116456428D01*
X167104357Y-116485000D01*
X167132928Y-116513571D01*
X167161500Y-116570714D01*
X167190071Y-116685000D01*
X167190071Y-116827857D01*
X167161500Y-116942142D01*
X167132928Y-116999285D01*
X167104357Y-117027857D01*
X167047214Y-117056428D01*
X166990071Y-117056428D01*
X166932928Y-117027857D01*
X166904357Y-116999285D01*
X166875785Y-116942142D01*
X166847214Y-116827857D01*
X166847214Y-116685000D01*
X166875785Y-116570714D01*
X166904357Y-116513571D01*
X166932928Y-116485000D01*
X166990071Y-116456428D01*
X167447214Y-116656428D02*
X167447214Y-117256428D01*
X167447214Y-116685000D02*
X167504357Y-116656428D01*
X167618642Y-116656428D01*
X167675785Y-116685000D01*
X167704357Y-116713571D01*
X167732928Y-116770714D01*
X167732928Y-116942142D01*
X167704357Y-116999285D01*
X167675785Y-117027857D01*
X167618642Y-117056428D01*
X167504357Y-117056428D01*
X167447214Y-117027857D01*
X168190071Y-116742142D02*
X167990071Y-116742142D01*
X167990071Y-117056428D02*
X167990071Y-116456428D01*
X168275785Y-116456428D01*
D10*
%TO.C,D3*%
X167681904Y-121047380D02*
X167681904Y-120047380D01*
X167920000Y-120047380D01*
X168062857Y-120095000D01*
X168158095Y-120190238D01*
X168205714Y-120285476D01*
X168253333Y-120475952D01*
X168253333Y-120618809D01*
X168205714Y-120809285D01*
X168158095Y-120904523D01*
X168062857Y-120999761D01*
X167920000Y-121047380D01*
X167681904Y-121047380D01*
X168586666Y-120047380D02*
X169205714Y-120047380D01*
X168872380Y-120428333D01*
X169015238Y-120428333D01*
X169110476Y-120475952D01*
X169158095Y-120523571D01*
X169205714Y-120618809D01*
X169205714Y-120856904D01*
X169158095Y-120952142D01*
X169110476Y-120999761D01*
X169015238Y-121047380D01*
X168729523Y-121047380D01*
X168634285Y-120999761D01*
X168586666Y-120952142D01*
%TO.C,U2*%
X177818095Y-74962380D02*
X177818095Y-75771904D01*
X177865714Y-75867142D01*
X177913333Y-75914761D01*
X178008571Y-75962380D01*
X178199047Y-75962380D01*
X178294285Y-75914761D01*
X178341904Y-75867142D01*
X178389523Y-75771904D01*
X178389523Y-74962380D01*
X178818095Y-75057619D02*
X178865714Y-75010000D01*
X178960952Y-74962380D01*
X179199047Y-74962380D01*
X179294285Y-75010000D01*
X179341904Y-75057619D01*
X179389523Y-75152857D01*
X179389523Y-75248095D01*
X179341904Y-75390952D01*
X178770476Y-75962380D01*
X179389523Y-75962380D01*
%TO.C,R7*%
X196193333Y-56912380D02*
X195860000Y-56436190D01*
X195621904Y-56912380D02*
X195621904Y-55912380D01*
X196002857Y-55912380D01*
X196098095Y-55960000D01*
X196145714Y-56007619D01*
X196193333Y-56102857D01*
X196193333Y-56245714D01*
X196145714Y-56340952D01*
X196098095Y-56388571D01*
X196002857Y-56436190D01*
X195621904Y-56436190D01*
X196526666Y-55912380D02*
X197193333Y-55912380D01*
X196764761Y-56912380D01*
X193605714Y-57626666D02*
X194272380Y-57626666D01*
X193224761Y-57864761D02*
X193939047Y-58102857D01*
X193939047Y-57483809D01*
X193272380Y-57198095D02*
X193272380Y-56531428D01*
X194272380Y-56960000D01*
X193272380Y-55960000D02*
X193272380Y-55864761D01*
X193320000Y-55769523D01*
X193367619Y-55721904D01*
X193462857Y-55674285D01*
X193653333Y-55626666D01*
X193891428Y-55626666D01*
X194081904Y-55674285D01*
X194177142Y-55721904D01*
X194224761Y-55769523D01*
X194272380Y-55864761D01*
X194272380Y-55960000D01*
X194224761Y-56055238D01*
X194177142Y-56102857D01*
X194081904Y-56150476D01*
X193891428Y-56198095D01*
X193653333Y-56198095D01*
X193462857Y-56150476D01*
X193367619Y-56102857D01*
X193320000Y-56055238D01*
X193272380Y-55960000D01*
X194272380Y-55198095D02*
X193272380Y-55198095D01*
X193891428Y-55102857D02*
X194272380Y-54817142D01*
X193605714Y-54817142D02*
X193986666Y-55198095D01*
%TO.C,C4*%
X163173333Y-56182142D02*
X163125714Y-56229761D01*
X162982857Y-56277380D01*
X162887619Y-56277380D01*
X162744761Y-56229761D01*
X162649523Y-56134523D01*
X162601904Y-56039285D01*
X162554285Y-55848809D01*
X162554285Y-55705952D01*
X162601904Y-55515476D01*
X162649523Y-55420238D01*
X162744761Y-55325000D01*
X162887619Y-55277380D01*
X162982857Y-55277380D01*
X163125714Y-55325000D01*
X163173333Y-55372619D01*
X164030476Y-55610714D02*
X164030476Y-56277380D01*
X163792380Y-55229761D02*
X163554285Y-55944047D01*
X164173333Y-55944047D01*
D11*
X162411428Y-57366428D02*
X162068571Y-57366428D01*
X162240000Y-57366428D02*
X162240000Y-56766428D01*
X162182857Y-56852142D01*
X162125714Y-56909285D01*
X162068571Y-56937857D01*
X162782857Y-56766428D02*
X162840000Y-56766428D01*
X162897142Y-56795000D01*
X162925714Y-56823571D01*
X162954285Y-56880714D01*
X162982857Y-56995000D01*
X162982857Y-57137857D01*
X162954285Y-57252142D01*
X162925714Y-57309285D01*
X162897142Y-57337857D01*
X162840000Y-57366428D01*
X162782857Y-57366428D01*
X162725714Y-57337857D01*
X162697142Y-57309285D01*
X162668571Y-57252142D01*
X162640000Y-57137857D01*
X162640000Y-56995000D01*
X162668571Y-56880714D01*
X162697142Y-56823571D01*
X162725714Y-56795000D01*
X162782857Y-56766428D01*
X163354285Y-56766428D02*
X163411428Y-56766428D01*
X163468571Y-56795000D01*
X163497142Y-56823571D01*
X163525714Y-56880714D01*
X163554285Y-56995000D01*
X163554285Y-57137857D01*
X163525714Y-57252142D01*
X163497142Y-57309285D01*
X163468571Y-57337857D01*
X163411428Y-57366428D01*
X163354285Y-57366428D01*
X163297142Y-57337857D01*
X163268571Y-57309285D01*
X163240000Y-57252142D01*
X163211428Y-57137857D01*
X163211428Y-56995000D01*
X163240000Y-56880714D01*
X163268571Y-56823571D01*
X163297142Y-56795000D01*
X163354285Y-56766428D01*
X163811428Y-56966428D02*
X163811428Y-57566428D01*
X163811428Y-56995000D02*
X163868571Y-56966428D01*
X163982857Y-56966428D01*
X164040000Y-56995000D01*
X164068571Y-57023571D01*
X164097142Y-57080714D01*
X164097142Y-57252142D01*
X164068571Y-57309285D01*
X164040000Y-57337857D01*
X163982857Y-57366428D01*
X163868571Y-57366428D01*
X163811428Y-57337857D01*
X164554285Y-57052142D02*
X164354285Y-57052142D01*
X164354285Y-57366428D02*
X164354285Y-56766428D01*
X164640000Y-56766428D01*
D10*
%TO.C,C6*%
X170793333Y-72692142D02*
X170745714Y-72739761D01*
X170602857Y-72787380D01*
X170507619Y-72787380D01*
X170364761Y-72739761D01*
X170269523Y-72644523D01*
X170221904Y-72549285D01*
X170174285Y-72358809D01*
X170174285Y-72215952D01*
X170221904Y-72025476D01*
X170269523Y-71930238D01*
X170364761Y-71835000D01*
X170507619Y-71787380D01*
X170602857Y-71787380D01*
X170745714Y-71835000D01*
X170793333Y-71882619D01*
X171650476Y-71787380D02*
X171460000Y-71787380D01*
X171364761Y-71835000D01*
X171317142Y-71882619D01*
X171221904Y-72025476D01*
X171174285Y-72215952D01*
X171174285Y-72596904D01*
X171221904Y-72692142D01*
X171269523Y-72739761D01*
X171364761Y-72787380D01*
X171555238Y-72787380D01*
X171650476Y-72739761D01*
X171698095Y-72692142D01*
X171745714Y-72596904D01*
X171745714Y-72358809D01*
X171698095Y-72263571D01*
X171650476Y-72215952D01*
X171555238Y-72168333D01*
X171364761Y-72168333D01*
X171269523Y-72215952D01*
X171221904Y-72263571D01*
X171174285Y-72358809D01*
D11*
X167491428Y-74511428D02*
X167148571Y-74511428D01*
X167320000Y-74511428D02*
X167320000Y-73911428D01*
X167262857Y-73997142D01*
X167205714Y-74054285D01*
X167148571Y-74082857D01*
X167862857Y-73911428D02*
X167920000Y-73911428D01*
X167977142Y-73940000D01*
X168005714Y-73968571D01*
X168034285Y-74025714D01*
X168062857Y-74140000D01*
X168062857Y-74282857D01*
X168034285Y-74397142D01*
X168005714Y-74454285D01*
X167977142Y-74482857D01*
X167920000Y-74511428D01*
X167862857Y-74511428D01*
X167805714Y-74482857D01*
X167777142Y-74454285D01*
X167748571Y-74397142D01*
X167720000Y-74282857D01*
X167720000Y-74140000D01*
X167748571Y-74025714D01*
X167777142Y-73968571D01*
X167805714Y-73940000D01*
X167862857Y-73911428D01*
X168434285Y-73911428D02*
X168491428Y-73911428D01*
X168548571Y-73940000D01*
X168577142Y-73968571D01*
X168605714Y-74025714D01*
X168634285Y-74140000D01*
X168634285Y-74282857D01*
X168605714Y-74397142D01*
X168577142Y-74454285D01*
X168548571Y-74482857D01*
X168491428Y-74511428D01*
X168434285Y-74511428D01*
X168377142Y-74482857D01*
X168348571Y-74454285D01*
X168320000Y-74397142D01*
X168291428Y-74282857D01*
X168291428Y-74140000D01*
X168320000Y-74025714D01*
X168348571Y-73968571D01*
X168377142Y-73940000D01*
X168434285Y-73911428D01*
X168891428Y-74111428D02*
X168891428Y-74711428D01*
X168891428Y-74140000D02*
X168948571Y-74111428D01*
X169062857Y-74111428D01*
X169120000Y-74140000D01*
X169148571Y-74168571D01*
X169177142Y-74225714D01*
X169177142Y-74397142D01*
X169148571Y-74454285D01*
X169120000Y-74482857D01*
X169062857Y-74511428D01*
X168948571Y-74511428D01*
X168891428Y-74482857D01*
X169634285Y-74197142D02*
X169434285Y-74197142D01*
X169434285Y-74511428D02*
X169434285Y-73911428D01*
X169720000Y-73911428D01*
D10*
%TO.C,R1*%
X160633333Y-140732380D02*
X160300000Y-140256190D01*
X160061904Y-140732380D02*
X160061904Y-139732380D01*
X160442857Y-139732380D01*
X160538095Y-139780000D01*
X160585714Y-139827619D01*
X160633333Y-139922857D01*
X160633333Y-140065714D01*
X160585714Y-140160952D01*
X160538095Y-140208571D01*
X160442857Y-140256190D01*
X160061904Y-140256190D01*
X161585714Y-140732380D02*
X161014285Y-140732380D01*
X161300000Y-140732380D02*
X161300000Y-139732380D01*
X161204761Y-139875238D01*
X161109523Y-139970476D01*
X161014285Y-140018095D01*
X158712380Y-138906666D02*
X158712380Y-139478095D01*
X158712380Y-139192380D02*
X157712380Y-139192380D01*
X157855238Y-139287619D01*
X157950476Y-139382857D01*
X157998095Y-139478095D01*
X157712380Y-138287619D02*
X157712380Y-138192380D01*
X157760000Y-138097142D01*
X157807619Y-138049523D01*
X157902857Y-138001904D01*
X158093333Y-137954285D01*
X158331428Y-137954285D01*
X158521904Y-138001904D01*
X158617142Y-138049523D01*
X158664761Y-138097142D01*
X158712380Y-138192380D01*
X158712380Y-138287619D01*
X158664761Y-138382857D01*
X158617142Y-138430476D01*
X158521904Y-138478095D01*
X158331428Y-138525714D01*
X158093333Y-138525714D01*
X157902857Y-138478095D01*
X157807619Y-138430476D01*
X157760000Y-138382857D01*
X157712380Y-138287619D01*
X157712380Y-137335238D02*
X157712380Y-137240000D01*
X157760000Y-137144761D01*
X157807619Y-137097142D01*
X157902857Y-137049523D01*
X158093333Y-137001904D01*
X158331428Y-137001904D01*
X158521904Y-137049523D01*
X158617142Y-137097142D01*
X158664761Y-137144761D01*
X158712380Y-137240000D01*
X158712380Y-137335238D01*
X158664761Y-137430476D01*
X158617142Y-137478095D01*
X158521904Y-137525714D01*
X158331428Y-137573333D01*
X158093333Y-137573333D01*
X157902857Y-137525714D01*
X157807619Y-137478095D01*
X157760000Y-137430476D01*
X157712380Y-137335238D01*
X158712380Y-136001904D02*
X158236190Y-136335238D01*
X158712380Y-136573333D02*
X157712380Y-136573333D01*
X157712380Y-136192380D01*
X157760000Y-136097142D01*
X157807619Y-136049523D01*
X157902857Y-136001904D01*
X158045714Y-136001904D01*
X158140952Y-136049523D01*
X158188571Y-136097142D01*
X158236190Y-136192380D01*
X158236190Y-136573333D01*
%TO.C,C1*%
X163357142Y-135326666D02*
X163404761Y-135374285D01*
X163452380Y-135517142D01*
X163452380Y-135612380D01*
X163404761Y-135755238D01*
X163309523Y-135850476D01*
X163214285Y-135898095D01*
X163023809Y-135945714D01*
X162880952Y-135945714D01*
X162690476Y-135898095D01*
X162595238Y-135850476D01*
X162500000Y-135755238D01*
X162452380Y-135612380D01*
X162452380Y-135517142D01*
X162500000Y-135374285D01*
X162547619Y-135326666D01*
X163452380Y-134374285D02*
X163452380Y-134945714D01*
X163452380Y-134660000D02*
X162452380Y-134660000D01*
X162595238Y-134755238D01*
X162690476Y-134850476D01*
X162738095Y-134945714D01*
D11*
X161071428Y-135842857D02*
X161071428Y-136185714D01*
X161071428Y-136014285D02*
X160471428Y-136014285D01*
X160557142Y-136071428D01*
X160614285Y-136128571D01*
X160642857Y-136185714D01*
X160471428Y-135471428D02*
X160471428Y-135414285D01*
X160500000Y-135357142D01*
X160528571Y-135328571D01*
X160585714Y-135300000D01*
X160700000Y-135271428D01*
X160842857Y-135271428D01*
X160957142Y-135300000D01*
X161014285Y-135328571D01*
X161042857Y-135357142D01*
X161071428Y-135414285D01*
X161071428Y-135471428D01*
X161042857Y-135528571D01*
X161014285Y-135557142D01*
X160957142Y-135585714D01*
X160842857Y-135614285D01*
X160700000Y-135614285D01*
X160585714Y-135585714D01*
X160528571Y-135557142D01*
X160500000Y-135528571D01*
X160471428Y-135471428D01*
X160671428Y-135014285D02*
X161071428Y-135014285D01*
X160728571Y-135014285D02*
X160700000Y-134985714D01*
X160671428Y-134928571D01*
X160671428Y-134842857D01*
X160700000Y-134785714D01*
X160757142Y-134757142D01*
X161071428Y-134757142D01*
X160757142Y-134271428D02*
X160757142Y-134471428D01*
X161071428Y-134471428D02*
X160471428Y-134471428D01*
X160471428Y-134185714D01*
D10*
%TO.C,R15*%
X172047380Y-118062857D02*
X171571190Y-118396190D01*
X172047380Y-118634285D02*
X171047380Y-118634285D01*
X171047380Y-118253333D01*
X171095000Y-118158095D01*
X171142619Y-118110476D01*
X171237857Y-118062857D01*
X171380714Y-118062857D01*
X171475952Y-118110476D01*
X171523571Y-118158095D01*
X171571190Y-118253333D01*
X171571190Y-118634285D01*
X172047380Y-117110476D02*
X172047380Y-117681904D01*
X172047380Y-117396190D02*
X171047380Y-117396190D01*
X171190238Y-117491428D01*
X171285476Y-117586666D01*
X171333095Y-117681904D01*
X171047380Y-116205714D02*
X171047380Y-116681904D01*
X171523571Y-116729523D01*
X171475952Y-116681904D01*
X171428333Y-116586666D01*
X171428333Y-116348571D01*
X171475952Y-116253333D01*
X171523571Y-116205714D01*
X171618809Y-116158095D01*
X171856904Y-116158095D01*
X171952142Y-116205714D01*
X171999761Y-116253333D01*
X172047380Y-116348571D01*
X172047380Y-116586666D01*
X171999761Y-116681904D01*
X171952142Y-116729523D01*
X172015714Y-111061904D02*
X172682380Y-111061904D01*
X171634761Y-111300000D02*
X172349047Y-111538095D01*
X172349047Y-110919047D01*
X171682380Y-110633333D02*
X171682380Y-109966666D01*
X172682380Y-110395238D01*
X171682380Y-109395238D02*
X171682380Y-109300000D01*
X171730000Y-109204761D01*
X171777619Y-109157142D01*
X171872857Y-109109523D01*
X172063333Y-109061904D01*
X172301428Y-109061904D01*
X172491904Y-109109523D01*
X172587142Y-109157142D01*
X172634761Y-109204761D01*
X172682380Y-109300000D01*
X172682380Y-109395238D01*
X172634761Y-109490476D01*
X172587142Y-109538095D01*
X172491904Y-109585714D01*
X172301428Y-109633333D01*
X172063333Y-109633333D01*
X171872857Y-109585714D01*
X171777619Y-109538095D01*
X171730000Y-109490476D01*
X171682380Y-109395238D01*
X172682380Y-108061904D02*
X172206190Y-108395238D01*
X172682380Y-108633333D02*
X171682380Y-108633333D01*
X171682380Y-108252380D01*
X171730000Y-108157142D01*
X171777619Y-108109523D01*
X171872857Y-108061904D01*
X172015714Y-108061904D01*
X172110952Y-108109523D01*
X172158571Y-108157142D01*
X172206190Y-108252380D01*
X172206190Y-108633333D01*
%TO.C,D6*%
X177841904Y-85972380D02*
X177841904Y-84972380D01*
X178080000Y-84972380D01*
X178222857Y-85020000D01*
X178318095Y-85115238D01*
X178365714Y-85210476D01*
X178413333Y-85400952D01*
X178413333Y-85543809D01*
X178365714Y-85734285D01*
X178318095Y-85829523D01*
X178222857Y-85924761D01*
X178080000Y-85972380D01*
X177841904Y-85972380D01*
X179270476Y-84972380D02*
X179080000Y-84972380D01*
X178984761Y-85020000D01*
X178937142Y-85067619D01*
X178841904Y-85210476D01*
X178794285Y-85400952D01*
X178794285Y-85781904D01*
X178841904Y-85877142D01*
X178889523Y-85924761D01*
X178984761Y-85972380D01*
X179175238Y-85972380D01*
X179270476Y-85924761D01*
X179318095Y-85877142D01*
X179365714Y-85781904D01*
X179365714Y-85543809D01*
X179318095Y-85448571D01*
X179270476Y-85400952D01*
X179175238Y-85353333D01*
X178984761Y-85353333D01*
X178889523Y-85400952D01*
X178841904Y-85448571D01*
X178794285Y-85543809D01*
%TO.C,R9*%
X155553333Y-77232380D02*
X155220000Y-76756190D01*
X154981904Y-77232380D02*
X154981904Y-76232380D01*
X155362857Y-76232380D01*
X155458095Y-76280000D01*
X155505714Y-76327619D01*
X155553333Y-76422857D01*
X155553333Y-76565714D01*
X155505714Y-76660952D01*
X155458095Y-76708571D01*
X155362857Y-76756190D01*
X154981904Y-76756190D01*
X156029523Y-77232380D02*
X156220000Y-77232380D01*
X156315238Y-77184761D01*
X156362857Y-77137142D01*
X156458095Y-76994285D01*
X156505714Y-76803809D01*
X156505714Y-76422857D01*
X156458095Y-76327619D01*
X156410476Y-76280000D01*
X156315238Y-76232380D01*
X156124761Y-76232380D01*
X156029523Y-76280000D01*
X155981904Y-76327619D01*
X155934285Y-76422857D01*
X155934285Y-76660952D01*
X155981904Y-76756190D01*
X156029523Y-76803809D01*
X156124761Y-76851428D01*
X156315238Y-76851428D01*
X156410476Y-76803809D01*
X156458095Y-76756190D01*
X156505714Y-76660952D01*
X162278571Y-77232380D02*
X161707142Y-77232380D01*
X161992857Y-77232380D02*
X161992857Y-76232380D01*
X161897619Y-76375238D01*
X161802380Y-76470476D01*
X161707142Y-76518095D01*
X162897619Y-76232380D02*
X162992857Y-76232380D01*
X163088095Y-76280000D01*
X163135714Y-76327619D01*
X163183333Y-76422857D01*
X163230952Y-76613333D01*
X163230952Y-76851428D01*
X163183333Y-77041904D01*
X163135714Y-77137142D01*
X163088095Y-77184761D01*
X162992857Y-77232380D01*
X162897619Y-77232380D01*
X162802380Y-77184761D01*
X162754761Y-77137142D01*
X162707142Y-77041904D01*
X162659523Y-76851428D01*
X162659523Y-76613333D01*
X162707142Y-76422857D01*
X162754761Y-76327619D01*
X162802380Y-76280000D01*
X162897619Y-76232380D01*
X163850000Y-76232380D02*
X163945238Y-76232380D01*
X164040476Y-76280000D01*
X164088095Y-76327619D01*
X164135714Y-76422857D01*
X164183333Y-76613333D01*
X164183333Y-76851428D01*
X164135714Y-77041904D01*
X164088095Y-77137142D01*
X164040476Y-77184761D01*
X163945238Y-77232380D01*
X163850000Y-77232380D01*
X163754761Y-77184761D01*
X163707142Y-77137142D01*
X163659523Y-77041904D01*
X163611904Y-76851428D01*
X163611904Y-76613333D01*
X163659523Y-76422857D01*
X163707142Y-76327619D01*
X163754761Y-76280000D01*
X163850000Y-76232380D01*
X164611904Y-77232380D02*
X164611904Y-76232380D01*
X164707142Y-76851428D02*
X164992857Y-77232380D01*
X164992857Y-76565714D02*
X164611904Y-76946666D01*
%TO.C,U3*%
X174008095Y-91432380D02*
X174008095Y-92241904D01*
X174055714Y-92337142D01*
X174103333Y-92384761D01*
X174198571Y-92432380D01*
X174389047Y-92432380D01*
X174484285Y-92384761D01*
X174531904Y-92337142D01*
X174579523Y-92241904D01*
X174579523Y-91432380D01*
X174960476Y-91432380D02*
X175579523Y-91432380D01*
X175246190Y-91813333D01*
X175389047Y-91813333D01*
X175484285Y-91860952D01*
X175531904Y-91908571D01*
X175579523Y-92003809D01*
X175579523Y-92241904D01*
X175531904Y-92337142D01*
X175484285Y-92384761D01*
X175389047Y-92432380D01*
X175103333Y-92432380D01*
X175008095Y-92384761D01*
X174960476Y-92337142D01*
%TO.C,D4*%
X165141904Y-121047380D02*
X165141904Y-120047380D01*
X165380000Y-120047380D01*
X165522857Y-120095000D01*
X165618095Y-120190238D01*
X165665714Y-120285476D01*
X165713333Y-120475952D01*
X165713333Y-120618809D01*
X165665714Y-120809285D01*
X165618095Y-120904523D01*
X165522857Y-120999761D01*
X165380000Y-121047380D01*
X165141904Y-121047380D01*
X166570476Y-120380714D02*
X166570476Y-121047380D01*
X166332380Y-119999761D02*
X166094285Y-120714047D01*
X166713333Y-120714047D01*
%TO.C,C20*%
X171587142Y-98092142D02*
X171539523Y-98139761D01*
X171396666Y-98187380D01*
X171301428Y-98187380D01*
X171158571Y-98139761D01*
X171063333Y-98044523D01*
X171015714Y-97949285D01*
X170968095Y-97758809D01*
X170968095Y-97615952D01*
X171015714Y-97425476D01*
X171063333Y-97330238D01*
X171158571Y-97235000D01*
X171301428Y-97187380D01*
X171396666Y-97187380D01*
X171539523Y-97235000D01*
X171587142Y-97282619D01*
X171968095Y-97282619D02*
X172015714Y-97235000D01*
X172110952Y-97187380D01*
X172349047Y-97187380D01*
X172444285Y-97235000D01*
X172491904Y-97282619D01*
X172539523Y-97377857D01*
X172539523Y-97473095D01*
X172491904Y-97615952D01*
X171920476Y-98187380D01*
X172539523Y-98187380D01*
X173158571Y-97187380D02*
X173253809Y-97187380D01*
X173349047Y-97235000D01*
X173396666Y-97282619D01*
X173444285Y-97377857D01*
X173491904Y-97568333D01*
X173491904Y-97806428D01*
X173444285Y-97996904D01*
X173396666Y-98092142D01*
X173349047Y-98139761D01*
X173253809Y-98187380D01*
X173158571Y-98187380D01*
X173063333Y-98139761D01*
X173015714Y-98092142D01*
X172968095Y-97996904D01*
X172920476Y-97806428D01*
X172920476Y-97568333D01*
X172968095Y-97377857D01*
X173015714Y-97282619D01*
X173063333Y-97235000D01*
X173158571Y-97187380D01*
%TO.C,R8*%
X193653333Y-71982380D02*
X193320000Y-71506190D01*
X193081904Y-71982380D02*
X193081904Y-70982380D01*
X193462857Y-70982380D01*
X193558095Y-71030000D01*
X193605714Y-71077619D01*
X193653333Y-71172857D01*
X193653333Y-71315714D01*
X193605714Y-71410952D01*
X193558095Y-71458571D01*
X193462857Y-71506190D01*
X193081904Y-71506190D01*
X194224761Y-71410952D02*
X194129523Y-71363333D01*
X194081904Y-71315714D01*
X194034285Y-71220476D01*
X194034285Y-71172857D01*
X194081904Y-71077619D01*
X194129523Y-71030000D01*
X194224761Y-70982380D01*
X194415238Y-70982380D01*
X194510476Y-71030000D01*
X194558095Y-71077619D01*
X194605714Y-71172857D01*
X194605714Y-71220476D01*
X194558095Y-71315714D01*
X194510476Y-71363333D01*
X194415238Y-71410952D01*
X194224761Y-71410952D01*
X194129523Y-71458571D01*
X194081904Y-71506190D01*
X194034285Y-71601428D01*
X194034285Y-71791904D01*
X194081904Y-71887142D01*
X194129523Y-71934761D01*
X194224761Y-71982380D01*
X194415238Y-71982380D01*
X194510476Y-71934761D01*
X194558095Y-71887142D01*
X194605714Y-71791904D01*
X194605714Y-71601428D01*
X194558095Y-71506190D01*
X194510476Y-71458571D01*
X194415238Y-71410952D01*
X192748571Y-69612380D02*
X192177142Y-69612380D01*
X192462857Y-69612380D02*
X192462857Y-68612380D01*
X192367619Y-68755238D01*
X192272380Y-68850476D01*
X192177142Y-68898095D01*
X193367619Y-68612380D02*
X193462857Y-68612380D01*
X193558095Y-68660000D01*
X193605714Y-68707619D01*
X193653333Y-68802857D01*
X193700952Y-68993333D01*
X193700952Y-69231428D01*
X193653333Y-69421904D01*
X193605714Y-69517142D01*
X193558095Y-69564761D01*
X193462857Y-69612380D01*
X193367619Y-69612380D01*
X193272380Y-69564761D01*
X193224761Y-69517142D01*
X193177142Y-69421904D01*
X193129523Y-69231428D01*
X193129523Y-68993333D01*
X193177142Y-68802857D01*
X193224761Y-68707619D01*
X193272380Y-68660000D01*
X193367619Y-68612380D01*
X194320000Y-68612380D02*
X194415238Y-68612380D01*
X194510476Y-68660000D01*
X194558095Y-68707619D01*
X194605714Y-68802857D01*
X194653333Y-68993333D01*
X194653333Y-69231428D01*
X194605714Y-69421904D01*
X194558095Y-69517142D01*
X194510476Y-69564761D01*
X194415238Y-69612380D01*
X194320000Y-69612380D01*
X194224761Y-69564761D01*
X194177142Y-69517142D01*
X194129523Y-69421904D01*
X194081904Y-69231428D01*
X194081904Y-68993333D01*
X194129523Y-68802857D01*
X194177142Y-68707619D01*
X194224761Y-68660000D01*
X194320000Y-68612380D01*
X195081904Y-69612380D02*
X195081904Y-68612380D01*
X195177142Y-69231428D02*
X195462857Y-69612380D01*
X195462857Y-68945714D02*
X195081904Y-69326666D01*
D12*
%TO.C,U1*%
X164730000Y-65300000D02*
X163080000Y-65300000D01*
X159430000Y-75580000D02*
X164730000Y-75580000D01*
X164730000Y-75580000D02*
X164730000Y-65300000D01*
X161080000Y-65300000D02*
X159430000Y-65300000D01*
X159430000Y-65300000D02*
X159430000Y-75580000D01*
X161080000Y-65300000D02*
G75*
G03*
X163080000Y-65300000I1000000J0D01*
G01*
%TO.C,R16*%
X164510000Y-134470000D02*
X164510000Y-141010000D01*
X164510000Y-141010000D02*
X167250000Y-141010000D01*
X167250000Y-134470000D02*
X164510000Y-134470000D01*
X167250000Y-141010000D02*
X167250000Y-134470000D01*
X165880000Y-141780000D02*
X165880000Y-141010000D01*
X165880000Y-133700000D02*
X165880000Y-134470000D01*
%TO.C,R3*%
X157090000Y-67350000D02*
X157090000Y-60810000D01*
X155720000Y-60040000D02*
X155720000Y-60810000D01*
X154350000Y-67350000D02*
X157090000Y-67350000D01*
X154350000Y-60810000D02*
X154350000Y-67350000D01*
X155720000Y-68120000D02*
X155720000Y-67350000D01*
X157090000Y-60810000D02*
X154350000Y-60810000D01*
%TO.C,SW2*%
X185565000Y-83130000D02*
X196995000Y-83130000D01*
X196995000Y-83130000D02*
X196995000Y-95830000D01*
X196995000Y-95830000D02*
X185565000Y-95830000D01*
X185565000Y-95830000D02*
X185565000Y-83130000D01*
%TO.C,C5*%
X171609000Y-52300000D02*
X170351000Y-52300000D01*
X171609000Y-50460000D02*
X170351000Y-50460000D01*
%TO.C,RV2*%
X196750000Y-155410000D02*
X196750000Y-152690000D01*
X185810000Y-155410000D02*
X185810000Y-152690000D01*
X194930000Y-143820000D02*
X196750000Y-143820000D01*
X185810000Y-143820000D02*
X187630000Y-143820000D01*
X196750000Y-148190000D02*
X196750000Y-143820000D01*
X185810000Y-155410000D02*
X196750000Y-155410000D01*
X185810000Y-148190000D02*
X185810000Y-143820000D01*
%TO.C,R19*%
X185030000Y-81130000D02*
X182290000Y-81130000D01*
X185030000Y-87670000D02*
X185030000Y-81130000D01*
X182290000Y-81130000D02*
X182290000Y-87670000D01*
X182290000Y-87670000D02*
X185030000Y-87670000D01*
X183660000Y-88440000D02*
X183660000Y-87670000D01*
X183660000Y-80360000D02*
X183660000Y-81130000D01*
%TO.C,D2*%
X157340000Y-127945000D02*
X159180000Y-127945000D01*
X158260000Y-123485000D02*
X158260000Y-124665000D01*
X159180000Y-124665000D02*
X157340000Y-124665000D01*
X157340000Y-124665000D02*
X157340000Y-127945000D01*
X159180000Y-127945000D02*
X159180000Y-124665000D01*
X159180000Y-125121000D02*
X157340000Y-125121000D01*
X159180000Y-125241000D02*
X157340000Y-125241000D01*
X158260000Y-129125000D02*
X158260000Y-127945000D01*
X159180000Y-125361000D02*
X157340000Y-125361000D01*
%TO.C,R20*%
X177410000Y-83860000D02*
X177410000Y-77320000D01*
X176040000Y-84630000D02*
X176040000Y-83860000D01*
X177410000Y-77320000D02*
X174670000Y-77320000D01*
X174670000Y-83860000D02*
X177410000Y-83860000D01*
X174670000Y-77320000D02*
X174670000Y-83860000D01*
X176040000Y-76550000D02*
X176040000Y-77320000D01*
%TO.C,C16*%
X187021000Y-126408000D02*
X187021000Y-127810000D01*
X187301000Y-126521000D02*
X187301000Y-127810000D01*
X188261000Y-129890000D02*
X188261000Y-130404000D01*
X187781000Y-126815000D02*
X187781000Y-127810000D01*
X187541000Y-126650000D02*
X187541000Y-127810000D01*
X187141000Y-126452000D02*
X187141000Y-127810000D01*
X186860000Y-126359000D02*
X186860000Y-127810000D01*
X187821000Y-126846000D02*
X187821000Y-127810000D01*
X187141000Y-129890000D02*
X187141000Y-131248000D01*
X186500000Y-126289000D02*
X186500000Y-127810000D01*
X187621000Y-129890000D02*
X187621000Y-130999000D01*
X187341000Y-129890000D02*
X187341000Y-131160000D01*
X186660000Y-129890000D02*
X186660000Y-131386000D01*
X186660000Y-126314000D02*
X186660000Y-127810000D01*
X188261000Y-127296000D02*
X188261000Y-127810000D01*
X186981000Y-126395000D02*
X186981000Y-127810000D01*
X186620000Y-129890000D02*
X186620000Y-131393000D01*
X186540000Y-129890000D02*
X186540000Y-131406000D01*
X187541000Y-129890000D02*
X187541000Y-131050000D01*
X187501000Y-129890000D02*
X187501000Y-131074000D01*
X187981000Y-126986000D02*
X187981000Y-127810000D01*
X187381000Y-126560000D02*
X187381000Y-127810000D01*
X186780000Y-129890000D02*
X186780000Y-131361000D01*
X188021000Y-129890000D02*
X188021000Y-130676000D01*
X187221000Y-126485000D02*
X187221000Y-127810000D01*
X188181000Y-127197000D02*
X188181000Y-127810000D01*
X186540000Y-126294000D02*
X186540000Y-127810000D01*
X187701000Y-129890000D02*
X187701000Y-130945000D01*
X187941000Y-126949000D02*
X187941000Y-127810000D01*
X187461000Y-126603000D02*
X187461000Y-127810000D01*
X187781000Y-129890000D02*
X187781000Y-130885000D01*
X187741000Y-126785000D02*
X187741000Y-127810000D01*
X186180000Y-126270000D02*
X186180000Y-131430000D01*
X188341000Y-129890000D02*
X188341000Y-130293000D01*
X188421000Y-127531000D02*
X188421000Y-127810000D01*
X187501000Y-126626000D02*
X187501000Y-127810000D01*
X186740000Y-129890000D02*
X186740000Y-131370000D01*
X186820000Y-126349000D02*
X186820000Y-127810000D01*
X187701000Y-126755000D02*
X187701000Y-127810000D01*
X187661000Y-126728000D02*
X187661000Y-127810000D01*
X188381000Y-129890000D02*
X188381000Y-130233000D01*
X188781000Y-128566000D02*
X188781000Y-129134000D01*
X188301000Y-129890000D02*
X188301000Y-130350000D01*
X187821000Y-129890000D02*
X187821000Y-130854000D01*
X188061000Y-129890000D02*
X188061000Y-130635000D01*
X188701000Y-128173000D02*
X188701000Y-129527000D01*
X186580000Y-126300000D02*
X186580000Y-127810000D01*
X186740000Y-126330000D02*
X186740000Y-127810000D01*
X188381000Y-127467000D02*
X188381000Y-127810000D01*
X187181000Y-129890000D02*
X187181000Y-131232000D01*
X186420000Y-126281000D02*
X186420000Y-127810000D01*
X186580000Y-129890000D02*
X186580000Y-131400000D01*
X186340000Y-126274000D02*
X186340000Y-131426000D01*
X186901000Y-129890000D02*
X186901000Y-131330000D01*
X188621000Y-127935000D02*
X188621000Y-129765000D01*
X187421000Y-129890000D02*
X187421000Y-131118000D01*
X187221000Y-129890000D02*
X187221000Y-131215000D01*
X187741000Y-129890000D02*
X187741000Y-130915000D01*
X187061000Y-126422000D02*
X187061000Y-127810000D01*
X187421000Y-126582000D02*
X187421000Y-127810000D01*
X186220000Y-126270000D02*
X186220000Y-131430000D01*
X188181000Y-129890000D02*
X188181000Y-130503000D01*
X188741000Y-128332000D02*
X188741000Y-129368000D01*
X186420000Y-129890000D02*
X186420000Y-131419000D01*
X187181000Y-126468000D02*
X187181000Y-127810000D01*
X187861000Y-129890000D02*
X187861000Y-130821000D01*
X186941000Y-129890000D02*
X186941000Y-131318000D01*
X187581000Y-129890000D02*
X187581000Y-131025000D01*
X186260000Y-126271000D02*
X186260000Y-131429000D01*
X188141000Y-127151000D02*
X188141000Y-127810000D01*
X187861000Y-126879000D02*
X187861000Y-127810000D01*
X188661000Y-128045000D02*
X188661000Y-129655000D01*
X187941000Y-129890000D02*
X187941000Y-130751000D01*
X188101000Y-127107000D02*
X188101000Y-127810000D01*
X186941000Y-126382000D02*
X186941000Y-127810000D01*
X188421000Y-129890000D02*
X188421000Y-130169000D01*
X186860000Y-129890000D02*
X186860000Y-131341000D01*
X188541000Y-127752000D02*
X188541000Y-129948000D01*
X188221000Y-127245000D02*
X188221000Y-127810000D01*
X187581000Y-126675000D02*
X187581000Y-127810000D01*
X186981000Y-129890000D02*
X186981000Y-131305000D01*
X188221000Y-129890000D02*
X188221000Y-130455000D01*
X187461000Y-129890000D02*
X187461000Y-131097000D01*
X186460000Y-129890000D02*
X186460000Y-131415000D01*
X187261000Y-129890000D02*
X187261000Y-131198000D01*
X188581000Y-127839000D02*
X188581000Y-129861000D01*
X188341000Y-127407000D02*
X188341000Y-127810000D01*
X187661000Y-129890000D02*
X187661000Y-130972000D01*
X186380000Y-126277000D02*
X186380000Y-131423000D01*
X183625225Y-127125000D02*
X183625225Y-127625000D01*
X188461000Y-129890000D02*
X188461000Y-130101000D01*
X188461000Y-127599000D02*
X188461000Y-127810000D01*
X186700000Y-126322000D02*
X186700000Y-127810000D01*
X187341000Y-126540000D02*
X187341000Y-127810000D01*
X186700000Y-129890000D02*
X186700000Y-131378000D01*
X187301000Y-129890000D02*
X187301000Y-131179000D01*
X188301000Y-127350000D02*
X188301000Y-127810000D01*
X186300000Y-126272000D02*
X186300000Y-131428000D01*
X188141000Y-129890000D02*
X188141000Y-130549000D01*
X188501000Y-127672000D02*
X188501000Y-130028000D01*
X187621000Y-126701000D02*
X187621000Y-127810000D01*
X187901000Y-129890000D02*
X187901000Y-130787000D01*
X188021000Y-127024000D02*
X188021000Y-127810000D01*
X188101000Y-129890000D02*
X188101000Y-130593000D01*
X187021000Y-129890000D02*
X187021000Y-131292000D01*
X188061000Y-127065000D02*
X188061000Y-127810000D01*
X186901000Y-126370000D02*
X186901000Y-127810000D01*
X186460000Y-126285000D02*
X186460000Y-127810000D01*
X187061000Y-129890000D02*
X187061000Y-131278000D01*
X187901000Y-126913000D02*
X187901000Y-127810000D01*
X187981000Y-129890000D02*
X187981000Y-130714000D01*
X186780000Y-126339000D02*
X186780000Y-127810000D01*
X183375225Y-127375000D02*
X183875225Y-127375000D01*
X187101000Y-129890000D02*
X187101000Y-131264000D01*
X186820000Y-129890000D02*
X186820000Y-131351000D01*
X187101000Y-126436000D02*
X187101000Y-127810000D01*
X186620000Y-126307000D02*
X186620000Y-127810000D01*
X186500000Y-129890000D02*
X186500000Y-131411000D01*
X187381000Y-129890000D02*
X187381000Y-131140000D01*
X187261000Y-126502000D02*
X187261000Y-127810000D01*
X188800000Y-128850000D02*
G75*
G03*
X188800000Y-128850000I-2620000J0D01*
G01*
%TO.C,R13*%
X168520000Y-105450000D02*
X168520000Y-98910000D01*
X167150000Y-106220000D02*
X167150000Y-105450000D01*
X165780000Y-105450000D02*
X168520000Y-105450000D01*
X167150000Y-98140000D02*
X167150000Y-98910000D01*
X165780000Y-98910000D02*
X165780000Y-105450000D01*
X168520000Y-98910000D02*
X165780000Y-98910000D01*
%TO.C,C8*%
X191901000Y-63160000D02*
X193159000Y-63160000D01*
X191901000Y-65000000D02*
X193159000Y-65000000D01*
%TO.C,Q1*%
X181700000Y-81120000D02*
X181700000Y-77520000D01*
X177249999Y-79320000D02*
G75*
G03*
X181688478Y-81158478I2600001J0D01*
G01*
X181688478Y-77481522D02*
G75*
G03*
X177250000Y-79320000I-1838478J-1838478D01*
G01*
%TO.C,C10*%
X188137000Y-77251000D02*
X187240000Y-77251000D01*
X185160000Y-76411000D02*
X183772000Y-76411000D01*
X185160000Y-77131000D02*
X184165000Y-77131000D01*
X185160000Y-76130000D02*
X183689000Y-76130000D01*
X188265000Y-77091000D02*
X187240000Y-77091000D01*
X185160000Y-76371000D02*
X183758000Y-76371000D01*
X188701000Y-76170000D02*
X187240000Y-76170000D01*
X188424000Y-76851000D02*
X187240000Y-76851000D01*
X188235000Y-77131000D02*
X187240000Y-77131000D01*
X188026000Y-77371000D02*
X187240000Y-77371000D01*
X185160000Y-77091000D02*
X184135000Y-77091000D01*
X188064000Y-77331000D02*
X187240000Y-77331000D01*
X188565000Y-76571000D02*
X187240000Y-76571000D01*
X187378000Y-77851000D02*
X185022000Y-77851000D01*
X188776000Y-75690000D02*
X183624000Y-75690000D01*
X188490000Y-76731000D02*
X187240000Y-76731000D01*
X187298000Y-77891000D02*
X185102000Y-77891000D01*
X188780000Y-75530000D02*
X183620000Y-75530000D01*
X185160000Y-77371000D02*
X184374000Y-77371000D01*
X187754000Y-77611000D02*
X187240000Y-77611000D01*
X188761000Y-75850000D02*
X187240000Y-75850000D01*
X188728000Y-76050000D02*
X187240000Y-76050000D01*
X186484000Y-78131000D02*
X185916000Y-78131000D01*
X185160000Y-76691000D02*
X183890000Y-76691000D01*
X188447000Y-76811000D02*
X187240000Y-76811000D01*
X185160000Y-76611000D02*
X183852000Y-76611000D01*
X185160000Y-76170000D02*
X183699000Y-76170000D01*
X185160000Y-77171000D02*
X184196000Y-77171000D01*
X187925000Y-72975225D02*
X187425000Y-72975225D01*
X185160000Y-76571000D02*
X183835000Y-76571000D01*
X188582000Y-76531000D02*
X187240000Y-76531000D01*
X188101000Y-77291000D02*
X187240000Y-77291000D01*
X188680000Y-76251000D02*
X187240000Y-76251000D01*
X188400000Y-76891000D02*
X187240000Y-76891000D01*
X188204000Y-77171000D02*
X187240000Y-77171000D01*
X188349000Y-76971000D02*
X187240000Y-76971000D01*
X188750000Y-75930000D02*
X187240000Y-75930000D01*
X188375000Y-76931000D02*
X187240000Y-76931000D01*
X188468000Y-76771000D02*
X187240000Y-76771000D01*
X188780000Y-75570000D02*
X183620000Y-75570000D01*
X185160000Y-77651000D02*
X184700000Y-77651000D01*
X188778000Y-75650000D02*
X183622000Y-75650000D01*
X188711000Y-76130000D02*
X187240000Y-76130000D01*
X185160000Y-76971000D02*
X184051000Y-76971000D01*
X188765000Y-75810000D02*
X187240000Y-75810000D01*
X188691000Y-76210000D02*
X187240000Y-76210000D01*
X185160000Y-76010000D02*
X183664000Y-76010000D01*
X185160000Y-76050000D02*
X183672000Y-76050000D01*
X185160000Y-76851000D02*
X183976000Y-76851000D01*
X187943000Y-77451000D02*
X187240000Y-77451000D01*
X185160000Y-76651000D02*
X183871000Y-76651000D01*
X187115000Y-77971000D02*
X185285000Y-77971000D01*
X187519000Y-77771000D02*
X187240000Y-77771000D01*
X185160000Y-76731000D02*
X183910000Y-76731000D01*
X188779000Y-75610000D02*
X183621000Y-75610000D01*
X188529000Y-76651000D02*
X187240000Y-76651000D01*
X187211000Y-77931000D02*
X185189000Y-77931000D01*
X185160000Y-76771000D02*
X183932000Y-76771000D01*
X185160000Y-77411000D02*
X184415000Y-77411000D01*
X185160000Y-76931000D02*
X184025000Y-76931000D01*
X185160000Y-77211000D02*
X184229000Y-77211000D01*
X188655000Y-76331000D02*
X187240000Y-76331000D01*
X188171000Y-77211000D02*
X187240000Y-77211000D01*
X185160000Y-75770000D02*
X183631000Y-75770000D01*
X185160000Y-77331000D02*
X184336000Y-77331000D01*
X185160000Y-76811000D02*
X183953000Y-76811000D01*
X185160000Y-76491000D02*
X183802000Y-76491000D01*
X188736000Y-76010000D02*
X187240000Y-76010000D01*
X187899000Y-77491000D02*
X187240000Y-77491000D01*
X187675000Y-72725225D02*
X187675000Y-73225225D01*
X185160000Y-77691000D02*
X184757000Y-77691000D01*
X188769000Y-75770000D02*
X187240000Y-75770000D01*
X188295000Y-77051000D02*
X187240000Y-77051000D01*
X188743000Y-75970000D02*
X187240000Y-75970000D01*
X185160000Y-75850000D02*
X183639000Y-75850000D01*
X185160000Y-75810000D02*
X183635000Y-75810000D01*
X187805000Y-77571000D02*
X187240000Y-77571000D01*
X188756000Y-75890000D02*
X187240000Y-75890000D01*
X185160000Y-77771000D02*
X184881000Y-77771000D01*
X188720000Y-76090000D02*
X187240000Y-76090000D01*
X185160000Y-76531000D02*
X183818000Y-76531000D01*
X185160000Y-76331000D02*
X183745000Y-76331000D01*
X185160000Y-77811000D02*
X184949000Y-77811000D01*
X185160000Y-76210000D02*
X183709000Y-76210000D01*
X185160000Y-76291000D02*
X183732000Y-76291000D01*
X188614000Y-76451000D02*
X187240000Y-76451000D01*
X185160000Y-77451000D02*
X184457000Y-77451000D01*
X186877000Y-78051000D02*
X185523000Y-78051000D01*
X185160000Y-77531000D02*
X184547000Y-77531000D01*
X185160000Y-76891000D02*
X184000000Y-76891000D01*
X188642000Y-76371000D02*
X187240000Y-76371000D01*
X185160000Y-77291000D02*
X184299000Y-77291000D01*
X187643000Y-77691000D02*
X187240000Y-77691000D01*
X185160000Y-77491000D02*
X184501000Y-77491000D01*
X187005000Y-78011000D02*
X185395000Y-78011000D01*
X185160000Y-77051000D02*
X184105000Y-77051000D01*
X185160000Y-75930000D02*
X183650000Y-75930000D01*
X185160000Y-77571000D02*
X184595000Y-77571000D01*
X185160000Y-75970000D02*
X183657000Y-75970000D01*
X188322000Y-77011000D02*
X187240000Y-77011000D01*
X185160000Y-77011000D02*
X184078000Y-77011000D01*
X185160000Y-76251000D02*
X183720000Y-76251000D01*
X187985000Y-77411000D02*
X187240000Y-77411000D01*
X185160000Y-75890000D02*
X183644000Y-75890000D01*
X185160000Y-77611000D02*
X184646000Y-77611000D01*
X187451000Y-77811000D02*
X187240000Y-77811000D01*
X185160000Y-76451000D02*
X183786000Y-76451000D01*
X187853000Y-77531000D02*
X187240000Y-77531000D01*
X185160000Y-77731000D02*
X184817000Y-77731000D01*
X188628000Y-76411000D02*
X187240000Y-76411000D01*
X188598000Y-76491000D02*
X187240000Y-76491000D01*
X188510000Y-76691000D02*
X187240000Y-76691000D01*
X185160000Y-76090000D02*
X183680000Y-76090000D01*
X188773000Y-75730000D02*
X183627000Y-75730000D01*
X186718000Y-78091000D02*
X185682000Y-78091000D01*
X187700000Y-77651000D02*
X187240000Y-77651000D01*
X185160000Y-77251000D02*
X184263000Y-77251000D01*
X187583000Y-77731000D02*
X187240000Y-77731000D01*
X188668000Y-76291000D02*
X187240000Y-76291000D01*
X188548000Y-76611000D02*
X187240000Y-76611000D01*
X188820000Y-75530000D02*
G75*
G03*
X188820000Y-75530000I-2620000J0D01*
G01*
%TO.C,C17*%
X156650000Y-72361000D02*
X156650000Y-73619000D01*
X154810000Y-72361000D02*
X154810000Y-73619000D01*
%TO.C,R6*%
X176580000Y-50010000D02*
X176580000Y-52750000D01*
X175810000Y-51380000D02*
X176580000Y-51380000D01*
X183120000Y-52750000D02*
X183120000Y-50010000D01*
X183120000Y-50010000D02*
X176580000Y-50010000D01*
X176580000Y-52750000D02*
X183120000Y-52750000D01*
X183890000Y-51380000D02*
X183120000Y-51380000D01*
%TO.C,RV1*%
X173110000Y-117710000D02*
X173110000Y-113340000D01*
X184050000Y-117710000D02*
X184050000Y-113340000D01*
X173110000Y-124930000D02*
X184050000Y-124930000D01*
X182230000Y-113340000D02*
X184050000Y-113340000D01*
X184050000Y-124930000D02*
X184050000Y-122210000D01*
X173110000Y-113340000D02*
X174930000Y-113340000D01*
X173110000Y-124930000D02*
X173110000Y-122210000D01*
%TO.C,R11*%
X163340000Y-98140000D02*
X163340000Y-98910000D01*
X164710000Y-105450000D02*
X164710000Y-98910000D01*
X161970000Y-105450000D02*
X164710000Y-105450000D01*
X161970000Y-98910000D02*
X161970000Y-105450000D01*
X164710000Y-98910000D02*
X161970000Y-98910000D01*
X163340000Y-106220000D02*
X163340000Y-105450000D01*
%TO.C,R5*%
X190550000Y-116250000D02*
X197090000Y-116250000D01*
X197860000Y-114880000D02*
X197090000Y-114880000D01*
X189780000Y-114880000D02*
X190550000Y-114880000D01*
X190550000Y-113510000D02*
X190550000Y-116250000D01*
X197090000Y-116250000D02*
X197090000Y-113510000D01*
X197090000Y-113510000D02*
X190550000Y-113510000D01*
%TO.C,J1*%
X154030000Y-148940000D02*
X154030000Y-144440000D01*
X165030000Y-144440000D02*
X165030000Y-149440000D01*
X165030000Y-152440000D02*
X165030000Y-155940000D01*
X154030000Y-155940000D02*
X154030000Y-152940000D01*
X165030000Y-155940000D02*
X154030000Y-155940000D01*
X154030000Y-144440000D02*
X165030000Y-144440000D01*
%TO.C,R17*%
X168420000Y-141780000D02*
X168420000Y-141010000D01*
X169790000Y-134470000D02*
X167050000Y-134470000D01*
X168420000Y-133700000D02*
X168420000Y-134470000D01*
X167050000Y-141010000D02*
X169790000Y-141010000D01*
X169790000Y-141010000D02*
X169790000Y-134470000D01*
X167050000Y-134470000D02*
X167050000Y-141010000D01*
%TO.C,SW1*%
X160165000Y-83130000D02*
X171595000Y-83130000D01*
X171595000Y-83130000D02*
X171595000Y-95830000D01*
X171595000Y-95830000D02*
X160165000Y-95830000D01*
X160165000Y-95830000D02*
X160165000Y-83130000D01*
%TO.C,R2*%
X155720000Y-141780000D02*
X155720000Y-141010000D01*
X154350000Y-134470000D02*
X154350000Y-141010000D01*
X155720000Y-133700000D02*
X155720000Y-134470000D01*
X157090000Y-141010000D02*
X157090000Y-134470000D01*
X157090000Y-134470000D02*
X154350000Y-134470000D01*
X154350000Y-141010000D02*
X157090000Y-141010000D01*
%TO.C,C12*%
X165952000Y-110329000D02*
X167380000Y-110329000D01*
X167169000Y-108809000D02*
X167380000Y-108809000D01*
X166945000Y-113894775D02*
X166945000Y-113394775D01*
X167037000Y-108889000D02*
X167380000Y-108889000D01*
X166152000Y-109849000D02*
X167380000Y-109849000D01*
X165900000Y-110530000D02*
X167380000Y-110530000D01*
X166977000Y-108929000D02*
X167380000Y-108929000D01*
X166677000Y-109169000D02*
X167380000Y-109169000D01*
X169460000Y-110730000D02*
X170976000Y-110730000D01*
X165965000Y-110289000D02*
X167380000Y-110289000D01*
X166416000Y-109449000D02*
X167380000Y-109449000D01*
X165859000Y-110770000D02*
X167380000Y-110770000D01*
X169460000Y-109649000D02*
X170569000Y-109649000D01*
X169460000Y-110650000D02*
X170963000Y-110650000D01*
X169460000Y-110289000D02*
X170875000Y-110289000D01*
X166721000Y-109129000D02*
X167380000Y-109129000D01*
X166695000Y-113644775D02*
X167195000Y-113644775D01*
X166055000Y-110049000D02*
X167380000Y-110049000D01*
X166271000Y-109649000D02*
X167380000Y-109649000D01*
X169460000Y-110490000D02*
X170931000Y-110490000D01*
X166220000Y-109729000D02*
X167380000Y-109729000D01*
X169460000Y-109969000D02*
X170749000Y-109969000D01*
X169460000Y-108849000D02*
X169739000Y-108849000D01*
X166325000Y-109569000D02*
X167380000Y-109569000D01*
X166815000Y-109049000D02*
X167380000Y-109049000D01*
X166635000Y-109209000D02*
X167380000Y-109209000D01*
X166767000Y-109089000D02*
X167380000Y-109089000D01*
X169460000Y-109169000D02*
X170163000Y-109169000D01*
X166022000Y-110129000D02*
X167380000Y-110129000D01*
X169460000Y-109569000D02*
X170515000Y-109569000D01*
X169460000Y-110329000D02*
X170888000Y-110329000D01*
X169460000Y-110410000D02*
X170911000Y-110410000D01*
X166519000Y-109329000D02*
X167380000Y-109329000D01*
X166594000Y-109249000D02*
X167380000Y-109249000D01*
X165992000Y-110209000D02*
X167380000Y-110209000D01*
X165877000Y-110650000D02*
X167380000Y-110650000D01*
X166091000Y-109969000D02*
X167380000Y-109969000D01*
X169460000Y-110850000D02*
X170989000Y-110850000D01*
X165844000Y-110930000D02*
X170996000Y-110930000D01*
X166173000Y-109809000D02*
X167380000Y-109809000D01*
X165870000Y-110690000D02*
X167380000Y-110690000D01*
X169460000Y-109089000D02*
X170073000Y-109089000D01*
X167743000Y-108569000D02*
X169097000Y-108569000D01*
X166196000Y-109769000D02*
X167380000Y-109769000D01*
X166006000Y-110169000D02*
X167380000Y-110169000D01*
X169460000Y-110089000D02*
X170802000Y-110089000D01*
X168136000Y-108489000D02*
X168704000Y-108489000D01*
X166385000Y-109489000D02*
X167380000Y-109489000D01*
X169460000Y-109249000D02*
X170246000Y-109249000D01*
X169460000Y-109529000D02*
X170485000Y-109529000D01*
X169460000Y-110810000D02*
X170985000Y-110810000D01*
X167101000Y-108849000D02*
X167380000Y-108849000D01*
X169460000Y-110249000D02*
X170862000Y-110249000D01*
X166355000Y-109529000D02*
X167380000Y-109529000D01*
X165909000Y-110490000D02*
X167380000Y-110490000D01*
X169460000Y-110169000D02*
X170834000Y-110169000D01*
X169460000Y-110009000D02*
X170768000Y-110009000D01*
X169460000Y-110129000D02*
X170818000Y-110129000D01*
X169460000Y-110530000D02*
X170940000Y-110530000D01*
X169460000Y-109449000D02*
X170424000Y-109449000D01*
X166245000Y-109689000D02*
X167380000Y-109689000D01*
X166556000Y-109289000D02*
X167380000Y-109289000D01*
X167322000Y-108729000D02*
X169518000Y-108729000D01*
X169460000Y-109289000D02*
X170284000Y-109289000D01*
X165892000Y-110570000D02*
X167380000Y-110570000D01*
X169460000Y-110610000D02*
X170956000Y-110610000D01*
X169460000Y-109809000D02*
X170667000Y-109809000D01*
X166038000Y-110089000D02*
X167380000Y-110089000D01*
X165919000Y-110450000D02*
X167380000Y-110450000D01*
X169460000Y-110570000D02*
X170948000Y-110570000D01*
X165884000Y-110610000D02*
X167380000Y-110610000D01*
X169460000Y-109049000D02*
X170025000Y-109049000D01*
X166298000Y-109609000D02*
X167380000Y-109609000D01*
X169460000Y-109329000D02*
X170321000Y-109329000D01*
X165841000Y-111010000D02*
X170999000Y-111010000D01*
X169460000Y-108969000D02*
X169920000Y-108969000D01*
X169460000Y-109689000D02*
X170595000Y-109689000D01*
X169460000Y-110209000D02*
X170848000Y-110209000D01*
X169460000Y-109889000D02*
X170710000Y-109889000D01*
X166072000Y-110009000D02*
X167380000Y-110009000D01*
X165840000Y-111050000D02*
X171000000Y-111050000D01*
X167505000Y-108649000D02*
X169335000Y-108649000D01*
X165855000Y-110810000D02*
X167380000Y-110810000D01*
X166483000Y-109369000D02*
X167380000Y-109369000D01*
X169460000Y-110690000D02*
X170970000Y-110690000D01*
X169460000Y-108809000D02*
X169671000Y-108809000D01*
X167902000Y-108529000D02*
X168938000Y-108529000D01*
X169460000Y-109129000D02*
X170119000Y-109129000D01*
X169460000Y-109209000D02*
X170205000Y-109209000D01*
X169460000Y-109849000D02*
X170688000Y-109849000D01*
X166130000Y-109889000D02*
X167380000Y-109889000D01*
X169460000Y-109369000D02*
X170357000Y-109369000D01*
X165847000Y-110890000D02*
X170993000Y-110890000D01*
X165864000Y-110730000D02*
X167380000Y-110730000D01*
X169460000Y-109729000D02*
X170620000Y-109729000D01*
X169460000Y-109609000D02*
X170542000Y-109609000D01*
X169460000Y-110450000D02*
X170921000Y-110450000D01*
X167615000Y-108609000D02*
X169225000Y-108609000D01*
X169460000Y-109769000D02*
X170644000Y-109769000D01*
X169460000Y-108889000D02*
X169803000Y-108889000D01*
X165840000Y-111090000D02*
X171000000Y-111090000D01*
X165842000Y-110970000D02*
X170998000Y-110970000D01*
X165851000Y-110850000D02*
X167380000Y-110850000D01*
X166920000Y-108969000D02*
X167380000Y-108969000D01*
X169460000Y-109409000D02*
X170391000Y-109409000D01*
X166866000Y-109009000D02*
X167380000Y-109009000D01*
X165978000Y-110249000D02*
X167380000Y-110249000D01*
X169460000Y-109489000D02*
X170455000Y-109489000D01*
X165929000Y-110410000D02*
X167380000Y-110410000D01*
X169460000Y-110770000D02*
X170981000Y-110770000D01*
X169460000Y-108929000D02*
X169863000Y-108929000D01*
X167242000Y-108769000D02*
X169598000Y-108769000D01*
X169460000Y-110369000D02*
X170900000Y-110369000D01*
X169460000Y-109929000D02*
X170730000Y-109929000D01*
X165940000Y-110369000D02*
X167380000Y-110369000D01*
X167409000Y-108689000D02*
X169431000Y-108689000D01*
X166449000Y-109409000D02*
X167380000Y-109409000D01*
X169460000Y-109009000D02*
X169974000Y-109009000D01*
X169460000Y-110049000D02*
X170785000Y-110049000D01*
X166110000Y-109929000D02*
X167380000Y-109929000D01*
X171040000Y-111090000D02*
G75*
G03*
X171040000Y-111090000I-2620000J0D01*
G01*
%TO.C,C19*%
X185850000Y-104059000D02*
X185850000Y-102801000D01*
X184010000Y-104059000D02*
X184010000Y-102801000D01*
%TO.C,C7*%
X192120000Y-60919000D02*
X192120000Y-59661000D01*
X190280000Y-60919000D02*
X190280000Y-59661000D01*
%TO.C,C3*%
X166529000Y-58080000D02*
X165271000Y-58080000D01*
X166529000Y-59920000D02*
X165271000Y-59920000D01*
%TO.C,J2*%
X177730000Y-144440000D02*
X177730000Y-149440000D01*
X166730000Y-155940000D02*
X166730000Y-152940000D01*
X177730000Y-152440000D02*
X177730000Y-155940000D01*
X177730000Y-155940000D02*
X166730000Y-155940000D01*
X166730000Y-148940000D02*
X166730000Y-144440000D01*
X166730000Y-144440000D02*
X177730000Y-144440000D01*
%TO.C,C9*%
X191901000Y-67540000D02*
X193159000Y-67540000D01*
X191901000Y-65700000D02*
X193159000Y-65700000D01*
%TO.C,C11*%
X167510000Y-69781000D02*
X167510000Y-71039000D01*
X169350000Y-69781000D02*
X169350000Y-71039000D01*
%TO.C,R12*%
X167390000Y-79320000D02*
X166620000Y-79320000D01*
X160080000Y-77950000D02*
X160080000Y-80690000D01*
X159310000Y-79320000D02*
X160080000Y-79320000D01*
X166620000Y-80690000D02*
X166620000Y-77950000D01*
X166620000Y-77950000D02*
X160080000Y-77950000D01*
X160080000Y-80690000D02*
X166620000Y-80690000D01*
%TO.C,C14*%
X173771000Y-128055000D02*
X173771000Y-129080000D01*
X172971000Y-127652000D02*
X172971000Y-129080000D01*
X173971000Y-128219000D02*
X173971000Y-129080000D01*
X174171000Y-131160000D02*
X174171000Y-131819000D01*
X172570000Y-127564000D02*
X172570000Y-129080000D01*
X169655225Y-128395000D02*
X169655225Y-128895000D01*
X174211000Y-131160000D02*
X174211000Y-131773000D01*
X174411000Y-131160000D02*
X174411000Y-131503000D01*
X173571000Y-127920000D02*
X173571000Y-129080000D01*
X172250000Y-127540000D02*
X172250000Y-132700000D01*
X173051000Y-127678000D02*
X173051000Y-129080000D01*
X174091000Y-128335000D02*
X174091000Y-129080000D01*
X174291000Y-131160000D02*
X174291000Y-131674000D01*
X169405225Y-128645000D02*
X169905225Y-128645000D01*
X173411000Y-127830000D02*
X173411000Y-129080000D01*
X173131000Y-127706000D02*
X173131000Y-129080000D01*
X173611000Y-131160000D02*
X173611000Y-132295000D01*
X173691000Y-127998000D02*
X173691000Y-129080000D01*
X172610000Y-127570000D02*
X172610000Y-129080000D01*
X173011000Y-127665000D02*
X173011000Y-129080000D01*
X172490000Y-127555000D02*
X172490000Y-129080000D01*
X173731000Y-128025000D02*
X173731000Y-129080000D01*
X173411000Y-131160000D02*
X173411000Y-132410000D01*
X172290000Y-127541000D02*
X172290000Y-132699000D01*
X174411000Y-128737000D02*
X174411000Y-129080000D01*
X172850000Y-127619000D02*
X172850000Y-129080000D01*
X172210000Y-127540000D02*
X172210000Y-132700000D01*
X174291000Y-128566000D02*
X174291000Y-129080000D01*
X172971000Y-131160000D02*
X172971000Y-132588000D01*
X172810000Y-127609000D02*
X172810000Y-129080000D01*
X173051000Y-131160000D02*
X173051000Y-132562000D01*
X173891000Y-131160000D02*
X173891000Y-132091000D01*
X173451000Y-127852000D02*
X173451000Y-129080000D01*
X173611000Y-127945000D02*
X173611000Y-129080000D01*
X172730000Y-127592000D02*
X172730000Y-129080000D01*
X174371000Y-131160000D02*
X174371000Y-131563000D01*
X172690000Y-127584000D02*
X172690000Y-129080000D01*
X173171000Y-131160000D02*
X173171000Y-132518000D01*
X172770000Y-127600000D02*
X172770000Y-129080000D01*
X172490000Y-131160000D02*
X172490000Y-132685000D01*
X173091000Y-131160000D02*
X173091000Y-132548000D01*
X174731000Y-129443000D02*
X174731000Y-130797000D01*
X173931000Y-128183000D02*
X173931000Y-129080000D01*
X174051000Y-131160000D02*
X174051000Y-131946000D01*
X174251000Y-128515000D02*
X174251000Y-129080000D01*
X172410000Y-127547000D02*
X172410000Y-132693000D01*
X174771000Y-129602000D02*
X174771000Y-130638000D01*
X172450000Y-127551000D02*
X172450000Y-129080000D01*
X172730000Y-131160000D02*
X172730000Y-132648000D01*
X173291000Y-127772000D02*
X173291000Y-129080000D01*
X173971000Y-131160000D02*
X173971000Y-132021000D01*
X173651000Y-127971000D02*
X173651000Y-129080000D01*
X174691000Y-129315000D02*
X174691000Y-130925000D01*
X173451000Y-131160000D02*
X173451000Y-132388000D01*
X174131000Y-128377000D02*
X174131000Y-129080000D01*
X174011000Y-128256000D02*
X174011000Y-129080000D01*
X173331000Y-131160000D02*
X173331000Y-132449000D01*
X173811000Y-128085000D02*
X173811000Y-129080000D01*
X173331000Y-127791000D02*
X173331000Y-129080000D01*
X174051000Y-128294000D02*
X174051000Y-129080000D01*
X173651000Y-131160000D02*
X173651000Y-132269000D01*
X172931000Y-127640000D02*
X172931000Y-129080000D01*
X172690000Y-131160000D02*
X172690000Y-132656000D01*
X174251000Y-131160000D02*
X174251000Y-131725000D01*
X174611000Y-129109000D02*
X174611000Y-131131000D01*
X174011000Y-131160000D02*
X174011000Y-131984000D01*
X173931000Y-131160000D02*
X173931000Y-132057000D01*
X173771000Y-131160000D02*
X173771000Y-132185000D01*
X172770000Y-131160000D02*
X172770000Y-132640000D01*
X174531000Y-128942000D02*
X174531000Y-131298000D01*
X172530000Y-127559000D02*
X172530000Y-129080000D01*
X173091000Y-127692000D02*
X173091000Y-129080000D01*
X174571000Y-129022000D02*
X174571000Y-131218000D01*
X173011000Y-131160000D02*
X173011000Y-132575000D01*
X172610000Y-131160000D02*
X172610000Y-132670000D01*
X172650000Y-127577000D02*
X172650000Y-129080000D01*
X173891000Y-128149000D02*
X173891000Y-129080000D01*
X173131000Y-131160000D02*
X173131000Y-132534000D01*
X173491000Y-127873000D02*
X173491000Y-129080000D01*
X173691000Y-131160000D02*
X173691000Y-132242000D01*
X174331000Y-128620000D02*
X174331000Y-129080000D01*
X172570000Y-131160000D02*
X172570000Y-132676000D01*
X174451000Y-131160000D02*
X174451000Y-131439000D01*
X173371000Y-127810000D02*
X173371000Y-129080000D01*
X173251000Y-131160000D02*
X173251000Y-132485000D01*
X173531000Y-127896000D02*
X173531000Y-129080000D01*
X174331000Y-131160000D02*
X174331000Y-131620000D01*
X172810000Y-131160000D02*
X172810000Y-132631000D01*
X174091000Y-131160000D02*
X174091000Y-131905000D01*
X174131000Y-131160000D02*
X174131000Y-131863000D01*
X173811000Y-131160000D02*
X173811000Y-132155000D01*
X173371000Y-131160000D02*
X173371000Y-132430000D01*
X174171000Y-128421000D02*
X174171000Y-129080000D01*
X172330000Y-127542000D02*
X172330000Y-132698000D01*
X172370000Y-127544000D02*
X172370000Y-132696000D01*
X173251000Y-127755000D02*
X173251000Y-129080000D01*
X173211000Y-131160000D02*
X173211000Y-132502000D01*
X172931000Y-131160000D02*
X172931000Y-132600000D01*
X173531000Y-131160000D02*
X173531000Y-132344000D01*
X172530000Y-131160000D02*
X172530000Y-132681000D01*
X174211000Y-128467000D02*
X174211000Y-129080000D01*
X172650000Y-131160000D02*
X172650000Y-132663000D01*
X174371000Y-128677000D02*
X174371000Y-129080000D01*
X173211000Y-127738000D02*
X173211000Y-129080000D01*
X174451000Y-128801000D02*
X174451000Y-129080000D01*
X173291000Y-131160000D02*
X173291000Y-132468000D01*
X174491000Y-131160000D02*
X174491000Y-131371000D01*
X174651000Y-129205000D02*
X174651000Y-131035000D01*
X173171000Y-127722000D02*
X173171000Y-129080000D01*
X172890000Y-127629000D02*
X172890000Y-129080000D01*
X173491000Y-131160000D02*
X173491000Y-132367000D01*
X172890000Y-131160000D02*
X172890000Y-132611000D01*
X174811000Y-129836000D02*
X174811000Y-130404000D01*
X174491000Y-128869000D02*
X174491000Y-129080000D01*
X173851000Y-128116000D02*
X173851000Y-129080000D01*
X173731000Y-131160000D02*
X173731000Y-132215000D01*
X172450000Y-131160000D02*
X172450000Y-132689000D01*
X173571000Y-131160000D02*
X173571000Y-132320000D01*
X172850000Y-131160000D02*
X172850000Y-132621000D01*
X173851000Y-131160000D02*
X173851000Y-132124000D01*
X174830000Y-130120000D02*
G75*
G03*
X174830000Y-130120000I-2620000J0D01*
G01*
%TO.C,C18*%
X165259000Y-63160000D02*
X164001000Y-63160000D01*
X165259000Y-65000000D02*
X164001000Y-65000000D01*
%TO.C,R4*%
X169920000Y-53920000D02*
X169150000Y-53920000D01*
X169150000Y-55290000D02*
X169150000Y-52550000D01*
X162610000Y-52550000D02*
X162610000Y-55290000D01*
X161840000Y-53920000D02*
X162610000Y-53920000D01*
X169150000Y-52550000D02*
X162610000Y-52550000D01*
X162610000Y-55290000D02*
X169150000Y-55290000D01*
%TO.C,R10*%
X158260000Y-93520000D02*
X158260000Y-92750000D01*
X159630000Y-92750000D02*
X159630000Y-86210000D01*
X156890000Y-92750000D02*
X159630000Y-92750000D01*
X158260000Y-85440000D02*
X158260000Y-86210000D01*
X156890000Y-86210000D02*
X156890000Y-92750000D01*
X159630000Y-86210000D02*
X156890000Y-86210000D01*
%TO.C,D1*%
X154800000Y-127950000D02*
X156640000Y-127950000D01*
X154800000Y-127374000D02*
X156640000Y-127374000D01*
X155720000Y-129130000D02*
X155720000Y-127950000D01*
X154800000Y-124670000D02*
X154800000Y-127950000D01*
X154800000Y-127494000D02*
X156640000Y-127494000D01*
X154800000Y-127254000D02*
X156640000Y-127254000D01*
X155720000Y-123490000D02*
X155720000Y-124670000D01*
X156640000Y-127950000D02*
X156640000Y-124670000D01*
X156640000Y-124670000D02*
X154800000Y-124670000D01*
%TO.C,C2*%
X162130000Y-127541000D02*
X162130000Y-132699000D01*
X163851000Y-131160000D02*
X163851000Y-131984000D01*
X164211000Y-128677000D02*
X164211000Y-129080000D01*
X163251000Y-131160000D02*
X163251000Y-132410000D01*
X163731000Y-128149000D02*
X163731000Y-129080000D01*
X162090000Y-127540000D02*
X162090000Y-132700000D01*
X164291000Y-128801000D02*
X164291000Y-129080000D01*
X162490000Y-127577000D02*
X162490000Y-129080000D01*
X163651000Y-128085000D02*
X163651000Y-129080000D01*
X163971000Y-128377000D02*
X163971000Y-129080000D01*
X164331000Y-131160000D02*
X164331000Y-131371000D01*
X164571000Y-129443000D02*
X164571000Y-130797000D01*
X159495225Y-128395000D02*
X159495225Y-128895000D01*
X162971000Y-131160000D02*
X162971000Y-132534000D01*
X163371000Y-127896000D02*
X163371000Y-129080000D01*
X164011000Y-128421000D02*
X164011000Y-129080000D01*
X163491000Y-127971000D02*
X163491000Y-129080000D01*
X164171000Y-128620000D02*
X164171000Y-129080000D01*
X162370000Y-131160000D02*
X162370000Y-132681000D01*
X164291000Y-131160000D02*
X164291000Y-131439000D01*
X163691000Y-131160000D02*
X163691000Y-132124000D01*
X162851000Y-127665000D02*
X162851000Y-129080000D01*
X162931000Y-131160000D02*
X162931000Y-132548000D01*
X163731000Y-131160000D02*
X163731000Y-132091000D01*
X163451000Y-127945000D02*
X163451000Y-129080000D01*
X163291000Y-131160000D02*
X163291000Y-132388000D01*
X162971000Y-127706000D02*
X162971000Y-129080000D01*
X163211000Y-131160000D02*
X163211000Y-132430000D01*
X163091000Y-131160000D02*
X163091000Y-132485000D01*
X163531000Y-127998000D02*
X163531000Y-129080000D01*
X164011000Y-131160000D02*
X164011000Y-131819000D01*
X162410000Y-127564000D02*
X162410000Y-129080000D01*
X164091000Y-128515000D02*
X164091000Y-129080000D01*
X163851000Y-128256000D02*
X163851000Y-129080000D01*
X163891000Y-131160000D02*
X163891000Y-131946000D01*
X164531000Y-129315000D02*
X164531000Y-130925000D01*
X163571000Y-128025000D02*
X163571000Y-129080000D01*
X163491000Y-131160000D02*
X163491000Y-132269000D01*
X164211000Y-131160000D02*
X164211000Y-131563000D01*
X162811000Y-127652000D02*
X162811000Y-129080000D01*
X163011000Y-131160000D02*
X163011000Y-132518000D01*
X162891000Y-127678000D02*
X162891000Y-129080000D01*
X164051000Y-128467000D02*
X164051000Y-129080000D01*
X163651000Y-131160000D02*
X163651000Y-132155000D01*
X164171000Y-131160000D02*
X164171000Y-131620000D01*
X163771000Y-128183000D02*
X163771000Y-129080000D01*
X162530000Y-131160000D02*
X162530000Y-132656000D01*
X163371000Y-131160000D02*
X163371000Y-132344000D01*
X163531000Y-131160000D02*
X163531000Y-132242000D01*
X163811000Y-128219000D02*
X163811000Y-129080000D01*
X163131000Y-131160000D02*
X163131000Y-132468000D01*
X164091000Y-131160000D02*
X164091000Y-131725000D01*
X163171000Y-127791000D02*
X163171000Y-129080000D01*
X163331000Y-131160000D02*
X163331000Y-132367000D01*
X162851000Y-131160000D02*
X162851000Y-132575000D01*
X162690000Y-127619000D02*
X162690000Y-129080000D01*
X163771000Y-131160000D02*
X163771000Y-132057000D01*
X163331000Y-127873000D02*
X163331000Y-129080000D01*
X162570000Y-131160000D02*
X162570000Y-132648000D01*
X162370000Y-127559000D02*
X162370000Y-129080000D01*
X164131000Y-131160000D02*
X164131000Y-131674000D01*
X163891000Y-128294000D02*
X163891000Y-129080000D01*
X162730000Y-131160000D02*
X162730000Y-132611000D01*
X162610000Y-127600000D02*
X162610000Y-129080000D01*
X164611000Y-129602000D02*
X164611000Y-130638000D01*
X162290000Y-131160000D02*
X162290000Y-132689000D01*
X162450000Y-131160000D02*
X162450000Y-132670000D01*
X163011000Y-127722000D02*
X163011000Y-129080000D01*
X162250000Y-127547000D02*
X162250000Y-132693000D01*
X163211000Y-127810000D02*
X163211000Y-129080000D01*
X164411000Y-129022000D02*
X164411000Y-131218000D01*
X163571000Y-131160000D02*
X163571000Y-132215000D01*
X163411000Y-127920000D02*
X163411000Y-129080000D01*
X162450000Y-127570000D02*
X162450000Y-129080000D01*
X163131000Y-127772000D02*
X163131000Y-129080000D01*
X162330000Y-127555000D02*
X162330000Y-129080000D01*
X162570000Y-127592000D02*
X162570000Y-129080000D01*
X162730000Y-127629000D02*
X162730000Y-129080000D01*
X162931000Y-127692000D02*
X162931000Y-129080000D01*
X163411000Y-131160000D02*
X163411000Y-132320000D01*
X164651000Y-129836000D02*
X164651000Y-130404000D01*
X163931000Y-131160000D02*
X163931000Y-131905000D01*
X162891000Y-131160000D02*
X162891000Y-132562000D01*
X162650000Y-131160000D02*
X162650000Y-132631000D01*
X164451000Y-129109000D02*
X164451000Y-131131000D01*
X163091000Y-127755000D02*
X163091000Y-129080000D01*
X163051000Y-127738000D02*
X163051000Y-129080000D01*
X162811000Y-131160000D02*
X162811000Y-132588000D01*
X162290000Y-127551000D02*
X162290000Y-129080000D01*
X163451000Y-131160000D02*
X163451000Y-132295000D01*
X163931000Y-128335000D02*
X163931000Y-129080000D01*
X164491000Y-129205000D02*
X164491000Y-131035000D01*
X164251000Y-128737000D02*
X164251000Y-129080000D01*
X162771000Y-131160000D02*
X162771000Y-132600000D01*
X163611000Y-128055000D02*
X163611000Y-129080000D01*
X164371000Y-128942000D02*
X164371000Y-131298000D01*
X163971000Y-131160000D02*
X163971000Y-131863000D01*
X162170000Y-127542000D02*
X162170000Y-132698000D01*
X163811000Y-131160000D02*
X163811000Y-132021000D01*
X162210000Y-127544000D02*
X162210000Y-132696000D01*
X162610000Y-131160000D02*
X162610000Y-132640000D01*
X163691000Y-128116000D02*
X163691000Y-129080000D01*
X164331000Y-128869000D02*
X164331000Y-129080000D01*
X162490000Y-131160000D02*
X162490000Y-132663000D01*
X162410000Y-131160000D02*
X162410000Y-132676000D01*
X162690000Y-131160000D02*
X162690000Y-132621000D01*
X164251000Y-131160000D02*
X164251000Y-131503000D01*
X162330000Y-131160000D02*
X162330000Y-132685000D01*
X163171000Y-131160000D02*
X163171000Y-132449000D01*
X163291000Y-127852000D02*
X163291000Y-129080000D01*
X164131000Y-128566000D02*
X164131000Y-129080000D01*
X159245225Y-128645000D02*
X159745225Y-128645000D01*
X162650000Y-127609000D02*
X162650000Y-129080000D01*
X162771000Y-127640000D02*
X162771000Y-129080000D01*
X164051000Y-131160000D02*
X164051000Y-131773000D01*
X163251000Y-127830000D02*
X163251000Y-129080000D01*
X163051000Y-131160000D02*
X163051000Y-132502000D01*
X162530000Y-127584000D02*
X162530000Y-129080000D01*
X163611000Y-131160000D02*
X163611000Y-132185000D01*
X162050000Y-127540000D02*
X162050000Y-132700000D01*
X164670000Y-130120000D02*
G75*
G03*
X164670000Y-130120000I-2620000J0D01*
G01*
%TO.C,C15*%
X193170000Y-126339000D02*
X193170000Y-127810000D01*
X193891000Y-126626000D02*
X193891000Y-127810000D01*
X194531000Y-127151000D02*
X194531000Y-127810000D01*
X193891000Y-129890000D02*
X193891000Y-131074000D01*
X193210000Y-129890000D02*
X193210000Y-131351000D01*
X194011000Y-126701000D02*
X194011000Y-127810000D01*
X194571000Y-129890000D02*
X194571000Y-130503000D01*
X192970000Y-126300000D02*
X192970000Y-127810000D01*
X192890000Y-126289000D02*
X192890000Y-127810000D01*
X193331000Y-129890000D02*
X193331000Y-131318000D01*
X193291000Y-126370000D02*
X193291000Y-127810000D01*
X194051000Y-129890000D02*
X194051000Y-130972000D01*
X195131000Y-128332000D02*
X195131000Y-129368000D01*
X193691000Y-129890000D02*
X193691000Y-131179000D01*
X193411000Y-129890000D02*
X193411000Y-131292000D01*
X193411000Y-126408000D02*
X193411000Y-127810000D01*
X193731000Y-126540000D02*
X193731000Y-127810000D01*
X194651000Y-127296000D02*
X194651000Y-127810000D01*
X193931000Y-126650000D02*
X193931000Y-127810000D01*
X192570000Y-126270000D02*
X192570000Y-131430000D01*
X193090000Y-129890000D02*
X193090000Y-131378000D01*
X194691000Y-127350000D02*
X194691000Y-127810000D01*
X194931000Y-127752000D02*
X194931000Y-129948000D01*
X193451000Y-129890000D02*
X193451000Y-131278000D01*
X193371000Y-129890000D02*
X193371000Y-131305000D01*
X194291000Y-129890000D02*
X194291000Y-130787000D01*
X192970000Y-129890000D02*
X192970000Y-131400000D01*
X190015225Y-127125000D02*
X190015225Y-127625000D01*
X193651000Y-129890000D02*
X193651000Y-131198000D01*
X194051000Y-126728000D02*
X194051000Y-127810000D01*
X193651000Y-126502000D02*
X193651000Y-127810000D01*
X194771000Y-129890000D02*
X194771000Y-130233000D01*
X192930000Y-126294000D02*
X192930000Y-127810000D01*
X193851000Y-126603000D02*
X193851000Y-127810000D01*
X192850000Y-126285000D02*
X192850000Y-127810000D01*
X192850000Y-129890000D02*
X192850000Y-131415000D01*
X192810000Y-129890000D02*
X192810000Y-131419000D01*
X194611000Y-127245000D02*
X194611000Y-127810000D01*
X194091000Y-126755000D02*
X194091000Y-127810000D01*
X194411000Y-129890000D02*
X194411000Y-130676000D01*
X194491000Y-129890000D02*
X194491000Y-130593000D01*
X194171000Y-129890000D02*
X194171000Y-130885000D01*
X194331000Y-129890000D02*
X194331000Y-130751000D01*
X194851000Y-129890000D02*
X194851000Y-130101000D01*
X192650000Y-126271000D02*
X192650000Y-131429000D01*
X193851000Y-129890000D02*
X193851000Y-131097000D01*
X194851000Y-127599000D02*
X194851000Y-127810000D01*
X194451000Y-127065000D02*
X194451000Y-127810000D01*
X194411000Y-127024000D02*
X194411000Y-127810000D01*
X194371000Y-129890000D02*
X194371000Y-130714000D01*
X193971000Y-129890000D02*
X193971000Y-131025000D01*
X194771000Y-127467000D02*
X194771000Y-127810000D01*
X192690000Y-126272000D02*
X192690000Y-131428000D01*
X193931000Y-129890000D02*
X193931000Y-131050000D01*
X193691000Y-126521000D02*
X193691000Y-127810000D01*
X193250000Y-129890000D02*
X193250000Y-131341000D01*
X194811000Y-129890000D02*
X194811000Y-130169000D01*
X194251000Y-126879000D02*
X194251000Y-127810000D01*
X192890000Y-129890000D02*
X192890000Y-131411000D01*
X194651000Y-129890000D02*
X194651000Y-130404000D01*
X194371000Y-126986000D02*
X194371000Y-127810000D01*
X193050000Y-126314000D02*
X193050000Y-127810000D01*
X189765225Y-127375000D02*
X190265225Y-127375000D01*
X193451000Y-126422000D02*
X193451000Y-127810000D01*
X193010000Y-126307000D02*
X193010000Y-127810000D01*
X194291000Y-126913000D02*
X194291000Y-127810000D01*
X193170000Y-129890000D02*
X193170000Y-131361000D01*
X194451000Y-129890000D02*
X194451000Y-130635000D01*
X193971000Y-126675000D02*
X193971000Y-127810000D01*
X195091000Y-128173000D02*
X195091000Y-129527000D01*
X194131000Y-129890000D02*
X194131000Y-130915000D01*
X193090000Y-126322000D02*
X193090000Y-127810000D01*
X193811000Y-129890000D02*
X193811000Y-131118000D01*
X194891000Y-127672000D02*
X194891000Y-130028000D01*
X193491000Y-126436000D02*
X193491000Y-127810000D01*
X193771000Y-126560000D02*
X193771000Y-127810000D01*
X193491000Y-129890000D02*
X193491000Y-131264000D01*
X194811000Y-127531000D02*
X194811000Y-127810000D01*
X193531000Y-129890000D02*
X193531000Y-131248000D01*
X194011000Y-129890000D02*
X194011000Y-130999000D01*
X193291000Y-129890000D02*
X193291000Y-131330000D01*
X194611000Y-129890000D02*
X194611000Y-130455000D01*
X195171000Y-128566000D02*
X195171000Y-129134000D01*
X193371000Y-126395000D02*
X193371000Y-127810000D01*
X193130000Y-126330000D02*
X193130000Y-127810000D01*
X194251000Y-129890000D02*
X194251000Y-130821000D01*
X193731000Y-129890000D02*
X193731000Y-131160000D01*
X193611000Y-126485000D02*
X193611000Y-127810000D01*
X193571000Y-129890000D02*
X193571000Y-131232000D01*
X193250000Y-126359000D02*
X193250000Y-127810000D01*
X194731000Y-127407000D02*
X194731000Y-127810000D01*
X192730000Y-126274000D02*
X192730000Y-131426000D01*
X194091000Y-129890000D02*
X194091000Y-130945000D01*
X193811000Y-126582000D02*
X193811000Y-127810000D01*
X193210000Y-126349000D02*
X193210000Y-127810000D01*
X193050000Y-129890000D02*
X193050000Y-131386000D01*
X194971000Y-127839000D02*
X194971000Y-129861000D01*
X193130000Y-129890000D02*
X193130000Y-131370000D01*
X194731000Y-129890000D02*
X194731000Y-130293000D01*
X193331000Y-126382000D02*
X193331000Y-127810000D01*
X192810000Y-126281000D02*
X192810000Y-127810000D01*
X194131000Y-126785000D02*
X194131000Y-127810000D01*
X195051000Y-128045000D02*
X195051000Y-129655000D01*
X192610000Y-126270000D02*
X192610000Y-131430000D01*
X194691000Y-129890000D02*
X194691000Y-130350000D01*
X192930000Y-129890000D02*
X192930000Y-131406000D01*
X193771000Y-129890000D02*
X193771000Y-131140000D01*
X193010000Y-129890000D02*
X193010000Y-131393000D01*
X193571000Y-126468000D02*
X193571000Y-127810000D01*
X194211000Y-126846000D02*
X194211000Y-127810000D01*
X194491000Y-127107000D02*
X194491000Y-127810000D01*
X193611000Y-129890000D02*
X193611000Y-131215000D01*
X194571000Y-127197000D02*
X194571000Y-127810000D01*
X194531000Y-129890000D02*
X194531000Y-130549000D01*
X194171000Y-126815000D02*
X194171000Y-127810000D01*
X195011000Y-127935000D02*
X195011000Y-129765000D01*
X194331000Y-126949000D02*
X194331000Y-127810000D01*
X193531000Y-126452000D02*
X193531000Y-127810000D01*
X194211000Y-129890000D02*
X194211000Y-130854000D01*
X192770000Y-126277000D02*
X192770000Y-131423000D01*
X195190000Y-128850000D02*
G75*
G03*
X195190000Y-128850000I-2620000J0D01*
G01*
%TO.C,RV3*%
X202760000Y-105305000D02*
X201760000Y-105305000D01*
X201260000Y-97180000D02*
X190760000Y-97180000D01*
X190760000Y-107180000D02*
X190760000Y-105180000D01*
X201260000Y-107180000D02*
X201260000Y-97180000D01*
X190760000Y-100180000D02*
X190760000Y-101680000D01*
X202760000Y-106680000D02*
X201260000Y-106680000D01*
X202760000Y-103930000D02*
X201260000Y-103930000D01*
X190760000Y-102680000D02*
X190760000Y-104180000D01*
X201260000Y-107180000D02*
X190760000Y-107180000D01*
X202760000Y-106680000D02*
X202760000Y-103930000D01*
X190760000Y-97180000D02*
X190760000Y-98930000D01*
%TO.C,R18*%
X172130000Y-77320000D02*
X172130000Y-83860000D01*
X173500000Y-76550000D02*
X173500000Y-77320000D01*
X173500000Y-84630000D02*
X173500000Y-83860000D01*
X174870000Y-77320000D02*
X172130000Y-77320000D01*
X172130000Y-83860000D02*
X174870000Y-83860000D01*
X174870000Y-83860000D02*
X174870000Y-77320000D01*
%TO.C,R14*%
X171060000Y-98910000D02*
X168320000Y-98910000D01*
X169690000Y-98140000D02*
X169690000Y-98910000D01*
X169690000Y-106220000D02*
X169690000Y-105450000D01*
X168320000Y-105450000D02*
X171060000Y-105450000D01*
X171060000Y-105450000D02*
X171060000Y-98910000D01*
X168320000Y-98910000D02*
X168320000Y-105450000D01*
%TO.C,C13*%
X168770000Y-116759000D02*
X168770000Y-115501000D01*
X170610000Y-116759000D02*
X170610000Y-115501000D01*
%TO.C,D3*%
X168420000Y-123490000D02*
X168420000Y-124670000D01*
X167500000Y-124670000D02*
X167500000Y-127950000D01*
X167500000Y-127254000D02*
X169340000Y-127254000D01*
X169340000Y-127950000D02*
X169340000Y-124670000D01*
X169340000Y-124670000D02*
X167500000Y-124670000D01*
X167500000Y-127494000D02*
X169340000Y-127494000D01*
X167500000Y-127950000D02*
X169340000Y-127950000D01*
X167500000Y-127374000D02*
X169340000Y-127374000D01*
X168420000Y-129130000D02*
X168420000Y-127950000D01*
%TO.C,U2*%
X188819067Y-64080000D02*
G75*
G03*
X188819067Y-64080000I-10239067J0D01*
G01*
%TO.C,R7*%
X195190000Y-59730000D02*
X195190000Y-53190000D01*
X195190000Y-53190000D02*
X192450000Y-53190000D01*
X193820000Y-52420000D02*
X193820000Y-53190000D01*
X192450000Y-59730000D02*
X195190000Y-59730000D01*
X192450000Y-53190000D02*
X192450000Y-59730000D01*
X193820000Y-60500000D02*
X193820000Y-59730000D01*
%TO.C,C4*%
X167799000Y-57380000D02*
X166541000Y-57380000D01*
X167799000Y-55540000D02*
X166541000Y-55540000D01*
%TO.C,C6*%
X171880000Y-74861000D02*
X171880000Y-76119000D01*
X170040000Y-74861000D02*
X170040000Y-76119000D01*
%TO.C,R1*%
X158260000Y-141780000D02*
X158260000Y-141010000D01*
X159630000Y-141010000D02*
X159630000Y-134470000D01*
X156890000Y-134470000D02*
X156890000Y-141010000D01*
X156890000Y-141010000D02*
X159630000Y-141010000D01*
X158260000Y-133700000D02*
X158260000Y-134470000D01*
X159630000Y-134470000D02*
X156890000Y-134470000D01*
%TO.C,C1*%
X159730000Y-132890000D02*
X159730000Y-137430000D01*
X161870000Y-137430000D02*
X161855000Y-137430000D01*
X161870000Y-132890000D02*
X161855000Y-132890000D01*
X159745000Y-132890000D02*
X159730000Y-132890000D01*
X161870000Y-132890000D02*
X161870000Y-137430000D01*
X159745000Y-137430000D02*
X159730000Y-137430000D01*
%TO.C,R15*%
X170860000Y-113070000D02*
X173600000Y-113070000D01*
X170860000Y-106530000D02*
X170860000Y-113070000D01*
X173600000Y-106530000D02*
X170860000Y-106530000D01*
X172230000Y-105760000D02*
X172230000Y-106530000D01*
X173600000Y-113070000D02*
X173600000Y-106530000D01*
X172230000Y-113840000D02*
X172230000Y-113070000D01*
%TO.C,D6*%
X176020000Y-87935000D02*
X176020000Y-91025000D01*
X176020000Y-91024830D02*
G75*
G03*
X181570000Y-89479538I2560000J1544830D01*
G01*
X181570000Y-89480462D02*
G75*
G03*
X176020000Y-87935170I-2990000J462D01*
G01*
X181080000Y-89480000D02*
G75*
G03*
X181080000Y-89480000I-2500000J0D01*
G01*
%TO.C,R9*%
X160080000Y-78150000D02*
X166620000Y-78150000D01*
X167390000Y-76780000D02*
X166620000Y-76780000D01*
X166620000Y-75410000D02*
X160080000Y-75410000D01*
X160080000Y-75410000D02*
X160080000Y-78150000D01*
X166620000Y-78150000D02*
X166620000Y-75410000D01*
X159310000Y-76780000D02*
X160080000Y-76780000D01*
%TO.C,U3*%
X175930000Y-93230000D02*
X175930000Y-111130000D01*
X181230000Y-93230000D02*
X179580000Y-93230000D01*
X175930000Y-111130000D02*
X181230000Y-111130000D01*
X181230000Y-111130000D02*
X181230000Y-93230000D01*
X177580000Y-93230000D02*
X175930000Y-93230000D01*
X177580000Y-93230000D02*
G75*
G03*
X179580000Y-93230000I1000000J0D01*
G01*
%TO.C,D4*%
X165880000Y-123490000D02*
X165880000Y-124670000D01*
X166800000Y-125126000D02*
X164960000Y-125126000D01*
X165880000Y-129130000D02*
X165880000Y-127950000D01*
X164960000Y-124670000D02*
X164960000Y-127950000D01*
X166800000Y-127950000D02*
X166800000Y-124670000D01*
X166800000Y-125366000D02*
X164960000Y-125366000D01*
X164960000Y-127950000D02*
X166800000Y-127950000D01*
X166800000Y-125246000D02*
X164960000Y-125246000D01*
X166800000Y-124670000D02*
X164960000Y-124670000D01*
%TO.C,C20*%
X171310000Y-101519000D02*
X171310000Y-100261000D01*
X173150000Y-101519000D02*
X173150000Y-100261000D01*
%TO.C,R8*%
X189780000Y-69160000D02*
X190550000Y-69160000D01*
X197090000Y-67790000D02*
X190550000Y-67790000D01*
X190550000Y-67790000D02*
X190550000Y-70530000D01*
X197090000Y-70530000D02*
X197090000Y-67790000D01*
X197860000Y-69160000D02*
X197090000Y-69160000D01*
X190550000Y-70530000D02*
X197090000Y-70530000D01*
%TD*%
%LPC*%
D13*
%TO.C,U1*%
X158270000Y-66630000D03*
D14*
X158270000Y-69170000D03*
X158270000Y-71710000D03*
X158270000Y-74250000D03*
X165890000Y-74250000D03*
X165890000Y-71710000D03*
X165890000Y-69170000D03*
X165890000Y-66630000D03*
%TD*%
D15*
%TO.C,R16*%
X165880000Y-132660000D03*
D14*
X165880000Y-142820000D03*
%TD*%
D15*
%TO.C,R3*%
X155720000Y-69160000D03*
D14*
X155720000Y-59000000D03*
%TD*%
D16*
%TO.C,SW2*%
X188930500Y-84781000D03*
X188930500Y-89480000D03*
X188930500Y-94179000D03*
X193629500Y-84781000D03*
X193629500Y-89480000D03*
X193629500Y-94179000D03*
%TD*%
D15*
%TO.C,C5*%
X172230000Y-51380000D03*
X169730000Y-51380000D03*
%TD*%
D17*
%TO.C,RV2*%
X196030000Y-150440000D03*
X186530000Y-150440000D03*
D18*
X193780000Y-142940000D03*
D19*
X191280000Y-142940000D03*
X188780000Y-142940000D03*
%TD*%
D20*
%TO.C,H1*%
X178580000Y-64080000D03*
%TD*%
D15*
%TO.C,R19*%
X183660000Y-79320000D03*
D14*
X183660000Y-89480000D03*
%TD*%
D21*
%TO.C,D2*%
X158260000Y-122495000D03*
D22*
X158260000Y-130115000D03*
%TD*%
D15*
%TO.C,R20*%
X176040000Y-85670000D03*
D14*
X176040000Y-75510000D03*
%TD*%
D13*
%TO.C,C16*%
X184930000Y-128850000D03*
D15*
X187430000Y-128850000D03*
%TD*%
%TO.C,R13*%
X167150000Y-97100000D03*
D14*
X167150000Y-107260000D03*
%TD*%
D15*
%TO.C,C8*%
X191280000Y-64080000D03*
X193780000Y-64080000D03*
%TD*%
D23*
%TO.C,Q1*%
X179850000Y-80590000D03*
D24*
X179850000Y-79320000D03*
X179850000Y-78050000D03*
%TD*%
D13*
%TO.C,C10*%
X186200000Y-74280000D03*
D15*
X186200000Y-76780000D03*
%TD*%
%TO.C,C17*%
X155730000Y-71740000D03*
X155730000Y-74240000D03*
%TD*%
%TO.C,R6*%
X184930000Y-51380000D03*
D14*
X174770000Y-51380000D03*
%TD*%
D17*
%TO.C,RV1*%
X183330000Y-119960000D03*
X173830000Y-119960000D03*
D18*
X181080000Y-112460000D03*
D19*
X178580000Y-112460000D03*
X176080000Y-112460000D03*
%TD*%
D15*
%TO.C,R11*%
X163340000Y-97100000D03*
D14*
X163340000Y-107260000D03*
%TD*%
D15*
%TO.C,R5*%
X198900000Y-114880000D03*
D14*
X188740000Y-114880000D03*
%TD*%
D25*
%TO.C,J1*%
X154830000Y-151040000D03*
D26*
X164230000Y-151040000D03*
D27*
X159530000Y-145640000D03*
X159530000Y-153740000D03*
%TD*%
D15*
%TO.C,R17*%
X168420000Y-132660000D03*
D14*
X168420000Y-142820000D03*
%TD*%
D16*
%TO.C,SW1*%
X163530500Y-84781000D03*
X163530500Y-89480000D03*
X163530500Y-94179000D03*
X168229500Y-84781000D03*
X168229500Y-89480000D03*
X168229500Y-94179000D03*
%TD*%
D15*
%TO.C,R2*%
X155720000Y-132660000D03*
D14*
X155720000Y-142820000D03*
%TD*%
D13*
%TO.C,C12*%
X168420000Y-112340000D03*
D15*
X168420000Y-109840000D03*
%TD*%
%TO.C,C19*%
X184930000Y-104680000D03*
X184930000Y-102180000D03*
%TD*%
%TO.C,C7*%
X191200000Y-61540000D03*
X191200000Y-59040000D03*
%TD*%
%TO.C,C3*%
X167150000Y-59000000D03*
X164650000Y-59000000D03*
%TD*%
D26*
%TO.C,J2*%
X176930000Y-151040000D03*
D25*
X167530000Y-151040000D03*
D27*
X172230000Y-145640000D03*
X172230000Y-153740000D03*
%TD*%
D15*
%TO.C,C9*%
X191280000Y-66620000D03*
X193780000Y-66620000D03*
%TD*%
%TO.C,C11*%
X168430000Y-69160000D03*
X168430000Y-71660000D03*
%TD*%
%TO.C,R12*%
X168430000Y-79320000D03*
D14*
X158270000Y-79320000D03*
%TD*%
D13*
%TO.C,C14*%
X170960000Y-130120000D03*
D15*
X173460000Y-130120000D03*
%TD*%
%TO.C,C18*%
X165880000Y-64080000D03*
X163380000Y-64080000D03*
%TD*%
%TO.C,R4*%
X170960000Y-53920000D03*
D14*
X160800000Y-53920000D03*
%TD*%
D15*
%TO.C,R10*%
X158260000Y-84400000D03*
D14*
X158260000Y-94560000D03*
%TD*%
D21*
%TO.C,D1*%
X155720000Y-130120000D03*
D22*
X155720000Y-122500000D03*
%TD*%
D13*
%TO.C,C2*%
X160800000Y-130120000D03*
D15*
X163300000Y-130120000D03*
%TD*%
D13*
%TO.C,C15*%
X191320000Y-128850000D03*
D15*
X193820000Y-128850000D03*
%TD*%
D28*
%TO.C,RV3*%
X190010000Y-104720000D03*
X190010000Y-102180000D03*
X190010000Y-99640000D03*
%TD*%
D15*
%TO.C,R18*%
X173500000Y-85670000D03*
D14*
X173500000Y-75510000D03*
%TD*%
D15*
%TO.C,R14*%
X169690000Y-97100000D03*
D14*
X169690000Y-107260000D03*
%TD*%
D29*
%TO.C,J3*%
X193820000Y-136470000D03*
D30*
X193820000Y-133930000D03*
X191280000Y-136470000D03*
X191280000Y-133930000D03*
X188740000Y-136470000D03*
X188740000Y-133930000D03*
X186200000Y-136470000D03*
X186200000Y-133930000D03*
X183660000Y-136470000D03*
X183660000Y-133930000D03*
%TD*%
D15*
%TO.C,C13*%
X169690000Y-117380000D03*
X169690000Y-114880000D03*
%TD*%
D21*
%TO.C,D3*%
X168420000Y-130120000D03*
D22*
X168420000Y-122500000D03*
%TD*%
D31*
%TO.C,U2*%
X182030000Y-68830000D03*
X184180000Y-65900000D03*
X184180000Y-62250000D03*
X182030000Y-59320000D03*
X178580000Y-58180000D03*
X175120000Y-59320000D03*
X172970000Y-62250000D03*
X172970000Y-65860000D03*
X175120000Y-68830000D03*
%TD*%
D18*
%TO.C,D5*%
X179850000Y-66620000D03*
D19*
X177310000Y-66620000D03*
%TD*%
D15*
%TO.C,R7*%
X193820000Y-61540000D03*
D14*
X193820000Y-51380000D03*
%TD*%
D15*
%TO.C,C4*%
X168420000Y-56460000D03*
X165920000Y-56460000D03*
%TD*%
%TO.C,C6*%
X170960000Y-74240000D03*
X170960000Y-76740000D03*
%TD*%
%TO.C,R1*%
X158260000Y-142820000D03*
D14*
X158260000Y-132660000D03*
%TD*%
D15*
%TO.C,C1*%
X160800000Y-132660000D03*
X160800000Y-137660000D03*
%TD*%
%TO.C,R15*%
X172230000Y-104720000D03*
D14*
X172230000Y-114880000D03*
%TD*%
D18*
%TO.C,D6*%
X177310000Y-89480000D03*
D19*
X179850000Y-89480000D03*
%TD*%
D15*
%TO.C,R9*%
X168430000Y-76780000D03*
D14*
X158270000Y-76780000D03*
%TD*%
D13*
%TO.C,U3*%
X174770000Y-94560000D03*
D14*
X174770000Y-97100000D03*
X174770000Y-99640000D03*
X174770000Y-102180000D03*
X174770000Y-104720000D03*
X174770000Y-107260000D03*
X174770000Y-109800000D03*
X182390000Y-109800000D03*
X182390000Y-107260000D03*
X182390000Y-104720000D03*
X182390000Y-102180000D03*
X182390000Y-99640000D03*
X182390000Y-97100000D03*
X182390000Y-94560000D03*
%TD*%
D21*
%TO.C,D4*%
X165880000Y-122500000D03*
D22*
X165880000Y-130120000D03*
%TD*%
D15*
%TO.C,C20*%
X172230000Y-102140000D03*
X172230000Y-99640000D03*
%TD*%
%TO.C,R8*%
X198900000Y-69160000D03*
D14*
X188740000Y-69160000D03*
%TD*%
M02*
