%TF.GenerationSoftware,KiCad,Pcbnew,(6.0.5)*%
%TF.CreationDate,2023-02-15T13:44:48-05:00*%
%TF.ProjectId,valve_distortion,76616c76-655f-4646-9973-746f7274696f,rev?*%
%TF.SameCoordinates,Original*%
%TF.FileFunction,Legend,Bot*%
%TF.FilePolarity,Positive*%
%FSLAX46Y46*%
G04 Gerber Fmt 4.6, Leading zero omitted, Abs format (unit mm)*
G04 Created by KiCad (PCBNEW (6.0.5)) date 2023-02-15 13:44:48*
%MOMM*%
%LPD*%
G01*
G04 APERTURE LIST*
G04 Aperture macros list*
%AMRoundRect*
0 Rectangle with rounded corners*
0 $1 Rounding radius*
0 $2 $3 $4 $5 $6 $7 $8 $9 X,Y pos of 4 corners*
0 Add a 4 corners polygon primitive as box body*
4,1,4,$2,$3,$4,$5,$6,$7,$8,$9,$2,$3,0*
0 Add four circle primitives for the rounded corners*
1,1,$1+$1,$2,$3*
1,1,$1+$1,$4,$5*
1,1,$1+$1,$6,$7*
1,1,$1+$1,$8,$9*
0 Add four rect primitives between the rounded corners*
20,1,$1+$1,$2,$3,$4,$5,0*
20,1,$1+$1,$4,$5,$6,$7,0*
20,1,$1+$1,$6,$7,$8,$9,0*
20,1,$1+$1,$8,$9,$2,$3,0*%
G04 Aperture macros list end*
%ADD10C,0.150000*%
%ADD11C,0.120000*%
%ADD12R,1.600000X1.600000*%
%ADD13O,1.600000X1.600000*%
%ADD14C,1.600000*%
%ADD15RoundRect,0.698500X-1.333500X-0.698500X1.333500X-0.698500X1.333500X0.698500X-1.333500X0.698500X0*%
%ADD16O,4.000000X4.000000*%
%ADD17R,1.800000X1.800000*%
%ADD18C,1.800000*%
%ADD19C,3.000000*%
%ADD20R,1.500000X1.500000*%
%ADD21O,1.500000X1.500000*%
%ADD22R,1.500000X1.050000*%
%ADD23O,1.500000X1.050000*%
%ADD24O,2.000000X3.500000*%
%ADD25O,2.000000X2.500000*%
%ADD26O,3.500000X1.500000*%
%ADD27C,1.440000*%
%ADD28RoundRect,0.250000X0.600000X-0.600000X0.600000X0.600000X-0.600000X0.600000X-0.600000X-0.600000X0*%
%ADD29C,1.700000*%
%ADD30C,2.030000*%
G04 APERTURE END LIST*
D10*
X155172380Y-87400952D02*
X155886666Y-87400952D01*
X156029523Y-87353333D01*
X156124761Y-87258095D01*
X156172380Y-87115238D01*
X156172380Y-87020000D01*
X156172380Y-88353333D02*
X156172380Y-87877142D01*
X155172380Y-87877142D01*
X156077142Y-89258095D02*
X156124761Y-89210476D01*
X156172380Y-89067619D01*
X156172380Y-88972380D01*
X156124761Y-88829523D01*
X156029523Y-88734285D01*
X155934285Y-88686666D01*
X155743809Y-88639047D01*
X155600952Y-88639047D01*
X155410476Y-88686666D01*
X155315238Y-88734285D01*
X155220000Y-88829523D01*
X155172380Y-88972380D01*
X155172380Y-89067619D01*
X155220000Y-89210476D01*
X155267619Y-89258095D01*
X155172380Y-89972380D02*
X155886666Y-89972380D01*
X156029523Y-89924761D01*
X156124761Y-89829523D01*
X156172380Y-89686666D01*
X156172380Y-89591428D01*
X156172380Y-90924761D02*
X156172380Y-90448571D01*
X155172380Y-90448571D01*
X156077142Y-91829523D02*
X156124761Y-91781904D01*
X156172380Y-91639047D01*
X156172380Y-91543809D01*
X156124761Y-91400952D01*
X156029523Y-91305714D01*
X155934285Y-91258095D01*
X155743809Y-91210476D01*
X155600952Y-91210476D01*
X155410476Y-91258095D01*
X155315238Y-91305714D01*
X155220000Y-91400952D01*
X155172380Y-91543809D01*
X155172380Y-91639047D01*
X155220000Y-91781904D01*
X155267619Y-91829523D01*
X155172380Y-92543809D02*
X155886666Y-92543809D01*
X156029523Y-92496190D01*
X156124761Y-92400952D01*
X156172380Y-92258095D01*
X156172380Y-92162857D01*
X156172380Y-93496190D02*
X156172380Y-93020000D01*
X155172380Y-93020000D01*
X156077142Y-94400952D02*
X156124761Y-94353333D01*
X156172380Y-94210476D01*
X156172380Y-94115238D01*
X156124761Y-93972380D01*
X156029523Y-93877142D01*
X155934285Y-93829523D01*
X155743809Y-93781904D01*
X155600952Y-93781904D01*
X155410476Y-93829523D01*
X155315238Y-93877142D01*
X155220000Y-93972380D01*
X155172380Y-94115238D01*
X155172380Y-94210476D01*
X155220000Y-94353333D01*
X155267619Y-94400952D01*
X155172380Y-95115238D02*
X155886666Y-95115238D01*
X156029523Y-95067619D01*
X156124761Y-94972380D01*
X156172380Y-94829523D01*
X156172380Y-94734285D01*
X156172380Y-96067619D02*
X156172380Y-95591428D01*
X155172380Y-95591428D01*
X156077142Y-96972380D02*
X156124761Y-96924761D01*
X156172380Y-96781904D01*
X156172380Y-96686666D01*
X156124761Y-96543809D01*
X156029523Y-96448571D01*
X155934285Y-96400952D01*
X155743809Y-96353333D01*
X155600952Y-96353333D01*
X155410476Y-96400952D01*
X155315238Y-96448571D01*
X155220000Y-96543809D01*
X155172380Y-96686666D01*
X155172380Y-96781904D01*
X155220000Y-96924761D01*
X155267619Y-96972380D01*
X192932380Y-106482857D02*
X193932380Y-106816190D01*
X192932380Y-107149523D01*
X193932380Y-107911428D02*
X193408571Y-107911428D01*
X193313333Y-107863809D01*
X193265714Y-107768571D01*
X193265714Y-107578095D01*
X193313333Y-107482857D01*
X193884761Y-107911428D02*
X193932380Y-107816190D01*
X193932380Y-107578095D01*
X193884761Y-107482857D01*
X193789523Y-107435238D01*
X193694285Y-107435238D01*
X193599047Y-107482857D01*
X193551428Y-107578095D01*
X193551428Y-107816190D01*
X193503809Y-107911428D01*
X193932380Y-108530476D02*
X193884761Y-108435238D01*
X193789523Y-108387619D01*
X192932380Y-108387619D01*
X193265714Y-108816190D02*
X193932380Y-109054285D01*
X193265714Y-109292380D01*
X193884761Y-110054285D02*
X193932380Y-109959047D01*
X193932380Y-109768571D01*
X193884761Y-109673333D01*
X193789523Y-109625714D01*
X193408571Y-109625714D01*
X193313333Y-109673333D01*
X193265714Y-109768571D01*
X193265714Y-109959047D01*
X193313333Y-110054285D01*
X193408571Y-110101904D01*
X193503809Y-110101904D01*
X193599047Y-109625714D01*
X193932380Y-111292380D02*
X192932380Y-111292380D01*
X192932380Y-111530476D01*
X192980000Y-111673333D01*
X193075238Y-111768571D01*
X193170476Y-111816190D01*
X193360952Y-111863809D01*
X193503809Y-111863809D01*
X193694285Y-111816190D01*
X193789523Y-111768571D01*
X193884761Y-111673333D01*
X193932380Y-111530476D01*
X193932380Y-111292380D01*
X193932380Y-112292380D02*
X193265714Y-112292380D01*
X192932380Y-112292380D02*
X192980000Y-112244761D01*
X193027619Y-112292380D01*
X192980000Y-112340000D01*
X192932380Y-112292380D01*
X193027619Y-112292380D01*
X193884761Y-112720952D02*
X193932380Y-112816190D01*
X193932380Y-113006666D01*
X193884761Y-113101904D01*
X193789523Y-113149523D01*
X193741904Y-113149523D01*
X193646666Y-113101904D01*
X193599047Y-113006666D01*
X193599047Y-112863809D01*
X193551428Y-112768571D01*
X193456190Y-112720952D01*
X193408571Y-112720952D01*
X193313333Y-112768571D01*
X193265714Y-112863809D01*
X193265714Y-113006666D01*
X193313333Y-113101904D01*
X193265714Y-113435238D02*
X193265714Y-113816190D01*
X192932380Y-113578095D02*
X193789523Y-113578095D01*
X193884761Y-113625714D01*
X193932380Y-113720952D01*
X193932380Y-113816190D01*
X193932380Y-114292380D02*
X193884761Y-114197142D01*
X193837142Y-114149523D01*
X193741904Y-114101904D01*
X193456190Y-114101904D01*
X193360952Y-114149523D01*
X193313333Y-114197142D01*
X193265714Y-114292380D01*
X193265714Y-114435238D01*
X193313333Y-114530476D01*
X193360952Y-114578095D01*
X193456190Y-114625714D01*
X193741904Y-114625714D01*
X193837142Y-114578095D01*
X193884761Y-114530476D01*
X193932380Y-114435238D01*
X193932380Y-114292380D01*
X193932380Y-115054285D02*
X193265714Y-115054285D01*
X193456190Y-115054285D02*
X193360952Y-115101904D01*
X193313333Y-115149523D01*
X193265714Y-115244761D01*
X193265714Y-115340000D01*
X193265714Y-115530476D02*
X193265714Y-115911428D01*
X192932380Y-115673333D02*
X193789523Y-115673333D01*
X193884761Y-115720952D01*
X193932380Y-115816190D01*
X193932380Y-115911428D01*
X193932380Y-116244761D02*
X193265714Y-116244761D01*
X192932380Y-116244761D02*
X192980000Y-116197142D01*
X193027619Y-116244761D01*
X192980000Y-116292380D01*
X192932380Y-116244761D01*
X193027619Y-116244761D01*
X193932380Y-116863809D02*
X193884761Y-116768571D01*
X193837142Y-116720952D01*
X193741904Y-116673333D01*
X193456190Y-116673333D01*
X193360952Y-116720952D01*
X193313333Y-116768571D01*
X193265714Y-116863809D01*
X193265714Y-117006666D01*
X193313333Y-117101904D01*
X193360952Y-117149523D01*
X193456190Y-117197142D01*
X193741904Y-117197142D01*
X193837142Y-117149523D01*
X193884761Y-117101904D01*
X193932380Y-117006666D01*
X193932380Y-116863809D01*
X193265714Y-117625714D02*
X193932380Y-117625714D01*
X193360952Y-117625714D02*
X193313333Y-117673333D01*
X193265714Y-117768571D01*
X193265714Y-117911428D01*
X193313333Y-118006666D01*
X193408571Y-118054285D01*
X193932380Y-118054285D01*
X195542380Y-100363809D02*
X194542380Y-100363809D01*
X195256666Y-100697142D01*
X194542380Y-101030476D01*
X195542380Y-101030476D01*
X195542380Y-101935238D02*
X195018571Y-101935238D01*
X194923333Y-101887619D01*
X194875714Y-101792380D01*
X194875714Y-101601904D01*
X194923333Y-101506666D01*
X195494761Y-101935238D02*
X195542380Y-101840000D01*
X195542380Y-101601904D01*
X195494761Y-101506666D01*
X195399523Y-101459047D01*
X195304285Y-101459047D01*
X195209047Y-101506666D01*
X195161428Y-101601904D01*
X195161428Y-101840000D01*
X195113809Y-101935238D01*
X195542380Y-102316190D02*
X194875714Y-102840000D01*
X194875714Y-102316190D02*
X195542380Y-102840000D01*
X195542380Y-103982857D02*
X194542380Y-103982857D01*
X194542380Y-104363809D01*
X194590000Y-104459047D01*
X194637619Y-104506666D01*
X194732857Y-104554285D01*
X194875714Y-104554285D01*
X194970952Y-104506666D01*
X195018571Y-104459047D01*
X195066190Y-104363809D01*
X195066190Y-103982857D01*
X195542380Y-104982857D02*
X194875714Y-104982857D01*
X195066190Y-104982857D02*
X194970952Y-105030476D01*
X194923333Y-105078095D01*
X194875714Y-105173333D01*
X194875714Y-105268571D01*
X195542380Y-105744761D02*
X195494761Y-105649523D01*
X195447142Y-105601904D01*
X195351904Y-105554285D01*
X195066190Y-105554285D01*
X194970952Y-105601904D01*
X194923333Y-105649523D01*
X194875714Y-105744761D01*
X194875714Y-105887619D01*
X194923333Y-105982857D01*
X194970952Y-106030476D01*
X195066190Y-106078095D01*
X195351904Y-106078095D01*
X195447142Y-106030476D01*
X195494761Y-105982857D01*
X195542380Y-105887619D01*
X195542380Y-105744761D01*
X195494761Y-106459047D02*
X195542380Y-106554285D01*
X195542380Y-106744761D01*
X195494761Y-106840000D01*
X195399523Y-106887619D01*
X195351904Y-106887619D01*
X195256666Y-106840000D01*
X195209047Y-106744761D01*
X195209047Y-106601904D01*
X195161428Y-106506666D01*
X195066190Y-106459047D01*
X195018571Y-106459047D01*
X194923333Y-106506666D01*
X194875714Y-106601904D01*
X194875714Y-106744761D01*
X194923333Y-106840000D01*
X195542380Y-107316190D02*
X194542380Y-107316190D01*
X195161428Y-107411428D02*
X195542380Y-107697142D01*
X194875714Y-107697142D02*
X195256666Y-107316190D01*
X195542380Y-108554285D02*
X195018571Y-108554285D01*
X194923333Y-108506666D01*
X194875714Y-108411428D01*
X194875714Y-108220952D01*
X194923333Y-108125714D01*
X195494761Y-108554285D02*
X195542380Y-108459047D01*
X195542380Y-108220952D01*
X195494761Y-108125714D01*
X195399523Y-108078095D01*
X195304285Y-108078095D01*
X195209047Y-108125714D01*
X195161428Y-108220952D01*
X195161428Y-108459047D01*
X195113809Y-108554285D01*
X194875714Y-109459047D02*
X195542380Y-109459047D01*
X194875714Y-109030476D02*
X195399523Y-109030476D01*
X195494761Y-109078095D01*
X195542380Y-109173333D01*
X195542380Y-109316190D01*
X195494761Y-109411428D01*
X195447142Y-109459047D01*
X195494761Y-110316190D02*
X195542380Y-110220952D01*
X195542380Y-110030476D01*
X195494761Y-109935238D01*
X195399523Y-109887619D01*
X195018571Y-109887619D01*
X194923333Y-109935238D01*
X194875714Y-110030476D01*
X194875714Y-110220952D01*
X194923333Y-110316190D01*
X195018571Y-110363809D01*
X195113809Y-110363809D01*
X195209047Y-109887619D01*
X195542380Y-110792380D02*
X194875714Y-110792380D01*
X195066190Y-110792380D02*
X194970952Y-110840000D01*
X194923333Y-110887619D01*
X194875714Y-110982857D01*
X194875714Y-111078095D01*
X194875714Y-112840000D02*
X195542380Y-113078095D01*
X194875714Y-113316190D01*
X194542380Y-113887619D02*
X194542380Y-113982857D01*
X194590000Y-114078095D01*
X194637619Y-114125714D01*
X194732857Y-114173333D01*
X194923333Y-114220952D01*
X195161428Y-114220952D01*
X195351904Y-114173333D01*
X195447142Y-114125714D01*
X195494761Y-114078095D01*
X195542380Y-113982857D01*
X195542380Y-113887619D01*
X195494761Y-113792380D01*
X195447142Y-113744761D01*
X195351904Y-113697142D01*
X195161428Y-113649523D01*
X194923333Y-113649523D01*
X194732857Y-113697142D01*
X194637619Y-113744761D01*
X194590000Y-113792380D01*
X194542380Y-113887619D01*
X195447142Y-114649523D02*
X195494761Y-114697142D01*
X195542380Y-114649523D01*
X195494761Y-114601904D01*
X195447142Y-114649523D01*
X195542380Y-114649523D01*
X194637619Y-115078095D02*
X194590000Y-115125714D01*
X194542380Y-115220952D01*
X194542380Y-115459047D01*
X194590000Y-115554285D01*
X194637619Y-115601904D01*
X194732857Y-115649523D01*
X194828095Y-115649523D01*
X194970952Y-115601904D01*
X195542380Y-115030476D01*
X195542380Y-115649523D01*
X195018571Y-117935238D02*
X195018571Y-117601904D01*
X195542380Y-117601904D02*
X194542380Y-117601904D01*
X194542380Y-118078095D01*
X195494761Y-118840000D02*
X195542380Y-118744761D01*
X195542380Y-118554285D01*
X195494761Y-118459047D01*
X195399523Y-118411428D01*
X195018571Y-118411428D01*
X194923333Y-118459047D01*
X194875714Y-118554285D01*
X194875714Y-118744761D01*
X194923333Y-118840000D01*
X195018571Y-118887619D01*
X195113809Y-118887619D01*
X195209047Y-118411428D01*
X195542380Y-119316190D02*
X194542380Y-119316190D01*
X194923333Y-119316190D02*
X194875714Y-119411428D01*
X194875714Y-119601904D01*
X194923333Y-119697142D01*
X194970952Y-119744761D01*
X195066190Y-119792380D01*
X195351904Y-119792380D01*
X195447142Y-119744761D01*
X195494761Y-119697142D01*
X195542380Y-119601904D01*
X195542380Y-119411428D01*
X195494761Y-119316190D01*
X194637619Y-120935238D02*
X194590000Y-120982857D01*
X194542380Y-121078095D01*
X194542380Y-121316190D01*
X194590000Y-121411428D01*
X194637619Y-121459047D01*
X194732857Y-121506666D01*
X194828095Y-121506666D01*
X194970952Y-121459047D01*
X195542380Y-120887619D01*
X195542380Y-121506666D01*
X194542380Y-122125714D02*
X194542380Y-122220952D01*
X194590000Y-122316190D01*
X194637619Y-122363809D01*
X194732857Y-122411428D01*
X194923333Y-122459047D01*
X195161428Y-122459047D01*
X195351904Y-122411428D01*
X195447142Y-122363809D01*
X195494761Y-122316190D01*
X195542380Y-122220952D01*
X195542380Y-122125714D01*
X195494761Y-122030476D01*
X195447142Y-121982857D01*
X195351904Y-121935238D01*
X195161428Y-121887619D01*
X194923333Y-121887619D01*
X194732857Y-121935238D01*
X194637619Y-121982857D01*
X194590000Y-122030476D01*
X194542380Y-122125714D01*
X194637619Y-122840000D02*
X194590000Y-122887619D01*
X194542380Y-122982857D01*
X194542380Y-123220952D01*
X194590000Y-123316190D01*
X194637619Y-123363809D01*
X194732857Y-123411428D01*
X194828095Y-123411428D01*
X194970952Y-123363809D01*
X195542380Y-122792380D01*
X195542380Y-123411428D01*
X194542380Y-123744761D02*
X194542380Y-124363809D01*
X194923333Y-124030476D01*
X194923333Y-124173333D01*
X194970952Y-124268571D01*
X195018571Y-124316190D01*
X195113809Y-124363809D01*
X195351904Y-124363809D01*
X195447142Y-124316190D01*
X195494761Y-124268571D01*
X195542380Y-124173333D01*
X195542380Y-123887619D01*
X195494761Y-123792380D01*
X195447142Y-123744761D01*
X197152380Y-95697142D02*
X196152380Y-95697142D01*
X197152380Y-96125714D02*
X196628571Y-96125714D01*
X196533333Y-96078095D01*
X196485714Y-95982857D01*
X196485714Y-95840000D01*
X196533333Y-95744761D01*
X196580952Y-95697142D01*
X196485714Y-96459047D02*
X196485714Y-96840000D01*
X196152380Y-96601904D02*
X197009523Y-96601904D01*
X197104761Y-96649523D01*
X197152380Y-96744761D01*
X197152380Y-96840000D01*
X196485714Y-97030476D02*
X196485714Y-97411428D01*
X196152380Y-97173333D02*
X197009523Y-97173333D01*
X197104761Y-97220952D01*
X197152380Y-97316190D01*
X197152380Y-97411428D01*
X196485714Y-97744761D02*
X197485714Y-97744761D01*
X196533333Y-97744761D02*
X196485714Y-97840000D01*
X196485714Y-98030476D01*
X196533333Y-98125714D01*
X196580952Y-98173333D01*
X196676190Y-98220952D01*
X196961904Y-98220952D01*
X197057142Y-98173333D01*
X197104761Y-98125714D01*
X197152380Y-98030476D01*
X197152380Y-97840000D01*
X197104761Y-97744761D01*
X197104761Y-98601904D02*
X197152380Y-98697142D01*
X197152380Y-98887619D01*
X197104761Y-98982857D01*
X197009523Y-99030476D01*
X196961904Y-99030476D01*
X196866666Y-98982857D01*
X196819047Y-98887619D01*
X196819047Y-98744761D01*
X196771428Y-98649523D01*
X196676190Y-98601904D01*
X196628571Y-98601904D01*
X196533333Y-98649523D01*
X196485714Y-98744761D01*
X196485714Y-98887619D01*
X196533333Y-98982857D01*
X197057142Y-99459047D02*
X197104761Y-99506666D01*
X197152380Y-99459047D01*
X197104761Y-99411428D01*
X197057142Y-99459047D01*
X197152380Y-99459047D01*
X196533333Y-99459047D02*
X196580952Y-99506666D01*
X196628571Y-99459047D01*
X196580952Y-99411428D01*
X196533333Y-99459047D01*
X196628571Y-99459047D01*
X196104761Y-100649523D02*
X197390476Y-99792380D01*
X196104761Y-101697142D02*
X197390476Y-100840000D01*
X196485714Y-102459047D02*
X197295238Y-102459047D01*
X197390476Y-102411428D01*
X197438095Y-102363809D01*
X197485714Y-102268571D01*
X197485714Y-102125714D01*
X197438095Y-102030476D01*
X197104761Y-102459047D02*
X197152380Y-102363809D01*
X197152380Y-102173333D01*
X197104761Y-102078095D01*
X197057142Y-102030476D01*
X196961904Y-101982857D01*
X196676190Y-101982857D01*
X196580952Y-102030476D01*
X196533333Y-102078095D01*
X196485714Y-102173333D01*
X196485714Y-102363809D01*
X196533333Y-102459047D01*
X197152380Y-102935238D02*
X196485714Y-102935238D01*
X196152380Y-102935238D02*
X196200000Y-102887619D01*
X196247619Y-102935238D01*
X196200000Y-102982857D01*
X196152380Y-102935238D01*
X196247619Y-102935238D01*
X196485714Y-103268571D02*
X196485714Y-103649523D01*
X196152380Y-103411428D02*
X197009523Y-103411428D01*
X197104761Y-103459047D01*
X197152380Y-103554285D01*
X197152380Y-103649523D01*
X197152380Y-103982857D02*
X196152380Y-103982857D01*
X197152380Y-104411428D02*
X196628571Y-104411428D01*
X196533333Y-104363809D01*
X196485714Y-104268571D01*
X196485714Y-104125714D01*
X196533333Y-104030476D01*
X196580952Y-103982857D01*
X196485714Y-105316190D02*
X197152380Y-105316190D01*
X196485714Y-104887619D02*
X197009523Y-104887619D01*
X197104761Y-104935238D01*
X197152380Y-105030476D01*
X197152380Y-105173333D01*
X197104761Y-105268571D01*
X197057142Y-105316190D01*
X197152380Y-105792380D02*
X196152380Y-105792380D01*
X196533333Y-105792380D02*
X196485714Y-105887619D01*
X196485714Y-106078095D01*
X196533333Y-106173333D01*
X196580952Y-106220952D01*
X196676190Y-106268571D01*
X196961904Y-106268571D01*
X197057142Y-106220952D01*
X197104761Y-106173333D01*
X197152380Y-106078095D01*
X197152380Y-105887619D01*
X197104761Y-105792380D01*
X197057142Y-106697142D02*
X197104761Y-106744761D01*
X197152380Y-106697142D01*
X197104761Y-106649523D01*
X197057142Y-106697142D01*
X197152380Y-106697142D01*
X197104761Y-107601904D02*
X197152380Y-107506666D01*
X197152380Y-107316190D01*
X197104761Y-107220952D01*
X197057142Y-107173333D01*
X196961904Y-107125714D01*
X196676190Y-107125714D01*
X196580952Y-107173333D01*
X196533333Y-107220952D01*
X196485714Y-107316190D01*
X196485714Y-107506666D01*
X196533333Y-107601904D01*
X197152380Y-108173333D02*
X197104761Y-108078095D01*
X197057142Y-108030476D01*
X196961904Y-107982857D01*
X196676190Y-107982857D01*
X196580952Y-108030476D01*
X196533333Y-108078095D01*
X196485714Y-108173333D01*
X196485714Y-108316190D01*
X196533333Y-108411428D01*
X196580952Y-108459047D01*
X196676190Y-108506666D01*
X196961904Y-108506666D01*
X197057142Y-108459047D01*
X197104761Y-108411428D01*
X197152380Y-108316190D01*
X197152380Y-108173333D01*
X197152380Y-108935238D02*
X196485714Y-108935238D01*
X196580952Y-108935238D02*
X196533333Y-108982857D01*
X196485714Y-109078095D01*
X196485714Y-109220952D01*
X196533333Y-109316190D01*
X196628571Y-109363809D01*
X197152380Y-109363809D01*
X196628571Y-109363809D02*
X196533333Y-109411428D01*
X196485714Y-109506666D01*
X196485714Y-109649523D01*
X196533333Y-109744761D01*
X196628571Y-109792380D01*
X197152380Y-109792380D01*
X196104761Y-110982857D02*
X197390476Y-110125714D01*
X197152380Y-111316190D02*
X196485714Y-111316190D01*
X196580952Y-111316190D02*
X196533333Y-111363809D01*
X196485714Y-111459047D01*
X196485714Y-111601904D01*
X196533333Y-111697142D01*
X196628571Y-111744761D01*
X197152380Y-111744761D01*
X196628571Y-111744761D02*
X196533333Y-111792380D01*
X196485714Y-111887619D01*
X196485714Y-112030476D01*
X196533333Y-112125714D01*
X196628571Y-112173333D01*
X197152380Y-112173333D01*
X196485714Y-112649523D02*
X197485714Y-112649523D01*
X196533333Y-112649523D02*
X196485714Y-112744761D01*
X196485714Y-112935238D01*
X196533333Y-113030476D01*
X196580952Y-113078095D01*
X196676190Y-113125714D01*
X196961904Y-113125714D01*
X197057142Y-113078095D01*
X197104761Y-113030476D01*
X197152380Y-112935238D01*
X197152380Y-112744761D01*
X197104761Y-112649523D01*
X197152380Y-113554285D02*
X196485714Y-113554285D01*
X196676190Y-113554285D02*
X196580952Y-113601904D01*
X196533333Y-113649523D01*
X196485714Y-113744761D01*
X196485714Y-113840000D01*
X197152380Y-114316190D02*
X197104761Y-114220952D01*
X197057142Y-114173333D01*
X196961904Y-114125714D01*
X196676190Y-114125714D01*
X196580952Y-114173333D01*
X196533333Y-114220952D01*
X196485714Y-114316190D01*
X196485714Y-114459047D01*
X196533333Y-114554285D01*
X196580952Y-114601904D01*
X196676190Y-114649523D01*
X196961904Y-114649523D01*
X197057142Y-114601904D01*
X197104761Y-114554285D01*
X197152380Y-114459047D01*
X197152380Y-114316190D01*
X197104761Y-115030476D02*
X197152380Y-115125714D01*
X197152380Y-115316190D01*
X197104761Y-115411428D01*
X197009523Y-115459047D01*
X196961904Y-115459047D01*
X196866666Y-115411428D01*
X196819047Y-115316190D01*
X196819047Y-115173333D01*
X196771428Y-115078095D01*
X196676190Y-115030476D01*
X196628571Y-115030476D01*
X196533333Y-115078095D01*
X196485714Y-115173333D01*
X196485714Y-115316190D01*
X196533333Y-115411428D01*
X197152380Y-115887619D02*
X196152380Y-115887619D01*
X196771428Y-115982857D02*
X197152380Y-116268571D01*
X196485714Y-116268571D02*
X196866666Y-115887619D01*
X196104761Y-117411428D02*
X197390476Y-116554285D01*
X196485714Y-117649523D02*
X197152380Y-117887619D01*
X196485714Y-118125714D01*
X197152380Y-118935238D02*
X196628571Y-118935238D01*
X196533333Y-118887619D01*
X196485714Y-118792380D01*
X196485714Y-118601904D01*
X196533333Y-118506666D01*
X197104761Y-118935238D02*
X197152380Y-118840000D01*
X197152380Y-118601904D01*
X197104761Y-118506666D01*
X197009523Y-118459047D01*
X196914285Y-118459047D01*
X196819047Y-118506666D01*
X196771428Y-118601904D01*
X196771428Y-118840000D01*
X196723809Y-118935238D01*
X197152380Y-119554285D02*
X197104761Y-119459047D01*
X197009523Y-119411428D01*
X196152380Y-119411428D01*
X196485714Y-119840000D02*
X197152380Y-120078095D01*
X196485714Y-120316190D01*
X197104761Y-121078095D02*
X197152380Y-120982857D01*
X197152380Y-120792380D01*
X197104761Y-120697142D01*
X197009523Y-120649523D01*
X196628571Y-120649523D01*
X196533333Y-120697142D01*
X196485714Y-120792380D01*
X196485714Y-120982857D01*
X196533333Y-121078095D01*
X196628571Y-121125714D01*
X196723809Y-121125714D01*
X196819047Y-120649523D01*
X197247619Y-121316190D02*
X197247619Y-122078095D01*
X197152380Y-122744761D02*
X196152380Y-122744761D01*
X197104761Y-122744761D02*
X197152380Y-122649523D01*
X197152380Y-122459047D01*
X197104761Y-122363809D01*
X197057142Y-122316190D01*
X196961904Y-122268571D01*
X196676190Y-122268571D01*
X196580952Y-122316190D01*
X196533333Y-122363809D01*
X196485714Y-122459047D01*
X196485714Y-122649523D01*
X196533333Y-122744761D01*
X197152380Y-123220952D02*
X196485714Y-123220952D01*
X196152380Y-123220952D02*
X196200000Y-123173333D01*
X196247619Y-123220952D01*
X196200000Y-123268571D01*
X196152380Y-123220952D01*
X196247619Y-123220952D01*
X197104761Y-123649523D02*
X197152380Y-123744761D01*
X197152380Y-123935238D01*
X197104761Y-124030476D01*
X197009523Y-124078095D01*
X196961904Y-124078095D01*
X196866666Y-124030476D01*
X196819047Y-123935238D01*
X196819047Y-123792380D01*
X196771428Y-123697142D01*
X196676190Y-123649523D01*
X196628571Y-123649523D01*
X196533333Y-123697142D01*
X196485714Y-123792380D01*
X196485714Y-123935238D01*
X196533333Y-124030476D01*
X196485714Y-124363809D02*
X196485714Y-124744761D01*
X196152380Y-124506666D02*
X197009523Y-124506666D01*
X197104761Y-124554285D01*
X197152380Y-124649523D01*
X197152380Y-124744761D01*
X197152380Y-125220952D02*
X197104761Y-125125714D01*
X197057142Y-125078095D01*
X196961904Y-125030476D01*
X196676190Y-125030476D01*
X196580952Y-125078095D01*
X196533333Y-125125714D01*
X196485714Y-125220952D01*
X196485714Y-125363809D01*
X196533333Y-125459047D01*
X196580952Y-125506666D01*
X196676190Y-125554285D01*
X196961904Y-125554285D01*
X197057142Y-125506666D01*
X197104761Y-125459047D01*
X197152380Y-125363809D01*
X197152380Y-125220952D01*
X197152380Y-125982857D02*
X196485714Y-125982857D01*
X196676190Y-125982857D02*
X196580952Y-126030476D01*
X196533333Y-126078095D01*
X196485714Y-126173333D01*
X196485714Y-126268571D01*
X196485714Y-126459047D02*
X196485714Y-126840000D01*
X196152380Y-126601904D02*
X197009523Y-126601904D01*
X197104761Y-126649523D01*
X197152380Y-126744761D01*
X197152380Y-126840000D01*
X197152380Y-127173333D02*
X196485714Y-127173333D01*
X196152380Y-127173333D02*
X196200000Y-127125714D01*
X196247619Y-127173333D01*
X196200000Y-127220952D01*
X196152380Y-127173333D01*
X196247619Y-127173333D01*
X197152380Y-127792380D02*
X197104761Y-127697142D01*
X197057142Y-127649523D01*
X196961904Y-127601904D01*
X196676190Y-127601904D01*
X196580952Y-127649523D01*
X196533333Y-127697142D01*
X196485714Y-127792380D01*
X196485714Y-127935238D01*
X196533333Y-128030476D01*
X196580952Y-128078095D01*
X196676190Y-128125714D01*
X196961904Y-128125714D01*
X197057142Y-128078095D01*
X197104761Y-128030476D01*
X197152380Y-127935238D01*
X197152380Y-127792380D01*
X196485714Y-128554285D02*
X197152380Y-128554285D01*
X196580952Y-128554285D02*
X196533333Y-128601904D01*
X196485714Y-128697142D01*
X196485714Y-128840000D01*
X196533333Y-128935238D01*
X196628571Y-128982857D01*
X197152380Y-128982857D01*
%TO.C,J3*%
X189073333Y-140367380D02*
X189073333Y-141081666D01*
X189120952Y-141224523D01*
X189216190Y-141319761D01*
X189359047Y-141367380D01*
X189454285Y-141367380D01*
X188692380Y-140367380D02*
X188073333Y-140367380D01*
X188406666Y-140748333D01*
X188263809Y-140748333D01*
X188168571Y-140795952D01*
X188120952Y-140843571D01*
X188073333Y-140938809D01*
X188073333Y-141176904D01*
X188120952Y-141272142D01*
X188168571Y-141319761D01*
X188263809Y-141367380D01*
X188549523Y-141367380D01*
X188644761Y-141319761D01*
X188692380Y-141272142D01*
%TO.C,D5*%
X179318095Y-70247380D02*
X179318095Y-69247380D01*
X179080000Y-69247380D01*
X178937142Y-69295000D01*
X178841904Y-69390238D01*
X178794285Y-69485476D01*
X178746666Y-69675952D01*
X178746666Y-69818809D01*
X178794285Y-70009285D01*
X178841904Y-70104523D01*
X178937142Y-70199761D01*
X179080000Y-70247380D01*
X179318095Y-70247380D01*
X177841904Y-69247380D02*
X178318095Y-69247380D01*
X178365714Y-69723571D01*
X178318095Y-69675952D01*
X178222857Y-69628333D01*
X177984761Y-69628333D01*
X177889523Y-69675952D01*
X177841904Y-69723571D01*
X177794285Y-69818809D01*
X177794285Y-70056904D01*
X177841904Y-70152142D01*
X177889523Y-70199761D01*
X177984761Y-70247380D01*
X178222857Y-70247380D01*
X178318095Y-70199761D01*
X178365714Y-70152142D01*
D11*
%TO.C,J3*%
X193320000Y-141150000D02*
X193820000Y-140150000D01*
X197730000Y-131950000D02*
X179750000Y-131950000D01*
X186690000Y-138450000D02*
X186690000Y-139760000D01*
X179750000Y-138450000D02*
X186690000Y-138450000D01*
X179750000Y-131950000D02*
X179750000Y-138450000D01*
X194320000Y-141150000D02*
X193320000Y-141150000D01*
X178450000Y-139760000D02*
X199030000Y-139760000D01*
X193820000Y-140150000D02*
X194320000Y-141150000D01*
X178450000Y-130640000D02*
X178450000Y-139760000D01*
X199030000Y-130640000D02*
X178450000Y-130640000D01*
X186690000Y-138450000D02*
X186690000Y-138450000D01*
X190790000Y-138450000D02*
X197730000Y-138450000D01*
X190790000Y-139760000D02*
X190790000Y-138450000D01*
X199030000Y-139760000D02*
X199030000Y-130640000D01*
X197730000Y-138450000D02*
X197730000Y-131950000D01*
%TO.C,D5*%
X180140000Y-67700000D02*
X180140000Y-67856000D01*
X180140000Y-65384000D02*
X180140000Y-65540000D01*
X180140000Y-65384484D02*
G75*
G03*
X176907665Y-65541392I-1560000J-1235516D01*
G01*
X176907665Y-67698608D02*
G75*
G03*
X180140000Y-67855516I1672335J1078608D01*
G01*
X179620961Y-65540000D02*
G75*
G03*
X177538870Y-65540163I-1040961J-1080000D01*
G01*
X177538870Y-67699837D02*
G75*
G03*
X179620961Y-67700000I1041130J1079837D01*
G01*
%TD*%
%LPC*%
D12*
%TO.C,U1*%
X158270000Y-66630000D03*
D13*
X158270000Y-69170000D03*
X158270000Y-71710000D03*
X158270000Y-74250000D03*
X165890000Y-74250000D03*
X165890000Y-71710000D03*
X165890000Y-69170000D03*
X165890000Y-66630000D03*
%TD*%
D14*
%TO.C,R16*%
X165880000Y-132660000D03*
D13*
X165880000Y-142820000D03*
%TD*%
D14*
%TO.C,R3*%
X155720000Y-69160000D03*
D13*
X155720000Y-59000000D03*
%TD*%
D15*
%TO.C,SW2*%
X188930500Y-84781000D03*
X188930500Y-89480000D03*
X188930500Y-94179000D03*
X193629500Y-84781000D03*
X193629500Y-89480000D03*
X193629500Y-94179000D03*
%TD*%
D14*
%TO.C,C5*%
X172230000Y-51380000D03*
X169730000Y-51380000D03*
%TD*%
D16*
%TO.C,RV2*%
X196030000Y-150440000D03*
X186530000Y-150440000D03*
D17*
X193780000Y-142940000D03*
D18*
X191280000Y-142940000D03*
X188780000Y-142940000D03*
%TD*%
D19*
%TO.C,H1*%
X178580000Y-64080000D03*
%TD*%
D14*
%TO.C,R19*%
X183660000Y-79320000D03*
D13*
X183660000Y-89480000D03*
%TD*%
D20*
%TO.C,D2*%
X158260000Y-122495000D03*
D21*
X158260000Y-130115000D03*
%TD*%
D14*
%TO.C,R20*%
X176040000Y-85670000D03*
D13*
X176040000Y-75510000D03*
%TD*%
D12*
%TO.C,C16*%
X184930000Y-128850000D03*
D14*
X187430000Y-128850000D03*
%TD*%
%TO.C,R13*%
X167150000Y-97100000D03*
D13*
X167150000Y-107260000D03*
%TD*%
D14*
%TO.C,C8*%
X191280000Y-64080000D03*
X193780000Y-64080000D03*
%TD*%
D22*
%TO.C,Q1*%
X179850000Y-80590000D03*
D23*
X179850000Y-79320000D03*
X179850000Y-78050000D03*
%TD*%
D12*
%TO.C,C10*%
X186200000Y-74280000D03*
D14*
X186200000Y-76780000D03*
%TD*%
%TO.C,C17*%
X155730000Y-71740000D03*
X155730000Y-74240000D03*
%TD*%
%TO.C,R6*%
X184930000Y-51380000D03*
D13*
X174770000Y-51380000D03*
%TD*%
D16*
%TO.C,RV1*%
X183330000Y-119960000D03*
X173830000Y-119960000D03*
D17*
X181080000Y-112460000D03*
D18*
X178580000Y-112460000D03*
X176080000Y-112460000D03*
%TD*%
D14*
%TO.C,R11*%
X163340000Y-97100000D03*
D13*
X163340000Y-107260000D03*
%TD*%
D14*
%TO.C,R5*%
X198900000Y-114880000D03*
D13*
X188740000Y-114880000D03*
%TD*%
D24*
%TO.C,J1*%
X154830000Y-151040000D03*
D25*
X164230000Y-151040000D03*
D26*
X159530000Y-145640000D03*
X159530000Y-153740000D03*
%TD*%
D14*
%TO.C,R17*%
X168420000Y-132660000D03*
D13*
X168420000Y-142820000D03*
%TD*%
D15*
%TO.C,SW1*%
X163530500Y-84781000D03*
X163530500Y-89480000D03*
X163530500Y-94179000D03*
X168229500Y-84781000D03*
X168229500Y-89480000D03*
X168229500Y-94179000D03*
%TD*%
D14*
%TO.C,R2*%
X155720000Y-132660000D03*
D13*
X155720000Y-142820000D03*
%TD*%
D12*
%TO.C,C12*%
X168420000Y-112340000D03*
D14*
X168420000Y-109840000D03*
%TD*%
%TO.C,C19*%
X184930000Y-104680000D03*
X184930000Y-102180000D03*
%TD*%
%TO.C,C7*%
X191200000Y-61540000D03*
X191200000Y-59040000D03*
%TD*%
%TO.C,C3*%
X167150000Y-59000000D03*
X164650000Y-59000000D03*
%TD*%
D25*
%TO.C,J2*%
X176930000Y-151040000D03*
D24*
X167530000Y-151040000D03*
D26*
X172230000Y-145640000D03*
X172230000Y-153740000D03*
%TD*%
D14*
%TO.C,C9*%
X191280000Y-66620000D03*
X193780000Y-66620000D03*
%TD*%
%TO.C,C11*%
X168430000Y-69160000D03*
X168430000Y-71660000D03*
%TD*%
%TO.C,R12*%
X168430000Y-79320000D03*
D13*
X158270000Y-79320000D03*
%TD*%
D12*
%TO.C,C14*%
X170960000Y-130120000D03*
D14*
X173460000Y-130120000D03*
%TD*%
%TO.C,C18*%
X165880000Y-64080000D03*
X163380000Y-64080000D03*
%TD*%
%TO.C,R4*%
X170960000Y-53920000D03*
D13*
X160800000Y-53920000D03*
%TD*%
D14*
%TO.C,R10*%
X158260000Y-84400000D03*
D13*
X158260000Y-94560000D03*
%TD*%
D20*
%TO.C,D1*%
X155720000Y-130120000D03*
D21*
X155720000Y-122500000D03*
%TD*%
D12*
%TO.C,C2*%
X160800000Y-130120000D03*
D14*
X163300000Y-130120000D03*
%TD*%
D12*
%TO.C,C15*%
X191320000Y-128850000D03*
D14*
X193820000Y-128850000D03*
%TD*%
D27*
%TO.C,RV3*%
X190010000Y-104720000D03*
X190010000Y-102180000D03*
X190010000Y-99640000D03*
%TD*%
D14*
%TO.C,R18*%
X173500000Y-85670000D03*
D13*
X173500000Y-75510000D03*
%TD*%
D14*
%TO.C,R14*%
X169690000Y-97100000D03*
D13*
X169690000Y-107260000D03*
%TD*%
D28*
%TO.C,J3*%
X193820000Y-136470000D03*
D29*
X193820000Y-133930000D03*
X191280000Y-136470000D03*
X191280000Y-133930000D03*
X188740000Y-136470000D03*
X188740000Y-133930000D03*
X186200000Y-136470000D03*
X186200000Y-133930000D03*
X183660000Y-136470000D03*
X183660000Y-133930000D03*
%TD*%
D14*
%TO.C,C13*%
X169690000Y-117380000D03*
X169690000Y-114880000D03*
%TD*%
D20*
%TO.C,D3*%
X168420000Y-130120000D03*
D21*
X168420000Y-122500000D03*
%TD*%
D30*
%TO.C,U2*%
X182030000Y-68830000D03*
X184180000Y-65900000D03*
X184180000Y-62250000D03*
X182030000Y-59320000D03*
X178580000Y-58180000D03*
X175120000Y-59320000D03*
X172970000Y-62250000D03*
X172970000Y-65860000D03*
X175120000Y-68830000D03*
%TD*%
D17*
%TO.C,D5*%
X179850000Y-66620000D03*
D18*
X177310000Y-66620000D03*
%TD*%
D14*
%TO.C,R7*%
X193820000Y-61540000D03*
D13*
X193820000Y-51380000D03*
%TD*%
D14*
%TO.C,C4*%
X168420000Y-56460000D03*
X165920000Y-56460000D03*
%TD*%
%TO.C,C6*%
X170960000Y-74240000D03*
X170960000Y-76740000D03*
%TD*%
%TO.C,R1*%
X158260000Y-142820000D03*
D13*
X158260000Y-132660000D03*
%TD*%
D14*
%TO.C,C1*%
X160800000Y-132660000D03*
X160800000Y-137660000D03*
%TD*%
%TO.C,R15*%
X172230000Y-104720000D03*
D13*
X172230000Y-114880000D03*
%TD*%
D17*
%TO.C,D6*%
X177310000Y-89480000D03*
D18*
X179850000Y-89480000D03*
%TD*%
D14*
%TO.C,R9*%
X168430000Y-76780000D03*
D13*
X158270000Y-76780000D03*
%TD*%
D12*
%TO.C,U3*%
X174770000Y-94560000D03*
D13*
X174770000Y-97100000D03*
X174770000Y-99640000D03*
X174770000Y-102180000D03*
X174770000Y-104720000D03*
X174770000Y-107260000D03*
X174770000Y-109800000D03*
X182390000Y-109800000D03*
X182390000Y-107260000D03*
X182390000Y-104720000D03*
X182390000Y-102180000D03*
X182390000Y-99640000D03*
X182390000Y-97100000D03*
X182390000Y-94560000D03*
%TD*%
D20*
%TO.C,D4*%
X165880000Y-122500000D03*
D21*
X165880000Y-130120000D03*
%TD*%
D14*
%TO.C,C20*%
X172230000Y-102140000D03*
X172230000Y-99640000D03*
%TD*%
%TO.C,R8*%
X198900000Y-69160000D03*
D13*
X188740000Y-69160000D03*
%TD*%
M02*
